<?xml version="1.0" encoding="utf-8"?>
<svg xmlns="http://www.w3.org/2000/svg" xmlns:xlink="http://www.w3.org/1999/xlink" width="600" height="400" viewBox="0 0 2400 1600">
<defs>
  <clipPath id="clip550">
    <rect x="0" y="0" width="2400" height="1600"/>
  </clipPath>
</defs>
<path clip-path="url(#clip550)" d="
M0 1600 L2400 1600 L2400 0 L0 0  Z
  " fill="#ffffff" fill-rule="evenodd" fill-opacity="1"/>
<defs>
  <clipPath id="clip551">
    <rect x="480" y="0" width="1681" height="1600"/>
  </clipPath>
</defs>
<path clip-path="url(#clip550)" d="
M655.394 1486.45 L2352.76 1486.45 L2352.76 123.472 L655.394 123.472  Z
  " fill="#ffffff" fill-rule="evenodd" fill-opacity="1"/>
<defs>
  <clipPath id="clip552">
    <rect x="655" y="123" width="1698" height="1364"/>
  </clipPath>
</defs>
<polyline clip-path="url(#clip552)" style="stroke:#000000; stroke-linecap:butt; stroke-linejoin:round; stroke-width:2; stroke-opacity:0.1; fill:none" points="
  703.433,1486.45 703.433,123.472 
  "/>
<polyline clip-path="url(#clip552)" style="stroke:#000000; stroke-linecap:butt; stroke-linejoin:round; stroke-width:2; stroke-opacity:0.1; fill:none" points="
  994.576,1486.45 994.576,123.472 
  "/>
<polyline clip-path="url(#clip552)" style="stroke:#000000; stroke-linecap:butt; stroke-linejoin:round; stroke-width:2; stroke-opacity:0.1; fill:none" points="
  1285.72,1486.45 1285.72,123.472 
  "/>
<polyline clip-path="url(#clip552)" style="stroke:#000000; stroke-linecap:butt; stroke-linejoin:round; stroke-width:2; stroke-opacity:0.1; fill:none" points="
  1576.86,1486.45 1576.86,123.472 
  "/>
<polyline clip-path="url(#clip552)" style="stroke:#000000; stroke-linecap:butt; stroke-linejoin:round; stroke-width:2; stroke-opacity:0.1; fill:none" points="
  1868,1486.45 1868,123.472 
  "/>
<polyline clip-path="url(#clip552)" style="stroke:#000000; stroke-linecap:butt; stroke-linejoin:round; stroke-width:2; stroke-opacity:0.1; fill:none" points="
  2159.15,1486.45 2159.15,123.472 
  "/>
<polyline clip-path="url(#clip550)" style="stroke:#000000; stroke-linecap:butt; stroke-linejoin:round; stroke-width:4; stroke-opacity:1; fill:none" points="
  655.394,1486.45 2352.76,1486.45 
  "/>
<polyline clip-path="url(#clip550)" style="stroke:#000000; stroke-linecap:butt; stroke-linejoin:round; stroke-width:4; stroke-opacity:1; fill:none" points="
  703.433,1486.45 703.433,1467.55 
  "/>
<polyline clip-path="url(#clip550)" style="stroke:#000000; stroke-linecap:butt; stroke-linejoin:round; stroke-width:4; stroke-opacity:1; fill:none" points="
  994.576,1486.45 994.576,1467.55 
  "/>
<polyline clip-path="url(#clip550)" style="stroke:#000000; stroke-linecap:butt; stroke-linejoin:round; stroke-width:4; stroke-opacity:1; fill:none" points="
  1285.72,1486.45 1285.72,1467.55 
  "/>
<polyline clip-path="url(#clip550)" style="stroke:#000000; stroke-linecap:butt; stroke-linejoin:round; stroke-width:4; stroke-opacity:1; fill:none" points="
  1576.86,1486.45 1576.86,1467.55 
  "/>
<polyline clip-path="url(#clip550)" style="stroke:#000000; stroke-linecap:butt; stroke-linejoin:round; stroke-width:4; stroke-opacity:1; fill:none" points="
  1868,1486.45 1868,1467.55 
  "/>
<polyline clip-path="url(#clip550)" style="stroke:#000000; stroke-linecap:butt; stroke-linejoin:round; stroke-width:4; stroke-opacity:1; fill:none" points="
  2159.15,1486.45 2159.15,1467.55 
  "/>
<path clip-path="url(#clip550)" d="M703.433 1517.37 Q699.822 1517.37 697.993 1520.93 Q696.188 1524.47 696.188 1531.6 Q696.188 1538.71 697.993 1542.27 Q699.822 1545.82 703.433 1545.82 Q707.067 1545.82 708.873 1542.27 Q710.701 1538.71 710.701 1531.6 Q710.701 1524.47 708.873 1520.93 Q707.067 1517.37 703.433 1517.37 M703.433 1513.66 Q709.243 1513.66 712.299 1518.27 Q715.377 1522.85 715.377 1531.6 Q715.377 1540.33 712.299 1544.94 Q709.243 1549.52 703.433 1549.52 Q697.623 1549.52 694.544 1544.94 Q691.489 1540.33 691.489 1531.6 Q691.489 1522.85 694.544 1518.27 Q697.623 1513.66 703.433 1513.66 Z" fill="#000000" fill-rule="evenodd" fill-opacity="1" /><path clip-path="url(#clip550)" d="M984.958 1544.91 L992.596 1544.91 L992.596 1518.55 L984.286 1520.21 L984.286 1515.95 L992.55 1514.29 L997.226 1514.29 L997.226 1544.91 L1004.86 1544.91 L1004.86 1548.85 L984.958 1548.85 L984.958 1544.91 Z" fill="#000000" fill-rule="evenodd" fill-opacity="1" /><path clip-path="url(#clip550)" d="M1280.37 1544.91 L1296.69 1544.91 L1296.69 1548.85 L1274.75 1548.85 L1274.75 1544.91 Q1277.41 1542.16 1281.99 1537.53 Q1286.6 1532.88 1287.78 1531.53 Q1290.02 1529.01 1290.9 1527.27 Q1291.81 1525.51 1291.81 1523.82 Q1291.81 1521.07 1289.86 1519.33 Q1287.94 1517.6 1284.84 1517.6 Q1282.64 1517.6 1280.19 1518.36 Q1277.76 1519.13 1274.98 1520.68 L1274.98 1515.95 Q1277.8 1514.82 1280.26 1514.24 Q1282.71 1513.66 1284.75 1513.66 Q1290.12 1513.66 1293.31 1516.35 Q1296.51 1519.03 1296.51 1523.52 Q1296.51 1525.65 1295.69 1527.57 Q1294.91 1529.47 1292.8 1532.07 Q1292.22 1532.74 1289.12 1535.95 Q1286.02 1539.15 1280.37 1544.91 Z" fill="#000000" fill-rule="evenodd" fill-opacity="1" /><path clip-path="url(#clip550)" d="M1581.11 1530.21 Q1584.46 1530.93 1586.34 1533.2 Q1588.24 1535.47 1588.24 1538.8 Q1588.24 1543.92 1584.72 1546.72 Q1581.2 1549.52 1574.72 1549.52 Q1572.54 1549.52 1570.23 1549.08 Q1567.94 1548.66 1565.48 1547.81 L1565.48 1543.29 Q1567.43 1544.43 1569.74 1545.01 Q1572.06 1545.58 1574.58 1545.58 Q1578.98 1545.58 1581.27 1543.85 Q1583.59 1542.11 1583.59 1538.8 Q1583.59 1535.75 1581.43 1534.03 Q1579.3 1532.3 1575.48 1532.3 L1571.46 1532.3 L1571.46 1528.45 L1575.67 1528.45 Q1579.12 1528.45 1580.95 1527.09 Q1582.78 1525.7 1582.78 1523.11 Q1582.78 1520.45 1580.88 1519.03 Q1579 1517.6 1575.48 1517.6 Q1573.56 1517.6 1571.36 1518.01 Q1569.16 1518.43 1566.53 1519.31 L1566.53 1515.14 Q1569.19 1514.4 1571.5 1514.03 Q1573.84 1513.66 1575.9 1513.66 Q1581.22 1513.66 1584.33 1516.09 Q1587.43 1518.5 1587.43 1522.62 Q1587.43 1525.49 1585.78 1527.48 Q1584.14 1529.45 1581.11 1530.21 Z" fill="#000000" fill-rule="evenodd" fill-opacity="1" /><path clip-path="url(#clip550)" d="M1871.01 1518.36 L1859.21 1536.81 L1871.01 1536.81 L1871.01 1518.36 M1869.79 1514.29 L1875.67 1514.29 L1875.67 1536.81 L1880.6 1536.81 L1880.6 1540.7 L1875.67 1540.7 L1875.67 1548.85 L1871.01 1548.85 L1871.01 1540.7 L1855.41 1540.7 L1855.41 1536.19 L1869.79 1514.29 Z" fill="#000000" fill-rule="evenodd" fill-opacity="1" /><path clip-path="url(#clip550)" d="M2149.42 1514.29 L2167.78 1514.29 L2167.78 1518.22 L2153.71 1518.22 L2153.71 1526.7 Q2154.72 1526.35 2155.74 1526.19 Q2156.76 1526 2157.78 1526 Q2163.57 1526 2166.95 1529.17 Q2170.33 1532.34 2170.33 1537.76 Q2170.33 1543.34 2166.85 1546.44 Q2163.38 1549.52 2157.06 1549.52 Q2154.89 1549.52 2152.62 1549.15 Q2150.37 1548.78 2147.97 1548.04 L2147.97 1543.34 Q2150.05 1544.47 2152.27 1545.03 Q2154.49 1545.58 2156.97 1545.58 Q2160.97 1545.58 2163.31 1543.48 Q2165.65 1541.37 2165.65 1537.76 Q2165.65 1534.15 2163.31 1532.04 Q2160.97 1529.94 2156.97 1529.94 Q2155.1 1529.94 2153.22 1530.35 Q2151.37 1530.77 2149.42 1531.65 L2149.42 1514.29 Z" fill="#000000" fill-rule="evenodd" fill-opacity="1" /><polyline clip-path="url(#clip552)" style="stroke:#000000; stroke-linecap:butt; stroke-linejoin:round; stroke-width:2; stroke-opacity:0.1; fill:none" points="
  655.394,1373.11 2352.76,1373.11 
  "/>
<polyline clip-path="url(#clip552)" style="stroke:#000000; stroke-linecap:butt; stroke-linejoin:round; stroke-width:2; stroke-opacity:0.1; fill:none" points="
  655.394,1089.08 2352.76,1089.08 
  "/>
<polyline clip-path="url(#clip552)" style="stroke:#000000; stroke-linecap:butt; stroke-linejoin:round; stroke-width:2; stroke-opacity:0.1; fill:none" points="
  655.394,805.059 2352.76,805.059 
  "/>
<polyline clip-path="url(#clip552)" style="stroke:#000000; stroke-linecap:butt; stroke-linejoin:round; stroke-width:2; stroke-opacity:0.1; fill:none" points="
  655.394,521.035 2352.76,521.035 
  "/>
<polyline clip-path="url(#clip552)" style="stroke:#000000; stroke-linecap:butt; stroke-linejoin:round; stroke-width:2; stroke-opacity:0.1; fill:none" points="
  655.394,237.01 2352.76,237.01 
  "/>
<polyline clip-path="url(#clip550)" style="stroke:#000000; stroke-linecap:butt; stroke-linejoin:round; stroke-width:4; stroke-opacity:1; fill:none" points="
  655.394,1486.45 655.394,123.472 
  "/>
<polyline clip-path="url(#clip550)" style="stroke:#000000; stroke-linecap:butt; stroke-linejoin:round; stroke-width:4; stroke-opacity:1; fill:none" points="
  655.394,1373.11 670.253,1373.11 
  "/>
<polyline clip-path="url(#clip550)" style="stroke:#000000; stroke-linecap:butt; stroke-linejoin:round; stroke-width:4; stroke-opacity:1; fill:none" points="
  655.394,1089.08 670.253,1089.08 
  "/>
<polyline clip-path="url(#clip550)" style="stroke:#000000; stroke-linecap:butt; stroke-linejoin:round; stroke-width:4; stroke-opacity:1; fill:none" points="
  655.394,805.059 670.253,805.059 
  "/>
<polyline clip-path="url(#clip550)" style="stroke:#000000; stroke-linecap:butt; stroke-linejoin:round; stroke-width:4; stroke-opacity:1; fill:none" points="
  655.394,521.035 670.253,521.035 
  "/>
<polyline clip-path="url(#clip550)" style="stroke:#000000; stroke-linecap:butt; stroke-linejoin:round; stroke-width:4; stroke-opacity:1; fill:none" points="
  655.394,237.01 670.253,237.01 
  "/>
<path clip-path="url(#clip550)" d="M512.45 1373.56 L542.126 1373.56 L542.126 1377.5 L512.45 1377.5 L512.45 1373.56 Z" fill="#000000" fill-rule="evenodd" fill-opacity="1" /><path clip-path="url(#clip550)" d="M553.029 1386.45 L560.668 1386.45 L560.668 1360.09 L552.358 1361.75 L552.358 1357.5 L560.622 1355.83 L565.297 1355.83 L565.297 1386.45 L572.936 1386.45 L572.936 1390.39 L553.029 1390.39 L553.029 1386.45 Z" fill="#000000" fill-rule="evenodd" fill-opacity="1" /><path clip-path="url(#clip550)" d="M582.381 1384.51 L587.265 1384.51 L587.265 1390.39 L582.381 1390.39 L582.381 1384.51 Z" fill="#000000" fill-rule="evenodd" fill-opacity="1" /><path clip-path="url(#clip550)" d="M607.45 1358.91 Q603.839 1358.91 602.01 1362.47 Q600.205 1366.01 600.205 1373.14 Q600.205 1380.25 602.01 1383.81 Q603.839 1387.36 607.45 1387.36 Q611.084 1387.36 612.89 1383.81 Q614.718 1380.25 614.718 1373.14 Q614.718 1366.01 612.89 1362.47 Q611.084 1358.91 607.45 1358.91 M607.45 1355.2 Q613.26 1355.2 616.316 1359.81 Q619.394 1364.39 619.394 1373.14 Q619.394 1381.87 616.316 1386.48 Q613.26 1391.06 607.45 1391.06 Q601.64 1391.06 598.561 1386.48 Q595.506 1381.87 595.506 1373.14 Q595.506 1364.39 598.561 1359.81 Q601.64 1355.2 607.45 1355.2 Z" fill="#000000" fill-rule="evenodd" fill-opacity="1" /><path clip-path="url(#clip550)" d="M513.446 1089.54 L543.122 1089.54 L543.122 1093.47 L513.446 1093.47 L513.446 1089.54 Z" fill="#000000" fill-rule="evenodd" fill-opacity="1" /><path clip-path="url(#clip550)" d="M563.214 1074.88 Q559.603 1074.88 557.774 1078.45 Q555.969 1081.99 555.969 1089.12 Q555.969 1096.23 557.774 1099.79 Q559.603 1103.33 563.214 1103.33 Q566.848 1103.33 568.654 1099.79 Q570.483 1096.23 570.483 1089.12 Q570.483 1081.99 568.654 1078.45 Q566.848 1074.88 563.214 1074.88 M563.214 1071.18 Q569.024 1071.18 572.08 1075.79 Q575.158 1080.37 575.158 1089.12 Q575.158 1097.85 572.08 1102.45 Q569.024 1107.04 563.214 1107.04 Q557.404 1107.04 554.325 1102.45 Q551.27 1097.85 551.27 1089.12 Q551.27 1080.37 554.325 1075.79 Q557.404 1071.18 563.214 1071.18 Z" fill="#000000" fill-rule="evenodd" fill-opacity="1" /><path clip-path="url(#clip550)" d="M583.376 1100.48 L588.26 1100.48 L588.26 1106.36 L583.376 1106.36 L583.376 1100.48 Z" fill="#000000" fill-rule="evenodd" fill-opacity="1" /><path clip-path="url(#clip550)" d="M598.492 1071.8 L616.848 1071.8 L616.848 1075.74 L602.774 1075.74 L602.774 1084.21 Q603.793 1083.86 604.811 1083.7 Q605.83 1083.52 606.848 1083.52 Q612.635 1083.52 616.015 1086.69 Q619.394 1089.86 619.394 1095.28 Q619.394 1100.85 615.922 1103.96 Q612.45 1107.04 606.131 1107.04 Q603.955 1107.04 601.686 1106.66 Q599.441 1106.29 597.033 1105.55 L597.033 1100.85 Q599.117 1101.99 601.339 1102.54 Q603.561 1103.1 606.038 1103.1 Q610.043 1103.1 612.381 1100.99 Q614.718 1098.89 614.718 1095.28 Q614.718 1091.67 612.381 1089.56 Q610.043 1087.45 606.038 1087.45 Q604.163 1087.45 602.288 1087.87 Q600.436 1088.29 598.492 1089.17 L598.492 1071.8 Z" fill="#000000" fill-rule="evenodd" fill-opacity="1" /><path clip-path="url(#clip550)" d="M562.219 790.858 Q558.608 790.858 556.779 794.423 Q554.973 797.964 554.973 805.094 Q554.973 812.2 556.779 815.765 Q558.608 819.307 562.219 819.307 Q565.853 819.307 567.659 815.765 Q569.487 812.2 569.487 805.094 Q569.487 797.964 567.659 794.423 Q565.853 790.858 562.219 790.858 M562.219 787.154 Q568.029 787.154 571.084 791.761 Q574.163 796.344 574.163 805.094 Q574.163 813.821 571.084 818.427 Q568.029 823.011 562.219 823.011 Q556.409 823.011 553.33 818.427 Q550.274 813.821 550.274 805.094 Q550.274 796.344 553.33 791.761 Q556.409 787.154 562.219 787.154 Z" fill="#000000" fill-rule="evenodd" fill-opacity="1" /><path clip-path="url(#clip550)" d="M582.381 816.46 L587.265 816.46 L587.265 822.339 L582.381 822.339 L582.381 816.46 Z" fill="#000000" fill-rule="evenodd" fill-opacity="1" /><path clip-path="url(#clip550)" d="M607.45 790.858 Q603.839 790.858 602.01 794.423 Q600.205 797.964 600.205 805.094 Q600.205 812.2 602.01 815.765 Q603.839 819.307 607.45 819.307 Q611.084 819.307 612.89 815.765 Q614.718 812.2 614.718 805.094 Q614.718 797.964 612.89 794.423 Q611.084 790.858 607.45 790.858 M607.45 787.154 Q613.26 787.154 616.316 791.761 Q619.394 796.344 619.394 805.094 Q619.394 813.821 616.316 818.427 Q613.26 823.011 607.45 823.011 Q601.64 823.011 598.561 818.427 Q595.506 813.821 595.506 805.094 Q595.506 796.344 598.561 791.761 Q601.64 787.154 607.45 787.154 Z" fill="#000000" fill-rule="evenodd" fill-opacity="1" /><path clip-path="url(#clip550)" d="M563.214 506.833 Q559.603 506.833 557.774 510.398 Q555.969 513.94 555.969 521.069 Q555.969 528.176 557.774 531.741 Q559.603 535.282 563.214 535.282 Q566.848 535.282 568.654 531.741 Q570.483 528.176 570.483 521.069 Q570.483 513.94 568.654 510.398 Q566.848 506.833 563.214 506.833 M563.214 503.13 Q569.024 503.13 572.08 507.736 Q575.158 512.319 575.158 521.069 Q575.158 529.796 572.08 534.403 Q569.024 538.986 563.214 538.986 Q557.404 538.986 554.325 534.403 Q551.27 529.796 551.27 521.069 Q551.27 512.319 554.325 507.736 Q557.404 503.13 563.214 503.13 Z" fill="#000000" fill-rule="evenodd" fill-opacity="1" /><path clip-path="url(#clip550)" d="M583.376 532.435 L588.26 532.435 L588.26 538.315 L583.376 538.315 L583.376 532.435 Z" fill="#000000" fill-rule="evenodd" fill-opacity="1" /><path clip-path="url(#clip550)" d="M598.492 503.755 L616.848 503.755 L616.848 507.69 L602.774 507.69 L602.774 516.162 Q603.793 515.815 604.811 515.653 Q605.83 515.467 606.848 515.467 Q612.635 515.467 616.015 518.639 Q619.394 521.81 619.394 527.227 Q619.394 532.805 615.922 535.907 Q612.45 538.986 606.131 538.986 Q603.955 538.986 601.686 538.616 Q599.441 538.245 597.033 537.504 L597.033 532.805 Q599.117 533.94 601.339 534.495 Q603.561 535.051 606.038 535.051 Q610.043 535.051 612.381 532.944 Q614.718 530.838 614.718 527.227 Q614.718 523.616 612.381 521.509 Q610.043 519.403 606.038 519.403 Q604.163 519.403 602.288 519.819 Q600.436 520.236 598.492 521.116 L598.492 503.755 Z" fill="#000000" fill-rule="evenodd" fill-opacity="1" /><path clip-path="url(#clip550)" d="M553.029 250.355 L560.668 250.355 L560.668 223.989 L552.358 225.656 L552.358 221.397 L560.622 219.73 L565.297 219.73 L565.297 250.355 L572.936 250.355 L572.936 254.29 L553.029 254.29 L553.029 250.355 Z" fill="#000000" fill-rule="evenodd" fill-opacity="1" /><path clip-path="url(#clip550)" d="M582.381 248.41 L587.265 248.41 L587.265 254.29 L582.381 254.29 L582.381 248.41 Z" fill="#000000" fill-rule="evenodd" fill-opacity="1" /><path clip-path="url(#clip550)" d="M607.45 222.809 Q603.839 222.809 602.01 226.373 Q600.205 229.915 600.205 237.045 Q600.205 244.151 602.01 247.716 Q603.839 251.257 607.45 251.257 Q611.084 251.257 612.89 247.716 Q614.718 244.151 614.718 237.045 Q614.718 229.915 612.89 226.373 Q611.084 222.809 607.45 222.809 M607.45 219.105 Q613.26 219.105 616.316 223.711 Q619.394 228.295 619.394 237.045 Q619.394 245.771 616.316 250.378 Q613.26 254.961 607.45 254.961 Q601.64 254.961 598.561 250.378 Q595.506 245.771 595.506 237.045 Q595.506 228.295 598.561 223.711 Q601.64 219.105 607.45 219.105 Z" fill="#000000" fill-rule="evenodd" fill-opacity="1" /><path clip-path="url(#clip550)" d="M834.602 12.096 L872.843 12.096 L872.843 18.9825 L842.785 18.9825 L842.785 36.8875 L871.587 36.8875 L871.587 43.7741 L842.785 43.7741 L842.785 65.6895 L873.572 65.6895 L873.572 72.576 L834.602 72.576 L834.602 12.096 Z" fill="#000000" fill-rule="evenodd" fill-opacity="1" /><path clip-path="url(#clip550)" d="M912.987 34.1734 Q911.732 33.4443 910.233 33.1202 Q908.775 32.7556 906.992 32.7556 Q900.673 32.7556 897.27 36.8875 Q893.908 40.9789 893.908 48.6757 L893.908 72.576 L886.414 72.576 L886.414 27.2059 L893.908 27.2059 L893.908 34.2544 Q896.257 30.1225 900.025 28.1376 Q903.792 26.1121 909.18 26.1121 Q909.949 26.1121 910.881 26.2337 Q911.813 26.3147 912.947 26.5172 L912.987 34.1734 Z" fill="#000000" fill-rule="evenodd" fill-opacity="1" /><path clip-path="url(#clip550)" d="M945.638 34.1734 Q944.382 33.4443 942.883 33.1202 Q941.425 32.7556 939.642 32.7556 Q933.323 32.7556 929.92 36.8875 Q926.558 40.9789 926.558 48.6757 L926.558 72.576 L919.064 72.576 L919.064 27.2059 L926.558 27.2059 L926.558 34.2544 Q928.908 30.1225 932.675 28.1376 Q936.442 26.1121 941.83 26.1121 Q942.6 26.1121 943.531 26.2337 Q944.463 26.3147 945.597 26.5172 L945.638 34.1734 Z" fill="#000000" fill-rule="evenodd" fill-opacity="1" /><path clip-path="url(#clip550)" d="M969.214 32.4315 Q963.219 32.4315 959.735 37.1306 Q956.251 41.7891 956.251 49.9314 Q956.251 58.0738 959.694 62.7728 Q963.178 67.4314 969.214 67.4314 Q975.169 67.4314 978.653 62.7323 Q982.136 58.0333 982.136 49.9314 Q982.136 41.8701 978.653 37.1711 Q975.169 32.4315 969.214 32.4315 M969.214 26.1121 Q978.936 26.1121 984.486 32.4315 Q990.036 38.7509 990.036 49.9314 Q990.036 61.0714 984.486 67.4314 Q978.936 73.7508 969.214 73.7508 Q959.451 73.7508 953.902 67.4314 Q948.392 61.0714 948.392 49.9314 Q948.392 38.7509 953.902 32.4315 Q959.451 26.1121 969.214 26.1121 Z" fill="#000000" fill-rule="evenodd" fill-opacity="1" /><path clip-path="url(#clip550)" d="M1028.68 34.1734 Q1027.43 33.4443 1025.93 33.1202 Q1024.47 32.7556 1022.69 32.7556 Q1016.37 32.7556 1012.96 36.8875 Q1009.6 40.9789 1009.6 48.6757 L1009.6 72.576 L1002.11 72.576 L1002.11 27.2059 L1009.6 27.2059 L1009.6 34.2544 Q1011.95 30.1225 1015.72 28.1376 Q1019.49 26.1121 1024.87 26.1121 Q1025.64 26.1121 1026.57 26.2337 Q1027.51 26.3147 1028.64 26.5172 L1028.68 34.1734 Z" fill="#000000" fill-rule="evenodd" fill-opacity="1" /><path clip-path="url(#clip550)" d="M1063.84 34.9026 L1115.78 34.9026 L1115.78 41.7081 L1063.84 41.7081 L1063.84 34.9026 M1063.84 51.4303 L1115.78 51.4303 L1115.78 58.3168 L1063.84 58.3168 L1063.84 51.4303 Z" fill="#000000" fill-rule="evenodd" fill-opacity="1" /><path clip-path="url(#clip550)" d="M1177.31 17.4837 Q1170.99 17.4837 1167.79 23.7221 Q1164.63 29.92 1164.63 42.3968 Q1164.63 54.833 1167.79 61.0714 Q1170.99 67.2693 1177.31 67.2693 Q1183.67 67.2693 1186.83 61.0714 Q1190.03 54.833 1190.03 42.3968 Q1190.03 29.92 1186.83 23.7221 Q1183.67 17.4837 1177.31 17.4837 M1177.31 11.0023 Q1187.48 11.0023 1192.82 19.0636 Q1198.21 27.0843 1198.21 42.3968 Q1198.21 57.6687 1192.82 65.73 Q1187.48 73.7508 1177.31 73.7508 Q1167.14 73.7508 1161.75 65.73 Q1156.41 57.6687 1156.41 42.3968 Q1156.41 27.0843 1161.75 19.0636 Q1167.14 11.0023 1177.31 11.0023 Z" fill="#000000" fill-rule="evenodd" fill-opacity="1" /><path clip-path="url(#clip550)" d="M1212.59 62.2867 L1221.14 62.2867 L1221.14 72.576 L1212.59 72.576 L1212.59 62.2867 Z" fill="#000000" fill-rule="evenodd" fill-opacity="1" /><path clip-path="url(#clip550)" d="M1256.46 17.4837 Q1250.14 17.4837 1246.94 23.7221 Q1243.78 29.92 1243.78 42.3968 Q1243.78 54.833 1246.94 61.0714 Q1250.14 67.2693 1256.46 67.2693 Q1262.82 67.2693 1265.98 61.0714 Q1269.18 54.833 1269.18 42.3968 Q1269.18 29.92 1265.98 23.7221 Q1262.82 17.4837 1256.46 17.4837 M1256.46 11.0023 Q1266.63 11.0023 1271.98 19.0636 Q1277.37 27.0843 1277.37 42.3968 Q1277.37 57.6687 1271.98 65.73 Q1266.63 73.7508 1256.46 73.7508 Q1246.3 73.7508 1240.91 65.73 Q1235.56 57.6687 1235.56 42.3968 Q1235.56 27.0843 1240.91 19.0636 Q1246.3 11.0023 1256.46 11.0023 Z" fill="#000000" fill-rule="evenodd" fill-opacity="1" /><path clip-path="url(#clip550)" d="M1309.25 17.4837 Q1302.93 17.4837 1299.73 23.7221 Q1296.57 29.92 1296.57 42.3968 Q1296.57 54.833 1299.73 61.0714 Q1302.93 67.2693 1309.25 67.2693 Q1315.61 67.2693 1318.77 61.0714 Q1321.97 54.833 1321.97 42.3968 Q1321.97 29.92 1318.77 23.7221 Q1315.61 17.4837 1309.25 17.4837 M1309.25 11.0023 Q1319.41 11.0023 1324.76 19.0636 Q1330.15 27.0843 1330.15 42.3968 Q1330.15 57.6687 1324.76 65.73 Q1319.41 73.7508 1309.25 73.7508 Q1299.08 73.7508 1293.69 65.73 Q1288.34 57.6687 1288.34 42.3968 Q1288.34 27.0843 1293.69 19.0636 Q1299.08 11.0023 1309.25 11.0023 Z" fill="#000000" fill-rule="evenodd" fill-opacity="1" /><path clip-path="url(#clip550)" d="M1369.32 39.9662 Q1375.2 41.222 1378.48 45.1919 Q1381.8 49.1618 1381.8 54.9951 Q1381.8 63.9476 1375.64 68.8492 Q1369.48 73.7508 1358.14 73.7508 Q1354.33 73.7508 1350.28 72.9811 Q1346.27 72.2519 1341.98 70.7531 L1341.98 62.8538 Q1345.38 64.8388 1349.43 65.8515 Q1353.48 66.8642 1357.9 66.8642 Q1365.59 66.8642 1369.61 63.826 Q1373.66 60.7879 1373.66 54.9951 Q1373.66 49.6479 1369.89 46.6502 Q1366.16 43.612 1359.48 43.612 L1352.43 43.612 L1352.43 36.8875 L1359.8 36.8875 Q1365.84 36.8875 1369.04 34.4975 Q1372.24 32.067 1372.24 27.5299 Q1372.24 22.8714 1368.92 20.4004 Q1365.64 17.8888 1359.48 17.8888 Q1356.12 17.8888 1352.27 18.618 Q1348.42 19.3471 1343.8 20.8865 L1343.8 13.5948 Q1348.46 12.2985 1352.51 11.6504 Q1356.6 11.0023 1360.21 11.0023 Q1369.52 11.0023 1374.95 15.2557 Q1380.38 19.4686 1380.38 26.6793 Q1380.38 31.7024 1377.5 35.1862 Q1374.63 38.6294 1369.32 39.9662 Z" fill="#000000" fill-rule="evenodd" fill-opacity="1" /><path clip-path="url(#clip550)" d="M1422.11 39.9662 Q1427.98 41.222 1431.26 45.1919 Q1434.58 49.1618 1434.58 54.9951 Q1434.58 63.9476 1428.42 68.8492 Q1422.27 73.7508 1410.92 73.7508 Q1407.12 73.7508 1403.07 72.9811 Q1399.06 72.2519 1394.76 70.7531 L1394.76 62.8538 Q1398.16 64.8388 1402.22 65.8515 Q1406.27 66.8642 1410.68 66.8642 Q1418.38 66.8642 1422.39 63.826 Q1426.44 60.7879 1426.44 54.9951 Q1426.44 49.6479 1422.67 46.6502 Q1418.95 43.612 1412.26 43.612 L1405.21 43.612 L1405.21 36.8875 L1412.59 36.8875 Q1418.62 36.8875 1421.82 34.4975 Q1425.02 32.067 1425.02 27.5299 Q1425.02 22.8714 1421.7 20.4004 Q1418.42 17.8888 1412.26 17.8888 Q1408.9 17.8888 1405.05 18.618 Q1401.2 19.3471 1396.58 20.8865 L1396.58 13.5948 Q1401.24 12.2985 1405.29 11.6504 Q1409.39 11.0023 1412.99 11.0023 Q1422.31 11.0023 1427.74 15.2557 Q1433.16 19.4686 1433.16 26.6793 Q1433.16 31.7024 1430.29 35.1862 Q1427.41 38.6294 1422.11 39.9662 Z" fill="#000000" fill-rule="evenodd" fill-opacity="1" /><path clip-path="url(#clip550)" d="M1472.58 19.2256 L1451.92 51.5113 L1472.58 51.5113 L1472.58 19.2256 M1470.43 12.096 L1480.72 12.096 L1480.72 51.5113 L1489.35 51.5113 L1489.35 58.3168 L1480.72 58.3168 L1480.72 72.576 L1472.58 72.576 L1472.58 58.3168 L1445.28 58.3168 L1445.28 50.4176 L1470.43 12.096 Z" fill="#000000" fill-rule="evenodd" fill-opacity="1" /><path clip-path="url(#clip550)" d="M1527.67 39.9662 Q1533.55 41.222 1536.83 45.1919 Q1540.15 49.1618 1540.15 54.9951 Q1540.15 63.9476 1533.99 68.8492 Q1527.83 73.7508 1516.49 73.7508 Q1512.68 73.7508 1508.63 72.9811 Q1504.62 72.2519 1500.33 70.7531 L1500.33 62.8538 Q1503.73 64.8388 1507.78 65.8515 Q1511.83 66.8642 1516.25 66.8642 Q1523.94 66.8642 1527.96 63.826 Q1532.01 60.7879 1532.01 54.9951 Q1532.01 49.6479 1528.24 46.6502 Q1524.51 43.612 1517.83 43.612 L1510.78 43.612 L1510.78 36.8875 L1518.15 36.8875 Q1524.19 36.8875 1527.39 34.4975 Q1530.59 32.067 1530.59 27.5299 Q1530.59 22.8714 1527.27 20.4004 Q1523.99 17.8888 1517.83 17.8888 Q1514.47 17.8888 1510.62 18.618 Q1506.77 19.3471 1502.15 20.8865 L1502.15 13.5948 Q1506.81 12.2985 1510.86 11.6504 Q1514.95 11.0023 1518.56 11.0023 Q1527.87 11.0023 1533.3 15.2557 Q1538.73 19.4686 1538.73 26.6793 Q1538.73 31.7024 1535.85 35.1862 Q1532.98 38.6294 1527.67 39.9662 Z" fill="#000000" fill-rule="evenodd" fill-opacity="1" /><path clip-path="url(#clip550)" d="M1557.08 65.6895 L1570.45 65.6895 L1570.45 19.5497 L1555.91 22.4663 L1555.91 15.0127 L1570.37 12.096 L1578.55 12.096 L1578.55 65.6895 L1591.92 65.6895 L1591.92 72.576 L1557.08 72.576 L1557.08 65.6895 Z" fill="#000000" fill-rule="evenodd" fill-opacity="1" /><path clip-path="url(#clip550)" d="M1630.93 19.2256 L1610.27 51.5113 L1630.93 51.5113 L1630.93 19.2256 M1628.78 12.096 L1639.07 12.096 L1639.07 51.5113 L1647.7 51.5113 L1647.7 58.3168 L1639.07 58.3168 L1639.07 72.576 L1630.93 72.576 L1630.93 58.3168 L1603.63 58.3168 L1603.63 50.4176 L1628.78 12.096 Z" fill="#000000" fill-rule="evenodd" fill-opacity="1" /><path clip-path="url(#clip550)" d="M1659.16 12.096 L1698.05 12.096 L1698.05 15.5798 L1676.1 72.576 L1667.55 72.576 L1688.21 18.9825 L1659.16 18.9825 L1659.16 12.096 Z" fill="#000000" fill-rule="evenodd" fill-opacity="1" /><path clip-path="url(#clip550)" d="M1711.95 12.096 L1750.84 12.096 L1750.84 15.5798 L1728.88 72.576 L1720.33 72.576 L1740.99 18.9825 L1711.95 18.9825 L1711.95 12.096 Z" fill="#000000" fill-rule="evenodd" fill-opacity="1" /><path clip-path="url(#clip550)" d="M1766.88 12.096 L1799 12.096 L1799 18.9825 L1774.37 18.9825 L1774.37 33.8088 Q1776.15 33.2012 1777.94 32.9176 Q1779.72 32.5936 1781.5 32.5936 Q1791.63 32.5936 1797.54 38.1433 Q1803.46 43.6931 1803.46 53.1722 Q1803.46 62.9348 1797.38 68.3631 Q1791.3 73.7508 1780.25 73.7508 Q1776.44 73.7508 1772.47 73.1026 Q1768.54 72.4545 1764.33 71.1582 L1764.33 62.9348 Q1767.97 64.9198 1771.86 65.892 Q1775.75 66.8642 1780.08 66.8642 Q1787.09 66.8642 1791.18 63.1779 Q1795.27 59.4916 1795.27 53.1722 Q1795.27 46.8528 1791.18 43.1664 Q1787.09 39.4801 1780.08 39.4801 Q1776.8 39.4801 1773.52 40.2093 Q1770.28 40.9384 1766.88 42.4778 L1766.88 12.096 Z" fill="#000000" fill-rule="evenodd" fill-opacity="1" /><path clip-path="url(#clip550)" d="M1819.66 12.096 L1851.78 12.096 L1851.78 18.9825 L1827.16 18.9825 L1827.16 33.8088 Q1828.94 33.2012 1830.72 32.9176 Q1832.5 32.5936 1834.28 32.5936 Q1844.41 32.5936 1850.33 38.1433 Q1856.24 43.6931 1856.24 53.1722 Q1856.24 62.9348 1850.16 68.3631 Q1844.09 73.7508 1833.03 73.7508 Q1829.22 73.7508 1825.25 73.1026 Q1821.32 72.4545 1817.11 71.1582 L1817.11 62.9348 Q1820.75 64.9198 1824.64 65.892 Q1828.53 66.8642 1832.87 66.8642 Q1839.87 66.8642 1843.97 63.1779 Q1848.06 59.4916 1848.06 53.1722 Q1848.06 46.8528 1843.97 43.1664 Q1839.87 39.4801 1832.87 39.4801 Q1829.59 39.4801 1826.3 40.2093 Q1823.06 40.9384 1819.66 42.4778 L1819.66 12.096 Z" fill="#000000" fill-rule="evenodd" fill-opacity="1" /><path clip-path="url(#clip550)" d="M1889.86 43.8551 Q1884.03 43.8551 1880.67 46.9743 Q1877.35 50.0935 1877.35 55.5622 Q1877.35 61.0309 1880.67 64.1501 Q1884.03 67.2693 1889.86 67.2693 Q1895.7 67.2693 1899.06 64.1501 Q1902.42 60.9904 1902.42 55.5622 Q1902.42 50.0935 1899.06 46.9743 Q1895.74 43.8551 1889.86 43.8551 M1881.68 40.3713 Q1876.41 39.075 1873.46 35.4697 Q1870.54 31.8644 1870.54 26.6793 Q1870.54 19.4281 1875.68 15.2152 Q1880.87 11.0023 1889.86 11.0023 Q1898.9 11.0023 1904.04 15.2152 Q1909.19 19.4281 1909.19 26.6793 Q1909.19 31.8644 1906.23 35.4697 Q1903.31 39.075 1898.09 40.3713 Q1904 41.7486 1907.28 45.759 Q1910.6 49.7694 1910.6 55.5622 Q1910.6 64.3527 1905.22 69.0517 Q1899.87 73.7508 1889.86 73.7508 Q1879.86 73.7508 1874.47 69.0517 Q1869.12 64.3527 1869.12 55.5622 Q1869.12 49.7694 1872.44 45.759 Q1875.77 41.7486 1881.68 40.3713 M1878.68 27.4489 Q1878.68 32.148 1881.6 34.7811 Q1884.56 37.4142 1889.86 37.4142 Q1895.13 37.4142 1898.09 34.7811 Q1901.08 32.148 1901.08 27.4489 Q1901.08 22.7499 1898.09 20.1168 Q1895.13 17.4837 1889.86 17.4837 Q1884.56 17.4837 1881.6 20.1168 Q1878.68 22.7499 1878.68 27.4489 Z" fill="#000000" fill-rule="evenodd" fill-opacity="1" /><path clip-path="url(#clip550)" d="M1949.94 39.9662 Q1955.81 41.222 1959.09 45.1919 Q1962.41 49.1618 1962.41 54.9951 Q1962.41 63.9476 1956.26 68.8492 Q1950.1 73.7508 1938.76 73.7508 Q1934.95 73.7508 1930.9 72.9811 Q1926.89 72.2519 1922.59 70.7531 L1922.59 62.8538 Q1926 64.8388 1930.05 65.8515 Q1934.1 66.8642 1938.51 66.8642 Q1946.21 66.8642 1950.22 63.826 Q1954.27 60.7879 1954.27 54.9951 Q1954.27 49.6479 1950.51 46.6502 Q1946.78 43.612 1940.09 43.612 L1933.05 43.612 L1933.05 36.8875 L1940.42 36.8875 Q1946.45 36.8875 1949.65 34.4975 Q1952.85 32.067 1952.85 27.5299 Q1952.85 22.8714 1949.53 20.4004 Q1946.25 17.8888 1940.09 17.8888 Q1936.73 17.8888 1932.88 18.618 Q1929.04 19.3471 1924.42 20.8865 L1924.42 13.5948 Q1929.08 12.2985 1933.13 11.6504 Q1937.22 11.0023 1940.82 11.0023 Q1950.14 11.0023 1955.57 15.2557 Q1961 19.4686 1961 26.6793 Q1961 31.7024 1958.12 35.1862 Q1955.24 38.6294 1949.94 39.9662 Z" fill="#000000" fill-rule="evenodd" fill-opacity="1" /><path clip-path="url(#clip550)" d="M1978.01 12.096 L2010.13 12.096 L2010.13 18.9825 L1985.5 18.9825 L1985.5 33.8088 Q1987.29 33.2012 1989.07 32.9176 Q1990.85 32.5936 1992.63 32.5936 Q2002.76 32.5936 2008.68 38.1433 Q2014.59 43.6931 2014.59 53.1722 Q2014.59 62.9348 2008.51 68.3631 Q2002.44 73.7508 1991.38 73.7508 Q1987.57 73.7508 1983.6 73.1026 Q1979.67 72.4545 1975.46 71.1582 L1975.46 62.9348 Q1979.1 64.9198 1982.99 65.892 Q1986.88 66.8642 1991.22 66.8642 Q1998.22 66.8642 2002.32 63.1779 Q2006.41 59.4916 2006.41 53.1722 Q2006.41 46.8528 2002.32 43.1664 Q1998.22 39.4801 1991.22 39.4801 Q1987.94 39.4801 1984.65 40.2093 Q1981.41 40.9384 1978.01 42.4778 L1978.01 12.096 Z" fill="#000000" fill-rule="evenodd" fill-opacity="1" /><path clip-path="url(#clip550)" d="M2030.79 12.096 L2062.92 12.096 L2062.92 18.9825 L2038.29 18.9825 L2038.29 33.8088 Q2040.07 33.2012 2041.85 32.9176 Q2043.64 32.5936 2045.42 32.5936 Q2055.54 32.5936 2061.46 38.1433 Q2067.37 43.6931 2067.37 53.1722 Q2067.37 62.9348 2061.3 68.3631 Q2055.22 73.7508 2044.16 73.7508 Q2040.35 73.7508 2036.38 73.1026 Q2032.45 72.4545 2028.24 71.1582 L2028.24 62.9348 Q2031.89 64.9198 2035.78 65.892 Q2039.67 66.8642 2044 66.8642 Q2051.01 66.8642 2055.1 63.1779 Q2059.19 59.4916 2059.19 53.1722 Q2059.19 46.8528 2055.1 43.1664 Q2051.01 39.4801 2044 39.4801 Q2040.72 39.4801 2037.44 40.2093 Q2034.2 40.9384 2030.79 42.4778 L2030.79 12.096 Z" fill="#000000" fill-rule="evenodd" fill-opacity="1" /><path clip-path="url(#clip550)" d="M2108.29 39.9662 Q2114.16 41.222 2117.44 45.1919 Q2120.76 49.1618 2120.76 54.9951 Q2120.76 63.9476 2114.61 68.8492 Q2108.45 73.7508 2097.11 73.7508 Q2093.3 73.7508 2089.25 72.9811 Q2085.24 72.2519 2080.94 70.7531 L2080.94 62.8538 Q2084.35 64.8388 2088.4 65.8515 Q2092.45 66.8642 2096.86 66.8642 Q2104.56 66.8642 2108.57 63.826 Q2112.62 60.7879 2112.62 54.9951 Q2112.62 49.6479 2108.85 46.6502 Q2105.13 43.612 2098.44 43.612 L2091.4 43.612 L2091.4 36.8875 L2098.77 36.8875 Q2104.8 36.8875 2108 34.4975 Q2111.2 32.067 2111.2 27.5299 Q2111.2 22.8714 2107.88 20.4004 Q2104.6 17.8888 2098.44 17.8888 Q2095.08 17.8888 2091.23 18.618 Q2087.39 19.3471 2082.77 20.8865 L2082.77 13.5948 Q2087.43 12.2985 2091.48 11.6504 Q2095.57 11.0023 2099.17 11.0023 Q2108.49 11.0023 2113.92 15.2557 Q2119.35 19.4686 2119.35 26.6793 Q2119.35 31.7024 2116.47 35.1862 Q2113.59 38.6294 2108.29 39.9662 Z" fill="#000000" fill-rule="evenodd" fill-opacity="1" /><path clip-path="url(#clip550)" d="M2161.07 39.9662 Q2166.94 41.222 2170.23 45.1919 Q2173.55 49.1618 2173.55 54.9951 Q2173.55 63.9476 2167.39 68.8492 Q2161.23 73.7508 2149.89 73.7508 Q2146.08 73.7508 2142.03 72.9811 Q2138.02 72.2519 2133.73 70.7531 L2133.73 62.8538 Q2137.13 64.8388 2141.18 65.8515 Q2145.23 66.8642 2149.65 66.8642 Q2157.34 66.8642 2161.35 63.826 Q2165.41 60.7879 2165.41 54.9951 Q2165.41 49.6479 2161.64 46.6502 Q2157.91 43.612 2151.23 43.612 L2144.18 43.612 L2144.18 36.8875 L2151.55 36.8875 Q2157.59 36.8875 2160.79 34.4975 Q2163.99 32.067 2163.99 27.5299 Q2163.99 22.8714 2160.67 20.4004 Q2157.38 17.8888 2151.23 17.8888 Q2147.87 17.8888 2144.02 18.618 Q2140.17 19.3471 2135.55 20.8865 L2135.55 13.5948 Q2140.21 12.2985 2144.26 11.6504 Q2148.35 11.0023 2151.96 11.0023 Q2161.27 11.0023 2166.7 15.2557 Q2172.13 19.4686 2172.13 26.6793 Q2172.13 31.7024 2169.25 35.1862 Q2166.38 38.6294 2161.07 39.9662 Z" fill="#000000" fill-rule="evenodd" fill-opacity="1" /><polyline clip-path="url(#clip552)" style="stroke:#009af9; stroke-linecap:butt; stroke-linejoin:round; stroke-width:20; stroke-opacity:1; fill:none" points="
  703.433,805.059 732.547,861.77 761.661,917.913 790.776,972.929 819.89,1026.27 849.004,1077.4 878.118,1125.8 907.233,1171.01 936.347,1212.55 965.461,1250.03 
  994.576,1283.06 1023.69,1311.31 1052.8,1334.5 1081.92,1352.41 1111.03,1364.84 1140.15,1371.69 1169.26,1372.87 1198.38,1368.37 1227.49,1358.25 1256.6,1342.6 
  1285.72,1321.59 1314.83,1295.4 1343.95,1264.33 1373.06,1228.66 1402.18,1188.76 1431.29,1145.02 1460.4,1097.89 1489.52,1047.83 1518.63,995.349 1547.75,940.965 
  1576.86,885.222 1605.98,828.679 1635.09,771.9 1664.2,715.452 1693.32,659.899 1722.43,605.797 1751.55,553.686 1780.66,504.086 1809.77,457.494 1838.89,414.374 
  1868,375.158 1897.12,340.237 1926.23,309.961 1955.35,284.632 1984.46,264.502 2013.57,249.774 2042.69,240.594 2071.8,237.053 2100.92,239.189 2130.03,246.978 
  2159.15,260.343 2188.26,279.151 2217.37,303.213 2246.49,332.29 2275.6,366.091 2304.72,404.278 
  "/>
<polyline clip-path="url(#clip552)" style="stroke:#e26f46; stroke-linecap:butt; stroke-linejoin:round; stroke-width:4; stroke-opacity:1; fill:none" points="
  703.433,827.555 732.547,874.289 761.661,921.023 790.776,967.757 819.89,1014.49 849.004,1061.22 878.118,1107.96 907.233,1154.69 936.347,1201.43 965.461,1248.16 
  994.576,1294.89 1023.69,1341.63 1052.8,1388.36 1081.92,1435.09 1111.03,1481.83 1140.15,1528.56 1169.26,1575.3 1198.38,1622.03 1227.49,1668.76 1256.6,1715.5 
  1285.72,1762.23 1314.83,1808.97 1343.95,1855.7 1373.06,1902.43 1402.18,1949.17 1431.29,1995.9 1460.4,2042.63 1489.52,2089.37 1518.63,2136.1 1547.75,2182.84 
  1576.86,2229.57 1605.98,2276.3 1635.09,2323.04 1664.2,2369.77 1693.32,2416.51 1722.43,2463.24 1751.55,2509.97 1780.66,2556.71 1809.77,2603.44 1838.89,2650.17 
  1868,2696.91 1897.12,2743.64 1926.23,2790.38 1955.35,2837.11 1984.46,2883.84 2013.57,2930.58 2042.69,2977.31 2071.8,3024.04 2100.92,3070.78 2130.03,3117.51 
  2159.15,3164.25 2188.26,3210.98 2217.37,3257.71 2246.49,3304.45 2275.6,3351.18 2304.72,3397.92 
  "/>
<polyline clip-path="url(#clip552)" style="stroke:#3da44d; stroke-linecap:butt; stroke-linejoin:round; stroke-width:4; stroke-opacity:1; fill:none" points="
  703.433,1420.62 732.547,1416.23 761.661,1411.84 790.776,1407.46 819.89,1403.07 849.004,1398.69 878.118,1394.3 907.233,1389.92 936.347,1385.53 965.461,1381.15 
  994.576,1376.76 1023.69,1372.37 1052.8,1367.99 1081.92,1363.6 1111.03,1359.22 1140.15,1354.83 1169.26,1350.45 1198.38,1346.06 1227.49,1341.67 1256.6,1337.29 
  1285.72,1332.9 1314.83,1328.52 1343.95,1324.13 1373.06,1319.75 1402.18,1315.36 1431.29,1310.97 1460.4,1306.59 1489.52,1302.2 1518.63,1297.82 1547.75,1293.43 
  1576.86,1289.05 1605.98,1284.66 1635.09,1280.28 1664.2,1275.89 1693.32,1271.5 1722.43,1267.12 1751.55,1262.73 1780.66,1258.35 1809.77,1253.96 1838.89,1249.58 
  1868,1245.19 1897.12,1240.8 1926.23,1236.42 1955.35,1232.03 1984.46,1227.65 2013.57,1223.26 2042.69,1218.88 2071.8,1214.49 2100.92,1210.1 2130.03,1205.72 
  2159.15,1201.33 2188.26,1196.95 2217.37,1192.56 2246.49,1188.18 2275.6,1183.79 2304.72,1179.41 
  "/>
<polyline clip-path="url(#clip552)" style="stroke:#c271d2; stroke-linecap:butt; stroke-linejoin:round; stroke-width:4; stroke-opacity:1; fill:none" points="
  703.433,2431.91 732.547,2380.08 761.661,2328.26 790.776,2276.43 819.89,2224.61 849.004,2172.78 878.118,2120.95 907.233,2069.13 936.347,2017.3 965.461,1965.47 
  994.576,1913.65 1023.69,1861.82 1052.8,1809.99 1081.92,1758.17 1111.03,1706.34 1140.15,1654.51 1169.26,1602.69 1198.38,1550.86 1227.49,1499.04 1256.6,1447.21 
  1285.72,1395.38 1314.83,1343.56 1343.95,1291.73 1373.06,1239.9 1402.18,1188.08 1431.29,1136.25 1460.4,1084.42 1489.52,1032.6 1518.63,980.771 1547.75,928.945 
  1576.86,877.118 1605.98,825.292 1635.09,773.465 1664.2,721.639 1693.32,669.812 1722.43,617.986 1751.55,566.16 1780.66,514.333 1809.77,462.507 1838.89,410.68 
  1868,358.854 1897.12,307.027 1926.23,255.201 1955.35,203.375 1984.46,151.548 2013.57,99.7216 2042.69,47.8952 2071.8,-3.93122 2100.92,-55.7577 2130.03,-107.584 
  2159.15,-159.411 2188.26,-211.237 2217.37,-263.063 2246.49,-314.89 2275.6,-366.716 2304.72,-418.543 
  "/>
<polyline clip-path="url(#clip552)" style="stroke:#ac8d18; stroke-linecap:butt; stroke-linejoin:round; stroke-width:4; stroke-opacity:1; fill:none" points="
  703.433,1034.48 732.547,1017.22 761.661,999.968 790.776,982.713 819.89,965.457 849.004,948.202 878.118,930.947 907.233,913.692 936.347,896.437 965.461,879.182 
  994.576,861.926 1023.69,844.671 1052.8,827.416 1081.92,810.161 1111.03,792.906 1140.15,775.651 1169.26,758.395 1198.38,741.14 1227.49,723.885 1256.6,706.63 
  1285.72,689.375 1314.83,672.12 1343.95,654.864 1373.06,637.609 1402.18,620.354 1431.29,603.099 1460.4,585.844 1489.52,568.588 1518.63,551.333 1547.75,534.078 
  1576.86,516.823 1605.98,499.568 1635.09,482.313 1664.2,465.057 1693.32,447.802 1722.43,430.547 1751.55,413.292 1780.66,396.037 1809.77,378.782 1838.89,361.526 
  1868,344.271 1897.12,327.016 1926.23,309.761 1955.35,292.506 1984.46,275.251 2013.57,257.995 2042.69,240.74 2071.8,223.485 2100.92,206.23 2130.03,188.975 
  2159.15,171.719 2188.26,154.464 2217.37,137.209 2246.49,119.954 2275.6,102.699 2304.72,85.4436 
  "/>
<polyline clip-path="url(#clip552)" style="stroke:#00a9ad; stroke-linecap:butt; stroke-linejoin:round; stroke-width:4; stroke-opacity:1; fill:none" points="
  703.433,-916.788 732.547,-893.085 761.661,-869.382 790.776,-845.678 819.89,-821.975 849.004,-798.271 878.118,-774.568 907.233,-750.864 936.347,-727.161 965.461,-703.457 
  994.576,-679.754 1023.69,-656.05 1052.8,-632.347 1081.92,-608.643 1111.03,-584.94 1140.15,-561.236 1169.26,-537.533 1198.38,-513.829 1227.49,-490.126 1256.6,-466.422 
  1285.72,-442.719 1314.83,-419.015 1343.95,-395.312 1373.06,-371.608 1402.18,-347.905 1431.29,-324.201 1460.4,-300.498 1489.52,-276.794 1518.63,-253.091 1547.75,-229.387 
  1576.86,-205.684 1605.98,-181.98 1635.09,-158.277 1664.2,-134.573 1693.32,-110.87 1722.43,-87.1662 1751.55,-63.4627 1780.66,-39.7592 1809.77,-16.0557 1838.89,7.64779 
  1868,31.3513 1897.12,55.0548 1926.23,78.7583 1955.35,102.462 1984.46,126.165 2013.57,149.869 2042.69,173.572 2071.8,197.276 2100.92,220.979 2130.03,244.683 
  2159.15,268.386 2188.26,292.09 2217.37,315.793 2246.49,339.497 2275.6,363.2 2304.72,386.904 
  "/>
<path clip-path="url(#clip550)" d="
M121.975 531.785 L404.529 531.785 L404.529 168.905 L121.975 168.905  Z
  " fill="#ffffff" fill-rule="evenodd" fill-opacity="1"/>
<polyline clip-path="url(#clip550)" style="stroke:#000000; stroke-linecap:butt; stroke-linejoin:round; stroke-width:4; stroke-opacity:1; fill:none" points="
  121.975,531.785 404.529,531.785 404.529,168.905 121.975,168.905 121.975,531.785 
  "/>
<polyline clip-path="url(#clip550)" style="stroke:#009af9; stroke-linecap:butt; stroke-linejoin:round; stroke-width:4; stroke-opacity:1; fill:none" points="
  145.962,220.745 289.884,220.745 
  "/>
<path clip-path="url(#clip550)" d="M330.375 202.006 L330.375 205.548 L326.301 205.548 Q324.009 205.548 323.106 206.474 Q322.227 207.4 322.227 209.807 L322.227 212.099 L329.241 212.099 L329.241 215.409 L322.227 215.409 L322.227 238.025 L317.944 238.025 L317.944 215.409 L313.87 215.409 L313.87 212.099 L317.944 212.099 L317.944 210.293 Q317.944 205.965 319.958 203.997 Q321.972 202.006 326.347 202.006 L330.375 202.006 Z" fill="#000000" fill-rule="evenodd" fill-opacity="1" /><polyline clip-path="url(#clip550)" style="stroke:#e26f46; stroke-linecap:butt; stroke-linejoin:round; stroke-width:4; stroke-opacity:1; fill:none" points="
  145.962,272.585 289.884,272.585 
  "/>
<path clip-path="url(#clip550)" d="M329.056 267.92 Q328.338 267.504 327.481 267.318 Q326.648 267.11 325.63 267.11 Q322.019 267.11 320.074 269.471 Q318.153 271.809 318.153 276.207 L318.153 289.865 L313.87 289.865 L313.87 263.939 L318.153 263.939 L318.153 267.967 Q319.495 265.606 321.648 264.471 Q323.801 263.314 326.88 263.314 Q327.319 263.314 327.852 263.383 Q328.384 263.43 329.032 263.545 L329.056 267.92 Z" fill="#000000" fill-rule="evenodd" fill-opacity="1" /><path clip-path="url(#clip550)" d="M334.935 285.929 L342.574 285.929 L342.574 259.564 L334.264 261.231 L334.264 256.971 L342.528 255.305 L347.204 255.305 L347.204 285.929 L354.842 285.929 L354.842 289.865 L334.935 289.865 L334.935 285.929 Z" fill="#000000" fill-rule="evenodd" fill-opacity="1" /><polyline clip-path="url(#clip550)" style="stroke:#3da44d; stroke-linecap:butt; stroke-linejoin:round; stroke-width:4; stroke-opacity:1; fill:none" points="
  145.962,324.425 289.884,324.425 
  "/>
<path clip-path="url(#clip550)" d="M329.056 319.76 Q328.338 319.344 327.481 319.158 Q326.648 318.95 325.63 318.95 Q322.019 318.95 320.074 321.311 Q318.153 323.649 318.153 328.047 L318.153 341.705 L313.87 341.705 L313.87 315.779 L318.153 315.779 L318.153 319.807 Q319.495 317.446 321.648 316.311 Q323.801 315.154 326.88 315.154 Q327.319 315.154 327.852 315.223 Q328.384 315.27 329.032 315.385 L329.056 319.76 Z" fill="#000000" fill-rule="evenodd" fill-opacity="1" /><path clip-path="url(#clip550)" d="M338.153 337.769 L354.472 337.769 L354.472 341.705 L332.528 341.705 L332.528 337.769 Q335.19 335.015 339.773 330.385 Q344.38 325.733 345.56 324.39 Q347.805 321.867 348.685 320.131 Q349.588 318.371 349.588 316.682 Q349.588 313.927 347.643 312.191 Q345.722 310.455 342.62 310.455 Q340.421 310.455 337.968 311.219 Q335.537 311.983 332.759 313.534 L332.759 308.811 Q335.583 307.677 338.037 307.098 Q340.491 306.52 342.528 306.52 Q347.898 306.52 351.092 309.205 Q354.287 311.89 354.287 316.381 Q354.287 318.51 353.477 320.432 Q352.69 322.33 350.583 324.922 Q350.005 325.594 346.903 328.811 Q343.801 332.006 338.153 337.769 Z" fill="#000000" fill-rule="evenodd" fill-opacity="1" /><polyline clip-path="url(#clip550)" style="stroke:#c271d2; stroke-linecap:butt; stroke-linejoin:round; stroke-width:4; stroke-opacity:1; fill:none" points="
  145.962,376.265 289.884,376.265 
  "/>
<path clip-path="url(#clip550)" d="M329.056 371.6 Q328.338 371.184 327.481 370.998 Q326.648 370.79 325.63 370.79 Q322.019 370.79 320.074 373.151 Q318.153 375.489 318.153 379.887 L318.153 393.545 L313.87 393.545 L313.87 367.619 L318.153 367.619 L318.153 371.647 Q319.495 369.286 321.648 368.151 Q323.801 366.994 326.88 366.994 Q327.319 366.994 327.852 367.063 Q328.384 367.11 329.032 367.225 L329.056 371.6 Z" fill="#000000" fill-rule="evenodd" fill-opacity="1" /><path clip-path="url(#clip550)" d="M348.292 374.91 Q351.648 375.628 353.523 377.897 Q355.421 380.165 355.421 383.498 Q355.421 388.614 351.903 391.415 Q348.384 394.216 341.903 394.216 Q339.727 394.216 337.412 393.776 Q335.12 393.359 332.667 392.503 L332.667 387.989 Q334.611 389.123 336.926 389.702 Q339.241 390.281 341.764 390.281 Q346.162 390.281 348.454 388.545 Q350.768 386.809 350.768 383.498 Q350.768 380.443 348.616 378.73 Q346.486 376.994 342.667 376.994 L338.639 376.994 L338.639 373.151 L342.852 373.151 Q346.301 373.151 348.13 371.786 Q349.958 370.397 349.958 367.804 Q349.958 365.142 348.06 363.73 Q346.185 362.295 342.667 362.295 Q340.745 362.295 338.546 362.711 Q336.347 363.128 333.708 364.008 L333.708 359.841 Q336.37 359.1 338.685 358.73 Q341.023 358.36 343.083 358.36 Q348.407 358.36 351.509 360.79 Q354.611 363.198 354.611 367.318 Q354.611 370.188 352.967 372.179 Q351.324 374.147 348.292 374.91 Z" fill="#000000" fill-rule="evenodd" fill-opacity="1" /><polyline clip-path="url(#clip550)" style="stroke:#ac8d18; stroke-linecap:butt; stroke-linejoin:round; stroke-width:4; stroke-opacity:1; fill:none" points="
  145.962,428.105 289.884,428.105 
  "/>
<path clip-path="url(#clip550)" d="M329.056 423.44 Q328.338 423.024 327.481 422.838 Q326.648 422.63 325.63 422.63 Q322.019 422.63 320.074 424.991 Q318.153 427.329 318.153 431.727 L318.153 445.385 L313.87 445.385 L313.87 419.459 L318.153 419.459 L318.153 423.487 Q319.495 421.126 321.648 419.991 Q323.801 418.834 326.88 418.834 Q327.319 418.834 327.852 418.903 Q328.384 418.95 329.032 419.065 L329.056 423.44 Z" fill="#000000" fill-rule="evenodd" fill-opacity="1" /><path clip-path="url(#clip550)" d="M346.972 414.899 L335.167 433.348 L346.972 433.348 L346.972 414.899 M345.745 410.825 L351.625 410.825 L351.625 433.348 L356.555 433.348 L356.555 437.237 L351.625 437.237 L351.625 445.385 L346.972 445.385 L346.972 437.237 L331.37 437.237 L331.37 432.723 L345.745 410.825 Z" fill="#000000" fill-rule="evenodd" fill-opacity="1" /><polyline clip-path="url(#clip550)" style="stroke:#00a9ad; stroke-linecap:butt; stroke-linejoin:round; stroke-width:4; stroke-opacity:1; fill:none" points="
  145.962,479.945 289.884,479.945 
  "/>
<path clip-path="url(#clip550)" d="M329.056 475.28 Q328.338 474.864 327.481 474.678 Q326.648 474.47 325.63 474.47 Q322.019 474.47 320.074 476.831 Q318.153 479.169 318.153 483.567 L318.153 497.225 L313.87 497.225 L313.87 471.299 L318.153 471.299 L318.153 475.327 Q319.495 472.966 321.648 471.831 Q323.801 470.674 326.88 470.674 Q327.319 470.674 327.852 470.743 Q328.384 470.79 329.032 470.905 L329.056 475.28 Z" fill="#000000" fill-rule="evenodd" fill-opacity="1" /><path clip-path="url(#clip550)" d="M334.171 462.665 L352.528 462.665 L352.528 466.6 L338.454 466.6 L338.454 475.072 Q339.472 474.725 340.491 474.563 Q341.509 474.378 342.528 474.378 Q348.315 474.378 351.694 477.549 Q355.074 480.72 355.074 486.137 Q355.074 491.715 351.602 494.817 Q348.13 497.896 341.81 497.896 Q339.634 497.896 337.366 497.526 Q335.12 497.155 332.713 496.414 L332.713 491.715 Q334.796 492.85 337.018 493.405 Q339.241 493.961 341.718 493.961 Q345.722 493.961 348.06 491.854 Q350.398 489.748 350.398 486.137 Q350.398 482.526 348.06 480.419 Q345.722 478.313 341.718 478.313 Q339.843 478.313 337.968 478.729 Q336.116 479.146 334.171 480.026 L334.171 462.665 Z" fill="#000000" fill-rule="evenodd" fill-opacity="1" /></svg>
