<?xml version="1.0" encoding="utf-8"?>
<svg xmlns="http://www.w3.org/2000/svg" xmlns:xlink="http://www.w3.org/1999/xlink" width="600" height="400" viewBox="0 0 2400 1600">
<defs>
  <clipPath id="clip430">
    <rect x="0" y="0" width="2400" height="1600"/>
  </clipPath>
</defs>
<path clip-path="url(#clip430)" d="
M0 1600 L2400 1600 L2400 0 L0 0  Z
  " fill="#ffffff" fill-rule="evenodd" fill-opacity="1"/>
<defs>
  <clipPath id="clip431">
    <rect x="480" y="0" width="1681" height="1600"/>
  </clipPath>
</defs>
<path clip-path="url(#clip430)" d="
M501.973 1486.45 L2352.76 1486.45 L2352.76 123.472 L501.973 123.472  Z
  " fill="#ffffff" fill-rule="evenodd" fill-opacity="1"/>
<defs>
  <clipPath id="clip432">
    <rect x="501" y="123" width="1852" height="1364"/>
  </clipPath>
</defs>
<polyline clip-path="url(#clip432)" style="stroke:#000000; stroke-linecap:butt; stroke-linejoin:round; stroke-width:2; stroke-opacity:0.1; fill:none" points="
  728.956,1486.45 728.956,123.472 
  "/>
<polyline clip-path="url(#clip432)" style="stroke:#000000; stroke-linecap:butt; stroke-linejoin:round; stroke-width:2; stroke-opacity:0.1; fill:none" points="
  1078.16,1486.45 1078.16,123.472 
  "/>
<polyline clip-path="url(#clip432)" style="stroke:#000000; stroke-linecap:butt; stroke-linejoin:round; stroke-width:2; stroke-opacity:0.1; fill:none" points="
  1427.36,1486.45 1427.36,123.472 
  "/>
<polyline clip-path="url(#clip432)" style="stroke:#000000; stroke-linecap:butt; stroke-linejoin:round; stroke-width:2; stroke-opacity:0.1; fill:none" points="
  1776.57,1486.45 1776.57,123.472 
  "/>
<polyline clip-path="url(#clip432)" style="stroke:#000000; stroke-linecap:butt; stroke-linejoin:round; stroke-width:2; stroke-opacity:0.1; fill:none" points="
  2125.77,1486.45 2125.77,123.472 
  "/>
<polyline clip-path="url(#clip430)" style="stroke:#000000; stroke-linecap:butt; stroke-linejoin:round; stroke-width:4; stroke-opacity:1; fill:none" points="
  501.973,1486.45 2352.76,1486.45 
  "/>
<polyline clip-path="url(#clip430)" style="stroke:#000000; stroke-linecap:butt; stroke-linejoin:round; stroke-width:4; stroke-opacity:1; fill:none" points="
  728.956,1486.45 728.956,1467.55 
  "/>
<polyline clip-path="url(#clip430)" style="stroke:#000000; stroke-linecap:butt; stroke-linejoin:round; stroke-width:4; stroke-opacity:1; fill:none" points="
  1078.16,1486.45 1078.16,1467.55 
  "/>
<polyline clip-path="url(#clip430)" style="stroke:#000000; stroke-linecap:butt; stroke-linejoin:round; stroke-width:4; stroke-opacity:1; fill:none" points="
  1427.36,1486.45 1427.36,1467.55 
  "/>
<polyline clip-path="url(#clip430)" style="stroke:#000000; stroke-linecap:butt; stroke-linejoin:round; stroke-width:4; stroke-opacity:1; fill:none" points="
  1776.57,1486.45 1776.57,1467.55 
  "/>
<polyline clip-path="url(#clip430)" style="stroke:#000000; stroke-linecap:butt; stroke-linejoin:round; stroke-width:4; stroke-opacity:1; fill:none" points="
  2125.77,1486.45 2125.77,1467.55 
  "/>
<path clip-path="url(#clip430)" d="M697.857 1532.02 L727.533 1532.02 L727.533 1535.95 L697.857 1535.95 L697.857 1532.02 Z" fill="#000000" fill-rule="evenodd" fill-opacity="1" /><path clip-path="url(#clip430)" d="M750.472 1518.36 L738.667 1536.81 L750.472 1536.81 L750.472 1518.36 M749.245 1514.29 L755.125 1514.29 L755.125 1536.81 L760.056 1536.81 L760.056 1540.7 L755.125 1540.7 L755.125 1548.85 L750.472 1548.85 L750.472 1540.7 L734.87 1540.7 L734.87 1536.19 L749.245 1514.29 Z" fill="#000000" fill-rule="evenodd" fill-opacity="1" /><path clip-path="url(#clip430)" d="M1048.1 1532.02 L1077.78 1532.02 L1077.78 1535.95 L1048.1 1535.95 L1048.1 1532.02 Z" fill="#000000" fill-rule="evenodd" fill-opacity="1" /><path clip-path="url(#clip430)" d="M1091.9 1544.91 L1108.22 1544.91 L1108.22 1548.85 L1086.27 1548.85 L1086.27 1544.91 Q1088.94 1542.16 1093.52 1537.53 Q1098.13 1532.88 1099.31 1531.53 Q1101.55 1529.01 1102.43 1527.27 Q1103.33 1525.51 1103.33 1523.82 Q1103.33 1521.07 1101.39 1519.33 Q1099.47 1517.6 1096.37 1517.6 Q1094.17 1517.6 1091.71 1518.36 Q1089.28 1519.13 1086.51 1520.68 L1086.51 1515.95 Q1089.33 1514.82 1091.78 1514.24 Q1094.24 1513.66 1096.27 1513.66 Q1101.64 1513.66 1104.84 1516.35 Q1108.03 1519.03 1108.03 1523.52 Q1108.03 1525.65 1107.22 1527.57 Q1106.44 1529.47 1104.33 1532.07 Q1103.75 1532.74 1100.65 1535.95 Q1097.55 1539.15 1091.9 1544.91 Z" fill="#000000" fill-rule="evenodd" fill-opacity="1" /><path clip-path="url(#clip430)" d="M1427.36 1517.37 Q1423.75 1517.37 1421.92 1520.93 Q1420.12 1524.47 1420.12 1531.6 Q1420.12 1538.71 1421.92 1542.27 Q1423.75 1545.82 1427.36 1545.82 Q1431 1545.82 1432.8 1542.27 Q1434.63 1538.71 1434.63 1531.6 Q1434.63 1524.47 1432.8 1520.93 Q1431 1517.37 1427.36 1517.37 M1427.36 1513.66 Q1433.17 1513.66 1436.23 1518.27 Q1439.31 1522.85 1439.31 1531.6 Q1439.31 1540.33 1436.23 1544.94 Q1433.17 1549.52 1427.36 1549.52 Q1421.55 1549.52 1418.48 1544.94 Q1415.42 1540.33 1415.42 1531.6 Q1415.42 1522.85 1418.48 1518.27 Q1421.55 1513.66 1427.36 1513.66 Z" fill="#000000" fill-rule="evenodd" fill-opacity="1" /><path clip-path="url(#clip430)" d="M1771.22 1544.91 L1787.54 1544.91 L1787.54 1548.85 L1765.6 1548.85 L1765.6 1544.91 Q1768.26 1542.16 1772.84 1537.53 Q1777.45 1532.88 1778.63 1531.53 Q1780.87 1529.01 1781.75 1527.27 Q1782.66 1525.51 1782.66 1523.82 Q1782.66 1521.07 1780.71 1519.33 Q1778.79 1517.6 1775.69 1517.6 Q1773.49 1517.6 1771.04 1518.36 Q1768.61 1519.13 1765.83 1520.68 L1765.83 1515.95 Q1768.65 1514.82 1771.11 1514.24 Q1773.56 1513.66 1775.6 1513.66 Q1780.97 1513.66 1784.16 1516.35 Q1787.36 1519.03 1787.36 1523.52 Q1787.36 1525.65 1786.55 1527.57 Q1785.76 1529.47 1783.65 1532.07 Q1783.07 1532.74 1779.97 1535.95 Q1776.87 1539.15 1771.22 1544.91 Z" fill="#000000" fill-rule="evenodd" fill-opacity="1" /><path clip-path="url(#clip430)" d="M2128.78 1518.36 L2116.98 1536.81 L2128.78 1536.81 L2128.78 1518.36 M2127.56 1514.29 L2133.44 1514.29 L2133.44 1536.81 L2138.37 1536.81 L2138.37 1540.7 L2133.44 1540.7 L2133.44 1548.85 L2128.78 1548.85 L2128.78 1540.7 L2113.18 1540.7 L2113.18 1536.19 L2127.56 1514.29 Z" fill="#000000" fill-rule="evenodd" fill-opacity="1" /><polyline clip-path="url(#clip432)" style="stroke:#000000; stroke-linecap:butt; stroke-linejoin:round; stroke-width:2; stroke-opacity:0.1; fill:none" points="
  501.973,1372.87 2352.76,1372.87 
  "/>
<polyline clip-path="url(#clip432)" style="stroke:#000000; stroke-linecap:butt; stroke-linejoin:round; stroke-width:2; stroke-opacity:0.1; fill:none" points="
  501.973,1145.7 2352.76,1145.7 
  "/>
<polyline clip-path="url(#clip432)" style="stroke:#000000; stroke-linecap:butt; stroke-linejoin:round; stroke-width:2; stroke-opacity:0.1; fill:none" points="
  501.973,918.541 2352.76,918.541 
  "/>
<polyline clip-path="url(#clip432)" style="stroke:#000000; stroke-linecap:butt; stroke-linejoin:round; stroke-width:2; stroke-opacity:0.1; fill:none" points="
  501.973,691.379 2352.76,691.379 
  "/>
<polyline clip-path="url(#clip432)" style="stroke:#000000; stroke-linecap:butt; stroke-linejoin:round; stroke-width:2; stroke-opacity:0.1; fill:none" points="
  501.973,464.216 2352.76,464.216 
  "/>
<polyline clip-path="url(#clip432)" style="stroke:#000000; stroke-linecap:butt; stroke-linejoin:round; stroke-width:2; stroke-opacity:0.1; fill:none" points="
  501.973,237.053 2352.76,237.053 
  "/>
<polyline clip-path="url(#clip430)" style="stroke:#000000; stroke-linecap:butt; stroke-linejoin:round; stroke-width:4; stroke-opacity:1; fill:none" points="
  501.973,1486.45 501.973,123.472 
  "/>
<polyline clip-path="url(#clip430)" style="stroke:#000000; stroke-linecap:butt; stroke-linejoin:round; stroke-width:4; stroke-opacity:1; fill:none" points="
  501.973,1372.87 517.583,1372.87 
  "/>
<polyline clip-path="url(#clip430)" style="stroke:#000000; stroke-linecap:butt; stroke-linejoin:round; stroke-width:4; stroke-opacity:1; fill:none" points="
  501.973,1145.7 517.583,1145.7 
  "/>
<polyline clip-path="url(#clip430)" style="stroke:#000000; stroke-linecap:butt; stroke-linejoin:round; stroke-width:4; stroke-opacity:1; fill:none" points="
  501.973,918.541 517.583,918.541 
  "/>
<polyline clip-path="url(#clip430)" style="stroke:#000000; stroke-linecap:butt; stroke-linejoin:round; stroke-width:4; stroke-opacity:1; fill:none" points="
  501.973,691.379 517.583,691.379 
  "/>
<polyline clip-path="url(#clip430)" style="stroke:#000000; stroke-linecap:butt; stroke-linejoin:round; stroke-width:4; stroke-opacity:1; fill:none" points="
  501.973,464.216 517.583,464.216 
  "/>
<polyline clip-path="url(#clip430)" style="stroke:#000000; stroke-linecap:butt; stroke-linejoin:round; stroke-width:4; stroke-opacity:1; fill:none" points="
  501.973,237.053 517.583,237.053 
  "/>
<path clip-path="url(#clip430)" d="M454.029 1358.67 Q450.418 1358.67 448.589 1362.23 Q446.784 1365.77 446.784 1372.9 Q446.784 1380.01 448.589 1383.57 Q450.418 1387.11 454.029 1387.11 Q457.663 1387.11 459.469 1383.57 Q461.297 1380.01 461.297 1372.9 Q461.297 1365.77 459.469 1362.23 Q457.663 1358.67 454.029 1358.67 M454.029 1354.96 Q459.839 1354.96 462.895 1359.57 Q465.973 1364.15 465.973 1372.9 Q465.973 1381.63 462.895 1386.23 Q459.839 1390.82 454.029 1390.82 Q448.219 1390.82 445.14 1386.23 Q442.085 1381.63 442.085 1372.9 Q442.085 1364.15 445.14 1359.57 Q448.219 1354.96 454.029 1354.96 Z" fill="#000000" fill-rule="evenodd" fill-opacity="1" /><path clip-path="url(#clip430)" d="M446.066 1159.05 L453.705 1159.05 L453.705 1132.68 L445.395 1134.35 L445.395 1130.09 L453.659 1128.42 L458.335 1128.42 L458.335 1159.05 L465.973 1159.05 L465.973 1162.98 L446.066 1162.98 L446.066 1159.05 Z" fill="#000000" fill-rule="evenodd" fill-opacity="1" /><path clip-path="url(#clip430)" d="M449.654 931.886 L465.973 931.886 L465.973 935.821 L444.029 935.821 L444.029 931.886 Q446.691 929.132 451.274 924.502 Q455.881 919.849 457.061 918.507 Q459.307 915.983 460.186 914.247 Q461.089 912.488 461.089 910.798 Q461.089 908.044 459.145 906.308 Q457.223 904.571 454.122 904.571 Q451.923 904.571 449.469 905.335 Q447.038 906.099 444.261 907.65 L444.261 902.928 Q447.085 901.794 449.538 901.215 Q451.992 900.636 454.029 900.636 Q459.399 900.636 462.594 903.321 Q465.788 906.007 465.788 910.497 Q465.788 912.627 464.978 914.548 Q464.191 916.446 462.085 919.039 Q461.506 919.71 458.404 922.928 Q455.302 926.122 449.654 931.886 Z" fill="#000000" fill-rule="evenodd" fill-opacity="1" /><path clip-path="url(#clip430)" d="M458.844 690.025 Q462.2 690.742 464.075 693.011 Q465.973 695.279 465.973 698.612 Q465.973 703.728 462.455 706.529 Q458.936 709.33 452.455 709.33 Q450.279 709.33 447.964 708.89 Q445.673 708.474 443.219 707.617 L443.219 703.103 Q445.163 704.237 447.478 704.816 Q449.793 705.395 452.316 705.395 Q456.714 705.395 459.006 703.659 Q461.321 701.923 461.321 698.612 Q461.321 695.557 459.168 693.844 Q457.038 692.108 453.219 692.108 L449.191 692.108 L449.191 688.265 L453.404 688.265 Q456.853 688.265 458.682 686.9 Q460.51 685.511 460.51 682.918 Q460.51 680.256 458.612 678.844 Q456.737 677.409 453.219 677.409 Q451.298 677.409 449.098 677.826 Q446.899 678.242 444.261 679.122 L444.261 674.955 Q446.923 674.214 449.237 673.844 Q451.575 673.474 453.635 673.474 Q458.96 673.474 462.061 675.904 Q465.163 678.312 465.163 682.432 Q465.163 685.302 463.52 687.293 Q461.876 689.261 458.844 690.025 Z" fill="#000000" fill-rule="evenodd" fill-opacity="1" /><path clip-path="url(#clip430)" d="M456.39 451.01 L444.585 469.459 L456.39 469.459 L456.39 451.01 M455.163 446.936 L461.043 446.936 L461.043 469.459 L465.973 469.459 L465.973 473.348 L461.043 473.348 L461.043 481.496 L456.39 481.496 L456.39 473.348 L440.788 473.348 L440.788 468.834 L455.163 446.936 Z" fill="#000000" fill-rule="evenodd" fill-opacity="1" /><path clip-path="url(#clip430)" d="M445.071 219.773 L463.427 219.773 L463.427 223.709 L449.353 223.709 L449.353 232.181 Q450.372 231.834 451.39 231.672 Q452.409 231.486 453.427 231.486 Q459.214 231.486 462.594 234.658 Q465.973 237.829 465.973 243.246 Q465.973 248.824 462.501 251.926 Q459.029 255.005 452.71 255.005 Q450.534 255.005 448.265 254.634 Q446.02 254.264 443.612 253.523 L443.612 248.824 Q445.696 249.958 447.918 250.514 Q450.14 251.07 452.617 251.07 Q456.622 251.07 458.96 248.963 Q461.297 246.857 461.297 243.246 Q461.297 239.634 458.96 237.528 Q456.622 235.422 452.617 235.422 Q450.742 235.422 448.867 235.838 Q447.015 236.255 445.071 237.134 L445.071 219.773 Z" fill="#000000" fill-rule="evenodd" fill-opacity="1" /><path clip-path="url(#clip430)" d="M1205.98 12.096 L1244.22 12.096 L1244.22 18.9825 L1214.17 18.9825 L1214.17 36.8875 L1242.97 36.8875 L1242.97 43.7741 L1214.17 43.7741 L1214.17 65.6895 L1244.95 65.6895 L1244.95 72.576 L1205.98 72.576 L1205.98 12.096 Z" fill="#000000" fill-rule="evenodd" fill-opacity="1" /><path clip-path="url(#clip430)" d="M1284.37 34.1734 Q1283.11 33.4443 1281.61 33.1202 Q1280.15 32.7556 1278.37 32.7556 Q1272.05 32.7556 1268.65 36.8875 Q1265.29 40.9789 1265.29 48.6757 L1265.29 72.576 L1257.79 72.576 L1257.79 27.2059 L1265.29 27.2059 L1265.29 34.2544 Q1267.64 30.1225 1271.4 28.1376 Q1275.17 26.1121 1280.56 26.1121 Q1281.33 26.1121 1282.26 26.2337 Q1283.19 26.3147 1284.33 26.5172 L1284.37 34.1734 Z" fill="#000000" fill-rule="evenodd" fill-opacity="1" /><path clip-path="url(#clip430)" d="M1317.02 34.1734 Q1315.76 33.4443 1314.26 33.1202 Q1312.81 32.7556 1311.02 32.7556 Q1304.7 32.7556 1301.3 36.8875 Q1297.94 40.9789 1297.94 48.6757 L1297.94 72.576 L1290.44 72.576 L1290.44 27.2059 L1297.94 27.2059 L1297.94 34.2544 Q1300.29 30.1225 1304.06 28.1376 Q1307.82 26.1121 1313.21 26.1121 Q1313.98 26.1121 1314.91 26.2337 Q1315.84 26.3147 1316.98 26.5172 L1317.02 34.1734 Z" fill="#000000" fill-rule="evenodd" fill-opacity="1" /><path clip-path="url(#clip430)" d="M1340.59 32.4315 Q1334.6 32.4315 1331.12 37.1306 Q1327.63 41.7891 1327.63 49.9314 Q1327.63 58.0738 1331.07 62.7728 Q1334.56 67.4314 1340.59 67.4314 Q1346.55 67.4314 1350.03 62.7323 Q1353.52 58.0333 1353.52 49.9314 Q1353.52 41.8701 1350.03 37.1711 Q1346.55 32.4315 1340.59 32.4315 M1340.59 26.1121 Q1350.32 26.1121 1355.87 32.4315 Q1361.42 38.7509 1361.42 49.9314 Q1361.42 61.0714 1355.87 67.4314 Q1350.32 73.7508 1340.59 73.7508 Q1330.83 73.7508 1325.28 67.4314 Q1319.77 61.0714 1319.77 49.9314 Q1319.77 38.7509 1325.28 32.4315 Q1330.83 26.1121 1340.59 26.1121 Z" fill="#000000" fill-rule="evenodd" fill-opacity="1" /><path clip-path="url(#clip430)" d="M1400.06 34.1734 Q1398.81 33.4443 1397.31 33.1202 Q1395.85 32.7556 1394.07 32.7556 Q1387.75 32.7556 1384.34 36.8875 Q1380.98 40.9789 1380.98 48.6757 L1380.98 72.576 L1373.49 72.576 L1373.49 27.2059 L1380.98 27.2059 L1380.98 34.2544 Q1383.33 30.1225 1387.1 28.1376 Q1390.87 26.1121 1396.25 26.1121 Q1397.02 26.1121 1397.96 26.2337 Q1398.89 26.3147 1400.02 26.5172 L1400.06 34.1734 Z" fill="#000000" fill-rule="evenodd" fill-opacity="1" /><path clip-path="url(#clip430)" d="M1435.22 34.9026 L1487.16 34.9026 L1487.16 41.7081 L1435.22 41.7081 L1435.22 34.9026 M1435.22 51.4303 L1487.16 51.4303 L1487.16 58.3168 L1435.22 58.3168 L1435.22 51.4303 Z" fill="#000000" fill-rule="evenodd" fill-opacity="1" /><path clip-path="url(#clip430)" d="M1548.69 17.4837 Q1542.37 17.4837 1539.17 23.7221 Q1536.01 29.92 1536.01 42.3968 Q1536.01 54.833 1539.17 61.0714 Q1542.37 67.2693 1548.69 67.2693 Q1555.05 67.2693 1558.21 61.0714 Q1561.41 54.833 1561.41 42.3968 Q1561.41 29.92 1558.21 23.7221 Q1555.05 17.4837 1548.69 17.4837 M1548.69 11.0023 Q1558.86 11.0023 1564.2 19.0636 Q1569.59 27.0843 1569.59 42.3968 Q1569.59 57.6687 1564.2 65.73 Q1558.86 73.7508 1548.69 73.7508 Q1538.52 73.7508 1533.13 65.73 Q1527.79 57.6687 1527.79 42.3968 Q1527.79 27.0843 1533.13 19.0636 Q1538.52 11.0023 1548.69 11.0023 Z" fill="#000000" fill-rule="evenodd" fill-opacity="1" /><path clip-path="url(#clip430)" d="M1583.97 62.2867 L1592.52 62.2867 L1592.52 72.576 L1583.97 72.576 L1583.97 62.2867 Z" fill="#000000" fill-rule="evenodd" fill-opacity="1" /><path clip-path="url(#clip430)" d="M1627.84 17.4837 Q1621.52 17.4837 1618.32 23.7221 Q1615.16 29.92 1615.16 42.3968 Q1615.16 54.833 1618.32 61.0714 Q1621.52 67.2693 1627.84 67.2693 Q1634.2 67.2693 1637.36 61.0714 Q1640.56 54.833 1640.56 42.3968 Q1640.56 29.92 1637.36 23.7221 Q1634.2 17.4837 1627.84 17.4837 M1627.84 11.0023 Q1638.01 11.0023 1643.36 19.0636 Q1648.75 27.0843 1648.75 42.3968 Q1648.75 57.6687 1643.36 65.73 Q1638.01 73.7508 1627.84 73.7508 Q1617.68 73.7508 1612.29 65.73 Q1606.94 57.6687 1606.94 42.3968 Q1606.94 27.0843 1612.29 19.0636 Q1617.68 11.0023 1627.84 11.0023 Z" fill="#000000" fill-rule="evenodd" fill-opacity="1" /><polyline clip-path="url(#clip432)" style="stroke:#009af9; stroke-linecap:butt; stroke-linejoin:round; stroke-width:20; stroke-opacity:1; fill:none" points="
  554.354,237.053 571.814,259.77 589.274,282.486 606.735,305.202 624.195,327.918 641.655,350.635 659.115,373.351 676.576,396.067 694.036,418.784 711.496,441.5 
  728.956,464.216 746.416,486.932 763.877,509.649 781.337,532.365 798.797,555.081 816.257,577.797 833.717,600.514 851.178,623.23 868.638,645.946 886.098,668.662 
  903.558,691.379 921.018,714.095 938.479,736.811 955.939,759.527 973.399,782.244 990.859,804.96 1008.32,827.676 1025.78,850.393 1043.24,873.109 1060.7,895.825 
  1078.16,918.541 1095.62,941.258 1113.08,963.974 1130.54,986.69 1148,1009.41 1165.46,1032.12 1182.92,1054.84 1200.38,1077.56 1217.84,1100.27 1235.3,1122.99 
  1252.76,1145.7 1270.22,1168.42 1287.68,1191.14 1305.14,1213.85 1322.6,1236.57 1340.06,1259.29 1357.52,1282 1374.98,1304.72 1392.44,1327.43 1409.9,1350.15 
  1427.36,1372.87 1444.82,1350.15 1462.29,1327.43 1479.75,1304.72 1497.21,1282 1514.67,1259.29 1532.13,1236.57 1549.59,1213.85 1567.05,1191.14 1584.51,1168.42 
  1601.97,1145.7 1619.43,1122.99 1636.89,1100.27 1654.35,1077.56 1671.81,1054.84 1689.27,1032.12 1706.73,1009.41 1724.19,986.69 1741.65,963.974 1759.11,941.258 
  1776.57,918.541 1794.03,895.825 1811.49,873.109 1828.95,850.393 1846.41,827.676 1863.87,804.96 1881.33,782.244 1898.79,759.527 1916.25,736.811 1933.71,714.095 
  1951.17,691.379 1968.63,668.662 1986.09,645.946 2003.55,623.23 2021.01,600.514 2038.47,577.797 2055.93,555.081 2073.39,532.365 2090.85,509.649 2108.31,486.932 
  2125.77,464.216 2143.23,441.5 2160.69,418.784 2178.15,396.067 2195.61,373.351 2213.07,350.635 2230.53,327.918 2247.99,305.202 2265.45,282.486 2282.92,259.77 
  2300.38,237.053 
  "/>
<polyline clip-path="url(#clip432)" style="stroke:#e26f46; stroke-linecap:butt; stroke-linejoin:round; stroke-width:4; stroke-opacity:1; fill:none" points="
  554.354,237.053 571.814,259.77 589.274,282.486 606.735,305.202 624.195,327.918 641.655,350.635 659.115,373.351 676.576,396.067 694.036,418.784 711.496,441.5 
  728.956,464.216 746.416,486.932 763.877,509.649 781.337,532.365 798.797,555.081 816.257,577.797 833.717,600.514 851.178,623.23 868.638,645.946 886.098,668.662 
  903.558,691.379 921.018,714.095 938.479,736.811 955.939,759.527 973.399,782.244 990.859,804.96 1008.32,827.676 1025.78,850.393 1043.24,873.109 1060.7,895.825 
  1078.16,918.541 1095.62,941.258 1113.08,963.974 1130.54,986.69 1148,1009.41 1165.46,1032.12 1182.92,1054.84 1200.38,1077.56 1217.84,1100.27 1235.3,1122.99 
  1252.76,1145.7 1270.22,1168.42 1287.68,1191.14 1305.14,1213.85 1322.6,1236.57 1340.06,1259.29 1357.52,1282 1374.98,1304.72 1392.44,1327.43 1409.9,1350.15 
  1427.36,1372.87 1444.82,1395.58 1462.29,1418.3 1479.75,1441.02 1497.21,1463.73 1514.67,1486.45 1532.13,1509.16 1549.59,1531.88 1567.05,1554.6 1584.51,1577.31 
  1601.97,1600.03 1619.43,1622.75 1636.89,1645.46 1654.35,1668.18 1671.81,1690.89 1689.27,1713.61 1706.73,1736.33 1724.19,1759.04 1741.65,1781.76 1759.11,1804.48 
  1776.57,1827.19 1794.03,1849.91 1811.49,1872.62 1828.95,1895.34 1846.41,1918.06 1863.87,1940.77 1881.33,1963.49 1898.79,1986.21 1916.25,2008.92 1933.71,2031.64 
  1951.17,2054.35 1968.63,2077.07 1986.09,2099.79 2003.55,2122.5 2021.01,2145.22 2038.47,2167.94 2055.93,2190.65 2073.39,2213.37 2090.85,2236.08 2108.31,2258.8 
  2125.77,2281.52 2143.23,2304.23 2160.69,2326.95 2178.15,2349.67 2195.61,2372.38 2213.07,2395.1 2230.53,2417.81 2247.99,2440.53 2265.45,2463.25 2282.92,2485.96 
  2300.38,2508.68 
  "/>
<polyline clip-path="url(#clip432)" style="stroke:#3da44d; stroke-linecap:butt; stroke-linejoin:round; stroke-width:4; stroke-opacity:1; fill:none" points="
  554.354,2508.68 571.814,2485.96 589.274,2463.25 606.735,2440.53 624.195,2417.81 641.655,2395.1 659.115,2372.38 676.576,2349.67 694.036,2326.95 711.496,2304.23 
  728.956,2281.52 746.416,2258.8 763.877,2236.08 781.337,2213.37 798.797,2190.65 816.257,2167.94 833.717,2145.22 851.178,2122.5 868.638,2099.79 886.098,2077.07 
  903.558,2054.35 921.018,2031.64 938.479,2008.92 955.939,1986.21 973.399,1963.49 990.859,1940.77 1008.32,1918.06 1025.78,1895.34 1043.24,1872.62 1060.7,1849.91 
  1078.16,1827.19 1095.62,1804.48 1113.08,1781.76 1130.54,1759.04 1148,1736.33 1165.46,1713.61 1182.92,1690.89 1200.38,1668.18 1217.84,1645.46 1235.3,1622.75 
  1252.76,1600.03 1270.22,1577.31 1287.68,1554.6 1305.14,1531.88 1322.6,1509.16 1340.06,1486.45 1357.52,1463.73 1374.98,1441.02 1392.44,1418.3 1409.9,1395.58 
  1427.36,1372.87 1444.82,1350.15 1462.29,1327.43 1479.75,1304.72 1497.21,1282 1514.67,1259.29 1532.13,1236.57 1549.59,1213.85 1567.05,1191.14 1584.51,1168.42 
  1601.97,1145.7 1619.43,1122.99 1636.89,1100.27 1654.35,1077.56 1671.81,1054.84 1689.27,1032.12 1706.73,1009.41 1724.19,986.69 1741.65,963.974 1759.11,941.258 
  1776.57,918.541 1794.03,895.825 1811.49,873.109 1828.95,850.393 1846.41,827.676 1863.87,804.96 1881.33,782.244 1898.79,759.527 1916.25,736.811 1933.71,714.095 
  1951.17,691.379 1968.63,668.662 1986.09,645.946 2003.55,623.23 2021.01,600.514 2038.47,577.797 2055.93,555.081 2073.39,532.365 2090.85,509.649 2108.31,486.932 
  2125.77,464.216 2143.23,441.5 2160.69,418.784 2178.15,396.067 2195.61,373.351 2213.07,350.635 2230.53,327.918 2247.99,305.202 2265.45,282.486 2282.92,259.77 
  2300.38,237.053 
  "/>
<path clip-path="url(#clip430)" d="
M37.4912 376.265 L327.416 376.265 L327.416 168.905 L37.4912 168.905  Z
  " fill="#ffffff" fill-rule="evenodd" fill-opacity="1"/>
<polyline clip-path="url(#clip430)" style="stroke:#000000; stroke-linecap:butt; stroke-linejoin:round; stroke-width:4; stroke-opacity:1; fill:none" points="
  37.4912,376.265 327.416,376.265 327.416,168.905 37.4912,168.905 37.4912,376.265 
  "/>
<polyline clip-path="url(#clip430)" style="stroke:#009af9; stroke-linecap:butt; stroke-linejoin:round; stroke-width:4; stroke-opacity:1; fill:none" points="
  62.3865,220.745 211.758,220.745 
  "/>
<path clip-path="url(#clip430)" d="M253.158 202.006 L253.158 205.548 L249.084 205.548 Q246.793 205.548 245.89 206.474 Q245.01 207.4 245.01 209.807 L245.01 212.099 L252.024 212.099 L252.024 215.409 L245.01 215.409 L245.01 238.025 L240.728 238.025 L240.728 215.409 L236.654 215.409 L236.654 212.099 L240.728 212.099 L240.728 210.293 Q240.728 205.965 242.742 203.997 Q244.756 202.006 249.131 202.006 L253.158 202.006 Z" fill="#000000" fill-rule="evenodd" fill-opacity="1" /><polyline clip-path="url(#clip430)" style="stroke:#e26f46; stroke-linecap:butt; stroke-linejoin:round; stroke-width:4; stroke-opacity:1; fill:none" points="
  62.3865,272.585 211.758,272.585 
  "/>
<path clip-path="url(#clip430)" d="M251.839 267.92 Q251.121 267.504 250.265 267.318 Q249.431 267.11 248.413 267.11 Q244.802 267.11 242.857 269.471 Q240.936 271.809 240.936 276.207 L240.936 289.865 L236.654 289.865 L236.654 263.939 L240.936 263.939 L240.936 267.967 Q242.279 265.606 244.432 264.471 Q246.584 263.314 249.663 263.314 Q250.103 263.314 250.635 263.383 Q251.168 263.43 251.816 263.545 L251.839 267.92 Z" fill="#000000" fill-rule="evenodd" fill-opacity="1" /><path clip-path="url(#clip430)" d="M257.718 285.929 L265.357 285.929 L265.357 259.564 L257.047 261.231 L257.047 256.971 L265.311 255.305 L269.987 255.305 L269.987 285.929 L277.626 285.929 L277.626 289.865 L257.718 289.865 L257.718 285.929 Z" fill="#000000" fill-rule="evenodd" fill-opacity="1" /><polyline clip-path="url(#clip430)" style="stroke:#3da44d; stroke-linecap:butt; stroke-linejoin:round; stroke-width:4; stroke-opacity:1; fill:none" points="
  62.3865,324.425 211.758,324.425 
  "/>
<path clip-path="url(#clip430)" d="M251.839 319.76 Q251.121 319.344 250.265 319.158 Q249.431 318.95 248.413 318.95 Q244.802 318.95 242.857 321.311 Q240.936 323.649 240.936 328.047 L240.936 341.705 L236.654 341.705 L236.654 315.779 L240.936 315.779 L240.936 319.807 Q242.279 317.446 244.432 316.311 Q246.584 315.154 249.663 315.154 Q250.103 315.154 250.635 315.223 Q251.168 315.27 251.816 315.385 L251.839 319.76 Z" fill="#000000" fill-rule="evenodd" fill-opacity="1" /><path clip-path="url(#clip430)" d="M260.936 337.769 L277.255 337.769 L277.255 341.705 L255.311 341.705 L255.311 337.769 Q257.973 335.015 262.556 330.385 Q267.163 325.733 268.343 324.39 Q270.589 321.867 271.468 320.131 Q272.371 318.371 272.371 316.682 Q272.371 313.927 270.427 312.191 Q268.505 310.455 265.404 310.455 Q263.205 310.455 260.751 311.219 Q258.32 311.983 255.543 313.534 L255.543 308.811 Q258.367 307.677 260.82 307.098 Q263.274 306.52 265.311 306.52 Q270.681 306.52 273.876 309.205 Q277.07 311.89 277.07 316.381 Q277.07 318.51 276.26 320.432 Q275.473 322.33 273.367 324.922 Q272.788 325.594 269.686 328.811 Q266.584 332.006 260.936 337.769 Z" fill="#000000" fill-rule="evenodd" fill-opacity="1" /></svg>
