<?xml version="1.0" encoding="utf-8"?>
<svg xmlns="http://www.w3.org/2000/svg" xmlns:xlink="http://www.w3.org/1999/xlink" width="600" height="400" viewBox="0 0 2400 1600">
<defs>
  <clipPath id="clip590">
    <rect x="0" y="0" width="2400" height="1600"/>
  </clipPath>
</defs>
<path clip-path="url(#clip590)" d="
M0 1600 L2400 1600 L2400 0 L0 0  Z
  " fill="#ffffff" fill-rule="evenodd" fill-opacity="1"/>
<defs>
  <clipPath id="clip591">
    <rect x="480" y="0" width="1681" height="1600"/>
  </clipPath>
</defs>
<path clip-path="url(#clip590)" d="
M655.394 1486.45 L2352.76 1486.45 L2352.76 123.472 L655.394 123.472  Z
  " fill="#ffffff" fill-rule="evenodd" fill-opacity="1"/>
<defs>
  <clipPath id="clip592">
    <rect x="655" y="123" width="1698" height="1364"/>
  </clipPath>
</defs>
<polyline clip-path="url(#clip592)" style="stroke:#000000; stroke-linecap:butt; stroke-linejoin:round; stroke-width:2; stroke-opacity:0.1; fill:none" points="
  703.433,1486.45 703.433,123.472 
  "/>
<polyline clip-path="url(#clip592)" style="stroke:#000000; stroke-linecap:butt; stroke-linejoin:round; stroke-width:2; stroke-opacity:0.1; fill:none" points="
  994.576,1486.45 994.576,123.472 
  "/>
<polyline clip-path="url(#clip592)" style="stroke:#000000; stroke-linecap:butt; stroke-linejoin:round; stroke-width:2; stroke-opacity:0.1; fill:none" points="
  1285.72,1486.45 1285.72,123.472 
  "/>
<polyline clip-path="url(#clip592)" style="stroke:#000000; stroke-linecap:butt; stroke-linejoin:round; stroke-width:2; stroke-opacity:0.1; fill:none" points="
  1576.86,1486.45 1576.86,123.472 
  "/>
<polyline clip-path="url(#clip592)" style="stroke:#000000; stroke-linecap:butt; stroke-linejoin:round; stroke-width:2; stroke-opacity:0.1; fill:none" points="
  1868,1486.45 1868,123.472 
  "/>
<polyline clip-path="url(#clip592)" style="stroke:#000000; stroke-linecap:butt; stroke-linejoin:round; stroke-width:2; stroke-opacity:0.1; fill:none" points="
  2159.15,1486.45 2159.15,123.472 
  "/>
<polyline clip-path="url(#clip590)" style="stroke:#000000; stroke-linecap:butt; stroke-linejoin:round; stroke-width:4; stroke-opacity:1; fill:none" points="
  655.394,1486.45 2352.76,1486.45 
  "/>
<polyline clip-path="url(#clip590)" style="stroke:#000000; stroke-linecap:butt; stroke-linejoin:round; stroke-width:4; stroke-opacity:1; fill:none" points="
  703.433,1486.45 703.433,1467.55 
  "/>
<polyline clip-path="url(#clip590)" style="stroke:#000000; stroke-linecap:butt; stroke-linejoin:round; stroke-width:4; stroke-opacity:1; fill:none" points="
  994.576,1486.45 994.576,1467.55 
  "/>
<polyline clip-path="url(#clip590)" style="stroke:#000000; stroke-linecap:butt; stroke-linejoin:round; stroke-width:4; stroke-opacity:1; fill:none" points="
  1285.72,1486.45 1285.72,1467.55 
  "/>
<polyline clip-path="url(#clip590)" style="stroke:#000000; stroke-linecap:butt; stroke-linejoin:round; stroke-width:4; stroke-opacity:1; fill:none" points="
  1576.86,1486.45 1576.86,1467.55 
  "/>
<polyline clip-path="url(#clip590)" style="stroke:#000000; stroke-linecap:butt; stroke-linejoin:round; stroke-width:4; stroke-opacity:1; fill:none" points="
  1868,1486.45 1868,1467.55 
  "/>
<polyline clip-path="url(#clip590)" style="stroke:#000000; stroke-linecap:butt; stroke-linejoin:round; stroke-width:4; stroke-opacity:1; fill:none" points="
  2159.15,1486.45 2159.15,1467.55 
  "/>
<path clip-path="url(#clip590)" d="M703.433 1517.37 Q699.822 1517.37 697.993 1520.93 Q696.188 1524.47 696.188 1531.6 Q696.188 1538.71 697.993 1542.27 Q699.822 1545.82 703.433 1545.82 Q707.067 1545.82 708.873 1542.27 Q710.701 1538.71 710.701 1531.6 Q710.701 1524.47 708.873 1520.93 Q707.067 1517.37 703.433 1517.37 M703.433 1513.66 Q709.243 1513.66 712.299 1518.27 Q715.377 1522.85 715.377 1531.6 Q715.377 1540.33 712.299 1544.94 Q709.243 1549.52 703.433 1549.52 Q697.623 1549.52 694.544 1544.94 Q691.489 1540.33 691.489 1531.6 Q691.489 1522.85 694.544 1518.27 Q697.623 1513.66 703.433 1513.66 Z" fill="#000000" fill-rule="evenodd" fill-opacity="1" /><path clip-path="url(#clip590)" d="M984.958 1544.91 L992.596 1544.91 L992.596 1518.55 L984.286 1520.21 L984.286 1515.95 L992.55 1514.29 L997.226 1514.29 L997.226 1544.91 L1004.86 1544.91 L1004.86 1548.85 L984.958 1548.85 L984.958 1544.91 Z" fill="#000000" fill-rule="evenodd" fill-opacity="1" /><path clip-path="url(#clip590)" d="M1280.37 1544.91 L1296.69 1544.91 L1296.69 1548.85 L1274.75 1548.85 L1274.75 1544.91 Q1277.41 1542.16 1281.99 1537.53 Q1286.6 1532.88 1287.78 1531.53 Q1290.02 1529.01 1290.9 1527.27 Q1291.81 1525.51 1291.81 1523.82 Q1291.81 1521.07 1289.86 1519.33 Q1287.94 1517.6 1284.84 1517.6 Q1282.64 1517.6 1280.19 1518.36 Q1277.76 1519.13 1274.98 1520.68 L1274.98 1515.95 Q1277.8 1514.82 1280.26 1514.24 Q1282.71 1513.66 1284.75 1513.66 Q1290.12 1513.66 1293.31 1516.35 Q1296.51 1519.03 1296.51 1523.52 Q1296.51 1525.65 1295.69 1527.57 Q1294.91 1529.47 1292.8 1532.07 Q1292.22 1532.74 1289.12 1535.95 Q1286.02 1539.15 1280.37 1544.91 Z" fill="#000000" fill-rule="evenodd" fill-opacity="1" /><path clip-path="url(#clip590)" d="M1581.11 1530.21 Q1584.46 1530.93 1586.34 1533.2 Q1588.24 1535.47 1588.24 1538.8 Q1588.24 1543.92 1584.72 1546.72 Q1581.2 1549.52 1574.72 1549.52 Q1572.54 1549.52 1570.23 1549.08 Q1567.94 1548.66 1565.48 1547.81 L1565.48 1543.29 Q1567.43 1544.43 1569.74 1545.01 Q1572.06 1545.58 1574.58 1545.58 Q1578.98 1545.58 1581.27 1543.85 Q1583.59 1542.11 1583.59 1538.8 Q1583.59 1535.75 1581.43 1534.03 Q1579.3 1532.3 1575.48 1532.3 L1571.46 1532.3 L1571.46 1528.45 L1575.67 1528.45 Q1579.12 1528.45 1580.95 1527.09 Q1582.78 1525.7 1582.78 1523.11 Q1582.78 1520.45 1580.88 1519.03 Q1579 1517.6 1575.48 1517.6 Q1573.56 1517.6 1571.36 1518.01 Q1569.16 1518.43 1566.53 1519.31 L1566.53 1515.14 Q1569.19 1514.4 1571.5 1514.03 Q1573.84 1513.66 1575.9 1513.66 Q1581.22 1513.66 1584.33 1516.09 Q1587.43 1518.5 1587.43 1522.62 Q1587.43 1525.49 1585.78 1527.48 Q1584.14 1529.45 1581.11 1530.21 Z" fill="#000000" fill-rule="evenodd" fill-opacity="1" /><path clip-path="url(#clip590)" d="M1871.01 1518.36 L1859.21 1536.81 L1871.01 1536.81 L1871.01 1518.36 M1869.79 1514.29 L1875.67 1514.29 L1875.67 1536.81 L1880.6 1536.81 L1880.6 1540.7 L1875.67 1540.7 L1875.67 1548.85 L1871.01 1548.85 L1871.01 1540.7 L1855.41 1540.7 L1855.41 1536.19 L1869.79 1514.29 Z" fill="#000000" fill-rule="evenodd" fill-opacity="1" /><path clip-path="url(#clip590)" d="M2149.42 1514.29 L2167.78 1514.29 L2167.78 1518.22 L2153.71 1518.22 L2153.71 1526.7 Q2154.72 1526.35 2155.74 1526.19 Q2156.76 1526 2157.78 1526 Q2163.57 1526 2166.95 1529.17 Q2170.33 1532.34 2170.33 1537.76 Q2170.33 1543.34 2166.85 1546.44 Q2163.38 1549.52 2157.06 1549.52 Q2154.89 1549.52 2152.62 1549.15 Q2150.37 1548.78 2147.97 1548.04 L2147.97 1543.34 Q2150.05 1544.47 2152.27 1545.03 Q2154.49 1545.58 2156.97 1545.58 Q2160.97 1545.58 2163.31 1543.48 Q2165.65 1541.37 2165.65 1537.76 Q2165.65 1534.15 2163.31 1532.04 Q2160.97 1529.94 2156.97 1529.94 Q2155.1 1529.94 2153.22 1530.35 Q2151.37 1530.77 2149.42 1531.65 L2149.42 1514.29 Z" fill="#000000" fill-rule="evenodd" fill-opacity="1" /><polyline clip-path="url(#clip592)" style="stroke:#000000; stroke-linecap:butt; stroke-linejoin:round; stroke-width:2; stroke-opacity:0.1; fill:none" points="
  655.394,1373.11 2352.76,1373.11 
  "/>
<polyline clip-path="url(#clip592)" style="stroke:#000000; stroke-linecap:butt; stroke-linejoin:round; stroke-width:2; stroke-opacity:0.1; fill:none" points="
  655.394,1089.08 2352.76,1089.08 
  "/>
<polyline clip-path="url(#clip592)" style="stroke:#000000; stroke-linecap:butt; stroke-linejoin:round; stroke-width:2; stroke-opacity:0.1; fill:none" points="
  655.394,805.059 2352.76,805.059 
  "/>
<polyline clip-path="url(#clip592)" style="stroke:#000000; stroke-linecap:butt; stroke-linejoin:round; stroke-width:2; stroke-opacity:0.1; fill:none" points="
  655.394,521.035 2352.76,521.035 
  "/>
<polyline clip-path="url(#clip592)" style="stroke:#000000; stroke-linecap:butt; stroke-linejoin:round; stroke-width:2; stroke-opacity:0.1; fill:none" points="
  655.394,237.01 2352.76,237.01 
  "/>
<polyline clip-path="url(#clip590)" style="stroke:#000000; stroke-linecap:butt; stroke-linejoin:round; stroke-width:4; stroke-opacity:1; fill:none" points="
  655.394,1486.45 655.394,123.472 
  "/>
<polyline clip-path="url(#clip590)" style="stroke:#000000; stroke-linecap:butt; stroke-linejoin:round; stroke-width:4; stroke-opacity:1; fill:none" points="
  655.394,1373.11 670.253,1373.11 
  "/>
<polyline clip-path="url(#clip590)" style="stroke:#000000; stroke-linecap:butt; stroke-linejoin:round; stroke-width:4; stroke-opacity:1; fill:none" points="
  655.394,1089.08 670.253,1089.08 
  "/>
<polyline clip-path="url(#clip590)" style="stroke:#000000; stroke-linecap:butt; stroke-linejoin:round; stroke-width:4; stroke-opacity:1; fill:none" points="
  655.394,805.059 670.253,805.059 
  "/>
<polyline clip-path="url(#clip590)" style="stroke:#000000; stroke-linecap:butt; stroke-linejoin:round; stroke-width:4; stroke-opacity:1; fill:none" points="
  655.394,521.035 670.253,521.035 
  "/>
<polyline clip-path="url(#clip590)" style="stroke:#000000; stroke-linecap:butt; stroke-linejoin:round; stroke-width:4; stroke-opacity:1; fill:none" points="
  655.394,237.01 670.253,237.01 
  "/>
<path clip-path="url(#clip590)" d="M512.45 1373.56 L542.126 1373.56 L542.126 1377.5 L512.45 1377.5 L512.45 1373.56 Z" fill="#000000" fill-rule="evenodd" fill-opacity="1" /><path clip-path="url(#clip590)" d="M553.029 1386.45 L560.668 1386.45 L560.668 1360.09 L552.358 1361.75 L552.358 1357.5 L560.622 1355.83 L565.297 1355.83 L565.297 1386.45 L572.936 1386.45 L572.936 1390.39 L553.029 1390.39 L553.029 1386.45 Z" fill="#000000" fill-rule="evenodd" fill-opacity="1" /><path clip-path="url(#clip590)" d="M582.381 1384.51 L587.265 1384.51 L587.265 1390.39 L582.381 1390.39 L582.381 1384.51 Z" fill="#000000" fill-rule="evenodd" fill-opacity="1" /><path clip-path="url(#clip590)" d="M607.45 1358.91 Q603.839 1358.91 602.01 1362.47 Q600.205 1366.01 600.205 1373.14 Q600.205 1380.25 602.01 1383.81 Q603.839 1387.36 607.45 1387.36 Q611.084 1387.36 612.89 1383.81 Q614.718 1380.25 614.718 1373.14 Q614.718 1366.01 612.89 1362.47 Q611.084 1358.91 607.45 1358.91 M607.45 1355.2 Q613.26 1355.2 616.316 1359.81 Q619.394 1364.39 619.394 1373.14 Q619.394 1381.87 616.316 1386.48 Q613.26 1391.06 607.45 1391.06 Q601.64 1391.06 598.561 1386.48 Q595.506 1381.87 595.506 1373.14 Q595.506 1364.39 598.561 1359.81 Q601.64 1355.2 607.45 1355.2 Z" fill="#000000" fill-rule="evenodd" fill-opacity="1" /><path clip-path="url(#clip590)" d="M513.446 1089.54 L543.122 1089.54 L543.122 1093.47 L513.446 1093.47 L513.446 1089.54 Z" fill="#000000" fill-rule="evenodd" fill-opacity="1" /><path clip-path="url(#clip590)" d="M563.214 1074.88 Q559.603 1074.88 557.774 1078.45 Q555.969 1081.99 555.969 1089.12 Q555.969 1096.23 557.774 1099.79 Q559.603 1103.33 563.214 1103.33 Q566.848 1103.33 568.654 1099.79 Q570.483 1096.23 570.483 1089.12 Q570.483 1081.99 568.654 1078.45 Q566.848 1074.88 563.214 1074.88 M563.214 1071.18 Q569.024 1071.18 572.08 1075.79 Q575.158 1080.37 575.158 1089.12 Q575.158 1097.85 572.08 1102.45 Q569.024 1107.04 563.214 1107.04 Q557.404 1107.04 554.325 1102.45 Q551.27 1097.85 551.27 1089.12 Q551.27 1080.37 554.325 1075.79 Q557.404 1071.18 563.214 1071.18 Z" fill="#000000" fill-rule="evenodd" fill-opacity="1" /><path clip-path="url(#clip590)" d="M583.376 1100.48 L588.26 1100.48 L588.26 1106.36 L583.376 1106.36 L583.376 1100.48 Z" fill="#000000" fill-rule="evenodd" fill-opacity="1" /><path clip-path="url(#clip590)" d="M598.492 1071.8 L616.848 1071.8 L616.848 1075.74 L602.774 1075.74 L602.774 1084.21 Q603.793 1083.86 604.811 1083.7 Q605.83 1083.52 606.848 1083.52 Q612.635 1083.52 616.015 1086.69 Q619.394 1089.86 619.394 1095.28 Q619.394 1100.85 615.922 1103.96 Q612.45 1107.04 606.131 1107.04 Q603.955 1107.04 601.686 1106.66 Q599.441 1106.29 597.033 1105.55 L597.033 1100.85 Q599.117 1101.99 601.339 1102.54 Q603.561 1103.1 606.038 1103.1 Q610.043 1103.1 612.381 1100.99 Q614.718 1098.89 614.718 1095.28 Q614.718 1091.67 612.381 1089.56 Q610.043 1087.45 606.038 1087.45 Q604.163 1087.45 602.288 1087.87 Q600.436 1088.29 598.492 1089.17 L598.492 1071.8 Z" fill="#000000" fill-rule="evenodd" fill-opacity="1" /><path clip-path="url(#clip590)" d="M562.219 790.858 Q558.608 790.858 556.779 794.423 Q554.973 797.964 554.973 805.094 Q554.973 812.2 556.779 815.765 Q558.608 819.307 562.219 819.307 Q565.853 819.307 567.659 815.765 Q569.487 812.2 569.487 805.094 Q569.487 797.964 567.659 794.423 Q565.853 790.858 562.219 790.858 M562.219 787.154 Q568.029 787.154 571.084 791.761 Q574.163 796.344 574.163 805.094 Q574.163 813.821 571.084 818.427 Q568.029 823.011 562.219 823.011 Q556.409 823.011 553.33 818.427 Q550.274 813.821 550.274 805.094 Q550.274 796.344 553.33 791.761 Q556.409 787.154 562.219 787.154 Z" fill="#000000" fill-rule="evenodd" fill-opacity="1" /><path clip-path="url(#clip590)" d="M582.381 816.46 L587.265 816.46 L587.265 822.339 L582.381 822.339 L582.381 816.46 Z" fill="#000000" fill-rule="evenodd" fill-opacity="1" /><path clip-path="url(#clip590)" d="M607.45 790.858 Q603.839 790.858 602.01 794.423 Q600.205 797.964 600.205 805.094 Q600.205 812.2 602.01 815.765 Q603.839 819.307 607.45 819.307 Q611.084 819.307 612.89 815.765 Q614.718 812.2 614.718 805.094 Q614.718 797.964 612.89 794.423 Q611.084 790.858 607.45 790.858 M607.45 787.154 Q613.26 787.154 616.316 791.761 Q619.394 796.344 619.394 805.094 Q619.394 813.821 616.316 818.427 Q613.26 823.011 607.45 823.011 Q601.64 823.011 598.561 818.427 Q595.506 813.821 595.506 805.094 Q595.506 796.344 598.561 791.761 Q601.64 787.154 607.45 787.154 Z" fill="#000000" fill-rule="evenodd" fill-opacity="1" /><path clip-path="url(#clip590)" d="M563.214 506.833 Q559.603 506.833 557.774 510.398 Q555.969 513.94 555.969 521.069 Q555.969 528.176 557.774 531.741 Q559.603 535.282 563.214 535.282 Q566.848 535.282 568.654 531.741 Q570.483 528.176 570.483 521.069 Q570.483 513.94 568.654 510.398 Q566.848 506.833 563.214 506.833 M563.214 503.13 Q569.024 503.13 572.08 507.736 Q575.158 512.319 575.158 521.069 Q575.158 529.796 572.08 534.403 Q569.024 538.986 563.214 538.986 Q557.404 538.986 554.325 534.403 Q551.27 529.796 551.27 521.069 Q551.27 512.319 554.325 507.736 Q557.404 503.13 563.214 503.13 Z" fill="#000000" fill-rule="evenodd" fill-opacity="1" /><path clip-path="url(#clip590)" d="M583.376 532.435 L588.26 532.435 L588.26 538.315 L583.376 538.315 L583.376 532.435 Z" fill="#000000" fill-rule="evenodd" fill-opacity="1" /><path clip-path="url(#clip590)" d="M598.492 503.755 L616.848 503.755 L616.848 507.69 L602.774 507.69 L602.774 516.162 Q603.793 515.815 604.811 515.653 Q605.83 515.467 606.848 515.467 Q612.635 515.467 616.015 518.639 Q619.394 521.81 619.394 527.227 Q619.394 532.805 615.922 535.907 Q612.45 538.986 606.131 538.986 Q603.955 538.986 601.686 538.616 Q599.441 538.245 597.033 537.504 L597.033 532.805 Q599.117 533.94 601.339 534.495 Q603.561 535.051 606.038 535.051 Q610.043 535.051 612.381 532.944 Q614.718 530.838 614.718 527.227 Q614.718 523.616 612.381 521.509 Q610.043 519.403 606.038 519.403 Q604.163 519.403 602.288 519.819 Q600.436 520.236 598.492 521.116 L598.492 503.755 Z" fill="#000000" fill-rule="evenodd" fill-opacity="1" /><path clip-path="url(#clip590)" d="M553.029 250.355 L560.668 250.355 L560.668 223.989 L552.358 225.656 L552.358 221.397 L560.622 219.73 L565.297 219.73 L565.297 250.355 L572.936 250.355 L572.936 254.29 L553.029 254.29 L553.029 250.355 Z" fill="#000000" fill-rule="evenodd" fill-opacity="1" /><path clip-path="url(#clip590)" d="M582.381 248.41 L587.265 248.41 L587.265 254.29 L582.381 254.29 L582.381 248.41 Z" fill="#000000" fill-rule="evenodd" fill-opacity="1" /><path clip-path="url(#clip590)" d="M607.45 222.809 Q603.839 222.809 602.01 226.373 Q600.205 229.915 600.205 237.045 Q600.205 244.151 602.01 247.716 Q603.839 251.257 607.45 251.257 Q611.084 251.257 612.89 247.716 Q614.718 244.151 614.718 237.045 Q614.718 229.915 612.89 226.373 Q611.084 222.809 607.45 222.809 M607.45 219.105 Q613.26 219.105 616.316 223.711 Q619.394 228.295 619.394 237.045 Q619.394 245.771 616.316 250.378 Q613.26 254.961 607.45 254.961 Q601.64 254.961 598.561 250.378 Q595.506 245.771 595.506 237.045 Q595.506 228.295 598.561 223.711 Q601.64 219.105 607.45 219.105 Z" fill="#000000" fill-rule="evenodd" fill-opacity="1" /><path clip-path="url(#clip590)" d="M834.116 12.096 L872.357 12.096 L872.357 18.9825 L842.299 18.9825 L842.299 36.8875 L871.101 36.8875 L871.101 43.7741 L842.299 43.7741 L842.299 65.6895 L873.086 65.6895 L873.086 72.576 L834.116 72.576 L834.116 12.096 Z" fill="#000000" fill-rule="evenodd" fill-opacity="1" /><path clip-path="url(#clip590)" d="M912.501 34.1734 Q911.246 33.4443 909.747 33.1202 Q908.288 32.7556 906.506 32.7556 Q900.187 32.7556 896.784 36.8875 Q893.422 40.9789 893.422 48.6757 L893.422 72.576 L885.927 72.576 L885.927 27.2059 L893.422 27.2059 L893.422 34.2544 Q895.771 30.1225 899.538 28.1376 Q903.306 26.1121 908.693 26.1121 Q909.463 26.1121 910.395 26.2337 Q911.327 26.3147 912.461 26.5172 L912.501 34.1734 Z" fill="#000000" fill-rule="evenodd" fill-opacity="1" /><path clip-path="url(#clip590)" d="M945.152 34.1734 Q943.896 33.4443 942.397 33.1202 Q940.939 32.7556 939.156 32.7556 Q932.837 32.7556 929.434 36.8875 Q926.072 40.9789 926.072 48.6757 L926.072 72.576 L918.578 72.576 L918.578 27.2059 L926.072 27.2059 L926.072 34.2544 Q928.421 30.1225 932.189 28.1376 Q935.956 26.1121 941.344 26.1121 Q942.113 26.1121 943.045 26.2337 Q943.977 26.3147 945.111 26.5172 L945.152 34.1734 Z" fill="#000000" fill-rule="evenodd" fill-opacity="1" /><path clip-path="url(#clip590)" d="M968.728 32.4315 Q962.733 32.4315 959.249 37.1306 Q955.765 41.7891 955.765 49.9314 Q955.765 58.0738 959.208 62.7728 Q962.692 67.4314 968.728 67.4314 Q974.683 67.4314 978.166 62.7323 Q981.65 58.0333 981.65 49.9314 Q981.65 41.8701 978.166 37.1711 Q974.683 32.4315 968.728 32.4315 M968.728 26.1121 Q978.45 26.1121 984 32.4315 Q989.55 38.7509 989.55 49.9314 Q989.55 61.0714 984 67.4314 Q978.45 73.7508 968.728 73.7508 Q958.965 73.7508 953.415 67.4314 Q947.906 61.0714 947.906 49.9314 Q947.906 38.7509 953.415 32.4315 Q958.965 26.1121 968.728 26.1121 Z" fill="#000000" fill-rule="evenodd" fill-opacity="1" /><path clip-path="url(#clip590)" d="M1028.2 34.1734 Q1026.94 33.4443 1025.44 33.1202 Q1023.98 32.7556 1022.2 32.7556 Q1015.88 32.7556 1012.48 36.8875 Q1009.12 40.9789 1009.12 48.6757 L1009.12 72.576 L1001.62 72.576 L1001.62 27.2059 L1009.12 27.2059 L1009.12 34.2544 Q1011.46 30.1225 1015.23 28.1376 Q1019 26.1121 1024.39 26.1121 Q1025.16 26.1121 1026.09 26.2337 Q1027.02 26.3147 1028.15 26.5172 L1028.2 34.1734 Z" fill="#000000" fill-rule="evenodd" fill-opacity="1" /><path clip-path="url(#clip590)" d="M1063.36 34.9026 L1115.29 34.9026 L1115.29 41.7081 L1063.36 41.7081 L1063.36 34.9026 M1063.36 51.4303 L1115.29 51.4303 L1115.29 58.3168 L1063.36 58.3168 L1063.36 51.4303 Z" fill="#000000" fill-rule="evenodd" fill-opacity="1" /><path clip-path="url(#clip590)" d="M1176.82 17.4837 Q1170.5 17.4837 1167.3 23.7221 Q1164.14 29.92 1164.14 42.3968 Q1164.14 54.833 1167.3 61.0714 Q1170.5 67.2693 1176.82 67.2693 Q1183.18 67.2693 1186.34 61.0714 Q1189.54 54.833 1189.54 42.3968 Q1189.54 29.92 1186.34 23.7221 Q1183.18 17.4837 1176.82 17.4837 M1176.82 11.0023 Q1186.99 11.0023 1192.34 19.0636 Q1197.73 27.0843 1197.73 42.3968 Q1197.73 57.6687 1192.34 65.73 Q1186.99 73.7508 1176.82 73.7508 Q1166.66 73.7508 1161.27 65.73 Q1155.92 57.6687 1155.92 42.3968 Q1155.92 27.0843 1161.27 19.0636 Q1166.66 11.0023 1176.82 11.0023 Z" fill="#000000" fill-rule="evenodd" fill-opacity="1" /><path clip-path="url(#clip590)" d="M1212.11 62.2867 L1220.65 62.2867 L1220.65 72.576 L1212.11 72.576 L1212.11 62.2867 Z" fill="#000000" fill-rule="evenodd" fill-opacity="1" /><path clip-path="url(#clip590)" d="M1255.98 17.4837 Q1249.66 17.4837 1246.46 23.7221 Q1243.3 29.92 1243.3 42.3968 Q1243.3 54.833 1246.46 61.0714 Q1249.66 67.2693 1255.98 67.2693 Q1262.34 67.2693 1265.5 61.0714 Q1268.7 54.833 1268.7 42.3968 Q1268.7 29.92 1265.5 23.7221 Q1262.34 17.4837 1255.98 17.4837 M1255.98 11.0023 Q1266.15 11.0023 1271.49 19.0636 Q1276.88 27.0843 1276.88 42.3968 Q1276.88 57.6687 1271.49 65.73 Q1266.15 73.7508 1255.98 73.7508 Q1245.81 73.7508 1240.42 65.73 Q1235.07 57.6687 1235.07 42.3968 Q1235.07 27.0843 1240.42 19.0636 Q1245.81 11.0023 1255.98 11.0023 Z" fill="#000000" fill-rule="evenodd" fill-opacity="1" /><path clip-path="url(#clip590)" d="M1298.31 65.6895 L1326.87 65.6895 L1326.87 72.576 L1288.47 72.576 L1288.47 65.6895 Q1293.12 60.8689 1301.15 52.7671 Q1309.21 44.6248 1311.27 42.2752 Q1315.2 37.8598 1316.74 34.8216 Q1318.32 31.7429 1318.32 28.7857 Q1318.32 23.9651 1314.92 20.927 Q1311.56 17.8888 1306.13 17.8888 Q1302.28 17.8888 1297.99 19.2256 Q1293.73 20.5624 1288.87 23.2765 L1288.87 15.0127 Q1293.81 13.0277 1298.11 12.015 Q1302.4 11.0023 1305.97 11.0023 Q1315.36 11.0023 1320.95 15.7013 Q1326.54 20.4004 1326.54 28.2591 Q1326.54 31.9859 1325.13 35.3482 Q1323.75 38.6699 1320.06 43.2069 Q1319.05 44.3817 1313.62 50.0125 Q1308.19 55.6027 1298.31 65.6895 Z" fill="#000000" fill-rule="evenodd" fill-opacity="1" /><path clip-path="url(#clip590)" d="M1344.13 12.096 L1376.25 12.096 L1376.25 18.9825 L1351.62 18.9825 L1351.62 33.8088 Q1353.4 33.2012 1355.18 32.9176 Q1356.97 32.5936 1358.75 32.5936 Q1368.88 32.5936 1374.79 38.1433 Q1380.7 43.6931 1380.7 53.1722 Q1380.7 62.9348 1374.63 68.3631 Q1368.55 73.7508 1357.49 73.7508 Q1353.69 73.7508 1349.72 73.1026 Q1345.79 72.4545 1341.57 71.1582 L1341.57 62.9348 Q1345.22 64.9198 1349.11 65.892 Q1353 66.8642 1357.33 66.8642 Q1364.34 66.8642 1368.43 63.1779 Q1372.52 59.4916 1372.52 53.1722 Q1372.52 46.8528 1368.43 43.1664 Q1364.34 39.4801 1357.33 39.4801 Q1354.05 39.4801 1350.77 40.2093 Q1347.53 40.9384 1344.13 42.4778 L1344.13 12.096 Z" fill="#000000" fill-rule="evenodd" fill-opacity="1" /><path clip-path="url(#clip590)" d="M1397.07 71.3202 L1397.07 63.8666 Q1400.15 65.3249 1403.31 66.0946 Q1406.47 66.8642 1409.51 66.8642 Q1417.61 66.8642 1421.86 61.436 Q1426.16 55.9673 1426.76 44.8678 Q1424.41 48.3516 1420.81 50.215 Q1417.2 52.0784 1412.83 52.0784 Q1403.75 52.0784 1398.45 46.6097 Q1393.18 41.1005 1393.18 31.5808 Q1393.18 22.2638 1398.69 16.633 Q1404.2 11.0023 1413.36 11.0023 Q1423.85 11.0023 1429.36 19.0636 Q1434.91 27.0843 1434.91 42.3968 Q1434.91 56.6965 1428.1 65.2439 Q1421.34 73.7508 1409.87 73.7508 Q1406.79 73.7508 1403.63 73.1431 Q1400.47 72.5355 1397.07 71.3202 M1413.36 45.678 Q1418.86 45.678 1422.06 41.9107 Q1425.31 38.1433 1425.31 31.5808 Q1425.31 25.0589 1422.06 21.2916 Q1418.86 17.4837 1413.36 17.4837 Q1407.85 17.4837 1404.61 21.2916 Q1401.4 25.0589 1401.4 31.5808 Q1401.4 38.1433 1404.61 41.9107 Q1407.85 45.678 1413.36 45.678 Z" fill="#000000" fill-rule="evenodd" fill-opacity="1" /><path clip-path="url(#clip590)" d="M1467.11 43.8551 Q1461.28 43.8551 1457.92 46.9743 Q1454.59 50.0935 1454.59 55.5622 Q1454.59 61.0309 1457.92 64.1501 Q1461.28 67.2693 1467.11 67.2693 Q1472.94 67.2693 1476.31 64.1501 Q1479.67 60.9904 1479.67 55.5622 Q1479.67 50.0935 1476.31 46.9743 Q1472.98 43.8551 1467.11 43.8551 M1458.93 40.3713 Q1453.66 39.075 1450.7 35.4697 Q1447.79 31.8644 1447.79 26.6793 Q1447.79 19.4281 1452.93 15.2152 Q1458.12 11.0023 1467.11 11.0023 Q1476.14 11.0023 1481.29 15.2152 Q1486.43 19.4281 1486.43 26.6793 Q1486.43 31.8644 1483.48 35.4697 Q1480.56 39.075 1475.33 40.3713 Q1481.25 41.7486 1484.53 45.759 Q1487.85 49.7694 1487.85 55.5622 Q1487.85 64.3527 1482.46 69.0517 Q1477.12 73.7508 1467.11 73.7508 Q1457.1 73.7508 1451.72 69.0517 Q1446.37 64.3527 1446.37 55.5622 Q1446.37 49.7694 1449.69 45.759 Q1453.01 41.7486 1458.93 40.3713 M1455.93 27.4489 Q1455.93 32.148 1458.85 34.7811 Q1461.8 37.4142 1467.11 37.4142 Q1472.38 37.4142 1475.33 34.7811 Q1478.33 32.148 1478.33 27.4489 Q1478.33 22.7499 1475.33 20.1168 Q1472.38 17.4837 1467.11 17.4837 Q1461.8 17.4837 1458.85 20.1168 Q1455.93 22.7499 1455.93 27.4489 Z" fill="#000000" fill-rule="evenodd" fill-opacity="1" /><path clip-path="url(#clip590)" d="M1500.33 12.096 L1539.22 12.096 L1539.22 15.5798 L1517.26 72.576 L1508.71 72.576 L1529.37 18.9825 L1500.33 18.9825 L1500.33 12.096 Z" fill="#000000" fill-rule="evenodd" fill-opacity="1" /><path clip-path="url(#clip590)" d="M1579.97 39.9662 Q1585.84 41.222 1589.12 45.1919 Q1592.45 49.1618 1592.45 54.9951 Q1592.45 63.9476 1586.29 68.8492 Q1580.13 73.7508 1568.79 73.7508 Q1564.98 73.7508 1560.93 72.9811 Q1556.92 72.2519 1552.63 70.7531 L1552.63 62.8538 Q1556.03 64.8388 1560.08 65.8515 Q1564.13 66.8642 1568.55 66.8642 Q1576.24 66.8642 1580.25 63.826 Q1584.3 60.7879 1584.3 54.9951 Q1584.3 49.6479 1580.54 46.6502 Q1576.81 43.612 1570.13 43.612 L1563.08 43.612 L1563.08 36.8875 L1570.45 36.8875 Q1576.49 36.8875 1579.69 34.4975 Q1582.89 32.067 1582.89 27.5299 Q1582.89 22.8714 1579.56 20.4004 Q1576.28 17.8888 1570.13 17.8888 Q1566.76 17.8888 1562.91 18.618 Q1559.07 19.3471 1554.45 20.8865 L1554.45 13.5948 Q1559.11 12.2985 1563.16 11.6504 Q1567.25 11.0023 1570.85 11.0023 Q1580.17 11.0023 1585.6 15.2557 Q1591.03 19.4686 1591.03 26.6793 Q1591.03 31.7024 1588.15 35.1862 Q1585.28 38.6294 1579.97 39.9662 Z" fill="#000000" fill-rule="evenodd" fill-opacity="1" /><path clip-path="url(#clip590)" d="M1632.75 39.9662 Q1638.63 41.222 1641.91 45.1919 Q1645.23 49.1618 1645.23 54.9951 Q1645.23 63.9476 1639.07 68.8492 Q1632.91 73.7508 1621.57 73.7508 Q1617.76 73.7508 1613.71 72.9811 Q1609.7 72.2519 1605.41 70.7531 L1605.41 62.8538 Q1608.81 64.8388 1612.86 65.8515 Q1616.91 66.8642 1621.33 66.8642 Q1629.03 66.8642 1633.04 63.826 Q1637.09 60.7879 1637.09 54.9951 Q1637.09 49.6479 1633.32 46.6502 Q1629.59 43.612 1622.91 43.612 L1615.86 43.612 L1615.86 36.8875 L1623.23 36.8875 Q1629.27 36.8875 1632.47 34.4975 Q1635.67 32.067 1635.67 27.5299 Q1635.67 22.8714 1632.35 20.4004 Q1629.07 17.8888 1622.91 17.8888 Q1619.55 17.8888 1615.7 18.618 Q1611.85 19.3471 1607.23 20.8865 L1607.23 13.5948 Q1611.89 12.2985 1615.94 11.6504 Q1620.03 11.0023 1623.64 11.0023 Q1632.95 11.0023 1638.38 15.2557 Q1643.81 19.4686 1643.81 26.6793 Q1643.81 31.7024 1640.93 35.1862 Q1638.06 38.6294 1632.75 39.9662 Z" fill="#000000" fill-rule="evenodd" fill-opacity="1" /><path clip-path="url(#clip590)" d="M1679.26 39.075 Q1673.75 39.075 1670.51 42.8424 Q1667.31 46.6097 1667.31 53.1722 Q1667.31 59.6941 1670.51 63.502 Q1673.75 67.2693 1679.26 67.2693 Q1684.77 67.2693 1687.97 63.502 Q1691.21 59.6941 1691.21 53.1722 Q1691.21 46.6097 1687.97 42.8424 Q1684.77 39.075 1679.26 39.075 M1695.5 13.4328 L1695.5 20.8865 Q1692.42 19.4281 1689.26 18.6585 Q1686.14 17.8888 1683.06 17.8888 Q1674.96 17.8888 1670.67 23.3575 Q1666.42 28.8262 1665.81 39.8852 Q1668.2 36.3609 1671.8 34.4975 Q1675.41 32.5936 1679.74 32.5936 Q1688.86 32.5936 1694.12 38.1433 Q1699.43 43.6525 1699.43 53.1722 Q1699.43 62.4892 1693.92 68.12 Q1688.41 73.7508 1679.26 73.7508 Q1668.76 73.7508 1663.21 65.73 Q1657.67 57.6687 1657.67 42.3968 Q1657.67 28.0566 1664.47 19.5497 Q1671.28 11.0023 1682.74 11.0023 Q1685.82 11.0023 1688.94 11.6099 Q1692.1 12.2175 1695.5 13.4328 Z" fill="#000000" fill-rule="evenodd" fill-opacity="1" /><path clip-path="url(#clip590)" d="M1732.04 39.075 Q1726.53 39.075 1723.29 42.8424 Q1720.09 46.6097 1720.09 53.1722 Q1720.09 59.6941 1723.29 63.502 Q1726.53 67.2693 1732.04 67.2693 Q1737.55 67.2693 1740.75 63.502 Q1743.99 59.6941 1743.99 53.1722 Q1743.99 46.6097 1740.75 42.8424 Q1737.55 39.075 1732.04 39.075 M1748.28 13.4328 L1748.28 20.8865 Q1745.21 19.4281 1742.05 18.6585 Q1738.93 17.8888 1735.85 17.8888 Q1727.75 17.8888 1723.45 23.3575 Q1719.2 28.8262 1718.59 39.8852 Q1720.98 36.3609 1724.59 34.4975 Q1728.19 32.5936 1732.53 32.5936 Q1741.64 32.5936 1746.91 38.1433 Q1752.21 43.6525 1752.21 53.1722 Q1752.21 62.4892 1746.7 68.12 Q1741.19 73.7508 1732.04 73.7508 Q1721.55 73.7508 1716 65.73 Q1710.45 57.6687 1710.45 42.3968 Q1710.45 28.0566 1717.25 19.5497 Q1724.06 11.0023 1735.52 11.0023 Q1738.6 11.0023 1741.72 11.6099 Q1744.88 12.2175 1748.28 13.4328 Z" fill="#000000" fill-rule="evenodd" fill-opacity="1" /><path clip-path="url(#clip590)" d="M1766.55 71.3202 L1766.55 63.8666 Q1769.63 65.3249 1772.79 66.0946 Q1775.95 66.8642 1778.99 66.8642 Q1787.09 66.8642 1791.35 61.436 Q1795.64 55.9673 1796.25 44.8678 Q1793.9 48.3516 1790.29 50.215 Q1786.69 52.0784 1782.31 52.0784 Q1773.24 52.0784 1767.93 46.6097 Q1762.66 41.1005 1762.66 31.5808 Q1762.66 22.2638 1768.17 16.633 Q1773.68 11.0023 1782.84 11.0023 Q1793.33 11.0023 1798.84 19.0636 Q1804.39 27.0843 1804.39 42.3968 Q1804.39 56.6965 1797.58 65.2439 Q1790.82 73.7508 1779.35 73.7508 Q1776.28 73.7508 1773.12 73.1431 Q1769.96 72.5355 1766.55 71.3202 M1782.84 45.678 Q1788.35 45.678 1791.55 41.9107 Q1794.79 38.1433 1794.79 31.5808 Q1794.79 25.0589 1791.55 21.2916 Q1788.35 17.4837 1782.84 17.4837 Q1777.33 17.4837 1774.09 21.2916 Q1770.89 25.0589 1770.89 31.5808 Q1770.89 38.1433 1774.09 41.9107 Q1777.33 45.678 1782.84 45.678 Z" fill="#000000" fill-rule="evenodd" fill-opacity="1" /><path clip-path="url(#clip590)" d="M1841.58 19.2256 L1820.92 51.5113 L1841.58 51.5113 L1841.58 19.2256 M1839.43 12.096 L1849.72 12.096 L1849.72 51.5113 L1858.35 51.5113 L1858.35 58.3168 L1849.72 58.3168 L1849.72 72.576 L1841.58 72.576 L1841.58 58.3168 L1814.27 58.3168 L1814.27 50.4176 L1839.43 12.096 Z" fill="#000000" fill-rule="evenodd" fill-opacity="1" /><path clip-path="url(#clip590)" d="M1878.93 65.6895 L1907.48 65.6895 L1907.48 72.576 L1869.08 72.576 L1869.08 65.6895 Q1873.74 60.8689 1881.76 52.7671 Q1889.82 44.6248 1891.89 42.2752 Q1895.82 37.8598 1897.36 34.8216 Q1898.94 31.7429 1898.94 28.7857 Q1898.94 23.9651 1895.53 20.927 Q1892.17 17.8888 1886.74 17.8888 Q1882.9 17.8888 1878.6 19.2256 Q1874.35 20.5624 1869.49 23.2765 L1869.49 15.0127 Q1874.43 13.0277 1878.72 12.015 Q1883.02 11.0023 1886.58 11.0023 Q1895.98 11.0023 1901.57 15.7013 Q1907.16 20.4004 1907.16 28.2591 Q1907.16 31.9859 1905.74 35.3482 Q1904.37 38.6699 1900.68 43.2069 Q1899.67 44.3817 1894.24 50.0125 Q1888.81 55.6027 1878.93 65.6895 Z" fill="#000000" fill-rule="evenodd" fill-opacity="1" /><path clip-path="url(#clip590)" d="M1924.9 71.3202 L1924.9 63.8666 Q1927.98 65.3249 1931.14 66.0946 Q1934.3 66.8642 1937.34 66.8642 Q1945.44 66.8642 1949.69 61.436 Q1953.99 55.9673 1954.6 44.8678 Q1952.25 48.3516 1948.64 50.215 Q1945.04 52.0784 1940.66 52.0784 Q1931.59 52.0784 1926.28 46.6097 Q1921.01 41.1005 1921.01 31.5808 Q1921.01 22.2638 1926.52 16.633 Q1932.03 11.0023 1941.19 11.0023 Q1951.68 11.0023 1957.19 19.0636 Q1962.74 27.0843 1962.74 42.3968 Q1962.74 56.6965 1955.93 65.2439 Q1949.17 73.7508 1937.7 73.7508 Q1934.63 73.7508 1931.47 73.1431 Q1928.31 72.5355 1924.9 71.3202 M1941.19 45.678 Q1946.7 45.678 1949.9 41.9107 Q1953.14 38.1433 1953.14 31.5808 Q1953.14 25.0589 1949.9 21.2916 Q1946.7 17.4837 1941.19 17.4837 Q1935.68 17.4837 1932.44 21.2916 Q1929.24 25.0589 1929.24 31.5808 Q1929.24 38.1433 1932.44 41.9107 Q1935.68 45.678 1941.19 45.678 Z" fill="#000000" fill-rule="evenodd" fill-opacity="1" /><path clip-path="url(#clip590)" d="M1994.94 17.4837 Q1988.62 17.4837 1985.42 23.7221 Q1982.26 29.92 1982.26 42.3968 Q1982.26 54.833 1985.42 61.0714 Q1988.62 67.2693 1994.94 67.2693 Q2001.3 67.2693 2004.46 61.0714 Q2007.66 54.833 2007.66 42.3968 Q2007.66 29.92 2004.46 23.7221 Q2001.3 17.4837 1994.94 17.4837 M1994.94 11.0023 Q2005.11 11.0023 2010.46 19.0636 Q2015.85 27.0843 2015.85 42.3968 Q2015.85 57.6687 2010.46 65.73 Q2005.11 73.7508 1994.94 73.7508 Q1984.78 73.7508 1979.39 65.73 Q1974.04 57.6687 1974.04 42.3968 Q1974.04 27.0843 1979.39 19.0636 Q1984.78 11.0023 1994.94 11.0023 Z" fill="#000000" fill-rule="evenodd" fill-opacity="1" /><path clip-path="url(#clip590)" d="M2030.47 71.3202 L2030.47 63.8666 Q2033.55 65.3249 2036.71 66.0946 Q2039.87 66.8642 2042.91 66.8642 Q2051.01 66.8642 2055.26 61.436 Q2059.56 55.9673 2060.16 44.8678 Q2057.81 48.3516 2054.21 50.215 Q2050.6 52.0784 2046.23 52.0784 Q2037.15 52.0784 2031.85 46.6097 Q2026.58 41.1005 2026.58 31.5808 Q2026.58 22.2638 2032.09 16.633 Q2037.6 11.0023 2046.75 11.0023 Q2057.25 11.0023 2062.76 19.0636 Q2068.31 27.0843 2068.31 42.3968 Q2068.31 56.6965 2061.5 65.2439 Q2054.73 73.7508 2043.27 73.7508 Q2040.19 73.7508 2037.03 73.1431 Q2033.87 72.5355 2030.47 71.3202 M2046.75 45.678 Q2052.26 45.678 2055.46 41.9107 Q2058.7 38.1433 2058.7 31.5808 Q2058.7 25.0589 2055.46 21.2916 Q2052.26 17.4837 2046.75 17.4837 Q2041.25 17.4837 2038 21.2916 Q2034.8 25.0589 2034.8 31.5808 Q2034.8 38.1433 2038 41.9107 Q2041.25 45.678 2046.75 45.678 Z" fill="#000000" fill-rule="evenodd" fill-opacity="1" /><path clip-path="url(#clip590)" d="M2083.09 12.096 L2115.21 12.096 L2115.21 18.9825 L2090.59 18.9825 L2090.59 33.8088 Q2092.37 33.2012 2094.15 32.9176 Q2095.93 32.5936 2097.71 32.5936 Q2107.84 32.5936 2113.76 38.1433 Q2119.67 43.6931 2119.67 53.1722 Q2119.67 62.9348 2113.59 68.3631 Q2107.52 73.7508 2096.46 73.7508 Q2092.65 73.7508 2088.68 73.1026 Q2084.75 72.4545 2080.54 71.1582 L2080.54 62.9348 Q2084.18 64.9198 2088.07 65.892 Q2091.96 66.8642 2096.3 66.8642 Q2103.31 66.8642 2107.4 63.1779 Q2111.49 59.4916 2111.49 53.1722 Q2111.49 46.8528 2107.4 43.1664 Q2103.31 39.4801 2096.3 39.4801 Q2093.02 39.4801 2089.73 40.2093 Q2086.49 40.9384 2083.09 42.4778 L2083.09 12.096 Z" fill="#000000" fill-rule="evenodd" fill-opacity="1" /><path clip-path="url(#clip590)" d="M2153.29 43.8551 Q2147.46 43.8551 2144.1 46.9743 Q2140.78 50.0935 2140.78 55.5622 Q2140.78 61.0309 2144.1 64.1501 Q2147.46 67.2693 2153.29 67.2693 Q2159.13 67.2693 2162.49 64.1501 Q2165.85 60.9904 2165.85 55.5622 Q2165.85 50.0935 2162.49 46.9743 Q2159.17 43.8551 2153.29 43.8551 M2145.11 40.3713 Q2139.84 39.075 2136.89 35.4697 Q2133.97 31.8644 2133.97 26.6793 Q2133.97 19.4281 2139.12 15.2152 Q2144.3 11.0023 2153.29 11.0023 Q2162.33 11.0023 2167.47 15.2152 Q2172.62 19.4281 2172.62 26.6793 Q2172.62 31.8644 2169.66 35.4697 Q2166.74 39.075 2161.52 40.3713 Q2167.43 41.7486 2170.71 45.759 Q2174.03 49.7694 2174.03 55.5622 Q2174.03 64.3527 2168.65 69.0517 Q2163.3 73.7508 2153.29 73.7508 Q2143.29 73.7508 2137.9 69.0517 Q2132.55 64.3527 2132.55 55.5622 Q2132.55 49.7694 2135.87 45.759 Q2139.2 41.7486 2145.11 40.3713 M2142.11 27.4489 Q2142.11 32.148 2145.03 34.7811 Q2147.99 37.4142 2153.29 37.4142 Q2158.56 37.4142 2161.52 34.7811 Q2164.51 32.148 2164.51 27.4489 Q2164.51 22.7499 2161.52 20.1168 Q2158.56 17.4837 2153.29 17.4837 Q2147.99 17.4837 2145.03 20.1168 Q2142.11 22.7499 2142.11 27.4489 Z" fill="#000000" fill-rule="evenodd" fill-opacity="1" /><polyline clip-path="url(#clip592)" style="stroke:#009af9; stroke-linecap:butt; stroke-linejoin:round; stroke-width:20; stroke-opacity:1; fill:none" points="
  703.433,805.059 732.547,861.77 761.661,917.913 790.776,972.929 819.89,1026.27 849.004,1077.4 878.118,1125.8 907.233,1171.01 936.347,1212.55 965.461,1250.03 
  994.576,1283.06 1023.69,1311.31 1052.8,1334.5 1081.92,1352.41 1111.03,1364.84 1140.15,1371.69 1169.26,1372.87 1198.38,1368.37 1227.49,1358.25 1256.6,1342.6 
  1285.72,1321.59 1314.83,1295.4 1343.95,1264.33 1373.06,1228.66 1402.18,1188.76 1431.29,1145.02 1460.4,1097.89 1489.52,1047.83 1518.63,995.349 1547.75,940.965 
  1576.86,885.222 1605.98,828.679 1635.09,771.9 1664.2,715.452 1693.32,659.899 1722.43,605.797 1751.55,553.686 1780.66,504.086 1809.77,457.494 1838.89,414.374 
  1868,375.158 1897.12,340.237 1926.23,309.961 1955.35,284.632 1984.46,264.502 2013.57,249.774 2042.69,240.594 2071.8,237.053 2100.92,239.189 2130.03,246.978 
  2159.15,260.343 2188.26,279.151 2217.37,303.213 2246.49,332.29 2275.6,366.091 2304.72,404.278 
  "/>
<polyline clip-path="url(#clip592)" style="stroke:#e26f46; stroke-linecap:butt; stroke-linejoin:round; stroke-width:4; stroke-opacity:1; fill:none" points="
  703.433,807.113 732.547,861.69 761.661,916.268 790.776,970.845 819.89,1025.42 849.004,1080 878.118,1134.58 907.233,1189.15 936.347,1243.73 965.461,1298.31 
  994.576,1352.88 1023.69,1407.46 1052.8,1462.04 1081.92,1516.62 1111.03,1571.19 1140.15,1625.77 1169.26,1680.35 1198.38,1734.92 1227.49,1789.5 1256.6,1844.08 
  1285.72,1898.66 1314.83,1953.23 1343.95,2007.81 1373.06,2062.39 1402.18,2116.96 1431.29,2171.54 1460.4,2226.12 1489.52,2280.7 1518.63,2335.27 1547.75,2389.85 
  1576.86,2444.43 1605.98,2499 1635.09,2553.58 1664.2,2608.16 1693.32,2662.74 1722.43,2717.31 1751.55,2771.89 1780.66,2826.47 1809.77,2881.04 1838.89,2935.62 
  1868,2990.2 1897.12,3044.77 1926.23,3099.35 1955.35,3153.93 1984.46,3208.51 2013.57,3263.08 2042.69,3317.66 2071.8,3372.24 2100.92,3426.81 2130.03,3481.39 
  2159.15,3535.97 2188.26,3590.55 2217.37,3645.12 2246.49,3699.7 2275.6,3754.28 2304.72,3808.85 
  "/>
<polyline clip-path="url(#clip592)" style="stroke:#3da44d; stroke-linecap:butt; stroke-linejoin:round; stroke-width:4; stroke-opacity:1; fill:none" points="
  703.433,879.185 732.547,920.607 761.661,962.029 790.776,1003.45 819.89,1044.87 849.004,1086.29 878.118,1127.72 907.233,1169.14 936.347,1210.56 965.461,1251.98 
  994.576,1293.4 1023.69,1334.82 1052.8,1376.25 1081.92,1417.67 1111.03,1459.09 1140.15,1500.51 1169.26,1541.93 1198.38,1583.35 1227.49,1624.78 1256.6,1666.2 
  1285.72,1707.62 1314.83,1749.04 1343.95,1790.46 1373.06,1831.88 1402.18,1873.31 1431.29,1914.73 1460.4,1956.15 1489.52,1997.57 1518.63,2038.99 1547.75,2080.41 
  1576.86,2121.84 1605.98,2163.26 1635.09,2204.68 1664.2,2246.1 1693.32,2287.52 1722.43,2328.94 1751.55,2370.37 1780.66,2411.79 1809.77,2453.21 1838.89,2494.63 
  1868,2536.05 1897.12,2577.47 1926.23,2618.9 1955.35,2660.32 1984.46,2701.74 2013.57,2743.16 2042.69,2784.58 2071.8,2826 2100.92,2867.43 2130.03,2908.85 
  2159.15,2950.27 2188.26,2991.69 2217.37,3033.11 2246.49,3074.54 2275.6,3115.96 2304.72,3157.38 
  "/>
<polyline clip-path="url(#clip592)" style="stroke:#c271d2; stroke-linecap:butt; stroke-linejoin:round; stroke-width:4; stroke-opacity:1; fill:none" points="
  703.433,1054.38 732.547,1077.51 761.661,1100.63 790.776,1123.76 819.89,1146.88 849.004,1170.01 878.118,1193.13 907.233,1216.26 936.347,1239.38 965.461,1262.51 
  994.576,1285.63 1023.69,1308.76 1052.8,1331.88 1081.92,1355.01 1111.03,1378.13 1140.15,1401.26 1169.26,1424.38 1198.38,1447.51 1227.49,1470.63 1256.6,1493.76 
  1285.72,1516.88 1314.83,1540.01 1343.95,1563.13 1373.06,1586.26 1402.18,1609.38 1431.29,1632.51 1460.4,1655.63 1489.52,1678.76 1518.63,1701.88 1547.75,1725.01 
  1576.86,1748.13 1605.98,1771.26 1635.09,1794.38 1664.2,1817.5 1693.32,1840.63 1722.43,1863.75 1751.55,1886.88 1780.66,1910 1809.77,1933.13 1838.89,1956.25 
  1868,1979.38 1897.12,2002.5 1926.23,2025.63 1955.35,2048.75 1984.46,2071.88 2013.57,2095 2042.69,2118.13 2071.8,2141.25 2100.92,2164.38 2130.03,2187.5 
  2159.15,2210.63 2188.26,2233.75 2217.37,2256.88 2246.49,2280 2275.6,2303.13 2304.72,2326.25 
  "/>
<polyline clip-path="url(#clip592)" style="stroke:#ac8d18; stroke-linecap:butt; stroke-linejoin:round; stroke-width:4; stroke-opacity:1; fill:none" points="
  703.433,1269.05 732.547,1275.89 761.661,1282.74 790.776,1289.58 819.89,1296.42 849.004,1303.26 878.118,1310.11 907.233,1316.95 936.347,1323.79 965.461,1330.63 
  994.576,1337.47 1023.69,1344.32 1052.8,1351.16 1081.92,1358 1111.03,1364.84 1140.15,1371.69 1169.26,1378.53 1198.38,1385.37 1227.49,1392.21 1256.6,1399.06 
  1285.72,1405.9 1314.83,1412.74 1343.95,1419.58 1373.06,1426.42 1402.18,1433.27 1431.29,1440.11 1460.4,1446.95 1489.52,1453.79 1518.63,1460.64 1547.75,1467.48 
  1576.86,1474.32 1605.98,1481.16 1635.09,1488 1664.2,1494.85 1693.32,1501.69 1722.43,1508.53 1751.55,1515.37 1780.66,1522.22 1809.77,1529.06 1838.89,1535.9 
  1868,1542.74 1897.12,1549.59 1926.23,1556.43 1955.35,1563.27 1984.46,1570.11 2013.57,1576.95 2042.69,1583.8 2071.8,1590.64 2100.92,1597.48 2130.03,1604.32 
  2159.15,1611.17 2188.26,1618.01 2217.37,1624.85 2246.49,1631.69 2275.6,1638.54 2304.72,1645.38 
  "/>
<polyline clip-path="url(#clip592)" style="stroke:#00a9ad; stroke-linecap:butt; stroke-linejoin:round; stroke-width:4; stroke-opacity:1; fill:none" points="
  703.433,1911.88 732.547,1877.81 761.661,1843.74 790.776,1809.68 819.89,1775.61 849.004,1741.54 878.118,1707.47 907.233,1673.4 936.347,1639.33 965.461,1605.26 
  994.576,1571.2 1023.69,1537.13 1052.8,1503.06 1081.92,1468.99 1111.03,1434.92 1140.15,1400.85 1169.26,1366.78 1198.38,1332.72 1227.49,1298.65 1256.6,1264.58 
  1285.72,1230.51 1314.83,1196.44 1343.95,1162.37 1373.06,1128.3 1402.18,1094.24 1431.29,1060.17 1460.4,1026.1 1489.52,992.031 1518.63,957.962 1547.75,923.893 
  1576.86,889.825 1605.98,855.756 1635.09,821.688 1664.2,787.619 1693.32,753.551 1722.43,719.482 1751.55,685.414 1780.66,651.345 1809.77,617.277 1838.89,583.208 
  1868,549.139 1897.12,515.071 1926.23,481.002 1955.35,446.934 1984.46,412.865 2013.57,378.797 2042.69,344.728 2071.8,310.66 2100.92,276.591 2130.03,242.523 
  2159.15,208.454 2188.26,174.385 2217.37,140.317 2246.49,106.248 2275.6,72.1798 2304.72,38.1112 
  "/>
<path clip-path="url(#clip590)" d="
M121.975 531.785 L404.529 531.785 L404.529 168.905 L121.975 168.905  Z
  " fill="#ffffff" fill-rule="evenodd" fill-opacity="1"/>
<polyline clip-path="url(#clip590)" style="stroke:#000000; stroke-linecap:butt; stroke-linejoin:round; stroke-width:4; stroke-opacity:1; fill:none" points="
  121.975,531.785 404.529,531.785 404.529,168.905 121.975,168.905 121.975,531.785 
  "/>
<polyline clip-path="url(#clip590)" style="stroke:#009af9; stroke-linecap:butt; stroke-linejoin:round; stroke-width:4; stroke-opacity:1; fill:none" points="
  145.962,220.745 289.884,220.745 
  "/>
<path clip-path="url(#clip590)" d="M330.375 202.006 L330.375 205.548 L326.301 205.548 Q324.009 205.548 323.106 206.474 Q322.227 207.4 322.227 209.807 L322.227 212.099 L329.241 212.099 L329.241 215.409 L322.227 215.409 L322.227 238.025 L317.944 238.025 L317.944 215.409 L313.87 215.409 L313.87 212.099 L317.944 212.099 L317.944 210.293 Q317.944 205.965 319.958 203.997 Q321.972 202.006 326.347 202.006 L330.375 202.006 Z" fill="#000000" fill-rule="evenodd" fill-opacity="1" /><polyline clip-path="url(#clip590)" style="stroke:#e26f46; stroke-linecap:butt; stroke-linejoin:round; stroke-width:4; stroke-opacity:1; fill:none" points="
  145.962,272.585 289.884,272.585 
  "/>
<path clip-path="url(#clip590)" d="M329.056 267.92 Q328.338 267.504 327.481 267.318 Q326.648 267.11 325.63 267.11 Q322.019 267.11 320.074 269.471 Q318.153 271.809 318.153 276.207 L318.153 289.865 L313.87 289.865 L313.87 263.939 L318.153 263.939 L318.153 267.967 Q319.495 265.606 321.648 264.471 Q323.801 263.314 326.88 263.314 Q327.319 263.314 327.852 263.383 Q328.384 263.43 329.032 263.545 L329.056 267.92 Z" fill="#000000" fill-rule="evenodd" fill-opacity="1" /><path clip-path="url(#clip590)" d="M334.935 285.929 L342.574 285.929 L342.574 259.564 L334.264 261.231 L334.264 256.971 L342.528 255.305 L347.204 255.305 L347.204 285.929 L354.842 285.929 L354.842 289.865 L334.935 289.865 L334.935 285.929 Z" fill="#000000" fill-rule="evenodd" fill-opacity="1" /><polyline clip-path="url(#clip590)" style="stroke:#3da44d; stroke-linecap:butt; stroke-linejoin:round; stroke-width:4; stroke-opacity:1; fill:none" points="
  145.962,324.425 289.884,324.425 
  "/>
<path clip-path="url(#clip590)" d="M329.056 319.76 Q328.338 319.344 327.481 319.158 Q326.648 318.95 325.63 318.95 Q322.019 318.95 320.074 321.311 Q318.153 323.649 318.153 328.047 L318.153 341.705 L313.87 341.705 L313.87 315.779 L318.153 315.779 L318.153 319.807 Q319.495 317.446 321.648 316.311 Q323.801 315.154 326.88 315.154 Q327.319 315.154 327.852 315.223 Q328.384 315.27 329.032 315.385 L329.056 319.76 Z" fill="#000000" fill-rule="evenodd" fill-opacity="1" /><path clip-path="url(#clip590)" d="M338.153 337.769 L354.472 337.769 L354.472 341.705 L332.528 341.705 L332.528 337.769 Q335.19 335.015 339.773 330.385 Q344.38 325.733 345.56 324.39 Q347.805 321.867 348.685 320.131 Q349.588 318.371 349.588 316.682 Q349.588 313.927 347.643 312.191 Q345.722 310.455 342.62 310.455 Q340.421 310.455 337.968 311.219 Q335.537 311.983 332.759 313.534 L332.759 308.811 Q335.583 307.677 338.037 307.098 Q340.491 306.52 342.528 306.52 Q347.898 306.52 351.092 309.205 Q354.287 311.89 354.287 316.381 Q354.287 318.51 353.477 320.432 Q352.69 322.33 350.583 324.922 Q350.005 325.594 346.903 328.811 Q343.801 332.006 338.153 337.769 Z" fill="#000000" fill-rule="evenodd" fill-opacity="1" /><polyline clip-path="url(#clip590)" style="stroke:#c271d2; stroke-linecap:butt; stroke-linejoin:round; stroke-width:4; stroke-opacity:1; fill:none" points="
  145.962,376.265 289.884,376.265 
  "/>
<path clip-path="url(#clip590)" d="M329.056 371.6 Q328.338 371.184 327.481 370.998 Q326.648 370.79 325.63 370.79 Q322.019 370.79 320.074 373.151 Q318.153 375.489 318.153 379.887 L318.153 393.545 L313.87 393.545 L313.87 367.619 L318.153 367.619 L318.153 371.647 Q319.495 369.286 321.648 368.151 Q323.801 366.994 326.88 366.994 Q327.319 366.994 327.852 367.063 Q328.384 367.11 329.032 367.225 L329.056 371.6 Z" fill="#000000" fill-rule="evenodd" fill-opacity="1" /><path clip-path="url(#clip590)" d="M348.292 374.91 Q351.648 375.628 353.523 377.897 Q355.421 380.165 355.421 383.498 Q355.421 388.614 351.903 391.415 Q348.384 394.216 341.903 394.216 Q339.727 394.216 337.412 393.776 Q335.12 393.359 332.667 392.503 L332.667 387.989 Q334.611 389.123 336.926 389.702 Q339.241 390.281 341.764 390.281 Q346.162 390.281 348.454 388.545 Q350.768 386.809 350.768 383.498 Q350.768 380.443 348.616 378.73 Q346.486 376.994 342.667 376.994 L338.639 376.994 L338.639 373.151 L342.852 373.151 Q346.301 373.151 348.13 371.786 Q349.958 370.397 349.958 367.804 Q349.958 365.142 348.06 363.73 Q346.185 362.295 342.667 362.295 Q340.745 362.295 338.546 362.711 Q336.347 363.128 333.708 364.008 L333.708 359.841 Q336.37 359.1 338.685 358.73 Q341.023 358.36 343.083 358.36 Q348.407 358.36 351.509 360.79 Q354.611 363.198 354.611 367.318 Q354.611 370.188 352.967 372.179 Q351.324 374.147 348.292 374.91 Z" fill="#000000" fill-rule="evenodd" fill-opacity="1" /><polyline clip-path="url(#clip590)" style="stroke:#ac8d18; stroke-linecap:butt; stroke-linejoin:round; stroke-width:4; stroke-opacity:1; fill:none" points="
  145.962,428.105 289.884,428.105 
  "/>
<path clip-path="url(#clip590)" d="M329.056 423.44 Q328.338 423.024 327.481 422.838 Q326.648 422.63 325.63 422.63 Q322.019 422.63 320.074 424.991 Q318.153 427.329 318.153 431.727 L318.153 445.385 L313.87 445.385 L313.87 419.459 L318.153 419.459 L318.153 423.487 Q319.495 421.126 321.648 419.991 Q323.801 418.834 326.88 418.834 Q327.319 418.834 327.852 418.903 Q328.384 418.95 329.032 419.065 L329.056 423.44 Z" fill="#000000" fill-rule="evenodd" fill-opacity="1" /><path clip-path="url(#clip590)" d="M346.972 414.899 L335.167 433.348 L346.972 433.348 L346.972 414.899 M345.745 410.825 L351.625 410.825 L351.625 433.348 L356.555 433.348 L356.555 437.237 L351.625 437.237 L351.625 445.385 L346.972 445.385 L346.972 437.237 L331.37 437.237 L331.37 432.723 L345.745 410.825 Z" fill="#000000" fill-rule="evenodd" fill-opacity="1" /><polyline clip-path="url(#clip590)" style="stroke:#00a9ad; stroke-linecap:butt; stroke-linejoin:round; stroke-width:4; stroke-opacity:1; fill:none" points="
  145.962,479.945 289.884,479.945 
  "/>
<path clip-path="url(#clip590)" d="M329.056 475.28 Q328.338 474.864 327.481 474.678 Q326.648 474.47 325.63 474.47 Q322.019 474.47 320.074 476.831 Q318.153 479.169 318.153 483.567 L318.153 497.225 L313.87 497.225 L313.87 471.299 L318.153 471.299 L318.153 475.327 Q319.495 472.966 321.648 471.831 Q323.801 470.674 326.88 470.674 Q327.319 470.674 327.852 470.743 Q328.384 470.79 329.032 470.905 L329.056 475.28 Z" fill="#000000" fill-rule="evenodd" fill-opacity="1" /><path clip-path="url(#clip590)" d="M334.171 462.665 L352.528 462.665 L352.528 466.6 L338.454 466.6 L338.454 475.072 Q339.472 474.725 340.491 474.563 Q341.509 474.378 342.528 474.378 Q348.315 474.378 351.694 477.549 Q355.074 480.72 355.074 486.137 Q355.074 491.715 351.602 494.817 Q348.13 497.896 341.81 497.896 Q339.634 497.896 337.366 497.526 Q335.12 497.155 332.713 496.414 L332.713 491.715 Q334.796 492.85 337.018 493.405 Q339.241 493.961 341.718 493.961 Q345.722 493.961 348.06 491.854 Q350.398 489.748 350.398 486.137 Q350.398 482.526 348.06 480.419 Q345.722 478.313 341.718 478.313 Q339.843 478.313 337.968 478.729 Q336.116 479.146 334.171 480.026 L334.171 462.665 Z" fill="#000000" fill-rule="evenodd" fill-opacity="1" /></svg>
