<?xml version="1.0" encoding="utf-8"?>
<svg xmlns="http://www.w3.org/2000/svg" xmlns:xlink="http://www.w3.org/1999/xlink" width="600" height="400" viewBox="0 0 2400 1600">
<defs>
  <clipPath id="clip230">
    <rect x="0" y="0" width="2400" height="1600"/>
  </clipPath>
</defs>
<path clip-path="url(#clip230)" d="
M0 1600 L2400 1600 L2400 0 L0 0  Z
  " fill="#ffffff" fill-rule="evenodd" fill-opacity="1"/>
<defs>
  <clipPath id="clip231">
    <rect x="480" y="0" width="1681" height="1600"/>
  </clipPath>
</defs>
<path clip-path="url(#clip230)" d="
M556.604 1486.45 L2352.76 1486.45 L2352.76 123.472 L556.604 123.472  Z
  " fill="#ffffff" fill-rule="evenodd" fill-opacity="1"/>
<defs>
  <clipPath id="clip232">
    <rect x="556" y="123" width="1797" height="1364"/>
  </clipPath>
</defs>
<polyline clip-path="url(#clip232)" style="stroke:#000000; stroke-linecap:butt; stroke-linejoin:round; stroke-width:2; stroke-opacity:0.1; fill:none" points="
  607.438,1486.45 607.438,123.472 
  "/>
<polyline clip-path="url(#clip232)" style="stroke:#000000; stroke-linecap:butt; stroke-linejoin:round; stroke-width:2; stroke-opacity:0.1; fill:none" points="
  889.852,1486.45 889.852,123.472 
  "/>
<polyline clip-path="url(#clip232)" style="stroke:#000000; stroke-linecap:butt; stroke-linejoin:round; stroke-width:2; stroke-opacity:0.1; fill:none" points="
  1172.27,1486.45 1172.27,123.472 
  "/>
<polyline clip-path="url(#clip232)" style="stroke:#000000; stroke-linecap:butt; stroke-linejoin:round; stroke-width:2; stroke-opacity:0.1; fill:none" points="
  1454.68,1486.45 1454.68,123.472 
  "/>
<polyline clip-path="url(#clip232)" style="stroke:#000000; stroke-linecap:butt; stroke-linejoin:round; stroke-width:2; stroke-opacity:0.1; fill:none" points="
  1737.09,1486.45 1737.09,123.472 
  "/>
<polyline clip-path="url(#clip232)" style="stroke:#000000; stroke-linecap:butt; stroke-linejoin:round; stroke-width:2; stroke-opacity:0.1; fill:none" points="
  2019.51,1486.45 2019.51,123.472 
  "/>
<polyline clip-path="url(#clip232)" style="stroke:#000000; stroke-linecap:butt; stroke-linejoin:round; stroke-width:2; stroke-opacity:0.1; fill:none" points="
  2301.92,1486.45 2301.92,123.472 
  "/>
<polyline clip-path="url(#clip230)" style="stroke:#000000; stroke-linecap:butt; stroke-linejoin:round; stroke-width:4; stroke-opacity:1; fill:none" points="
  556.604,1486.45 2352.76,1486.45 
  "/>
<polyline clip-path="url(#clip230)" style="stroke:#000000; stroke-linecap:butt; stroke-linejoin:round; stroke-width:4; stroke-opacity:1; fill:none" points="
  607.438,1486.45 607.438,1467.55 
  "/>
<polyline clip-path="url(#clip230)" style="stroke:#000000; stroke-linecap:butt; stroke-linejoin:round; stroke-width:4; stroke-opacity:1; fill:none" points="
  889.852,1486.45 889.852,1467.55 
  "/>
<polyline clip-path="url(#clip230)" style="stroke:#000000; stroke-linecap:butt; stroke-linejoin:round; stroke-width:4; stroke-opacity:1; fill:none" points="
  1172.27,1486.45 1172.27,1467.55 
  "/>
<polyline clip-path="url(#clip230)" style="stroke:#000000; stroke-linecap:butt; stroke-linejoin:round; stroke-width:4; stroke-opacity:1; fill:none" points="
  1454.68,1486.45 1454.68,1467.55 
  "/>
<polyline clip-path="url(#clip230)" style="stroke:#000000; stroke-linecap:butt; stroke-linejoin:round; stroke-width:4; stroke-opacity:1; fill:none" points="
  1737.09,1486.45 1737.09,1467.55 
  "/>
<polyline clip-path="url(#clip230)" style="stroke:#000000; stroke-linecap:butt; stroke-linejoin:round; stroke-width:4; stroke-opacity:1; fill:none" points="
  2019.51,1486.45 2019.51,1467.55 
  "/>
<polyline clip-path="url(#clip230)" style="stroke:#000000; stroke-linecap:butt; stroke-linejoin:round; stroke-width:4; stroke-opacity:1; fill:none" points="
  2301.92,1486.45 2301.92,1467.55 
  "/>
<path clip-path="url(#clip230)" d="M607.438 1517.37 Q603.827 1517.37 601.998 1520.93 Q600.193 1524.47 600.193 1531.6 Q600.193 1538.71 601.998 1542.27 Q603.827 1545.82 607.438 1545.82 Q611.072 1545.82 612.878 1542.27 Q614.707 1538.71 614.707 1531.6 Q614.707 1524.47 612.878 1520.93 Q611.072 1517.37 607.438 1517.37 M607.438 1513.66 Q613.248 1513.66 616.304 1518.27 Q619.383 1522.85 619.383 1531.6 Q619.383 1540.33 616.304 1544.94 Q613.248 1549.52 607.438 1549.52 Q601.628 1549.52 598.549 1544.94 Q595.494 1540.33 595.494 1531.6 Q595.494 1522.85 598.549 1518.27 Q601.628 1513.66 607.438 1513.66 Z" fill="#000000" fill-rule="evenodd" fill-opacity="1" /><path clip-path="url(#clip230)" d="M880.234 1544.91 L887.873 1544.91 L887.873 1518.55 L879.563 1520.21 L879.563 1515.95 L887.827 1514.29 L892.503 1514.29 L892.503 1544.91 L900.141 1544.91 L900.141 1548.85 L880.234 1548.85 L880.234 1544.91 Z" fill="#000000" fill-rule="evenodd" fill-opacity="1" /><path clip-path="url(#clip230)" d="M1166.92 1544.91 L1183.24 1544.91 L1183.24 1548.85 L1161.29 1548.85 L1161.29 1544.91 Q1163.96 1542.16 1168.54 1537.53 Q1173.15 1532.88 1174.33 1531.53 Q1176.57 1529.01 1177.45 1527.27 Q1178.35 1525.51 1178.35 1523.82 Q1178.35 1521.07 1176.41 1519.33 Q1174.49 1517.6 1171.39 1517.6 Q1169.19 1517.6 1166.73 1518.36 Q1164.3 1519.13 1161.53 1520.68 L1161.53 1515.95 Q1164.35 1514.82 1166.8 1514.24 Q1169.26 1513.66 1171.29 1513.66 Q1176.66 1513.66 1179.86 1516.35 Q1183.05 1519.03 1183.05 1523.52 Q1183.05 1525.65 1182.24 1527.57 Q1181.46 1529.47 1179.35 1532.07 Q1178.77 1532.74 1175.67 1535.95 Q1172.57 1539.15 1166.92 1544.91 Z" fill="#000000" fill-rule="evenodd" fill-opacity="1" /><path clip-path="url(#clip230)" d="M1458.93 1530.21 Q1462.28 1530.93 1464.16 1533.2 Q1466.06 1535.47 1466.06 1538.8 Q1466.06 1543.92 1462.54 1546.72 Q1459.02 1549.52 1452.54 1549.52 Q1450.36 1549.52 1448.05 1549.08 Q1445.76 1548.66 1443.3 1547.81 L1443.3 1543.29 Q1445.25 1544.43 1447.56 1545.01 Q1449.88 1545.58 1452.4 1545.58 Q1456.8 1545.58 1459.09 1543.85 Q1461.4 1542.11 1461.4 1538.8 Q1461.4 1535.75 1459.25 1534.03 Q1457.12 1532.3 1453.3 1532.3 L1449.27 1532.3 L1449.27 1528.45 L1453.49 1528.45 Q1456.94 1528.45 1458.77 1527.09 Q1460.59 1525.7 1460.59 1523.11 Q1460.59 1520.45 1458.7 1519.03 Q1456.82 1517.6 1453.3 1517.6 Q1451.38 1517.6 1449.18 1518.01 Q1446.98 1518.43 1444.34 1519.31 L1444.34 1515.14 Q1447.01 1514.4 1449.32 1514.03 Q1451.66 1513.66 1453.72 1513.66 Q1459.04 1513.66 1462.15 1516.09 Q1465.25 1518.5 1465.25 1522.62 Q1465.25 1525.49 1463.6 1527.48 Q1461.96 1529.45 1458.93 1530.21 Z" fill="#000000" fill-rule="evenodd" fill-opacity="1" /><path clip-path="url(#clip230)" d="M1740.1 1518.36 L1728.3 1536.81 L1740.1 1536.81 L1740.1 1518.36 M1738.88 1514.29 L1744.76 1514.29 L1744.76 1536.81 L1749.69 1536.81 L1749.69 1540.7 L1744.76 1540.7 L1744.76 1548.85 L1740.1 1548.85 L1740.1 1540.7 L1724.5 1540.7 L1724.5 1536.19 L1738.88 1514.29 Z" fill="#000000" fill-rule="evenodd" fill-opacity="1" /><path clip-path="url(#clip230)" d="M2009.79 1514.29 L2028.14 1514.29 L2028.14 1518.22 L2014.07 1518.22 L2014.07 1526.7 Q2015.09 1526.35 2016.1 1526.19 Q2017.12 1526 2018.14 1526 Q2023.93 1526 2027.31 1529.17 Q2030.69 1532.34 2030.69 1537.76 Q2030.69 1543.34 2027.22 1546.44 Q2023.74 1549.52 2017.42 1549.52 Q2015.25 1549.52 2012.98 1549.15 Q2010.73 1548.78 2008.33 1548.04 L2008.33 1543.34 Q2010.41 1544.47 2012.63 1545.03 Q2014.85 1545.58 2017.33 1545.58 Q2021.34 1545.58 2023.67 1543.48 Q2026.01 1541.37 2026.01 1537.76 Q2026.01 1534.15 2023.67 1532.04 Q2021.34 1529.94 2017.33 1529.94 Q2015.46 1529.94 2013.58 1530.35 Q2011.73 1530.77 2009.79 1531.65 L2009.79 1514.29 Z" fill="#000000" fill-rule="evenodd" fill-opacity="1" /><path clip-path="url(#clip230)" d="M2302.33 1529.7 Q2299.18 1529.7 2297.33 1531.86 Q2295.5 1534.01 2295.5 1537.76 Q2295.5 1541.49 2297.33 1543.66 Q2299.18 1545.82 2302.33 1545.82 Q2305.47 1545.82 2307.3 1543.66 Q2309.16 1541.49 2309.16 1537.76 Q2309.16 1534.01 2307.3 1531.86 Q2305.47 1529.7 2302.33 1529.7 M2311.61 1515.05 L2311.61 1519.31 Q2309.85 1518.48 2308.04 1518.04 Q2306.26 1517.6 2304.5 1517.6 Q2299.87 1517.6 2297.42 1520.72 Q2294.99 1523.85 2294.64 1530.17 Q2296.01 1528.15 2298.07 1527.09 Q2300.13 1526 2302.6 1526 Q2307.81 1526 2310.82 1529.17 Q2313.85 1532.32 2313.85 1537.76 Q2313.85 1543.08 2310.71 1546.3 Q2307.56 1549.52 2302.33 1549.52 Q2296.33 1549.52 2293.16 1544.94 Q2289.99 1540.33 2289.99 1531.6 Q2289.99 1523.41 2293.88 1518.55 Q2297.77 1513.66 2304.32 1513.66 Q2306.08 1513.66 2307.86 1514.01 Q2309.66 1514.36 2311.61 1515.05 Z" fill="#000000" fill-rule="evenodd" fill-opacity="1" /><polyline clip-path="url(#clip232)" style="stroke:#000000; stroke-linecap:butt; stroke-linejoin:round; stroke-width:2; stroke-opacity:0.1; fill:none" points="
  556.604,1359.4 2352.76,1359.4 
  "/>
<polyline clip-path="url(#clip232)" style="stroke:#000000; stroke-linecap:butt; stroke-linejoin:round; stroke-width:2; stroke-opacity:0.1; fill:none" points="
  556.604,1078.81 2352.76,1078.81 
  "/>
<polyline clip-path="url(#clip232)" style="stroke:#000000; stroke-linecap:butt; stroke-linejoin:round; stroke-width:2; stroke-opacity:0.1; fill:none" points="
  556.604,798.226 2352.76,798.226 
  "/>
<polyline clip-path="url(#clip232)" style="stroke:#000000; stroke-linecap:butt; stroke-linejoin:round; stroke-width:2; stroke-opacity:0.1; fill:none" points="
  556.604,517.64 2352.76,517.64 
  "/>
<polyline clip-path="url(#clip232)" style="stroke:#000000; stroke-linecap:butt; stroke-linejoin:round; stroke-width:2; stroke-opacity:0.1; fill:none" points="
  556.604,237.053 2352.76,237.053 
  "/>
<polyline clip-path="url(#clip230)" style="stroke:#000000; stroke-linecap:butt; stroke-linejoin:round; stroke-width:4; stroke-opacity:1; fill:none" points="
  556.604,1486.45 556.604,123.472 
  "/>
<polyline clip-path="url(#clip230)" style="stroke:#000000; stroke-linecap:butt; stroke-linejoin:round; stroke-width:4; stroke-opacity:1; fill:none" points="
  556.604,1359.4 571.948,1359.4 
  "/>
<polyline clip-path="url(#clip230)" style="stroke:#000000; stroke-linecap:butt; stroke-linejoin:round; stroke-width:4; stroke-opacity:1; fill:none" points="
  556.604,1078.81 571.948,1078.81 
  "/>
<polyline clip-path="url(#clip230)" style="stroke:#000000; stroke-linecap:butt; stroke-linejoin:round; stroke-width:4; stroke-opacity:1; fill:none" points="
  556.604,798.226 571.948,798.226 
  "/>
<polyline clip-path="url(#clip230)" style="stroke:#000000; stroke-linecap:butt; stroke-linejoin:round; stroke-width:4; stroke-opacity:1; fill:none" points="
  556.604,517.64 571.948,517.64 
  "/>
<polyline clip-path="url(#clip230)" style="stroke:#000000; stroke-linecap:butt; stroke-linejoin:round; stroke-width:4; stroke-opacity:1; fill:none" points="
  556.604,237.053 571.948,237.053 
  "/>
<path clip-path="url(#clip230)" d="M508.659 1345.2 Q505.048 1345.2 503.22 1348.76 Q501.414 1352.3 501.414 1359.43 Q501.414 1366.54 503.22 1370.1 Q505.048 1373.65 508.659 1373.65 Q512.294 1373.65 514.099 1370.1 Q515.928 1366.54 515.928 1359.43 Q515.928 1352.3 514.099 1348.76 Q512.294 1345.2 508.659 1345.2 M508.659 1341.49 Q514.47 1341.49 517.525 1346.1 Q520.604 1350.68 520.604 1359.43 Q520.604 1368.16 517.525 1372.77 Q514.47 1377.35 508.659 1377.35 Q502.849 1377.35 499.771 1372.77 Q496.715 1368.16 496.715 1359.43 Q496.715 1350.68 499.771 1346.1 Q502.849 1341.49 508.659 1341.49 Z" fill="#000000" fill-rule="evenodd" fill-opacity="1" /><path clip-path="url(#clip230)" d="M499.701 1061.53 L518.057 1061.53 L518.057 1065.47 L503.983 1065.47 L503.983 1073.94 Q505.002 1073.59 506.02 1073.43 Q507.039 1073.25 508.058 1073.25 Q513.845 1073.25 517.224 1076.42 Q520.604 1079.59 520.604 1085 Q520.604 1090.58 517.132 1093.68 Q513.659 1096.76 507.34 1096.76 Q505.164 1096.76 502.896 1096.39 Q500.65 1096.02 498.243 1095.28 L498.243 1090.58 Q500.326 1091.72 502.548 1092.27 Q504.77 1092.83 507.247 1092.83 Q511.252 1092.83 513.59 1090.72 Q515.928 1088.62 515.928 1085 Q515.928 1081.39 513.59 1079.29 Q511.252 1077.18 507.247 1077.18 Q505.372 1077.18 503.497 1077.6 Q501.646 1078.01 499.701 1078.89 L499.701 1061.53 Z" fill="#000000" fill-rule="evenodd" fill-opacity="1" /><path clip-path="url(#clip230)" d="M469.308 811.571 L476.947 811.571 L476.947 785.205 L468.636 786.872 L468.636 782.613 L476.9 780.946 L481.576 780.946 L481.576 811.571 L489.215 811.571 L489.215 815.506 L469.308 815.506 L469.308 811.571 Z" fill="#000000" fill-rule="evenodd" fill-opacity="1" /><path clip-path="url(#clip230)" d="M508.659 784.025 Q505.048 784.025 503.22 787.589 Q501.414 791.131 501.414 798.261 Q501.414 805.367 503.22 808.932 Q505.048 812.474 508.659 812.474 Q512.294 812.474 514.099 808.932 Q515.928 805.367 515.928 798.261 Q515.928 791.131 514.099 787.589 Q512.294 784.025 508.659 784.025 M508.659 780.321 Q514.47 780.321 517.525 784.927 Q520.604 789.511 520.604 798.261 Q520.604 806.987 517.525 811.594 Q514.47 816.177 508.659 816.177 Q502.849 816.177 499.771 811.594 Q496.715 806.987 496.715 798.261 Q496.715 789.511 499.771 784.927 Q502.849 780.321 508.659 780.321 Z" fill="#000000" fill-rule="evenodd" fill-opacity="1" /><path clip-path="url(#clip230)" d="M470.303 530.985 L477.942 530.985 L477.942 504.619 L469.632 506.286 L469.632 502.026 L477.896 500.36 L482.572 500.36 L482.572 530.985 L490.21 530.985 L490.21 534.92 L470.303 534.92 L470.303 530.985 Z" fill="#000000" fill-rule="evenodd" fill-opacity="1" /><path clip-path="url(#clip230)" d="M499.701 500.36 L518.057 500.36 L518.057 504.295 L503.983 504.295 L503.983 512.767 Q505.002 512.42 506.02 512.258 Q507.039 512.073 508.058 512.073 Q513.845 512.073 517.224 515.244 Q520.604 518.415 520.604 523.832 Q520.604 529.41 517.132 532.512 Q513.659 535.591 507.34 535.591 Q505.164 535.591 502.896 535.221 Q500.65 534.85 498.243 534.11 L498.243 529.41 Q500.326 530.545 502.548 531.1 Q504.77 531.656 507.247 531.656 Q511.252 531.656 513.59 529.549 Q515.928 527.443 515.928 523.832 Q515.928 520.221 513.59 518.114 Q511.252 516.008 507.247 516.008 Q505.372 516.008 503.497 516.424 Q501.646 516.841 499.701 517.721 L499.701 500.36 Z" fill="#000000" fill-rule="evenodd" fill-opacity="1" /><path clip-path="url(#clip230)" d="M472.525 250.398 L488.845 250.398 L488.845 254.333 L466.9 254.333 L466.9 250.398 Q469.562 247.644 474.146 243.014 Q478.752 238.361 479.933 237.019 Q482.178 234.496 483.058 232.759 Q483.96 231 483.96 229.31 Q483.96 226.556 482.016 224.82 Q480.095 223.084 476.993 223.084 Q474.794 223.084 472.34 223.847 Q469.91 224.611 467.132 226.162 L467.132 221.44 Q469.956 220.306 472.41 219.727 Q474.863 219.148 476.9 219.148 Q482.271 219.148 485.465 221.834 Q488.659 224.519 488.659 229.009 Q488.659 231.139 487.849 233.06 Q487.062 234.959 484.956 237.551 Q484.377 238.222 481.275 241.44 Q478.173 244.634 472.525 250.398 Z" fill="#000000" fill-rule="evenodd" fill-opacity="1" /><path clip-path="url(#clip230)" d="M508.659 222.852 Q505.048 222.852 503.22 226.417 Q501.414 229.959 501.414 237.088 Q501.414 244.195 503.22 247.759 Q505.048 251.301 508.659 251.301 Q512.294 251.301 514.099 247.759 Q515.928 244.195 515.928 237.088 Q515.928 229.959 514.099 226.417 Q512.294 222.852 508.659 222.852 M508.659 219.148 Q514.47 219.148 517.525 223.755 Q520.604 228.338 520.604 237.088 Q520.604 245.815 517.525 250.421 Q514.47 255.005 508.659 255.005 Q502.849 255.005 499.771 250.421 Q496.715 245.815 496.715 237.088 Q496.715 228.338 499.771 223.755 Q502.849 219.148 508.659 219.148 Z" fill="#000000" fill-rule="evenodd" fill-opacity="1" /><path clip-path="url(#clip230)" d="M784.498 12.096 L822.739 12.096 L822.739 18.9825 L792.681 18.9825 L792.681 36.8875 L821.483 36.8875 L821.483 43.7741 L792.681 43.7741 L792.681 65.6895 L823.468 65.6895 L823.468 72.576 L784.498 72.576 L784.498 12.096 Z" fill="#000000" fill-rule="evenodd" fill-opacity="1" /><path clip-path="url(#clip230)" d="M862.883 34.1734 Q861.627 33.4443 860.129 33.1202 Q858.67 32.7556 856.888 32.7556 Q850.568 32.7556 847.166 36.8875 Q843.803 40.9789 843.803 48.6757 L843.803 72.576 L836.309 72.576 L836.309 27.2059 L843.803 27.2059 L843.803 34.2544 Q846.153 30.1225 849.92 28.1376 Q853.688 26.1121 859.075 26.1121 Q859.845 26.1121 860.777 26.2337 Q861.708 26.3147 862.843 26.5172 L862.883 34.1734 Z" fill="#000000" fill-rule="evenodd" fill-opacity="1" /><path clip-path="url(#clip230)" d="M895.534 34.1734 Q894.278 33.4443 892.779 33.1202 Q891.321 32.7556 889.538 32.7556 Q883.219 32.7556 879.816 36.8875 Q876.454 40.9789 876.454 48.6757 L876.454 72.576 L868.96 72.576 L868.96 27.2059 L876.454 27.2059 L876.454 34.2544 Q878.803 30.1225 882.571 28.1376 Q886.338 26.1121 891.726 26.1121 Q892.495 26.1121 893.427 26.2337 Q894.359 26.3147 895.493 26.5172 L895.534 34.1734 Z" fill="#000000" fill-rule="evenodd" fill-opacity="1" /><path clip-path="url(#clip230)" d="M919.11 32.4315 Q913.114 32.4315 909.631 37.1306 Q906.147 41.7891 906.147 49.9314 Q906.147 58.0738 909.59 62.7728 Q913.074 67.4314 919.11 67.4314 Q925.065 67.4314 928.548 62.7323 Q932.032 58.0333 932.032 49.9314 Q932.032 41.8701 928.548 37.1711 Q925.065 32.4315 919.11 32.4315 M919.11 26.1121 Q928.832 26.1121 934.382 32.4315 Q939.931 38.7509 939.931 49.9314 Q939.931 61.0714 934.382 67.4314 Q928.832 73.7508 919.11 73.7508 Q909.347 73.7508 903.797 67.4314 Q898.288 61.0714 898.288 49.9314 Q898.288 38.7509 903.797 32.4315 Q909.347 26.1121 919.11 26.1121 Z" fill="#000000" fill-rule="evenodd" fill-opacity="1" /><path clip-path="url(#clip230)" d="M978.577 34.1734 Q977.321 33.4443 975.822 33.1202 Q974.364 32.7556 972.582 32.7556 Q966.262 32.7556 962.86 36.8875 Q959.497 40.9789 959.497 48.6757 L959.497 72.576 L952.003 72.576 L952.003 27.2059 L959.497 27.2059 L959.497 34.2544 Q961.847 30.1225 965.614 28.1376 Q969.381 26.1121 974.769 26.1121 Q975.539 26.1121 976.471 26.2337 Q977.402 26.3147 978.537 26.5172 L978.577 34.1734 Z" fill="#000000" fill-rule="evenodd" fill-opacity="1" /><path clip-path="url(#clip230)" d="M1013.74 34.9026 L1065.67 34.9026 L1065.67 41.7081 L1013.74 41.7081 L1013.74 34.9026 M1013.74 51.4303 L1065.67 51.4303 L1065.67 58.3168 L1013.74 58.3168 L1013.74 51.4303 Z" fill="#000000" fill-rule="evenodd" fill-opacity="1" /><path clip-path="url(#clip230)" d="M1127.2 17.4837 Q1120.89 17.4837 1117.69 23.7221 Q1114.53 29.92 1114.53 42.3968 Q1114.53 54.833 1117.69 61.0714 Q1120.89 67.2693 1127.2 67.2693 Q1133.56 67.2693 1136.72 61.0714 Q1139.92 54.833 1139.92 42.3968 Q1139.92 29.92 1136.72 23.7221 Q1133.56 17.4837 1127.2 17.4837 M1127.2 11.0023 Q1137.37 11.0023 1142.72 19.0636 Q1148.11 27.0843 1148.11 42.3968 Q1148.11 57.6687 1142.72 65.73 Q1137.37 73.7508 1127.2 73.7508 Q1117.04 73.7508 1111.65 65.73 Q1106.3 57.6687 1106.3 42.3968 Q1106.3 27.0843 1111.65 19.0636 Q1117.04 11.0023 1127.2 11.0023 Z" fill="#000000" fill-rule="evenodd" fill-opacity="1" /><path clip-path="url(#clip230)" d="M1162.49 62.2867 L1171.04 62.2867 L1171.04 72.576 L1162.49 72.576 L1162.49 62.2867 Z" fill="#000000" fill-rule="evenodd" fill-opacity="1" /><path clip-path="url(#clip230)" d="M1206.36 17.4837 Q1200.04 17.4837 1196.84 23.7221 Q1193.68 29.92 1193.68 42.3968 Q1193.68 54.833 1196.84 61.0714 Q1200.04 67.2693 1206.36 67.2693 Q1212.72 67.2693 1215.88 61.0714 Q1219.08 54.833 1219.08 42.3968 Q1219.08 29.92 1215.88 23.7221 Q1212.72 17.4837 1206.36 17.4837 M1206.36 11.0023 Q1216.53 11.0023 1221.87 19.0636 Q1227.26 27.0843 1227.26 42.3968 Q1227.26 57.6687 1221.87 65.73 Q1216.53 73.7508 1206.36 73.7508 Q1196.19 73.7508 1190.8 65.73 Q1185.46 57.6687 1185.46 42.3968 Q1185.46 27.0843 1190.8 19.0636 Q1196.19 11.0023 1206.36 11.0023 Z" fill="#000000" fill-rule="evenodd" fill-opacity="1" /><path clip-path="url(#clip230)" d="M1243.06 65.6895 L1256.43 65.6895 L1256.43 19.5497 L1241.89 22.4663 L1241.89 15.0127 L1256.35 12.096 L1264.53 12.096 L1264.53 65.6895 L1277.9 65.6895 L1277.9 72.576 L1243.06 72.576 L1243.06 65.6895 Z" fill="#000000" fill-rule="evenodd" fill-opacity="1" /><path clip-path="url(#clip230)" d="M1294.67 71.3202 L1294.67 63.8666 Q1297.75 65.3249 1300.91 66.0946 Q1304.07 66.8642 1307.11 66.8642 Q1315.21 66.8642 1319.46 61.436 Q1323.75 55.9673 1324.36 44.8678 Q1322.01 48.3516 1318.41 50.215 Q1314.8 52.0784 1310.43 52.0784 Q1301.35 52.0784 1296.05 46.6097 Q1290.78 41.1005 1290.78 31.5808 Q1290.78 22.2638 1296.29 16.633 Q1301.8 11.0023 1310.95 11.0023 Q1321.45 11.0023 1326.95 19.0636 Q1332.5 27.0843 1332.5 42.3968 Q1332.5 56.6965 1325.7 65.2439 Q1318.93 73.7508 1307.47 73.7508 Q1304.39 73.7508 1301.23 73.1431 Q1298.07 72.5355 1294.67 71.3202 M1310.95 45.678 Q1316.46 45.678 1319.66 41.9107 Q1322.9 38.1433 1322.9 31.5808 Q1322.9 25.0589 1319.66 21.2916 Q1316.46 17.4837 1310.95 17.4837 Q1305.44 17.4837 1302.2 21.2916 Q1299 25.0589 1299 31.5808 Q1299 38.1433 1302.2 41.9107 Q1305.44 45.678 1310.95 45.678 Z" fill="#000000" fill-rule="evenodd" fill-opacity="1" /><path clip-path="url(#clip230)" d="M1345.14 12.096 L1384.03 12.096 L1384.03 15.5798 L1362.08 72.576 L1353.53 72.576 L1374.19 18.9825 L1345.14 18.9825 L1345.14 12.096 Z" fill="#000000" fill-rule="evenodd" fill-opacity="1" /><path clip-path="url(#clip230)" d="M1401.41 65.6895 L1414.78 65.6895 L1414.78 19.5497 L1400.24 22.4663 L1400.24 15.0127 L1414.7 12.096 L1422.88 12.096 L1422.88 65.6895 L1436.25 65.6895 L1436.25 72.576 L1401.41 72.576 L1401.41 65.6895 Z" fill="#000000" fill-rule="evenodd" fill-opacity="1" /><path clip-path="url(#clip230)" d="M1470.28 17.4837 Q1463.96 17.4837 1460.76 23.7221 Q1457.6 29.92 1457.6 42.3968 Q1457.6 54.833 1460.76 61.0714 Q1463.96 67.2693 1470.28 67.2693 Q1476.64 67.2693 1479.8 61.0714 Q1483 54.833 1483 42.3968 Q1483 29.92 1479.8 23.7221 Q1476.64 17.4837 1470.28 17.4837 M1470.28 11.0023 Q1480.44 11.0023 1485.79 19.0636 Q1491.18 27.0843 1491.18 42.3968 Q1491.18 57.6687 1485.79 65.73 Q1480.44 73.7508 1470.28 73.7508 Q1460.11 73.7508 1454.72 65.73 Q1449.37 57.6687 1449.37 42.3968 Q1449.37 27.0843 1454.72 19.0636 Q1460.11 11.0023 1470.28 11.0023 Z" fill="#000000" fill-rule="evenodd" fill-opacity="1" /><path clip-path="url(#clip230)" d="M1523.06 17.4837 Q1516.74 17.4837 1513.54 23.7221 Q1510.38 29.92 1510.38 42.3968 Q1510.38 54.833 1513.54 61.0714 Q1516.74 67.2693 1523.06 67.2693 Q1529.42 67.2693 1532.58 61.0714 Q1535.78 54.833 1535.78 42.3968 Q1535.78 29.92 1532.58 23.7221 Q1529.42 17.4837 1523.06 17.4837 M1523.06 11.0023 Q1533.23 11.0023 1538.57 19.0636 Q1543.96 27.0843 1543.96 42.3968 Q1543.96 57.6687 1538.57 65.73 Q1533.23 73.7508 1523.06 73.7508 Q1512.89 73.7508 1507.5 65.73 Q1502.16 57.6687 1502.16 42.3968 Q1502.16 27.0843 1507.5 19.0636 Q1512.89 11.0023 1523.06 11.0023 Z" fill="#000000" fill-rule="evenodd" fill-opacity="1" /><path clip-path="url(#clip230)" d="M1575.84 17.4837 Q1569.52 17.4837 1566.32 23.7221 Q1563.16 29.92 1563.16 42.3968 Q1563.16 54.833 1566.32 61.0714 Q1569.52 67.2693 1575.84 67.2693 Q1582.2 67.2693 1585.36 61.0714 Q1588.56 54.833 1588.56 42.3968 Q1588.56 29.92 1585.36 23.7221 Q1582.2 17.4837 1575.84 17.4837 M1575.84 11.0023 Q1586.01 11.0023 1591.36 19.0636 Q1596.75 27.0843 1596.75 42.3968 Q1596.75 57.6687 1591.36 65.73 Q1586.01 73.7508 1575.84 73.7508 Q1565.67 73.7508 1560.29 65.73 Q1554.94 57.6687 1554.94 42.3968 Q1554.94 27.0843 1560.29 19.0636 Q1565.67 11.0023 1575.84 11.0023 Z" fill="#000000" fill-rule="evenodd" fill-opacity="1" /><path clip-path="url(#clip230)" d="M1618.17 65.6895 L1646.73 65.6895 L1646.73 72.576 L1608.33 72.576 L1608.33 65.6895 Q1612.99 60.8689 1621.01 52.7671 Q1629.07 44.6248 1631.14 42.2752 Q1635.07 37.8598 1636.61 34.8216 Q1638.19 31.7429 1638.19 28.7857 Q1638.19 23.9651 1634.78 20.927 Q1631.42 17.8888 1625.99 17.8888 Q1622.14 17.8888 1617.85 19.2256 Q1613.6 20.5624 1608.74 23.2765 L1608.74 15.0127 Q1613.68 13.0277 1617.97 12.015 Q1622.27 11.0023 1625.83 11.0023 Q1635.23 11.0023 1640.82 15.7013 Q1646.41 20.4004 1646.41 28.2591 Q1646.41 31.9859 1644.99 35.3482 Q1643.61 38.6699 1639.93 43.2069 Q1638.91 44.3817 1633.49 50.0125 Q1628.06 55.6027 1618.17 65.6895 Z" fill="#000000" fill-rule="evenodd" fill-opacity="1" /><path clip-path="url(#clip230)" d="M1664.15 71.3202 L1664.15 63.8666 Q1667.23 65.3249 1670.39 66.0946 Q1673.55 66.8642 1676.59 66.8642 Q1684.69 66.8642 1688.94 61.436 Q1693.24 55.9673 1693.85 44.8678 Q1691.5 48.3516 1687.89 50.215 Q1684.29 52.0784 1679.91 52.0784 Q1670.84 52.0784 1665.53 46.6097 Q1660.26 41.1005 1660.26 31.5808 Q1660.26 22.2638 1665.77 16.633 Q1671.28 11.0023 1680.44 11.0023 Q1690.93 11.0023 1696.44 19.0636 Q1701.99 27.0843 1701.99 42.3968 Q1701.99 56.6965 1695.18 65.2439 Q1688.42 73.7508 1676.95 73.7508 Q1673.87 73.7508 1670.71 73.1431 Q1667.55 72.5355 1664.15 71.3202 M1680.44 45.678 Q1685.95 45.678 1689.15 41.9107 Q1692.39 38.1433 1692.39 31.5808 Q1692.39 25.0589 1689.15 21.2916 Q1685.95 17.4837 1680.44 17.4837 Q1674.93 17.4837 1671.69 21.2916 Q1668.49 25.0589 1668.49 31.5808 Q1668.49 38.1433 1671.69 41.9107 Q1674.93 45.678 1680.44 45.678 Z" fill="#000000" fill-rule="evenodd" fill-opacity="1" /><path clip-path="url(#clip230)" d="M1734.19 43.8551 Q1728.36 43.8551 1725 46.9743 Q1721.67 50.0935 1721.67 55.5622 Q1721.67 61.0309 1725 64.1501 Q1728.36 67.2693 1734.19 67.2693 Q1740.03 67.2693 1743.39 64.1501 Q1746.75 60.9904 1746.75 55.5622 Q1746.75 50.0935 1743.39 46.9743 Q1740.07 43.8551 1734.19 43.8551 M1726.01 40.3713 Q1720.74 39.075 1717.79 35.4697 Q1714.87 31.8644 1714.87 26.6793 Q1714.87 19.4281 1720.01 15.2152 Q1725.2 11.0023 1734.19 11.0023 Q1743.23 11.0023 1748.37 15.2152 Q1753.52 19.4281 1753.52 26.6793 Q1753.52 31.8644 1750.56 35.4697 Q1747.64 39.075 1742.42 40.3713 Q1748.33 41.7486 1751.61 45.759 Q1754.93 49.7694 1754.93 55.5622 Q1754.93 64.3527 1749.55 69.0517 Q1744.2 73.7508 1734.19 73.7508 Q1724.19 73.7508 1718.8 69.0517 Q1713.45 64.3527 1713.45 55.5622 Q1713.45 49.7694 1716.77 45.759 Q1720.1 41.7486 1726.01 40.3713 M1723.01 27.4489 Q1723.01 32.148 1725.93 34.7811 Q1728.89 37.4142 1734.19 37.4142 Q1739.46 37.4142 1742.42 34.7811 Q1745.41 32.148 1745.41 27.4489 Q1745.41 22.7499 1742.42 20.1168 Q1739.46 17.4837 1734.19 17.4837 Q1728.89 17.4837 1725.93 20.1168 Q1723.01 22.7499 1723.01 27.4489 Z" fill="#000000" fill-rule="evenodd" fill-opacity="1" /><path clip-path="url(#clip230)" d="M1769.72 71.3202 L1769.72 63.8666 Q1772.8 65.3249 1775.96 66.0946 Q1779.12 66.8642 1782.15 66.8642 Q1790.26 66.8642 1794.51 61.436 Q1798.8 55.9673 1799.41 44.8678 Q1797.06 48.3516 1793.46 50.215 Q1789.85 52.0784 1785.48 52.0784 Q1776.4 52.0784 1771.1 46.6097 Q1765.83 41.1005 1765.83 31.5808 Q1765.83 22.2638 1771.34 16.633 Q1776.85 11.0023 1786 11.0023 Q1796.5 11.0023 1802 19.0636 Q1807.55 27.0843 1807.55 42.3968 Q1807.55 56.6965 1800.75 65.2439 Q1793.98 73.7508 1782.52 73.7508 Q1779.44 73.7508 1776.28 73.1431 Q1773.12 72.5355 1769.72 71.3202 M1786 45.678 Q1791.51 45.678 1794.71 41.9107 Q1797.95 38.1433 1797.95 31.5808 Q1797.95 25.0589 1794.71 21.2916 Q1791.51 17.4837 1786 17.4837 Q1780.49 17.4837 1777.25 21.2916 Q1774.05 25.0589 1774.05 31.5808 Q1774.05 38.1433 1777.25 41.9107 Q1780.49 45.678 1786 45.678 Z" fill="#000000" fill-rule="evenodd" fill-opacity="1" /><path clip-path="url(#clip230)" d="M1839.76 17.4837 Q1833.44 17.4837 1830.24 23.7221 Q1827.08 29.92 1827.08 42.3968 Q1827.08 54.833 1830.24 61.0714 Q1833.44 67.2693 1839.76 67.2693 Q1846.12 67.2693 1849.28 61.0714 Q1852.48 54.833 1852.48 42.3968 Q1852.48 29.92 1849.28 23.7221 Q1846.12 17.4837 1839.76 17.4837 M1839.76 11.0023 Q1849.93 11.0023 1855.27 19.0636 Q1860.66 27.0843 1860.66 42.3968 Q1860.66 57.6687 1855.27 65.73 Q1849.93 73.7508 1839.76 73.7508 Q1829.59 73.7508 1824.2 65.73 Q1818.86 57.6687 1818.86 42.3968 Q1818.86 27.0843 1824.2 19.0636 Q1829.59 11.0023 1839.76 11.0023 Z" fill="#000000" fill-rule="evenodd" fill-opacity="1" /><path clip-path="url(#clip230)" d="M1875.12 12.096 L1907.25 12.096 L1907.25 18.9825 L1882.62 18.9825 L1882.62 33.8088 Q1884.4 33.2012 1886.18 32.9176 Q1887.96 32.5936 1889.75 32.5936 Q1899.87 32.5936 1905.79 38.1433 Q1911.7 43.6931 1911.7 53.1722 Q1911.7 62.9348 1905.63 68.3631 Q1899.55 73.7508 1888.49 73.7508 Q1884.68 73.7508 1880.71 73.1026 Q1876.78 72.4545 1872.57 71.1582 L1872.57 62.9348 Q1876.22 64.9198 1880.11 65.892 Q1883.99 66.8642 1888.33 66.8642 Q1895.34 66.8642 1899.43 63.1779 Q1903.52 59.4916 1903.52 53.1722 Q1903.52 46.8528 1899.43 43.1664 Q1895.34 39.4801 1888.33 39.4801 Q1885.05 39.4801 1881.77 40.2093 Q1878.53 40.9384 1875.12 42.4778 L1875.12 12.096 Z" fill="#000000" fill-rule="evenodd" fill-opacity="1" /><path clip-path="url(#clip230)" d="M1950.31 19.2256 L1929.65 51.5113 L1950.31 51.5113 L1950.31 19.2256 M1948.16 12.096 L1958.45 12.096 L1958.45 51.5113 L1967.08 51.5113 L1967.08 58.3168 L1958.45 58.3168 L1958.45 72.576 L1950.31 72.576 L1950.31 58.3168 L1923 58.3168 L1923 50.4176 L1948.16 12.096 Z" fill="#000000" fill-rule="evenodd" fill-opacity="1" /><path clip-path="url(#clip230)" d="M2003.09 19.2256 L1982.43 51.5113 L2003.09 51.5113 L2003.09 19.2256 M2000.94 12.096 L2011.23 12.096 L2011.23 51.5113 L2019.86 51.5113 L2019.86 58.3168 L2011.23 58.3168 L2011.23 72.576 L2003.09 72.576 L2003.09 58.3168 L1975.79 58.3168 L1975.79 50.4176 L2000.94 12.096 Z" fill="#000000" fill-rule="evenodd" fill-opacity="1" /><path clip-path="url(#clip230)" d="M2034.81 65.6895 L2048.18 65.6895 L2048.18 19.5497 L2033.64 22.4663 L2033.64 15.0127 L2048.1 12.096 L2056.28 12.096 L2056.28 65.6895 L2069.65 65.6895 L2069.65 72.576 L2034.81 72.576 L2034.81 65.6895 Z" fill="#000000" fill-rule="evenodd" fill-opacity="1" /><path clip-path="url(#clip230)" d="M2104.69 39.075 Q2099.18 39.075 2095.94 42.8424 Q2092.74 46.6097 2092.74 53.1722 Q2092.74 59.6941 2095.94 63.502 Q2099.18 67.2693 2104.69 67.2693 Q2110.2 67.2693 2113.4 63.502 Q2116.64 59.6941 2116.64 53.1722 Q2116.64 46.6097 2113.4 42.8424 Q2110.2 39.075 2104.69 39.075 M2120.93 13.4328 L2120.93 20.8865 Q2117.85 19.4281 2114.69 18.6585 Q2111.57 17.8888 2108.5 17.8888 Q2100.39 17.8888 2096.1 23.3575 Q2091.85 28.8262 2091.24 39.8852 Q2093.63 36.3609 2097.23 34.4975 Q2100.84 32.5936 2105.17 32.5936 Q2114.29 32.5936 2119.55 38.1433 Q2124.86 43.6525 2124.86 53.1722 Q2124.86 62.4892 2119.35 68.12 Q2113.84 73.7508 2104.69 73.7508 Q2094.2 73.7508 2088.65 65.73 Q2083.1 57.6687 2083.1 42.3968 Q2083.1 28.0566 2089.9 19.5497 Q2096.71 11.0023 2108.17 11.0023 Q2111.25 11.0023 2114.37 11.6099 Q2117.53 12.2175 2120.93 13.4328 Z" fill="#000000" fill-rule="evenodd" fill-opacity="1" /><polyline clip-path="url(#clip232)" style="stroke:#009af9; stroke-linecap:butt; stroke-linejoin:round; stroke-width:20; stroke-opacity:1; fill:none" points="
  607.438,1247.16 663.921,1278.59 720.404,1305.53 776.887,1327.97 833.369,1345.93 889.852,1359.4 946.335,1368.38 1002.82,1372.87 1059.3,1372.87 1115.78,1368.38 
  1172.27,1359.4 1228.75,1345.93 1285.23,1327.97 1341.71,1305.53 1398.2,1278.59 1454.68,1247.16 1511.16,1211.25 1567.65,1170.84 1624.13,1125.95 1680.61,1076.57 
  1737.09,1022.69 1793.58,964.333 1850.06,901.482 1906.54,834.141 1963.02,762.311 2019.51,685.991 2075.99,605.183 2132.47,519.884 2188.96,430.097 2245.44,335.82 
  2301.92,237.053 
  "/>
<polyline clip-path="url(#clip232)" style="stroke:#e26f46; stroke-linecap:butt; stroke-linejoin:round; stroke-width:4; stroke-opacity:1; fill:none" points="
  607.438,1254.65 663.921,1277.09 720.404,1299.54 776.887,1321.99 833.369,1344.43 889.852,1366.88 946.335,1389.33 1002.82,1411.77 1059.3,1434.22 1115.78,1456.67 
  1172.27,1479.12 1228.75,1501.56 1285.23,1524.01 1341.71,1546.46 1398.2,1568.9 1454.68,1591.35 1511.16,1613.8 1567.65,1636.24 1624.13,1658.69 1680.61,1681.14 
  1737.09,1703.58 1793.58,1726.03 1850.06,1748.48 1906.54,1770.92 1963.02,1793.37 2019.51,1815.82 2075.99,1838.27 2132.47,1860.71 2188.96,1883.16 2245.44,1905.61 
  2301.92,1928.05 
  "/>
<polyline clip-path="url(#clip232)" style="stroke:#3da44d; stroke-linecap:butt; stroke-linejoin:round; stroke-width:4; stroke-opacity:1; fill:none" points="
  607.438,1402.8 663.921,1398.31 720.404,1393.82 776.887,1389.33 833.369,1384.84 889.852,1380.35 946.335,1375.86 1002.82,1371.37 1059.3,1366.88 1115.78,1362.39 
  1172.27,1357.9 1228.75,1353.41 1285.23,1348.92 1341.71,1344.43 1398.2,1339.94 1454.68,1335.46 1511.16,1330.97 1567.65,1326.48 1624.13,1321.99 1680.61,1317.5 
  1737.09,1313.01 1793.58,1308.52 1850.06,1304.03 1906.54,1299.54 1963.02,1295.05 2019.51,1290.56 2075.99,1286.07 2132.47,1281.58 2188.96,1277.09 2245.44,1272.6 
  2301.92,1268.11 
  "/>
<polyline clip-path="url(#clip232)" style="stroke:#c271d2; stroke-linecap:butt; stroke-linejoin:round; stroke-width:4; stroke-opacity:1; fill:none" points="
  607.438,1712.56 663.921,1681.14 720.404,1649.71 776.887,1618.29 833.369,1586.86 889.852,1555.43 946.335,1524.01 1002.82,1492.58 1059.3,1461.16 1115.78,1429.73 
  1172.27,1398.31 1228.75,1366.88 1285.23,1335.46 1341.71,1304.03 1398.2,1272.6 1454.68,1241.18 1511.16,1209.75 1567.65,1178.33 1624.13,1146.9 1680.61,1115.48 
  1737.09,1084.05 1793.58,1052.62 1850.06,1021.2 1906.54,989.773 1963.02,958.347 2019.51,926.921 2075.99,895.496 2132.47,864.07 2188.96,832.645 2245.44,801.219 
  2301.92,769.793 
  "/>
<polyline clip-path="url(#clip232)" style="stroke:#ac8d18; stroke-linecap:butt; stroke-linejoin:round; stroke-width:4; stroke-opacity:1; fill:none" points="
  607.438,2183.95 663.921,2125.59 720.404,2067.22 776.887,2008.86 833.369,1950.5 889.852,1892.14 946.335,1833.78 1002.82,1775.41 1059.3,1717.05 1115.78,1658.69 
  1172.27,1600.33 1228.75,1541.97 1285.23,1483.6 1341.71,1425.24 1398.2,1366.88 1454.68,1308.52 1511.16,1250.16 1567.65,1191.79 1624.13,1133.43 1680.61,1075.07 
  1737.09,1016.71 1793.58,958.347 1850.06,899.985 1906.54,841.623 1963.02,783.261 2019.51,724.899 2075.99,666.537 2132.47,608.176 2188.96,549.814 2245.44,491.452 
  2301.92,433.09 
  "/>
<polyline clip-path="url(#clip232)" style="stroke:#00a9ad; stroke-linecap:butt; stroke-linejoin:round; stroke-width:4; stroke-opacity:1; fill:none" points="
  607.438,2874.56 663.921,2787.02 720.404,2699.48 776.887,2611.94 833.369,2524.39 889.852,2436.85 946.335,2349.31 1002.82,2261.76 1059.3,2174.22 1115.78,2086.68 
  1172.27,1999.14 1228.75,1911.59 1285.23,1824.05 1341.71,1736.51 1398.2,1648.96 1454.68,1561.42 1511.16,1473.88 1567.65,1386.33 1624.13,1298.79 1680.61,1211.25 
  1737.09,1123.71 1793.58,1036.16 1850.06,948.62 1906.54,861.077 1963.02,773.534 2019.51,685.991 2075.99,598.449 2132.47,510.906 2188.96,423.363 2245.44,335.82 
  2301.92,248.277 
  "/>
<path clip-path="url(#clip230)" d="
M66.9602 531.785 L355.43 531.785 L355.43 168.905 L66.9602 168.905  Z
  " fill="#ffffff" fill-rule="evenodd" fill-opacity="1"/>
<polyline clip-path="url(#clip230)" style="stroke:#000000; stroke-linecap:butt; stroke-linejoin:round; stroke-width:4; stroke-opacity:1; fill:none" points="
  66.9602,531.785 355.43,531.785 355.43,168.905 66.9602,168.905 66.9602,531.785 
  "/>
<polyline clip-path="url(#clip230)" style="stroke:#009af9; stroke-linecap:butt; stroke-linejoin:round; stroke-width:4; stroke-opacity:1; fill:none" points="
  91.5386,220.745 239.009,220.745 
  "/>
<path clip-path="url(#clip230)" d="M280.092 202.006 L280.092 205.548 L276.018 205.548 Q273.727 205.548 272.824 206.474 Q271.944 207.4 271.944 209.807 L271.944 212.099 L278.958 212.099 L278.958 215.409 L271.944 215.409 L271.944 238.025 L267.662 238.025 L267.662 215.409 L263.588 215.409 L263.588 212.099 L267.662 212.099 L267.662 210.293 Q267.662 205.965 269.676 203.997 Q271.69 202.006 276.065 202.006 L280.092 202.006 Z" fill="#000000" fill-rule="evenodd" fill-opacity="1" /><polyline clip-path="url(#clip230)" style="stroke:#e26f46; stroke-linecap:butt; stroke-linejoin:round; stroke-width:4; stroke-opacity:1; fill:none" points="
  91.5386,272.585 239.009,272.585 
  "/>
<path clip-path="url(#clip230)" d="M278.773 267.92 Q278.055 267.504 277.199 267.318 Q276.365 267.11 275.347 267.11 Q271.736 267.11 269.791 269.471 Q267.87 271.809 267.87 276.207 L267.87 289.865 L263.588 289.865 L263.588 263.939 L267.87 263.939 L267.87 267.967 Q269.213 265.606 271.366 264.471 Q273.518 263.314 276.597 263.314 Q277.037 263.314 277.569 263.383 Q278.102 263.43 278.75 263.545 L278.773 267.92 Z" fill="#000000" fill-rule="evenodd" fill-opacity="1" /><path clip-path="url(#clip230)" d="M284.652 285.929 L292.291 285.929 L292.291 259.564 L283.981 261.231 L283.981 256.971 L292.245 255.305 L296.921 255.305 L296.921 285.929 L304.56 285.929 L304.56 289.865 L284.652 289.865 L284.652 285.929 Z" fill="#000000" fill-rule="evenodd" fill-opacity="1" /><polyline clip-path="url(#clip230)" style="stroke:#3da44d; stroke-linecap:butt; stroke-linejoin:round; stroke-width:4; stroke-opacity:1; fill:none" points="
  91.5386,324.425 239.009,324.425 
  "/>
<path clip-path="url(#clip230)" d="M278.773 319.76 Q278.055 319.344 277.199 319.158 Q276.365 318.95 275.347 318.95 Q271.736 318.95 269.791 321.311 Q267.87 323.649 267.87 328.047 L267.87 341.705 L263.588 341.705 L263.588 315.779 L267.87 315.779 L267.87 319.807 Q269.213 317.446 271.366 316.311 Q273.518 315.154 276.597 315.154 Q277.037 315.154 277.569 315.223 Q278.102 315.27 278.75 315.385 L278.773 319.76 Z" fill="#000000" fill-rule="evenodd" fill-opacity="1" /><path clip-path="url(#clip230)" d="M287.87 337.769 L304.189 337.769 L304.189 341.705 L282.245 341.705 L282.245 337.769 Q284.907 335.015 289.49 330.385 Q294.097 325.733 295.277 324.39 Q297.523 321.867 298.402 320.131 Q299.305 318.371 299.305 316.682 Q299.305 313.927 297.361 312.191 Q295.439 310.455 292.338 310.455 Q290.139 310.455 287.685 311.219 Q285.254 311.983 282.477 313.534 L282.477 308.811 Q285.301 307.677 287.754 307.098 Q290.208 306.52 292.245 306.52 Q297.615 306.52 300.81 309.205 Q304.004 311.89 304.004 316.381 Q304.004 318.51 303.194 320.432 Q302.407 322.33 300.301 324.922 Q299.722 325.594 296.62 328.811 Q293.518 332.006 287.87 337.769 Z" fill="#000000" fill-rule="evenodd" fill-opacity="1" /><polyline clip-path="url(#clip230)" style="stroke:#c271d2; stroke-linecap:butt; stroke-linejoin:round; stroke-width:4; stroke-opacity:1; fill:none" points="
  91.5386,376.265 239.009,376.265 
  "/>
<path clip-path="url(#clip230)" d="M278.773 371.6 Q278.055 371.184 277.199 370.998 Q276.365 370.79 275.347 370.79 Q271.736 370.79 269.791 373.151 Q267.87 375.489 267.87 379.887 L267.87 393.545 L263.588 393.545 L263.588 367.619 L267.87 367.619 L267.87 371.647 Q269.213 369.286 271.366 368.151 Q273.518 366.994 276.597 366.994 Q277.037 366.994 277.569 367.063 Q278.102 367.11 278.75 367.225 L278.773 371.6 Z" fill="#000000" fill-rule="evenodd" fill-opacity="1" /><path clip-path="url(#clip230)" d="M298.009 374.91 Q301.365 375.628 303.24 377.897 Q305.138 380.165 305.138 383.498 Q305.138 388.614 301.62 391.415 Q298.101 394.216 291.62 394.216 Q289.444 394.216 287.129 393.776 Q284.838 393.359 282.384 392.503 L282.384 387.989 Q284.328 389.123 286.643 389.702 Q288.958 390.281 291.481 390.281 Q295.879 390.281 298.171 388.545 Q300.486 386.809 300.486 383.498 Q300.486 380.443 298.333 378.73 Q296.203 376.994 292.384 376.994 L288.356 376.994 L288.356 373.151 L292.569 373.151 Q296.018 373.151 297.847 371.786 Q299.676 370.397 299.676 367.804 Q299.676 365.142 297.777 363.73 Q295.902 362.295 292.384 362.295 Q290.463 362.295 288.264 362.711 Q286.065 363.128 283.426 364.008 L283.426 359.841 Q286.088 359.1 288.402 358.73 Q290.74 358.36 292.801 358.36 Q298.125 358.36 301.226 360.79 Q304.328 363.198 304.328 367.318 Q304.328 370.188 302.685 372.179 Q301.041 374.147 298.009 374.91 Z" fill="#000000" fill-rule="evenodd" fill-opacity="1" /><polyline clip-path="url(#clip230)" style="stroke:#ac8d18; stroke-linecap:butt; stroke-linejoin:round; stroke-width:4; stroke-opacity:1; fill:none" points="
  91.5386,428.105 239.009,428.105 
  "/>
<path clip-path="url(#clip230)" d="M278.773 423.44 Q278.055 423.024 277.199 422.838 Q276.365 422.63 275.347 422.63 Q271.736 422.63 269.791 424.991 Q267.87 427.329 267.87 431.727 L267.87 445.385 L263.588 445.385 L263.588 419.459 L267.87 419.459 L267.87 423.487 Q269.213 421.126 271.366 419.991 Q273.518 418.834 276.597 418.834 Q277.037 418.834 277.569 418.903 Q278.102 418.95 278.75 419.065 L278.773 423.44 Z" fill="#000000" fill-rule="evenodd" fill-opacity="1" /><path clip-path="url(#clip230)" d="M296.689 414.899 L284.884 433.348 L296.689 433.348 L296.689 414.899 M295.463 410.825 L301.342 410.825 L301.342 433.348 L306.273 433.348 L306.273 437.237 L301.342 437.237 L301.342 445.385 L296.689 445.385 L296.689 437.237 L281.088 437.237 L281.088 432.723 L295.463 410.825 Z" fill="#000000" fill-rule="evenodd" fill-opacity="1" /><polyline clip-path="url(#clip230)" style="stroke:#00a9ad; stroke-linecap:butt; stroke-linejoin:round; stroke-width:4; stroke-opacity:1; fill:none" points="
  91.5386,479.945 239.009,479.945 
  "/>
<path clip-path="url(#clip230)" d="M278.773 475.28 Q278.055 474.864 277.199 474.678 Q276.365 474.47 275.347 474.47 Q271.736 474.47 269.791 476.831 Q267.87 479.169 267.87 483.567 L267.87 497.225 L263.588 497.225 L263.588 471.299 L267.87 471.299 L267.87 475.327 Q269.213 472.966 271.366 471.831 Q273.518 470.674 276.597 470.674 Q277.037 470.674 277.569 470.743 Q278.102 470.79 278.75 470.905 L278.773 475.28 Z" fill="#000000" fill-rule="evenodd" fill-opacity="1" /><path clip-path="url(#clip230)" d="M283.889 462.665 L302.245 462.665 L302.245 466.6 L288.171 466.6 L288.171 475.072 Q289.189 474.725 290.208 474.563 Q291.227 474.378 292.245 474.378 Q298.032 474.378 301.412 477.549 Q304.791 480.72 304.791 486.137 Q304.791 491.715 301.319 494.817 Q297.847 497.896 291.527 497.896 Q289.352 497.896 287.083 497.526 Q284.838 497.155 282.43 496.414 L282.43 491.715 Q284.514 492.85 286.736 493.405 Q288.958 493.961 291.435 493.961 Q295.439 493.961 297.777 491.854 Q300.115 489.748 300.115 486.137 Q300.115 482.526 297.777 480.419 Q295.439 478.313 291.435 478.313 Q289.56 478.313 287.685 478.729 Q285.833 479.146 283.889 480.026 L283.889 462.665 Z" fill="#000000" fill-rule="evenodd" fill-opacity="1" /></svg>
