<?xml version="1.0" encoding="utf-8"?>
<svg xmlns="http://www.w3.org/2000/svg" xmlns:xlink="http://www.w3.org/1999/xlink" width="600" height="400" viewBox="0 0 2400 1600">
<defs>
  <clipPath id="clip270">
    <rect x="0" y="0" width="2400" height="1600"/>
  </clipPath>
</defs>
<path clip-path="url(#clip270)" d="
M0 1600 L2400 1600 L2400 0 L0 0  Z
  " fill="#ffffff" fill-rule="evenodd" fill-opacity="1"/>
<defs>
  <clipPath id="clip271">
    <rect x="480" y="0" width="1681" height="1600"/>
  </clipPath>
</defs>
<path clip-path="url(#clip270)" d="
M556.604 1486.45 L2352.76 1486.45 L2352.76 123.472 L556.604 123.472  Z
  " fill="#ffffff" fill-rule="evenodd" fill-opacity="1"/>
<defs>
  <clipPath id="clip272">
    <rect x="556" y="123" width="1797" height="1364"/>
  </clipPath>
</defs>
<polyline clip-path="url(#clip272)" style="stroke:#000000; stroke-linecap:butt; stroke-linejoin:round; stroke-width:2; stroke-opacity:0.1; fill:none" points="
  607.438,1486.45 607.438,123.472 
  "/>
<polyline clip-path="url(#clip272)" style="stroke:#000000; stroke-linecap:butt; stroke-linejoin:round; stroke-width:2; stroke-opacity:0.1; fill:none" points="
  889.852,1486.45 889.852,123.472 
  "/>
<polyline clip-path="url(#clip272)" style="stroke:#000000; stroke-linecap:butt; stroke-linejoin:round; stroke-width:2; stroke-opacity:0.1; fill:none" points="
  1172.27,1486.45 1172.27,123.472 
  "/>
<polyline clip-path="url(#clip272)" style="stroke:#000000; stroke-linecap:butt; stroke-linejoin:round; stroke-width:2; stroke-opacity:0.1; fill:none" points="
  1454.68,1486.45 1454.68,123.472 
  "/>
<polyline clip-path="url(#clip272)" style="stroke:#000000; stroke-linecap:butt; stroke-linejoin:round; stroke-width:2; stroke-opacity:0.1; fill:none" points="
  1737.09,1486.45 1737.09,123.472 
  "/>
<polyline clip-path="url(#clip272)" style="stroke:#000000; stroke-linecap:butt; stroke-linejoin:round; stroke-width:2; stroke-opacity:0.1; fill:none" points="
  2019.51,1486.45 2019.51,123.472 
  "/>
<polyline clip-path="url(#clip272)" style="stroke:#000000; stroke-linecap:butt; stroke-linejoin:round; stroke-width:2; stroke-opacity:0.1; fill:none" points="
  2301.92,1486.45 2301.92,123.472 
  "/>
<polyline clip-path="url(#clip270)" style="stroke:#000000; stroke-linecap:butt; stroke-linejoin:round; stroke-width:4; stroke-opacity:1; fill:none" points="
  556.604,1486.45 2352.76,1486.45 
  "/>
<polyline clip-path="url(#clip270)" style="stroke:#000000; stroke-linecap:butt; stroke-linejoin:round; stroke-width:4; stroke-opacity:1; fill:none" points="
  607.438,1486.45 607.438,1467.55 
  "/>
<polyline clip-path="url(#clip270)" style="stroke:#000000; stroke-linecap:butt; stroke-linejoin:round; stroke-width:4; stroke-opacity:1; fill:none" points="
  889.852,1486.45 889.852,1467.55 
  "/>
<polyline clip-path="url(#clip270)" style="stroke:#000000; stroke-linecap:butt; stroke-linejoin:round; stroke-width:4; stroke-opacity:1; fill:none" points="
  1172.27,1486.45 1172.27,1467.55 
  "/>
<polyline clip-path="url(#clip270)" style="stroke:#000000; stroke-linecap:butt; stroke-linejoin:round; stroke-width:4; stroke-opacity:1; fill:none" points="
  1454.68,1486.45 1454.68,1467.55 
  "/>
<polyline clip-path="url(#clip270)" style="stroke:#000000; stroke-linecap:butt; stroke-linejoin:round; stroke-width:4; stroke-opacity:1; fill:none" points="
  1737.09,1486.45 1737.09,1467.55 
  "/>
<polyline clip-path="url(#clip270)" style="stroke:#000000; stroke-linecap:butt; stroke-linejoin:round; stroke-width:4; stroke-opacity:1; fill:none" points="
  2019.51,1486.45 2019.51,1467.55 
  "/>
<polyline clip-path="url(#clip270)" style="stroke:#000000; stroke-linecap:butt; stroke-linejoin:round; stroke-width:4; stroke-opacity:1; fill:none" points="
  2301.92,1486.45 2301.92,1467.55 
  "/>
<path clip-path="url(#clip270)" d="M607.438 1517.37 Q603.827 1517.37 601.998 1520.93 Q600.193 1524.47 600.193 1531.6 Q600.193 1538.71 601.998 1542.27 Q603.827 1545.82 607.438 1545.82 Q611.072 1545.82 612.878 1542.27 Q614.707 1538.71 614.707 1531.6 Q614.707 1524.47 612.878 1520.93 Q611.072 1517.37 607.438 1517.37 M607.438 1513.66 Q613.248 1513.66 616.304 1518.27 Q619.383 1522.85 619.383 1531.6 Q619.383 1540.33 616.304 1544.94 Q613.248 1549.52 607.438 1549.52 Q601.628 1549.52 598.549 1544.94 Q595.494 1540.33 595.494 1531.6 Q595.494 1522.85 598.549 1518.27 Q601.628 1513.66 607.438 1513.66 Z" fill="#000000" fill-rule="evenodd" fill-opacity="1" /><path clip-path="url(#clip270)" d="M880.234 1544.91 L887.873 1544.91 L887.873 1518.55 L879.563 1520.21 L879.563 1515.95 L887.827 1514.29 L892.503 1514.29 L892.503 1544.91 L900.141 1544.91 L900.141 1548.85 L880.234 1548.85 L880.234 1544.91 Z" fill="#000000" fill-rule="evenodd" fill-opacity="1" /><path clip-path="url(#clip270)" d="M1166.92 1544.91 L1183.24 1544.91 L1183.24 1548.85 L1161.29 1548.85 L1161.29 1544.91 Q1163.96 1542.16 1168.54 1537.53 Q1173.15 1532.88 1174.33 1531.53 Q1176.57 1529.01 1177.45 1527.27 Q1178.35 1525.51 1178.35 1523.82 Q1178.35 1521.07 1176.41 1519.33 Q1174.49 1517.6 1171.39 1517.6 Q1169.19 1517.6 1166.73 1518.36 Q1164.3 1519.13 1161.53 1520.68 L1161.53 1515.95 Q1164.35 1514.82 1166.8 1514.24 Q1169.26 1513.66 1171.29 1513.66 Q1176.66 1513.66 1179.86 1516.35 Q1183.05 1519.03 1183.05 1523.52 Q1183.05 1525.65 1182.24 1527.57 Q1181.46 1529.47 1179.35 1532.07 Q1178.77 1532.74 1175.67 1535.95 Q1172.57 1539.15 1166.92 1544.91 Z" fill="#000000" fill-rule="evenodd" fill-opacity="1" /><path clip-path="url(#clip270)" d="M1458.93 1530.21 Q1462.28 1530.93 1464.16 1533.2 Q1466.06 1535.47 1466.06 1538.8 Q1466.06 1543.92 1462.54 1546.72 Q1459.02 1549.52 1452.54 1549.52 Q1450.36 1549.52 1448.05 1549.08 Q1445.76 1548.66 1443.3 1547.81 L1443.3 1543.29 Q1445.25 1544.43 1447.56 1545.01 Q1449.88 1545.58 1452.4 1545.58 Q1456.8 1545.58 1459.09 1543.85 Q1461.4 1542.11 1461.4 1538.8 Q1461.4 1535.75 1459.25 1534.03 Q1457.12 1532.3 1453.3 1532.3 L1449.27 1532.3 L1449.27 1528.45 L1453.49 1528.45 Q1456.94 1528.45 1458.77 1527.09 Q1460.59 1525.7 1460.59 1523.11 Q1460.59 1520.45 1458.7 1519.03 Q1456.82 1517.6 1453.3 1517.6 Q1451.38 1517.6 1449.18 1518.01 Q1446.98 1518.43 1444.34 1519.31 L1444.34 1515.14 Q1447.01 1514.4 1449.32 1514.03 Q1451.66 1513.66 1453.72 1513.66 Q1459.04 1513.66 1462.15 1516.09 Q1465.25 1518.5 1465.25 1522.62 Q1465.25 1525.49 1463.6 1527.48 Q1461.96 1529.45 1458.93 1530.21 Z" fill="#000000" fill-rule="evenodd" fill-opacity="1" /><path clip-path="url(#clip270)" d="M1740.1 1518.36 L1728.3 1536.81 L1740.1 1536.81 L1740.1 1518.36 M1738.88 1514.29 L1744.76 1514.29 L1744.76 1536.81 L1749.69 1536.81 L1749.69 1540.7 L1744.76 1540.7 L1744.76 1548.85 L1740.1 1548.85 L1740.1 1540.7 L1724.5 1540.7 L1724.5 1536.19 L1738.88 1514.29 Z" fill="#000000" fill-rule="evenodd" fill-opacity="1" /><path clip-path="url(#clip270)" d="M2009.79 1514.29 L2028.14 1514.29 L2028.14 1518.22 L2014.07 1518.22 L2014.07 1526.7 Q2015.09 1526.35 2016.1 1526.19 Q2017.12 1526 2018.14 1526 Q2023.93 1526 2027.31 1529.17 Q2030.69 1532.34 2030.69 1537.76 Q2030.69 1543.34 2027.22 1546.44 Q2023.74 1549.52 2017.42 1549.52 Q2015.25 1549.52 2012.98 1549.15 Q2010.73 1548.78 2008.33 1548.04 L2008.33 1543.34 Q2010.41 1544.47 2012.63 1545.03 Q2014.85 1545.58 2017.33 1545.58 Q2021.34 1545.58 2023.67 1543.48 Q2026.01 1541.37 2026.01 1537.76 Q2026.01 1534.15 2023.67 1532.04 Q2021.34 1529.94 2017.33 1529.94 Q2015.46 1529.94 2013.58 1530.35 Q2011.73 1530.77 2009.79 1531.65 L2009.79 1514.29 Z" fill="#000000" fill-rule="evenodd" fill-opacity="1" /><path clip-path="url(#clip270)" d="M2302.33 1529.7 Q2299.18 1529.7 2297.33 1531.86 Q2295.5 1534.01 2295.5 1537.76 Q2295.5 1541.49 2297.33 1543.66 Q2299.18 1545.82 2302.33 1545.82 Q2305.47 1545.82 2307.3 1543.66 Q2309.16 1541.49 2309.16 1537.76 Q2309.16 1534.01 2307.3 1531.86 Q2305.47 1529.7 2302.33 1529.7 M2311.61 1515.05 L2311.61 1519.31 Q2309.85 1518.48 2308.04 1518.04 Q2306.26 1517.6 2304.5 1517.6 Q2299.87 1517.6 2297.42 1520.72 Q2294.99 1523.85 2294.64 1530.17 Q2296.01 1528.15 2298.07 1527.09 Q2300.13 1526 2302.6 1526 Q2307.81 1526 2310.82 1529.17 Q2313.85 1532.32 2313.85 1537.76 Q2313.85 1543.08 2310.71 1546.3 Q2307.56 1549.52 2302.33 1549.52 Q2296.33 1549.52 2293.16 1544.94 Q2289.99 1540.33 2289.99 1531.6 Q2289.99 1523.41 2293.88 1518.55 Q2297.77 1513.66 2304.32 1513.66 Q2306.08 1513.66 2307.86 1514.01 Q2309.66 1514.36 2311.61 1515.05 Z" fill="#000000" fill-rule="evenodd" fill-opacity="1" /><polyline clip-path="url(#clip272)" style="stroke:#000000; stroke-linecap:butt; stroke-linejoin:round; stroke-width:2; stroke-opacity:0.1; fill:none" points="
  556.604,1359.4 2352.76,1359.4 
  "/>
<polyline clip-path="url(#clip272)" style="stroke:#000000; stroke-linecap:butt; stroke-linejoin:round; stroke-width:2; stroke-opacity:0.1; fill:none" points="
  556.604,1078.81 2352.76,1078.81 
  "/>
<polyline clip-path="url(#clip272)" style="stroke:#000000; stroke-linecap:butt; stroke-linejoin:round; stroke-width:2; stroke-opacity:0.1; fill:none" points="
  556.604,798.226 2352.76,798.226 
  "/>
<polyline clip-path="url(#clip272)" style="stroke:#000000; stroke-linecap:butt; stroke-linejoin:round; stroke-width:2; stroke-opacity:0.1; fill:none" points="
  556.604,517.64 2352.76,517.64 
  "/>
<polyline clip-path="url(#clip272)" style="stroke:#000000; stroke-linecap:butt; stroke-linejoin:round; stroke-width:2; stroke-opacity:0.1; fill:none" points="
  556.604,237.053 2352.76,237.053 
  "/>
<polyline clip-path="url(#clip270)" style="stroke:#000000; stroke-linecap:butt; stroke-linejoin:round; stroke-width:4; stroke-opacity:1; fill:none" points="
  556.604,1486.45 556.604,123.472 
  "/>
<polyline clip-path="url(#clip270)" style="stroke:#000000; stroke-linecap:butt; stroke-linejoin:round; stroke-width:4; stroke-opacity:1; fill:none" points="
  556.604,1359.4 571.948,1359.4 
  "/>
<polyline clip-path="url(#clip270)" style="stroke:#000000; stroke-linecap:butt; stroke-linejoin:round; stroke-width:4; stroke-opacity:1; fill:none" points="
  556.604,1078.81 571.948,1078.81 
  "/>
<polyline clip-path="url(#clip270)" style="stroke:#000000; stroke-linecap:butt; stroke-linejoin:round; stroke-width:4; stroke-opacity:1; fill:none" points="
  556.604,798.226 571.948,798.226 
  "/>
<polyline clip-path="url(#clip270)" style="stroke:#000000; stroke-linecap:butt; stroke-linejoin:round; stroke-width:4; stroke-opacity:1; fill:none" points="
  556.604,517.64 571.948,517.64 
  "/>
<polyline clip-path="url(#clip270)" style="stroke:#000000; stroke-linecap:butt; stroke-linejoin:round; stroke-width:4; stroke-opacity:1; fill:none" points="
  556.604,237.053 571.948,237.053 
  "/>
<path clip-path="url(#clip270)" d="M508.659 1345.2 Q505.048 1345.2 503.22 1348.76 Q501.414 1352.3 501.414 1359.43 Q501.414 1366.54 503.22 1370.1 Q505.048 1373.65 508.659 1373.65 Q512.294 1373.65 514.099 1370.1 Q515.928 1366.54 515.928 1359.43 Q515.928 1352.3 514.099 1348.76 Q512.294 1345.2 508.659 1345.2 M508.659 1341.49 Q514.47 1341.49 517.525 1346.1 Q520.604 1350.68 520.604 1359.43 Q520.604 1368.16 517.525 1372.77 Q514.47 1377.35 508.659 1377.35 Q502.849 1377.35 499.771 1372.77 Q496.715 1368.16 496.715 1359.43 Q496.715 1350.68 499.771 1346.1 Q502.849 1341.49 508.659 1341.49 Z" fill="#000000" fill-rule="evenodd" fill-opacity="1" /><path clip-path="url(#clip270)" d="M499.701 1061.53 L518.057 1061.53 L518.057 1065.47 L503.983 1065.47 L503.983 1073.94 Q505.002 1073.59 506.02 1073.43 Q507.039 1073.25 508.058 1073.25 Q513.845 1073.25 517.224 1076.42 Q520.604 1079.59 520.604 1085 Q520.604 1090.58 517.132 1093.68 Q513.659 1096.76 507.34 1096.76 Q505.164 1096.76 502.896 1096.39 Q500.65 1096.02 498.243 1095.28 L498.243 1090.58 Q500.326 1091.72 502.548 1092.27 Q504.77 1092.83 507.247 1092.83 Q511.252 1092.83 513.59 1090.72 Q515.928 1088.62 515.928 1085 Q515.928 1081.39 513.59 1079.29 Q511.252 1077.18 507.247 1077.18 Q505.372 1077.18 503.497 1077.6 Q501.646 1078.01 499.701 1078.89 L499.701 1061.53 Z" fill="#000000" fill-rule="evenodd" fill-opacity="1" /><path clip-path="url(#clip270)" d="M469.308 811.571 L476.947 811.571 L476.947 785.205 L468.636 786.872 L468.636 782.613 L476.9 780.946 L481.576 780.946 L481.576 811.571 L489.215 811.571 L489.215 815.506 L469.308 815.506 L469.308 811.571 Z" fill="#000000" fill-rule="evenodd" fill-opacity="1" /><path clip-path="url(#clip270)" d="M508.659 784.025 Q505.048 784.025 503.22 787.589 Q501.414 791.131 501.414 798.261 Q501.414 805.367 503.22 808.932 Q505.048 812.474 508.659 812.474 Q512.294 812.474 514.099 808.932 Q515.928 805.367 515.928 798.261 Q515.928 791.131 514.099 787.589 Q512.294 784.025 508.659 784.025 M508.659 780.321 Q514.47 780.321 517.525 784.927 Q520.604 789.511 520.604 798.261 Q520.604 806.987 517.525 811.594 Q514.47 816.177 508.659 816.177 Q502.849 816.177 499.771 811.594 Q496.715 806.987 496.715 798.261 Q496.715 789.511 499.771 784.927 Q502.849 780.321 508.659 780.321 Z" fill="#000000" fill-rule="evenodd" fill-opacity="1" /><path clip-path="url(#clip270)" d="M470.303 530.985 L477.942 530.985 L477.942 504.619 L469.632 506.286 L469.632 502.026 L477.896 500.36 L482.572 500.36 L482.572 530.985 L490.21 530.985 L490.21 534.92 L470.303 534.92 L470.303 530.985 Z" fill="#000000" fill-rule="evenodd" fill-opacity="1" /><path clip-path="url(#clip270)" d="M499.701 500.36 L518.057 500.36 L518.057 504.295 L503.983 504.295 L503.983 512.767 Q505.002 512.42 506.02 512.258 Q507.039 512.073 508.058 512.073 Q513.845 512.073 517.224 515.244 Q520.604 518.415 520.604 523.832 Q520.604 529.41 517.132 532.512 Q513.659 535.591 507.34 535.591 Q505.164 535.591 502.896 535.221 Q500.65 534.85 498.243 534.11 L498.243 529.41 Q500.326 530.545 502.548 531.1 Q504.77 531.656 507.247 531.656 Q511.252 531.656 513.59 529.549 Q515.928 527.443 515.928 523.832 Q515.928 520.221 513.59 518.114 Q511.252 516.008 507.247 516.008 Q505.372 516.008 503.497 516.424 Q501.646 516.841 499.701 517.721 L499.701 500.36 Z" fill="#000000" fill-rule="evenodd" fill-opacity="1" /><path clip-path="url(#clip270)" d="M472.525 250.398 L488.845 250.398 L488.845 254.333 L466.9 254.333 L466.9 250.398 Q469.562 247.644 474.146 243.014 Q478.752 238.361 479.933 237.019 Q482.178 234.496 483.058 232.759 Q483.96 231 483.96 229.31 Q483.96 226.556 482.016 224.82 Q480.095 223.084 476.993 223.084 Q474.794 223.084 472.34 223.847 Q469.91 224.611 467.132 226.162 L467.132 221.44 Q469.956 220.306 472.41 219.727 Q474.863 219.148 476.9 219.148 Q482.271 219.148 485.465 221.834 Q488.659 224.519 488.659 229.009 Q488.659 231.139 487.849 233.06 Q487.062 234.959 484.956 237.551 Q484.377 238.222 481.275 241.44 Q478.173 244.634 472.525 250.398 Z" fill="#000000" fill-rule="evenodd" fill-opacity="1" /><path clip-path="url(#clip270)" d="M508.659 222.852 Q505.048 222.852 503.22 226.417 Q501.414 229.959 501.414 237.088 Q501.414 244.195 503.22 247.759 Q505.048 251.301 508.659 251.301 Q512.294 251.301 514.099 247.759 Q515.928 244.195 515.928 237.088 Q515.928 229.959 514.099 226.417 Q512.294 222.852 508.659 222.852 M508.659 219.148 Q514.47 219.148 517.525 223.755 Q520.604 228.338 520.604 237.088 Q520.604 245.815 517.525 250.421 Q514.47 255.005 508.659 255.005 Q502.849 255.005 499.771 250.421 Q496.715 245.815 496.715 237.088 Q496.715 228.338 499.771 223.755 Q502.849 219.148 508.659 219.148 Z" fill="#000000" fill-rule="evenodd" fill-opacity="1" /><path clip-path="url(#clip270)" d="M810.606 12.096 L848.847 12.096 L848.847 18.9825 L818.789 18.9825 L818.789 36.8875 L847.591 36.8875 L847.591 43.7741 L818.789 43.7741 L818.789 65.6895 L849.576 65.6895 L849.576 72.576 L810.606 72.576 L810.606 12.096 Z" fill="#000000" fill-rule="evenodd" fill-opacity="1" /><path clip-path="url(#clip270)" d="M888.991 34.1734 Q887.736 33.4443 886.237 33.1202 Q884.778 32.7556 882.996 32.7556 Q876.677 32.7556 873.274 36.8875 Q869.912 40.9789 869.912 48.6757 L869.912 72.576 L862.417 72.576 L862.417 27.2059 L869.912 27.2059 L869.912 34.2544 Q872.261 30.1225 876.028 28.1376 Q879.796 26.1121 885.183 26.1121 Q885.953 26.1121 886.885 26.2337 Q887.817 26.3147 888.951 26.5172 L888.991 34.1734 Z" fill="#000000" fill-rule="evenodd" fill-opacity="1" /><path clip-path="url(#clip270)" d="M921.642 34.1734 Q920.386 33.4443 918.887 33.1202 Q917.429 32.7556 915.646 32.7556 Q909.327 32.7556 905.924 36.8875 Q902.562 40.9789 902.562 48.6757 L902.562 72.576 L895.068 72.576 L895.068 27.2059 L902.562 27.2059 L902.562 34.2544 Q904.911 30.1225 908.679 28.1376 Q912.446 26.1121 917.834 26.1121 Q918.603 26.1121 919.535 26.2337 Q920.467 26.3147 921.601 26.5172 L921.642 34.1734 Z" fill="#000000" fill-rule="evenodd" fill-opacity="1" /><path clip-path="url(#clip270)" d="M945.218 32.4315 Q939.223 32.4315 935.739 37.1306 Q932.255 41.7891 932.255 49.9314 Q932.255 58.0738 935.698 62.7728 Q939.182 67.4314 945.218 67.4314 Q951.173 67.4314 954.656 62.7323 Q958.14 58.0333 958.14 49.9314 Q958.14 41.8701 954.656 37.1711 Q951.173 32.4315 945.218 32.4315 M945.218 26.1121 Q954.94 26.1121 960.49 32.4315 Q966.04 38.7509 966.04 49.9314 Q966.04 61.0714 960.49 67.4314 Q954.94 73.7508 945.218 73.7508 Q935.455 73.7508 929.905 67.4314 Q924.396 61.0714 924.396 49.9314 Q924.396 38.7509 929.905 32.4315 Q935.455 26.1121 945.218 26.1121 Z" fill="#000000" fill-rule="evenodd" fill-opacity="1" /><path clip-path="url(#clip270)" d="M1004.69 34.1734 Q1003.43 33.4443 1001.93 33.1202 Q1000.47 32.7556 998.69 32.7556 Q992.37 32.7556 988.968 36.8875 Q985.605 40.9789 985.605 48.6757 L985.605 72.576 L978.111 72.576 L978.111 27.2059 L985.605 27.2059 L985.605 34.2544 Q987.955 30.1225 991.722 28.1376 Q995.49 26.1121 1000.88 26.1121 Q1001.65 26.1121 1002.58 26.2337 Q1003.51 26.3147 1004.64 26.5172 L1004.69 34.1734 Z" fill="#000000" fill-rule="evenodd" fill-opacity="1" /><path clip-path="url(#clip270)" d="M1039.85 34.9026 L1091.78 34.9026 L1091.78 41.7081 L1039.85 41.7081 L1039.85 34.9026 M1039.85 51.4303 L1091.78 51.4303 L1091.78 58.3168 L1039.85 58.3168 L1039.85 51.4303 Z" fill="#000000" fill-rule="evenodd" fill-opacity="1" /><path clip-path="url(#clip270)" d="M1153.31 17.4837 Q1146.99 17.4837 1143.79 23.7221 Q1140.63 29.92 1140.63 42.3968 Q1140.63 54.833 1143.79 61.0714 Q1146.99 67.2693 1153.31 67.2693 Q1159.67 67.2693 1162.83 61.0714 Q1166.03 54.833 1166.03 42.3968 Q1166.03 29.92 1162.83 23.7221 Q1159.67 17.4837 1153.31 17.4837 M1153.31 11.0023 Q1163.48 11.0023 1168.83 19.0636 Q1174.22 27.0843 1174.22 42.3968 Q1174.22 57.6687 1168.83 65.73 Q1163.48 73.7508 1153.31 73.7508 Q1143.15 73.7508 1137.76 65.73 Q1132.41 57.6687 1132.41 42.3968 Q1132.41 27.0843 1137.76 19.0636 Q1143.15 11.0023 1153.31 11.0023 Z" fill="#000000" fill-rule="evenodd" fill-opacity="1" /><path clip-path="url(#clip270)" d="M1188.6 62.2867 L1197.14 62.2867 L1197.14 72.576 L1188.6 72.576 L1188.6 62.2867 Z" fill="#000000" fill-rule="evenodd" fill-opacity="1" /><path clip-path="url(#clip270)" d="M1232.47 17.4837 Q1226.15 17.4837 1222.95 23.7221 Q1219.79 29.92 1219.79 42.3968 Q1219.79 54.833 1222.95 61.0714 Q1226.15 67.2693 1232.47 67.2693 Q1238.83 67.2693 1241.99 61.0714 Q1245.19 54.833 1245.19 42.3968 Q1245.19 29.92 1241.99 23.7221 Q1238.83 17.4837 1232.47 17.4837 M1232.47 11.0023 Q1242.64 11.0023 1247.98 19.0636 Q1253.37 27.0843 1253.37 42.3968 Q1253.37 57.6687 1247.98 65.73 Q1242.64 73.7508 1232.47 73.7508 Q1222.3 73.7508 1216.91 65.73 Q1211.56 57.6687 1211.56 42.3968 Q1211.56 27.0843 1216.91 19.0636 Q1222.3 11.0023 1232.47 11.0023 Z" fill="#000000" fill-rule="evenodd" fill-opacity="1" /><path clip-path="url(#clip270)" d="M1285.25 43.8551 Q1279.42 43.8551 1276.06 46.9743 Q1272.73 50.0935 1272.73 55.5622 Q1272.73 61.0309 1276.06 64.1501 Q1279.42 67.2693 1285.25 67.2693 Q1291.08 67.2693 1294.45 64.1501 Q1297.81 60.9904 1297.81 55.5622 Q1297.81 50.0935 1294.45 46.9743 Q1291.12 43.8551 1285.25 43.8551 M1277.07 40.3713 Q1271.8 39.075 1268.84 35.4697 Q1265.93 31.8644 1265.93 26.6793 Q1265.93 19.4281 1271.07 15.2152 Q1276.26 11.0023 1285.25 11.0023 Q1294.28 11.0023 1299.43 15.2152 Q1304.57 19.4281 1304.57 26.6793 Q1304.57 31.8644 1301.62 35.4697 Q1298.7 39.075 1293.47 40.3713 Q1299.39 41.7486 1302.67 45.759 Q1305.99 49.7694 1305.99 55.5622 Q1305.99 64.3527 1300.6 69.0517 Q1295.26 73.7508 1285.25 73.7508 Q1275.25 73.7508 1269.86 69.0517 Q1264.51 64.3527 1264.51 55.5622 Q1264.51 49.7694 1267.83 45.759 Q1271.15 41.7486 1277.07 40.3713 M1274.07 27.4489 Q1274.07 32.148 1276.99 34.7811 Q1279.94 37.4142 1285.25 37.4142 Q1290.52 37.4142 1293.47 34.7811 Q1296.47 32.148 1296.47 27.4489 Q1296.47 22.7499 1293.47 20.1168 Q1290.52 17.4837 1285.25 17.4837 Q1279.94 17.4837 1276.99 20.1168 Q1274.07 22.7499 1274.07 27.4489 Z" fill="#000000" fill-rule="evenodd" fill-opacity="1" /><path clip-path="url(#clip270)" d="M1318.47 12.096 L1357.36 12.096 L1357.36 15.5798 L1335.4 72.576 L1326.85 72.576 L1347.51 18.9825 L1318.47 18.9825 L1318.47 12.096 Z" fill="#000000" fill-rule="evenodd" fill-opacity="1" /><path clip-path="url(#clip270)" d="M1371.25 12.096 L1410.14 12.096 L1410.14 15.5798 L1388.18 72.576 L1379.64 72.576 L1400.3 18.9825 L1371.25 18.9825 L1371.25 12.096 Z" fill="#000000" fill-rule="evenodd" fill-opacity="1" /><path clip-path="url(#clip270)" d="M1448.58 19.2256 L1427.92 51.5113 L1448.58 51.5113 L1448.58 19.2256 M1446.44 12.096 L1456.73 12.096 L1456.73 51.5113 L1465.35 51.5113 L1465.35 58.3168 L1456.73 58.3168 L1456.73 72.576 L1448.58 72.576 L1448.58 58.3168 L1421.28 58.3168 L1421.28 50.4176 L1446.44 12.096 Z" fill="#000000" fill-rule="evenodd" fill-opacity="1" /><path clip-path="url(#clip270)" d="M1480.3 65.6895 L1493.67 65.6895 L1493.67 19.5497 L1479.13 22.4663 L1479.13 15.0127 L1493.59 12.096 L1501.77 12.096 L1501.77 65.6895 L1515.14 65.6895 L1515.14 72.576 L1480.3 72.576 L1480.3 65.6895 Z" fill="#000000" fill-rule="evenodd" fill-opacity="1" /><path clip-path="url(#clip270)" d="M1531.91 71.3202 L1531.91 63.8666 Q1534.99 65.3249 1538.15 66.0946 Q1541.31 66.8642 1544.35 66.8642 Q1552.45 66.8642 1556.7 61.436 Q1561 55.9673 1561.6 44.8678 Q1559.25 48.3516 1555.65 50.215 Q1552.04 52.0784 1547.67 52.0784 Q1538.59 52.0784 1533.29 46.6097 Q1528.02 41.1005 1528.02 31.5808 Q1528.02 22.2638 1533.53 16.633 Q1539.04 11.0023 1548.19 11.0023 Q1558.69 11.0023 1564.2 19.0636 Q1569.75 27.0843 1569.75 42.3968 Q1569.75 56.6965 1562.94 65.2439 Q1556.18 73.7508 1544.71 73.7508 Q1541.63 73.7508 1538.47 73.1431 Q1535.31 72.5355 1531.91 71.3202 M1548.19 45.678 Q1553.7 45.678 1556.9 41.9107 Q1560.15 38.1433 1560.15 31.5808 Q1560.15 25.0589 1556.9 21.2916 Q1553.7 17.4837 1548.19 17.4837 Q1542.69 17.4837 1539.44 21.2916 Q1536.24 25.0589 1536.24 31.5808 Q1536.24 38.1433 1539.44 41.9107 Q1542.69 45.678 1548.19 45.678 Z" fill="#000000" fill-rule="evenodd" fill-opacity="1" /><path clip-path="url(#clip270)" d="M1609.24 39.9662 Q1615.12 41.222 1618.4 45.1919 Q1621.72 49.1618 1621.72 54.9951 Q1621.72 63.9476 1615.56 68.8492 Q1609.4 73.7508 1598.06 73.7508 Q1594.25 73.7508 1590.2 72.9811 Q1586.19 72.2519 1581.9 70.7531 L1581.9 62.8538 Q1585.3 64.8388 1589.35 65.8515 Q1593.4 66.8642 1597.82 66.8642 Q1605.52 66.8642 1609.53 63.826 Q1613.58 60.7879 1613.58 54.9951 Q1613.58 49.6479 1609.81 46.6502 Q1606.08 43.612 1599.4 43.612 L1592.35 43.612 L1592.35 36.8875 L1599.72 36.8875 Q1605.76 36.8875 1608.96 34.4975 Q1612.16 32.067 1612.16 27.5299 Q1612.16 22.8714 1608.84 20.4004 Q1605.56 17.8888 1599.4 17.8888 Q1596.04 17.8888 1592.19 18.618 Q1588.34 19.3471 1583.72 20.8865 L1583.72 13.5948 Q1588.38 12.2985 1592.43 11.6504 Q1596.52 11.0023 1600.13 11.0023 Q1609.44 11.0023 1614.87 15.2557 Q1620.3 19.4686 1620.3 26.6793 Q1620.3 31.7024 1617.42 35.1862 Q1614.55 38.6294 1609.24 39.9662 Z" fill="#000000" fill-rule="evenodd" fill-opacity="1" /><path clip-path="url(#clip270)" d="M1637.31 12.096 L1669.44 12.096 L1669.44 18.9825 L1644.81 18.9825 L1644.81 33.8088 Q1646.59 33.2012 1648.37 32.9176 Q1650.16 32.5936 1651.94 32.5936 Q1662.07 32.5936 1667.98 38.1433 Q1673.89 43.6931 1673.89 53.1722 Q1673.89 62.9348 1667.82 68.3631 Q1661.74 73.7508 1650.68 73.7508 Q1646.87 73.7508 1642.91 73.1026 Q1638.98 72.4545 1634.76 71.1582 L1634.76 62.9348 Q1638.41 64.9198 1642.3 65.892 Q1646.19 66.8642 1650.52 66.8642 Q1657.53 66.8642 1661.62 63.1779 Q1665.71 59.4916 1665.71 53.1722 Q1665.71 46.8528 1661.62 43.1664 Q1657.53 39.4801 1650.52 39.4801 Q1647.24 39.4801 1643.96 40.2093 Q1640.72 40.9384 1637.31 42.4778 L1637.31 12.096 Z" fill="#000000" fill-rule="evenodd" fill-opacity="1" /><path clip-path="url(#clip270)" d="M1712.5 19.2256 L1691.84 51.5113 L1712.5 51.5113 L1712.5 19.2256 M1710.35 12.096 L1720.64 12.096 L1720.64 51.5113 L1729.27 51.5113 L1729.27 58.3168 L1720.64 58.3168 L1720.64 72.576 L1712.5 72.576 L1712.5 58.3168 L1685.2 58.3168 L1685.2 50.4176 L1710.35 12.096 Z" fill="#000000" fill-rule="evenodd" fill-opacity="1" /><path clip-path="url(#clip270)" d="M1760.3 43.8551 Q1754.47 43.8551 1751.1 46.9743 Q1747.78 50.0935 1747.78 55.5622 Q1747.78 61.0309 1751.1 64.1501 Q1754.47 67.2693 1760.3 67.2693 Q1766.13 67.2693 1769.5 64.1501 Q1772.86 60.9904 1772.86 55.5622 Q1772.86 50.0935 1769.5 46.9743 Q1766.17 43.8551 1760.3 43.8551 M1752.12 40.3713 Q1746.85 39.075 1743.89 35.4697 Q1740.98 31.8644 1740.98 26.6793 Q1740.98 19.4281 1746.12 15.2152 Q1751.31 11.0023 1760.3 11.0023 Q1769.33 11.0023 1774.48 15.2152 Q1779.62 19.4281 1779.62 26.6793 Q1779.62 31.8644 1776.67 35.4697 Q1773.75 39.075 1768.52 40.3713 Q1774.44 41.7486 1777.72 45.759 Q1781.04 49.7694 1781.04 55.5622 Q1781.04 64.3527 1775.65 69.0517 Q1770.31 73.7508 1760.3 73.7508 Q1750.29 73.7508 1744.91 69.0517 Q1739.56 64.3527 1739.56 55.5622 Q1739.56 49.7694 1742.88 45.759 Q1746.2 41.7486 1752.12 40.3713 M1749.12 27.4489 Q1749.12 32.148 1752.04 34.7811 Q1754.99 37.4142 1760.3 37.4142 Q1765.57 37.4142 1768.52 34.7811 Q1771.52 32.148 1771.52 27.4489 Q1771.52 22.7499 1768.52 20.1168 Q1765.57 17.4837 1760.3 17.4837 Q1754.99 17.4837 1752.04 20.1168 Q1749.12 22.7499 1749.12 27.4489 Z" fill="#000000" fill-rule="evenodd" fill-opacity="1" /><path clip-path="url(#clip270)" d="M1820.38 39.9662 Q1826.25 41.222 1829.53 45.1919 Q1832.85 49.1618 1832.85 54.9951 Q1832.85 63.9476 1826.69 68.8492 Q1820.54 73.7508 1809.19 73.7508 Q1805.39 73.7508 1801.34 72.9811 Q1797.33 72.2519 1793.03 70.7531 L1793.03 62.8538 Q1796.43 64.8388 1800.49 65.8515 Q1804.54 66.8642 1808.95 66.8642 Q1816.65 66.8642 1820.66 63.826 Q1824.71 60.7879 1824.71 54.9951 Q1824.71 49.6479 1820.94 46.6502 Q1817.22 43.612 1810.53 43.612 L1803.48 43.612 L1803.48 36.8875 L1810.86 36.8875 Q1816.89 36.8875 1820.09 34.4975 Q1823.29 32.067 1823.29 27.5299 Q1823.29 22.8714 1819.97 20.4004 Q1816.69 17.8888 1810.53 17.8888 Q1807.17 17.8888 1803.32 18.618 Q1799.47 19.3471 1794.85 20.8865 L1794.85 13.5948 Q1799.51 12.2985 1803.56 11.6504 Q1807.66 11.0023 1811.26 11.0023 Q1820.58 11.0023 1826.01 15.2557 Q1831.43 19.4686 1831.43 26.6793 Q1831.43 31.7024 1828.56 35.1862 Q1825.68 38.6294 1820.38 39.9662 Z" fill="#000000" fill-rule="evenodd" fill-opacity="1" /><path clip-path="url(#clip270)" d="M1865.87 43.8551 Q1860.03 43.8551 1856.67 46.9743 Q1853.35 50.0935 1853.35 55.5622 Q1853.35 61.0309 1856.67 64.1501 Q1860.03 67.2693 1865.87 67.2693 Q1871.7 67.2693 1875.06 64.1501 Q1878.42 60.9904 1878.42 55.5622 Q1878.42 50.0935 1875.06 46.9743 Q1871.74 43.8551 1865.87 43.8551 M1857.68 40.3713 Q1852.42 39.075 1849.46 35.4697 Q1846.54 31.8644 1846.54 26.6793 Q1846.54 19.4281 1851.69 15.2152 Q1856.87 11.0023 1865.87 11.0023 Q1874.9 11.0023 1880.05 15.2152 Q1885.19 19.4281 1885.19 26.6793 Q1885.19 31.8644 1882.23 35.4697 Q1879.32 39.075 1874.09 40.3713 Q1880 41.7486 1883.29 45.759 Q1886.61 49.7694 1886.61 55.5622 Q1886.61 64.3527 1881.22 69.0517 Q1875.87 73.7508 1865.87 73.7508 Q1855.86 73.7508 1850.47 69.0517 Q1845.13 64.3527 1845.13 55.5622 Q1845.13 49.7694 1848.45 45.759 Q1851.77 41.7486 1857.68 40.3713 M1854.69 27.4489 Q1854.69 32.148 1857.6 34.7811 Q1860.56 37.4142 1865.87 37.4142 Q1871.13 37.4142 1874.09 34.7811 Q1877.09 32.148 1877.09 27.4489 Q1877.09 22.7499 1874.09 20.1168 Q1871.13 17.4837 1865.87 17.4837 Q1860.56 17.4837 1857.6 20.1168 Q1854.69 22.7499 1854.69 27.4489 Z" fill="#000000" fill-rule="evenodd" fill-opacity="1" /><path clip-path="url(#clip270)" d="M1899.08 12.096 L1937.97 12.096 L1937.97 15.5798 L1916.02 72.576 L1907.47 72.576 L1928.13 18.9825 L1899.08 18.9825 L1899.08 12.096 Z" fill="#000000" fill-rule="evenodd" fill-opacity="1" /><path clip-path="url(#clip270)" d="M1971.43 17.4837 Q1965.11 17.4837 1961.91 23.7221 Q1958.75 29.92 1958.75 42.3968 Q1958.75 54.833 1961.91 61.0714 Q1965.11 67.2693 1971.43 67.2693 Q1977.79 67.2693 1980.95 61.0714 Q1984.15 54.833 1984.15 42.3968 Q1984.15 29.92 1980.95 23.7221 Q1977.79 17.4837 1971.43 17.4837 M1971.43 11.0023 Q1981.6 11.0023 1986.95 19.0636 Q1992.34 27.0843 1992.34 42.3968 Q1992.34 57.6687 1986.95 65.73 Q1981.6 73.7508 1971.43 73.7508 Q1961.27 73.7508 1955.88 65.73 Q1950.53 57.6687 1950.53 42.3968 Q1950.53 27.0843 1955.88 19.0636 Q1961.27 11.0023 1971.43 11.0023 Z" fill="#000000" fill-rule="evenodd" fill-opacity="1" /><path clip-path="url(#clip270)" d="M2024.22 43.8551 Q2018.38 43.8551 2015.02 46.9743 Q2011.7 50.0935 2011.7 55.5622 Q2011.7 61.0309 2015.02 64.1501 Q2018.38 67.2693 2024.22 67.2693 Q2030.05 67.2693 2033.41 64.1501 Q2036.77 60.9904 2036.77 55.5622 Q2036.77 50.0935 2033.41 46.9743 Q2030.09 43.8551 2024.22 43.8551 M2016.03 40.3713 Q2010.77 39.075 2007.81 35.4697 Q2004.89 31.8644 2004.89 26.6793 Q2004.89 19.4281 2010.04 15.2152 Q2015.22 11.0023 2024.22 11.0023 Q2033.25 11.0023 2038.39 15.2152 Q2043.54 19.4281 2043.54 26.6793 Q2043.54 31.8644 2040.58 35.4697 Q2037.67 39.075 2032.44 40.3713 Q2038.35 41.7486 2041.64 45.759 Q2044.96 49.7694 2044.96 55.5622 Q2044.96 64.3527 2039.57 69.0517 Q2034.22 73.7508 2024.22 73.7508 Q2014.21 73.7508 2008.82 69.0517 Q2003.48 64.3527 2003.48 55.5622 Q2003.48 49.7694 2006.8 45.759 Q2010.12 41.7486 2016.03 40.3713 M2013.04 27.4489 Q2013.04 32.148 2015.95 34.7811 Q2018.91 37.4142 2024.22 37.4142 Q2029.48 37.4142 2032.44 34.7811 Q2035.44 32.148 2035.44 27.4489 Q2035.44 22.7499 2032.44 20.1168 Q2029.48 17.4837 2024.22 17.4837 Q2018.91 17.4837 2015.95 20.1168 Q2013.04 22.7499 2013.04 27.4489 Z" fill="#000000" fill-rule="evenodd" fill-opacity="1" /><path clip-path="url(#clip270)" d="M2081.98 19.2256 L2061.32 51.5113 L2081.98 51.5113 L2081.98 19.2256 M2079.84 12.096 L2090.12 12.096 L2090.12 51.5113 L2098.75 51.5113 L2098.75 58.3168 L2090.12 58.3168 L2090.12 72.576 L2081.98 72.576 L2081.98 58.3168 L2054.68 58.3168 L2054.68 50.4176 L2079.84 12.096 Z" fill="#000000" fill-rule="evenodd" fill-opacity="1" /><polyline clip-path="url(#clip272)" style="stroke:#009af9; stroke-linecap:butt; stroke-linejoin:round; stroke-width:20; stroke-opacity:1; fill:none" points="
  607.438,1247.16 663.921,1278.59 720.404,1305.53 776.887,1327.97 833.369,1345.93 889.852,1359.4 946.335,1368.38 1002.82,1372.87 1059.3,1372.87 1115.78,1368.38 
  1172.27,1359.4 1228.75,1345.93 1285.23,1327.97 1341.71,1305.53 1398.2,1278.59 1454.68,1247.16 1511.16,1211.25 1567.65,1170.84 1624.13,1125.95 1680.61,1076.57 
  1737.09,1022.69 1793.58,964.333 1850.06,901.482 1906.54,834.141 1963.02,762.311 2019.51,685.991 2075.99,605.183 2132.47,519.884 2188.96,430.097 2245.44,335.82 
  2301.92,237.053 
  "/>
<polyline clip-path="url(#clip272)" style="stroke:#e26f46; stroke-linecap:butt; stroke-linejoin:round; stroke-width:4; stroke-opacity:1; fill:none" points="
  607.438,1256.14 663.921,1278.59 720.404,1301.04 776.887,1323.48 833.369,1345.93 889.852,1368.38 946.335,1390.82 1002.82,1413.27 1059.3,1435.72 1115.78,1458.16 
  1172.27,1480.61 1228.75,1503.06 1285.23,1525.51 1341.71,1547.95 1398.2,1570.4 1454.68,1592.85 1511.16,1615.29 1567.65,1637.74 1624.13,1660.19 1680.61,1682.63 
  1737.09,1705.08 1793.58,1727.53 1850.06,1749.97 1906.54,1772.42 1963.02,1794.87 2019.51,1817.32 2075.99,1839.76 2132.47,1862.21 2188.96,1884.66 2245.44,1907.1 
  2301.92,1929.55 
  "/>
<polyline clip-path="url(#clip272)" style="stroke:#3da44d; stroke-linecap:butt; stroke-linejoin:round; stroke-width:4; stroke-opacity:1; fill:none" points="
  607.438,1404.29 663.921,1399.8 720.404,1395.31 776.887,1390.82 833.369,1386.33 889.852,1381.85 946.335,1377.36 1002.82,1372.87 1059.3,1368.38 1115.78,1363.89 
  1172.27,1359.4 1228.75,1354.91 1285.23,1350.42 1341.71,1345.93 1398.2,1341.44 1454.68,1336.95 1511.16,1332.46 1567.65,1327.97 1624.13,1323.48 1680.61,1318.99 
  1737.09,1314.5 1793.58,1310.02 1850.06,1305.53 1906.54,1301.04 1963.02,1296.55 2019.51,1292.06 2075.99,1287.57 2132.47,1283.08 2188.96,1278.59 2245.44,1274.1 
  2301.92,1269.61 
  "/>
<polyline clip-path="url(#clip272)" style="stroke:#c271d2; stroke-linecap:butt; stroke-linejoin:round; stroke-width:4; stroke-opacity:1; fill:none" points="
  607.438,1743.24 663.921,1709.57 720.404,1675.9 776.887,1642.23 833.369,1608.56 889.852,1574.89 946.335,1541.22 1002.82,1507.55 1059.3,1473.88 1115.78,1440.21 
  1172.27,1406.54 1228.75,1372.87 1285.23,1339.2 1341.71,1305.53 1398.2,1271.86 1454.68,1238.19 1511.16,1204.51 1567.65,1170.84 1624.13,1137.17 1680.61,1103.5 
  1737.09,1069.83 1793.58,1036.16 1850.06,1002.49 1906.54,968.822 1963.02,935.152 2019.51,901.482 2075.99,867.811 2132.47,834.141 2188.96,800.471 2245.44,766.8 
  2301.92,733.13 
  "/>
<polyline clip-path="url(#clip272)" style="stroke:#ac8d18; stroke-linecap:butt; stroke-linejoin:round; stroke-width:4; stroke-opacity:1; fill:none" points="
  607.438,2279.72 663.921,2216.87 720.404,2154.02 776.887,2091.17 833.369,2028.32 889.852,1965.46 946.335,1902.61 1002.82,1839.76 1059.3,1776.91 1115.78,1714.06 
  1172.27,1651.21 1228.75,1588.36 1285.23,1525.51 1341.71,1462.65 1398.2,1399.8 1454.68,1336.95 1511.16,1274.1 1567.65,1211.25 1624.13,1148.4 1680.61,1085.55 
  1737.09,1022.69 1793.58,959.844 1850.06,896.992 1906.54,834.141 1963.02,771.29 2019.51,708.438 2075.99,645.587 2132.47,582.736 2188.96,519.884 2245.44,457.033 
  2301.92,394.182 
  "/>
<polyline clip-path="url(#clip272)" style="stroke:#00a9ad; stroke-linecap:butt; stroke-linejoin:round; stroke-width:4; stroke-opacity:1; fill:none" points="
  607.438,2939.66 663.921,2849.87 720.404,2760.08 776.887,2670.3 833.369,2580.51 889.852,2490.72 946.335,2400.93 1002.82,2311.15 1059.3,2221.36 1115.78,2131.57 
  1172.27,2041.78 1228.75,1952 1285.23,1862.21 1341.71,1772.42 1398.2,1682.63 1454.68,1592.85 1511.16,1503.06 1567.65,1413.27 1624.13,1323.48 1680.61,1233.7 
  1737.09,1143.91 1793.58,1054.12 1850.06,964.333 1906.54,874.545 1963.02,784.758 2019.51,694.97 2075.99,605.183 2132.47,515.395 2188.96,425.607 2245.44,335.82 
  2301.92,246.032 
  "/>
<path clip-path="url(#clip270)" d="
M66.9602 531.785 L355.43 531.785 L355.43 168.905 L66.9602 168.905  Z
  " fill="#ffffff" fill-rule="evenodd" fill-opacity="1"/>
<polyline clip-path="url(#clip270)" style="stroke:#000000; stroke-linecap:butt; stroke-linejoin:round; stroke-width:4; stroke-opacity:1; fill:none" points="
  66.9602,531.785 355.43,531.785 355.43,168.905 66.9602,168.905 66.9602,531.785 
  "/>
<polyline clip-path="url(#clip270)" style="stroke:#009af9; stroke-linecap:butt; stroke-linejoin:round; stroke-width:4; stroke-opacity:1; fill:none" points="
  91.5386,220.745 239.009,220.745 
  "/>
<path clip-path="url(#clip270)" d="M280.092 202.006 L280.092 205.548 L276.018 205.548 Q273.727 205.548 272.824 206.474 Q271.944 207.4 271.944 209.807 L271.944 212.099 L278.958 212.099 L278.958 215.409 L271.944 215.409 L271.944 238.025 L267.662 238.025 L267.662 215.409 L263.588 215.409 L263.588 212.099 L267.662 212.099 L267.662 210.293 Q267.662 205.965 269.676 203.997 Q271.69 202.006 276.065 202.006 L280.092 202.006 Z" fill="#000000" fill-rule="evenodd" fill-opacity="1" /><polyline clip-path="url(#clip270)" style="stroke:#e26f46; stroke-linecap:butt; stroke-linejoin:round; stroke-width:4; stroke-opacity:1; fill:none" points="
  91.5386,272.585 239.009,272.585 
  "/>
<path clip-path="url(#clip270)" d="M278.773 267.92 Q278.055 267.504 277.199 267.318 Q276.365 267.11 275.347 267.11 Q271.736 267.11 269.791 269.471 Q267.87 271.809 267.87 276.207 L267.87 289.865 L263.588 289.865 L263.588 263.939 L267.87 263.939 L267.87 267.967 Q269.213 265.606 271.366 264.471 Q273.518 263.314 276.597 263.314 Q277.037 263.314 277.569 263.383 Q278.102 263.43 278.75 263.545 L278.773 267.92 Z" fill="#000000" fill-rule="evenodd" fill-opacity="1" /><path clip-path="url(#clip270)" d="M284.652 285.929 L292.291 285.929 L292.291 259.564 L283.981 261.231 L283.981 256.971 L292.245 255.305 L296.921 255.305 L296.921 285.929 L304.56 285.929 L304.56 289.865 L284.652 289.865 L284.652 285.929 Z" fill="#000000" fill-rule="evenodd" fill-opacity="1" /><polyline clip-path="url(#clip270)" style="stroke:#3da44d; stroke-linecap:butt; stroke-linejoin:round; stroke-width:4; stroke-opacity:1; fill:none" points="
  91.5386,324.425 239.009,324.425 
  "/>
<path clip-path="url(#clip270)" d="M278.773 319.76 Q278.055 319.344 277.199 319.158 Q276.365 318.95 275.347 318.95 Q271.736 318.95 269.791 321.311 Q267.87 323.649 267.87 328.047 L267.87 341.705 L263.588 341.705 L263.588 315.779 L267.87 315.779 L267.87 319.807 Q269.213 317.446 271.366 316.311 Q273.518 315.154 276.597 315.154 Q277.037 315.154 277.569 315.223 Q278.102 315.27 278.75 315.385 L278.773 319.76 Z" fill="#000000" fill-rule="evenodd" fill-opacity="1" /><path clip-path="url(#clip270)" d="M287.87 337.769 L304.189 337.769 L304.189 341.705 L282.245 341.705 L282.245 337.769 Q284.907 335.015 289.49 330.385 Q294.097 325.733 295.277 324.39 Q297.523 321.867 298.402 320.131 Q299.305 318.371 299.305 316.682 Q299.305 313.927 297.361 312.191 Q295.439 310.455 292.338 310.455 Q290.139 310.455 287.685 311.219 Q285.254 311.983 282.477 313.534 L282.477 308.811 Q285.301 307.677 287.754 307.098 Q290.208 306.52 292.245 306.52 Q297.615 306.52 300.81 309.205 Q304.004 311.89 304.004 316.381 Q304.004 318.51 303.194 320.432 Q302.407 322.33 300.301 324.922 Q299.722 325.594 296.62 328.811 Q293.518 332.006 287.87 337.769 Z" fill="#000000" fill-rule="evenodd" fill-opacity="1" /><polyline clip-path="url(#clip270)" style="stroke:#c271d2; stroke-linecap:butt; stroke-linejoin:round; stroke-width:4; stroke-opacity:1; fill:none" points="
  91.5386,376.265 239.009,376.265 
  "/>
<path clip-path="url(#clip270)" d="M278.773 371.6 Q278.055 371.184 277.199 370.998 Q276.365 370.79 275.347 370.79 Q271.736 370.79 269.791 373.151 Q267.87 375.489 267.87 379.887 L267.87 393.545 L263.588 393.545 L263.588 367.619 L267.87 367.619 L267.87 371.647 Q269.213 369.286 271.366 368.151 Q273.518 366.994 276.597 366.994 Q277.037 366.994 277.569 367.063 Q278.102 367.11 278.75 367.225 L278.773 371.6 Z" fill="#000000" fill-rule="evenodd" fill-opacity="1" /><path clip-path="url(#clip270)" d="M298.009 374.91 Q301.365 375.628 303.24 377.897 Q305.138 380.165 305.138 383.498 Q305.138 388.614 301.62 391.415 Q298.101 394.216 291.62 394.216 Q289.444 394.216 287.129 393.776 Q284.838 393.359 282.384 392.503 L282.384 387.989 Q284.328 389.123 286.643 389.702 Q288.958 390.281 291.481 390.281 Q295.879 390.281 298.171 388.545 Q300.486 386.809 300.486 383.498 Q300.486 380.443 298.333 378.73 Q296.203 376.994 292.384 376.994 L288.356 376.994 L288.356 373.151 L292.569 373.151 Q296.018 373.151 297.847 371.786 Q299.676 370.397 299.676 367.804 Q299.676 365.142 297.777 363.73 Q295.902 362.295 292.384 362.295 Q290.463 362.295 288.264 362.711 Q286.065 363.128 283.426 364.008 L283.426 359.841 Q286.088 359.1 288.402 358.73 Q290.74 358.36 292.801 358.36 Q298.125 358.36 301.226 360.79 Q304.328 363.198 304.328 367.318 Q304.328 370.188 302.685 372.179 Q301.041 374.147 298.009 374.91 Z" fill="#000000" fill-rule="evenodd" fill-opacity="1" /><polyline clip-path="url(#clip270)" style="stroke:#ac8d18; stroke-linecap:butt; stroke-linejoin:round; stroke-width:4; stroke-opacity:1; fill:none" points="
  91.5386,428.105 239.009,428.105 
  "/>
<path clip-path="url(#clip270)" d="M278.773 423.44 Q278.055 423.024 277.199 422.838 Q276.365 422.63 275.347 422.63 Q271.736 422.63 269.791 424.991 Q267.87 427.329 267.87 431.727 L267.87 445.385 L263.588 445.385 L263.588 419.459 L267.87 419.459 L267.87 423.487 Q269.213 421.126 271.366 419.991 Q273.518 418.834 276.597 418.834 Q277.037 418.834 277.569 418.903 Q278.102 418.95 278.75 419.065 L278.773 423.44 Z" fill="#000000" fill-rule="evenodd" fill-opacity="1" /><path clip-path="url(#clip270)" d="M296.689 414.899 L284.884 433.348 L296.689 433.348 L296.689 414.899 M295.463 410.825 L301.342 410.825 L301.342 433.348 L306.273 433.348 L306.273 437.237 L301.342 437.237 L301.342 445.385 L296.689 445.385 L296.689 437.237 L281.088 437.237 L281.088 432.723 L295.463 410.825 Z" fill="#000000" fill-rule="evenodd" fill-opacity="1" /><polyline clip-path="url(#clip270)" style="stroke:#00a9ad; stroke-linecap:butt; stroke-linejoin:round; stroke-width:4; stroke-opacity:1; fill:none" points="
  91.5386,479.945 239.009,479.945 
  "/>
<path clip-path="url(#clip270)" d="M278.773 475.28 Q278.055 474.864 277.199 474.678 Q276.365 474.47 275.347 474.47 Q271.736 474.47 269.791 476.831 Q267.87 479.169 267.87 483.567 L267.87 497.225 L263.588 497.225 L263.588 471.299 L267.87 471.299 L267.87 475.327 Q269.213 472.966 271.366 471.831 Q273.518 470.674 276.597 470.674 Q277.037 470.674 277.569 470.743 Q278.102 470.79 278.75 470.905 L278.773 475.28 Z" fill="#000000" fill-rule="evenodd" fill-opacity="1" /><path clip-path="url(#clip270)" d="M283.889 462.665 L302.245 462.665 L302.245 466.6 L288.171 466.6 L288.171 475.072 Q289.189 474.725 290.208 474.563 Q291.227 474.378 292.245 474.378 Q298.032 474.378 301.412 477.549 Q304.791 480.72 304.791 486.137 Q304.791 491.715 301.319 494.817 Q297.847 497.896 291.527 497.896 Q289.352 497.896 287.083 497.526 Q284.838 497.155 282.43 496.414 L282.43 491.715 Q284.514 492.85 286.736 493.405 Q288.958 493.961 291.435 493.961 Q295.439 493.961 297.777 491.854 Q300.115 489.748 300.115 486.137 Q300.115 482.526 297.777 480.419 Q295.439 478.313 291.435 478.313 Q289.56 478.313 287.685 478.729 Q285.833 479.146 283.889 480.026 L283.889 462.665 Z" fill="#000000" fill-rule="evenodd" fill-opacity="1" /></svg>
