<?xml version="1.0" encoding="utf-8"?>
<svg xmlns="http://www.w3.org/2000/svg" xmlns:xlink="http://www.w3.org/1999/xlink" width="600" height="400" viewBox="0 0 2400 1600">
<defs>
  <clipPath id="clip510">
    <rect x="0" y="0" width="2400" height="1600"/>
  </clipPath>
</defs>
<path clip-path="url(#clip510)" d="
M0 1600 L2400 1600 L2400 0 L0 0  Z
  " fill="#ffffff" fill-rule="evenodd" fill-opacity="1"/>
<defs>
  <clipPath id="clip511">
    <rect x="480" y="0" width="1681" height="1600"/>
  </clipPath>
</defs>
<path clip-path="url(#clip510)" d="
M556.604 1486.45 L2352.76 1486.45 L2352.76 123.472 L556.604 123.472  Z
  " fill="#ffffff" fill-rule="evenodd" fill-opacity="1"/>
<defs>
  <clipPath id="clip512">
    <rect x="556" y="123" width="1797" height="1364"/>
  </clipPath>
</defs>
<polyline clip-path="url(#clip512)" style="stroke:#000000; stroke-linecap:butt; stroke-linejoin:round; stroke-width:2; stroke-opacity:0.1; fill:none" points="
  607.438,1486.45 607.438,123.472 
  "/>
<polyline clip-path="url(#clip512)" style="stroke:#000000; stroke-linecap:butt; stroke-linejoin:round; stroke-width:2; stroke-opacity:0.1; fill:none" points="
  889.852,1486.45 889.852,123.472 
  "/>
<polyline clip-path="url(#clip512)" style="stroke:#000000; stroke-linecap:butt; stroke-linejoin:round; stroke-width:2; stroke-opacity:0.1; fill:none" points="
  1172.27,1486.45 1172.27,123.472 
  "/>
<polyline clip-path="url(#clip512)" style="stroke:#000000; stroke-linecap:butt; stroke-linejoin:round; stroke-width:2; stroke-opacity:0.1; fill:none" points="
  1454.68,1486.45 1454.68,123.472 
  "/>
<polyline clip-path="url(#clip512)" style="stroke:#000000; stroke-linecap:butt; stroke-linejoin:round; stroke-width:2; stroke-opacity:0.1; fill:none" points="
  1737.09,1486.45 1737.09,123.472 
  "/>
<polyline clip-path="url(#clip512)" style="stroke:#000000; stroke-linecap:butt; stroke-linejoin:round; stroke-width:2; stroke-opacity:0.1; fill:none" points="
  2019.51,1486.45 2019.51,123.472 
  "/>
<polyline clip-path="url(#clip512)" style="stroke:#000000; stroke-linecap:butt; stroke-linejoin:round; stroke-width:2; stroke-opacity:0.1; fill:none" points="
  2301.92,1486.45 2301.92,123.472 
  "/>
<polyline clip-path="url(#clip510)" style="stroke:#000000; stroke-linecap:butt; stroke-linejoin:round; stroke-width:4; stroke-opacity:1; fill:none" points="
  556.604,1486.45 2352.76,1486.45 
  "/>
<polyline clip-path="url(#clip510)" style="stroke:#000000; stroke-linecap:butt; stroke-linejoin:round; stroke-width:4; stroke-opacity:1; fill:none" points="
  607.438,1486.45 607.438,1467.55 
  "/>
<polyline clip-path="url(#clip510)" style="stroke:#000000; stroke-linecap:butt; stroke-linejoin:round; stroke-width:4; stroke-opacity:1; fill:none" points="
  889.852,1486.45 889.852,1467.55 
  "/>
<polyline clip-path="url(#clip510)" style="stroke:#000000; stroke-linecap:butt; stroke-linejoin:round; stroke-width:4; stroke-opacity:1; fill:none" points="
  1172.27,1486.45 1172.27,1467.55 
  "/>
<polyline clip-path="url(#clip510)" style="stroke:#000000; stroke-linecap:butt; stroke-linejoin:round; stroke-width:4; stroke-opacity:1; fill:none" points="
  1454.68,1486.45 1454.68,1467.55 
  "/>
<polyline clip-path="url(#clip510)" style="stroke:#000000; stroke-linecap:butt; stroke-linejoin:round; stroke-width:4; stroke-opacity:1; fill:none" points="
  1737.09,1486.45 1737.09,1467.55 
  "/>
<polyline clip-path="url(#clip510)" style="stroke:#000000; stroke-linecap:butt; stroke-linejoin:round; stroke-width:4; stroke-opacity:1; fill:none" points="
  2019.51,1486.45 2019.51,1467.55 
  "/>
<polyline clip-path="url(#clip510)" style="stroke:#000000; stroke-linecap:butt; stroke-linejoin:round; stroke-width:4; stroke-opacity:1; fill:none" points="
  2301.92,1486.45 2301.92,1467.55 
  "/>
<path clip-path="url(#clip510)" d="M607.438 1517.37 Q603.827 1517.37 601.998 1520.93 Q600.193 1524.47 600.193 1531.6 Q600.193 1538.71 601.998 1542.27 Q603.827 1545.82 607.438 1545.82 Q611.072 1545.82 612.878 1542.27 Q614.707 1538.71 614.707 1531.6 Q614.707 1524.47 612.878 1520.93 Q611.072 1517.37 607.438 1517.37 M607.438 1513.66 Q613.248 1513.66 616.304 1518.27 Q619.383 1522.85 619.383 1531.6 Q619.383 1540.33 616.304 1544.94 Q613.248 1549.52 607.438 1549.52 Q601.628 1549.52 598.549 1544.94 Q595.494 1540.33 595.494 1531.6 Q595.494 1522.85 598.549 1518.27 Q601.628 1513.66 607.438 1513.66 Z" fill="#000000" fill-rule="evenodd" fill-opacity="1" /><path clip-path="url(#clip510)" d="M880.234 1544.91 L887.873 1544.91 L887.873 1518.55 L879.563 1520.21 L879.563 1515.95 L887.827 1514.29 L892.503 1514.29 L892.503 1544.91 L900.141 1544.91 L900.141 1548.85 L880.234 1548.85 L880.234 1544.91 Z" fill="#000000" fill-rule="evenodd" fill-opacity="1" /><path clip-path="url(#clip510)" d="M1166.92 1544.91 L1183.24 1544.91 L1183.24 1548.85 L1161.29 1548.85 L1161.29 1544.91 Q1163.96 1542.16 1168.54 1537.53 Q1173.15 1532.88 1174.33 1531.53 Q1176.57 1529.01 1177.45 1527.27 Q1178.35 1525.51 1178.35 1523.82 Q1178.35 1521.07 1176.41 1519.33 Q1174.49 1517.6 1171.39 1517.6 Q1169.19 1517.6 1166.73 1518.36 Q1164.3 1519.13 1161.53 1520.68 L1161.53 1515.95 Q1164.35 1514.82 1166.8 1514.24 Q1169.26 1513.66 1171.29 1513.66 Q1176.66 1513.66 1179.86 1516.35 Q1183.05 1519.03 1183.05 1523.52 Q1183.05 1525.65 1182.24 1527.57 Q1181.46 1529.47 1179.35 1532.07 Q1178.77 1532.74 1175.67 1535.95 Q1172.57 1539.15 1166.92 1544.91 Z" fill="#000000" fill-rule="evenodd" fill-opacity="1" /><path clip-path="url(#clip510)" d="M1458.93 1530.21 Q1462.28 1530.93 1464.16 1533.2 Q1466.06 1535.47 1466.06 1538.8 Q1466.06 1543.92 1462.54 1546.72 Q1459.02 1549.52 1452.54 1549.52 Q1450.36 1549.52 1448.05 1549.08 Q1445.76 1548.66 1443.3 1547.81 L1443.3 1543.29 Q1445.25 1544.43 1447.56 1545.01 Q1449.88 1545.58 1452.4 1545.58 Q1456.8 1545.58 1459.09 1543.85 Q1461.4 1542.11 1461.4 1538.8 Q1461.4 1535.75 1459.25 1534.03 Q1457.12 1532.3 1453.3 1532.3 L1449.27 1532.3 L1449.27 1528.45 L1453.49 1528.45 Q1456.94 1528.45 1458.77 1527.09 Q1460.59 1525.7 1460.59 1523.11 Q1460.59 1520.45 1458.7 1519.03 Q1456.82 1517.6 1453.3 1517.6 Q1451.38 1517.6 1449.18 1518.01 Q1446.98 1518.43 1444.34 1519.31 L1444.34 1515.14 Q1447.01 1514.4 1449.32 1514.03 Q1451.66 1513.66 1453.72 1513.66 Q1459.04 1513.66 1462.15 1516.09 Q1465.25 1518.5 1465.25 1522.62 Q1465.25 1525.49 1463.6 1527.48 Q1461.96 1529.45 1458.93 1530.21 Z" fill="#000000" fill-rule="evenodd" fill-opacity="1" /><path clip-path="url(#clip510)" d="M1740.1 1518.36 L1728.3 1536.81 L1740.1 1536.81 L1740.1 1518.36 M1738.88 1514.29 L1744.76 1514.29 L1744.76 1536.81 L1749.69 1536.81 L1749.69 1540.7 L1744.76 1540.7 L1744.76 1548.85 L1740.1 1548.85 L1740.1 1540.7 L1724.5 1540.7 L1724.5 1536.19 L1738.88 1514.29 Z" fill="#000000" fill-rule="evenodd" fill-opacity="1" /><path clip-path="url(#clip510)" d="M2009.79 1514.29 L2028.14 1514.29 L2028.14 1518.22 L2014.07 1518.22 L2014.07 1526.7 Q2015.09 1526.35 2016.1 1526.19 Q2017.12 1526 2018.14 1526 Q2023.93 1526 2027.31 1529.17 Q2030.69 1532.34 2030.69 1537.76 Q2030.69 1543.34 2027.22 1546.44 Q2023.74 1549.52 2017.42 1549.52 Q2015.25 1549.52 2012.98 1549.15 Q2010.73 1548.78 2008.33 1548.04 L2008.33 1543.34 Q2010.41 1544.47 2012.63 1545.03 Q2014.85 1545.58 2017.33 1545.58 Q2021.34 1545.58 2023.67 1543.48 Q2026.01 1541.37 2026.01 1537.76 Q2026.01 1534.15 2023.67 1532.04 Q2021.34 1529.94 2017.33 1529.94 Q2015.46 1529.94 2013.58 1530.35 Q2011.73 1530.77 2009.79 1531.65 L2009.79 1514.29 Z" fill="#000000" fill-rule="evenodd" fill-opacity="1" /><path clip-path="url(#clip510)" d="M2302.33 1529.7 Q2299.18 1529.7 2297.33 1531.86 Q2295.5 1534.01 2295.5 1537.76 Q2295.5 1541.49 2297.33 1543.66 Q2299.18 1545.82 2302.33 1545.82 Q2305.47 1545.82 2307.3 1543.66 Q2309.16 1541.49 2309.16 1537.76 Q2309.16 1534.01 2307.3 1531.86 Q2305.47 1529.7 2302.33 1529.7 M2311.61 1515.05 L2311.61 1519.31 Q2309.85 1518.48 2308.04 1518.04 Q2306.26 1517.6 2304.5 1517.6 Q2299.87 1517.6 2297.42 1520.72 Q2294.99 1523.85 2294.64 1530.17 Q2296.01 1528.15 2298.07 1527.09 Q2300.13 1526 2302.6 1526 Q2307.81 1526 2310.82 1529.17 Q2313.85 1532.32 2313.85 1537.76 Q2313.85 1543.08 2310.71 1546.3 Q2307.56 1549.52 2302.33 1549.52 Q2296.33 1549.52 2293.16 1544.94 Q2289.99 1540.33 2289.99 1531.6 Q2289.99 1523.41 2293.88 1518.55 Q2297.77 1513.66 2304.32 1513.66 Q2306.08 1513.66 2307.86 1514.01 Q2309.66 1514.36 2311.61 1515.05 Z" fill="#000000" fill-rule="evenodd" fill-opacity="1" /><polyline clip-path="url(#clip512)" style="stroke:#000000; stroke-linecap:butt; stroke-linejoin:round; stroke-width:2; stroke-opacity:0.1; fill:none" points="
  556.604,1358.84 2352.76,1358.84 
  "/>
<polyline clip-path="url(#clip512)" style="stroke:#000000; stroke-linecap:butt; stroke-linejoin:round; stroke-width:2; stroke-opacity:0.1; fill:none" points="
  556.604,1078.4 2352.76,1078.4 
  "/>
<polyline clip-path="url(#clip512)" style="stroke:#000000; stroke-linecap:butt; stroke-linejoin:round; stroke-width:2; stroke-opacity:0.1; fill:none" points="
  556.604,797.949 2352.76,797.949 
  "/>
<polyline clip-path="url(#clip512)" style="stroke:#000000; stroke-linecap:butt; stroke-linejoin:round; stroke-width:2; stroke-opacity:0.1; fill:none" points="
  556.604,517.501 2352.76,517.501 
  "/>
<polyline clip-path="url(#clip512)" style="stroke:#000000; stroke-linecap:butt; stroke-linejoin:round; stroke-width:2; stroke-opacity:0.1; fill:none" points="
  556.604,237.053 2352.76,237.053 
  "/>
<polyline clip-path="url(#clip510)" style="stroke:#000000; stroke-linecap:butt; stroke-linejoin:round; stroke-width:4; stroke-opacity:1; fill:none" points="
  556.604,1486.45 556.604,123.472 
  "/>
<polyline clip-path="url(#clip510)" style="stroke:#000000; stroke-linecap:butt; stroke-linejoin:round; stroke-width:4; stroke-opacity:1; fill:none" points="
  556.604,1358.84 571.948,1358.84 
  "/>
<polyline clip-path="url(#clip510)" style="stroke:#000000; stroke-linecap:butt; stroke-linejoin:round; stroke-width:4; stroke-opacity:1; fill:none" points="
  556.604,1078.4 571.948,1078.4 
  "/>
<polyline clip-path="url(#clip510)" style="stroke:#000000; stroke-linecap:butt; stroke-linejoin:round; stroke-width:4; stroke-opacity:1; fill:none" points="
  556.604,797.949 571.948,797.949 
  "/>
<polyline clip-path="url(#clip510)" style="stroke:#000000; stroke-linecap:butt; stroke-linejoin:round; stroke-width:4; stroke-opacity:1; fill:none" points="
  556.604,517.501 571.948,517.501 
  "/>
<polyline clip-path="url(#clip510)" style="stroke:#000000; stroke-linecap:butt; stroke-linejoin:round; stroke-width:4; stroke-opacity:1; fill:none" points="
  556.604,237.053 571.948,237.053 
  "/>
<path clip-path="url(#clip510)" d="M508.659 1344.64 Q505.048 1344.64 503.22 1348.21 Q501.414 1351.75 501.414 1358.88 Q501.414 1365.99 503.22 1369.55 Q505.048 1373.09 508.659 1373.09 Q512.294 1373.09 514.099 1369.55 Q515.928 1365.99 515.928 1358.88 Q515.928 1351.75 514.099 1348.21 Q512.294 1344.64 508.659 1344.64 M508.659 1340.94 Q514.47 1340.94 517.525 1345.55 Q520.604 1350.13 520.604 1358.88 Q520.604 1367.61 517.525 1372.21 Q514.47 1376.8 508.659 1376.8 Q502.849 1376.8 499.771 1372.21 Q496.715 1367.61 496.715 1358.88 Q496.715 1350.13 499.771 1345.55 Q502.849 1340.94 508.659 1340.94 Z" fill="#000000" fill-rule="evenodd" fill-opacity="1" /><path clip-path="url(#clip510)" d="M499.701 1061.12 L518.057 1061.12 L518.057 1065.05 L503.983 1065.05 L503.983 1073.52 Q505.002 1073.18 506.02 1073.01 Q507.039 1072.83 508.058 1072.83 Q513.845 1072.83 517.224 1076 Q520.604 1079.17 520.604 1084.59 Q520.604 1090.17 517.132 1093.27 Q513.659 1096.35 507.34 1096.35 Q505.164 1096.35 502.896 1095.98 Q500.65 1095.61 498.243 1094.87 L498.243 1090.17 Q500.326 1091.3 502.548 1091.86 Q504.77 1092.41 507.247 1092.41 Q511.252 1092.41 513.59 1090.31 Q515.928 1088.2 515.928 1084.59 Q515.928 1080.98 513.59 1078.87 Q511.252 1076.76 507.247 1076.76 Q505.372 1076.76 503.497 1077.18 Q501.646 1077.6 499.701 1078.48 L499.701 1061.12 Z" fill="#000000" fill-rule="evenodd" fill-opacity="1" /><path clip-path="url(#clip510)" d="M469.308 811.294 L476.947 811.294 L476.947 784.928 L468.636 786.595 L468.636 782.335 L476.9 780.669 L481.576 780.669 L481.576 811.294 L489.215 811.294 L489.215 815.229 L469.308 815.229 L469.308 811.294 Z" fill="#000000" fill-rule="evenodd" fill-opacity="1" /><path clip-path="url(#clip510)" d="M508.659 783.747 Q505.048 783.747 503.22 787.312 Q501.414 790.854 501.414 797.984 Q501.414 805.09 503.22 808.655 Q505.048 812.196 508.659 812.196 Q512.294 812.196 514.099 808.655 Q515.928 805.09 515.928 797.984 Q515.928 790.854 514.099 787.312 Q512.294 783.747 508.659 783.747 M508.659 780.044 Q514.47 780.044 517.525 784.65 Q520.604 789.234 520.604 797.984 Q520.604 806.71 517.525 811.317 Q514.47 815.9 508.659 815.9 Q502.849 815.9 499.771 811.317 Q496.715 806.71 496.715 797.984 Q496.715 789.234 499.771 784.65 Q502.849 780.044 508.659 780.044 Z" fill="#000000" fill-rule="evenodd" fill-opacity="1" /><path clip-path="url(#clip510)" d="M470.303 530.846 L477.942 530.846 L477.942 504.48 L469.632 506.147 L469.632 501.888 L477.896 500.221 L482.572 500.221 L482.572 530.846 L490.21 530.846 L490.21 534.781 L470.303 534.781 L470.303 530.846 Z" fill="#000000" fill-rule="evenodd" fill-opacity="1" /><path clip-path="url(#clip510)" d="M499.701 500.221 L518.057 500.221 L518.057 504.156 L503.983 504.156 L503.983 512.628 Q505.002 512.281 506.02 512.119 Q507.039 511.934 508.058 511.934 Q513.845 511.934 517.224 515.105 Q520.604 518.277 520.604 523.693 Q520.604 529.272 517.132 532.374 Q513.659 535.452 507.34 535.452 Q505.164 535.452 502.896 535.082 Q500.65 534.712 498.243 533.971 L498.243 529.272 Q500.326 530.406 502.548 530.962 Q504.77 531.517 507.247 531.517 Q511.252 531.517 513.59 529.411 Q515.928 527.304 515.928 523.693 Q515.928 520.082 513.59 517.976 Q511.252 515.869 507.247 515.869 Q505.372 515.869 503.497 516.286 Q501.646 516.703 499.701 517.582 L499.701 500.221 Z" fill="#000000" fill-rule="evenodd" fill-opacity="1" /><path clip-path="url(#clip510)" d="M472.525 250.398 L488.845 250.398 L488.845 254.333 L466.9 254.333 L466.9 250.398 Q469.562 247.644 474.146 243.014 Q478.752 238.361 479.933 237.019 Q482.178 234.496 483.058 232.759 Q483.96 231 483.96 229.31 Q483.96 226.556 482.016 224.82 Q480.095 223.084 476.993 223.084 Q474.794 223.084 472.34 223.847 Q469.91 224.611 467.132 226.162 L467.132 221.44 Q469.956 220.306 472.41 219.727 Q474.863 219.148 476.9 219.148 Q482.271 219.148 485.465 221.834 Q488.659 224.519 488.659 229.009 Q488.659 231.139 487.849 233.06 Q487.062 234.959 484.956 237.551 Q484.377 238.222 481.275 241.44 Q478.173 244.634 472.525 250.398 Z" fill="#000000" fill-rule="evenodd" fill-opacity="1" /><path clip-path="url(#clip510)" d="M508.659 222.852 Q505.048 222.852 503.22 226.417 Q501.414 229.959 501.414 237.088 Q501.414 244.195 503.22 247.759 Q505.048 251.301 508.659 251.301 Q512.294 251.301 514.099 247.759 Q515.928 244.195 515.928 237.088 Q515.928 229.959 514.099 226.417 Q512.294 222.852 508.659 222.852 M508.659 219.148 Q514.47 219.148 517.525 223.755 Q520.604 228.338 520.604 237.088 Q520.604 245.815 517.525 250.421 Q514.47 255.005 508.659 255.005 Q502.849 255.005 499.771 250.421 Q496.715 245.815 496.715 237.088 Q496.715 228.338 499.771 223.755 Q502.849 219.148 508.659 219.148 Z" fill="#000000" fill-rule="evenodd" fill-opacity="1" /><path clip-path="url(#clip510)" d="M784.498 12.096 L822.739 12.096 L822.739 18.9825 L792.681 18.9825 L792.681 36.8875 L821.483 36.8875 L821.483 43.7741 L792.681 43.7741 L792.681 65.6895 L823.468 65.6895 L823.468 72.576 L784.498 72.576 L784.498 12.096 Z" fill="#000000" fill-rule="evenodd" fill-opacity="1" /><path clip-path="url(#clip510)" d="M862.883 34.1734 Q861.627 33.4443 860.129 33.1202 Q858.67 32.7556 856.888 32.7556 Q850.568 32.7556 847.166 36.8875 Q843.803 40.9789 843.803 48.6757 L843.803 72.576 L836.309 72.576 L836.309 27.2059 L843.803 27.2059 L843.803 34.2544 Q846.153 30.1225 849.92 28.1376 Q853.688 26.1121 859.075 26.1121 Q859.845 26.1121 860.777 26.2337 Q861.708 26.3147 862.843 26.5172 L862.883 34.1734 Z" fill="#000000" fill-rule="evenodd" fill-opacity="1" /><path clip-path="url(#clip510)" d="M895.534 34.1734 Q894.278 33.4443 892.779 33.1202 Q891.321 32.7556 889.538 32.7556 Q883.219 32.7556 879.816 36.8875 Q876.454 40.9789 876.454 48.6757 L876.454 72.576 L868.96 72.576 L868.96 27.2059 L876.454 27.2059 L876.454 34.2544 Q878.803 30.1225 882.571 28.1376 Q886.338 26.1121 891.726 26.1121 Q892.495 26.1121 893.427 26.2337 Q894.359 26.3147 895.493 26.5172 L895.534 34.1734 Z" fill="#000000" fill-rule="evenodd" fill-opacity="1" /><path clip-path="url(#clip510)" d="M919.11 32.4315 Q913.114 32.4315 909.631 37.1306 Q906.147 41.7891 906.147 49.9314 Q906.147 58.0738 909.59 62.7728 Q913.074 67.4314 919.11 67.4314 Q925.065 67.4314 928.548 62.7323 Q932.032 58.0333 932.032 49.9314 Q932.032 41.8701 928.548 37.1711 Q925.065 32.4315 919.11 32.4315 M919.11 26.1121 Q928.832 26.1121 934.382 32.4315 Q939.931 38.7509 939.931 49.9314 Q939.931 61.0714 934.382 67.4314 Q928.832 73.7508 919.11 73.7508 Q909.347 73.7508 903.797 67.4314 Q898.288 61.0714 898.288 49.9314 Q898.288 38.7509 903.797 32.4315 Q909.347 26.1121 919.11 26.1121 Z" fill="#000000" fill-rule="evenodd" fill-opacity="1" /><path clip-path="url(#clip510)" d="M978.577 34.1734 Q977.321 33.4443 975.822 33.1202 Q974.364 32.7556 972.582 32.7556 Q966.262 32.7556 962.86 36.8875 Q959.497 40.9789 959.497 48.6757 L959.497 72.576 L952.003 72.576 L952.003 27.2059 L959.497 27.2059 L959.497 34.2544 Q961.847 30.1225 965.614 28.1376 Q969.381 26.1121 974.769 26.1121 Q975.539 26.1121 976.471 26.2337 Q977.402 26.3147 978.537 26.5172 L978.577 34.1734 Z" fill="#000000" fill-rule="evenodd" fill-opacity="1" /><path clip-path="url(#clip510)" d="M1013.74 34.9026 L1065.67 34.9026 L1065.67 41.7081 L1013.74 41.7081 L1013.74 34.9026 M1013.74 51.4303 L1065.67 51.4303 L1065.67 58.3168 L1013.74 58.3168 L1013.74 51.4303 Z" fill="#000000" fill-rule="evenodd" fill-opacity="1" /><path clip-path="url(#clip510)" d="M1127.2 17.4837 Q1120.89 17.4837 1117.69 23.7221 Q1114.53 29.92 1114.53 42.3968 Q1114.53 54.833 1117.69 61.0714 Q1120.89 67.2693 1127.2 67.2693 Q1133.56 67.2693 1136.72 61.0714 Q1139.92 54.833 1139.92 42.3968 Q1139.92 29.92 1136.72 23.7221 Q1133.56 17.4837 1127.2 17.4837 M1127.2 11.0023 Q1137.37 11.0023 1142.72 19.0636 Q1148.11 27.0843 1148.11 42.3968 Q1148.11 57.6687 1142.72 65.73 Q1137.37 73.7508 1127.2 73.7508 Q1117.04 73.7508 1111.65 65.73 Q1106.3 57.6687 1106.3 42.3968 Q1106.3 27.0843 1111.65 19.0636 Q1117.04 11.0023 1127.2 11.0023 Z" fill="#000000" fill-rule="evenodd" fill-opacity="1" /><path clip-path="url(#clip510)" d="M1162.49 62.2867 L1171.04 62.2867 L1171.04 72.576 L1162.49 72.576 L1162.49 62.2867 Z" fill="#000000" fill-rule="evenodd" fill-opacity="1" /><path clip-path="url(#clip510)" d="M1206.36 17.4837 Q1200.04 17.4837 1196.84 23.7221 Q1193.68 29.92 1193.68 42.3968 Q1193.68 54.833 1196.84 61.0714 Q1200.04 67.2693 1206.36 67.2693 Q1212.72 67.2693 1215.88 61.0714 Q1219.08 54.833 1219.08 42.3968 Q1219.08 29.92 1215.88 23.7221 Q1212.72 17.4837 1206.36 17.4837 M1206.36 11.0023 Q1216.53 11.0023 1221.87 19.0636 Q1227.26 27.0843 1227.26 42.3968 Q1227.26 57.6687 1221.87 65.73 Q1216.53 73.7508 1206.36 73.7508 Q1196.19 73.7508 1190.8 65.73 Q1185.46 57.6687 1185.46 42.3968 Q1185.46 27.0843 1190.8 19.0636 Q1196.19 11.0023 1206.36 11.0023 Z" fill="#000000" fill-rule="evenodd" fill-opacity="1" /><path clip-path="url(#clip510)" d="M1243.06 65.6895 L1256.43 65.6895 L1256.43 19.5497 L1241.89 22.4663 L1241.89 15.0127 L1256.35 12.096 L1264.53 12.096 L1264.53 65.6895 L1277.9 65.6895 L1277.9 72.576 L1243.06 72.576 L1243.06 65.6895 Z" fill="#000000" fill-rule="evenodd" fill-opacity="1" /><path clip-path="url(#clip510)" d="M1316.91 19.2256 L1296.25 51.5113 L1316.91 51.5113 L1316.91 19.2256 M1314.76 12.096 L1325.05 12.096 L1325.05 51.5113 L1333.68 51.5113 L1333.68 58.3168 L1325.05 58.3168 L1325.05 72.576 L1316.91 72.576 L1316.91 58.3168 L1289.61 58.3168 L1289.61 50.4176 L1314.76 12.096 Z" fill="#000000" fill-rule="evenodd" fill-opacity="1" /><path clip-path="url(#clip510)" d="M1364.71 17.4837 Q1358.39 17.4837 1355.19 23.7221 Q1352.03 29.92 1352.03 42.3968 Q1352.03 54.833 1355.19 61.0714 Q1358.39 67.2693 1364.71 67.2693 Q1371.07 67.2693 1374.23 61.0714 Q1377.43 54.833 1377.43 42.3968 Q1377.43 29.92 1374.23 23.7221 Q1371.07 17.4837 1364.71 17.4837 M1364.71 11.0023 Q1374.88 11.0023 1380.22 19.0636 Q1385.61 27.0843 1385.61 42.3968 Q1385.61 57.6687 1380.22 65.73 Q1374.88 73.7508 1364.71 73.7508 Q1354.54 73.7508 1349.15 65.73 Q1343.81 57.6687 1343.81 42.3968 Q1343.81 27.0843 1349.15 19.0636 Q1354.54 11.0023 1364.71 11.0023 Z" fill="#000000" fill-rule="evenodd" fill-opacity="1" /><path clip-path="url(#clip510)" d="M1422.48 19.2256 L1401.82 51.5113 L1422.48 51.5113 L1422.48 19.2256 M1420.33 12.096 L1430.62 12.096 L1430.62 51.5113 L1439.25 51.5113 L1439.25 58.3168 L1430.62 58.3168 L1430.62 72.576 L1422.48 72.576 L1422.48 58.3168 L1395.17 58.3168 L1395.17 50.4176 L1420.33 12.096 Z" fill="#000000" fill-rule="evenodd" fill-opacity="1" /><path clip-path="url(#clip510)" d="M1452.86 12.096 L1484.98 12.096 L1484.98 18.9825 L1460.35 18.9825 L1460.35 33.8088 Q1462.13 33.2012 1463.92 32.9176 Q1465.7 32.5936 1467.48 32.5936 Q1477.61 32.5936 1483.52 38.1433 Q1489.44 43.6931 1489.44 53.1722 Q1489.44 62.9348 1483.36 68.3631 Q1477.28 73.7508 1466.22 73.7508 Q1462.42 73.7508 1458.45 73.1026 Q1454.52 72.4545 1450.3 71.1582 L1450.3 62.9348 Q1453.95 64.9198 1457.84 65.892 Q1461.73 66.8642 1466.06 66.8642 Q1473.07 66.8642 1477.16 63.1779 Q1481.25 59.4916 1481.25 53.1722 Q1481.25 46.8528 1477.16 43.1664 Q1473.07 39.4801 1466.06 39.4801 Q1462.78 39.4801 1459.5 40.2093 Q1456.26 40.9384 1452.86 42.4778 L1452.86 12.096 Z" fill="#000000" fill-rule="evenodd" fill-opacity="1" /><path clip-path="url(#clip510)" d="M1505.64 12.096 L1537.76 12.096 L1537.76 18.9825 L1513.13 18.9825 L1513.13 33.8088 Q1514.92 33.2012 1516.7 32.9176 Q1518.48 32.5936 1520.26 32.5936 Q1530.39 32.5936 1536.31 38.1433 Q1542.22 43.6931 1542.22 53.1722 Q1542.22 62.9348 1536.14 68.3631 Q1530.07 73.7508 1519.01 73.7508 Q1515.2 73.7508 1511.23 73.1026 Q1507.3 72.4545 1503.09 71.1582 L1503.09 62.9348 Q1506.73 64.9198 1510.62 65.892 Q1514.51 66.8642 1518.85 66.8642 Q1525.85 66.8642 1529.95 63.1779 Q1534.04 59.4916 1534.04 53.1722 Q1534.04 46.8528 1529.95 43.1664 Q1525.85 39.4801 1518.85 39.4801 Q1515.56 39.4801 1512.28 40.2093 Q1509.04 40.9384 1505.64 42.4778 L1505.64 12.096 Z" fill="#000000" fill-rule="evenodd" fill-opacity="1" /><path clip-path="url(#clip510)" d="M1565.39 65.6895 L1593.95 65.6895 L1593.95 72.576 L1555.55 72.576 L1555.55 65.6895 Q1560.21 60.8689 1568.23 52.7671 Q1576.29 44.6248 1578.35 42.2752 Q1582.28 37.8598 1583.82 34.8216 Q1585.4 31.7429 1585.4 28.7857 Q1585.4 23.9651 1582 20.927 Q1578.64 17.8888 1573.21 17.8888 Q1569.36 17.8888 1565.07 19.2256 Q1560.81 20.5624 1555.95 23.2765 L1555.95 15.0127 Q1560.89 13.0277 1565.19 12.015 Q1569.48 11.0023 1573.05 11.0023 Q1582.45 11.0023 1588.04 15.7013 Q1593.63 20.4004 1593.63 28.2591 Q1593.63 31.9859 1592.21 35.3482 Q1590.83 38.6699 1587.14 43.2069 Q1586.13 44.3817 1580.7 50.0125 Q1575.28 55.6027 1565.39 65.6895 Z" fill="#000000" fill-rule="evenodd" fill-opacity="1" /><path clip-path="url(#clip510)" d="M1635.92 39.9662 Q1641.79 41.222 1645.07 45.1919 Q1648.39 49.1618 1648.39 54.9951 Q1648.39 63.9476 1642.24 68.8492 Q1636.08 73.7508 1624.74 73.7508 Q1620.93 73.7508 1616.88 72.9811 Q1612.87 72.2519 1608.57 70.7531 L1608.57 62.8538 Q1611.98 64.8388 1616.03 65.8515 Q1620.08 66.8642 1624.49 66.8642 Q1632.19 66.8642 1636.2 63.826 Q1640.25 60.7879 1640.25 54.9951 Q1640.25 49.6479 1636.48 46.6502 Q1632.76 43.612 1626.07 43.612 L1619.03 43.612 L1619.03 36.8875 L1626.4 36.8875 Q1632.43 36.8875 1635.63 34.4975 Q1638.83 32.067 1638.83 27.5299 Q1638.83 22.8714 1635.51 20.4004 Q1632.23 17.8888 1626.07 17.8888 Q1622.71 17.8888 1618.86 18.618 Q1615.01 19.3471 1610.4 20.8865 L1610.4 13.5948 Q1615.06 12.2985 1619.11 11.6504 Q1623.2 11.0023 1626.8 11.0023 Q1636.12 11.0023 1641.55 15.2557 Q1646.98 19.4686 1646.98 26.6793 Q1646.98 31.7024 1644.1 35.1862 Q1641.22 38.6294 1635.92 39.9662 Z" fill="#000000" fill-rule="evenodd" fill-opacity="1" /><path clip-path="url(#clip510)" d="M1681.41 17.4837 Q1675.09 17.4837 1671.89 23.7221 Q1668.73 29.92 1668.73 42.3968 Q1668.73 54.833 1671.89 61.0714 Q1675.09 67.2693 1681.41 67.2693 Q1687.77 67.2693 1690.93 61.0714 Q1694.13 54.833 1694.13 42.3968 Q1694.13 29.92 1690.93 23.7221 Q1687.77 17.4837 1681.41 17.4837 M1681.41 11.0023 Q1691.58 11.0023 1696.92 19.0636 Q1702.31 27.0843 1702.31 42.3968 Q1702.31 57.6687 1696.92 65.73 Q1691.58 73.7508 1681.41 73.7508 Q1671.24 73.7508 1665.85 65.73 Q1660.51 57.6687 1660.51 42.3968 Q1660.51 27.0843 1665.85 19.0636 Q1671.24 11.0023 1681.41 11.0023 Z" fill="#000000" fill-rule="evenodd" fill-opacity="1" /><path clip-path="url(#clip510)" d="M1739.17 19.2256 L1718.52 51.5113 L1739.17 51.5113 L1739.17 19.2256 M1737.03 12.096 L1747.32 12.096 L1747.32 51.5113 L1755.95 51.5113 L1755.95 58.3168 L1747.32 58.3168 L1747.32 72.576 L1739.17 72.576 L1739.17 58.3168 L1711.87 58.3168 L1711.87 50.4176 L1737.03 12.096 Z" fill="#000000" fill-rule="evenodd" fill-opacity="1" /><path clip-path="url(#clip510)" d="M1769.72 71.3202 L1769.72 63.8666 Q1772.8 65.3249 1775.96 66.0946 Q1779.12 66.8642 1782.15 66.8642 Q1790.26 66.8642 1794.51 61.436 Q1798.8 55.9673 1799.41 44.8678 Q1797.06 48.3516 1793.46 50.215 Q1789.85 52.0784 1785.48 52.0784 Q1776.4 52.0784 1771.1 46.6097 Q1765.83 41.1005 1765.83 31.5808 Q1765.83 22.2638 1771.34 16.633 Q1776.85 11.0023 1786 11.0023 Q1796.5 11.0023 1802 19.0636 Q1807.55 27.0843 1807.55 42.3968 Q1807.55 56.6965 1800.75 65.2439 Q1793.98 73.7508 1782.52 73.7508 Q1779.44 73.7508 1776.28 73.1431 Q1773.12 72.5355 1769.72 71.3202 M1786 45.678 Q1791.51 45.678 1794.71 41.9107 Q1797.95 38.1433 1797.95 31.5808 Q1797.95 25.0589 1794.71 21.2916 Q1791.51 17.4837 1786 17.4837 Q1780.49 17.4837 1777.25 21.2916 Q1774.05 25.0589 1774.05 31.5808 Q1774.05 38.1433 1777.25 41.9107 Q1780.49 45.678 1786 45.678 Z" fill="#000000" fill-rule="evenodd" fill-opacity="1" /><path clip-path="url(#clip510)" d="M1829.31 65.6895 L1857.87 65.6895 L1857.87 72.576 L1819.46 72.576 L1819.46 65.6895 Q1824.12 60.8689 1832.14 52.7671 Q1840.2 44.6248 1842.27 42.2752 Q1846.2 37.8598 1847.74 34.8216 Q1849.32 31.7429 1849.32 28.7857 Q1849.32 23.9651 1845.92 20.927 Q1842.55 17.8888 1837.13 17.8888 Q1833.28 17.8888 1828.98 19.2256 Q1824.73 20.5624 1819.87 23.2765 L1819.87 15.0127 Q1824.81 13.0277 1829.1 12.015 Q1833.4 11.0023 1836.96 11.0023 Q1846.36 11.0023 1851.95 15.7013 Q1857.54 20.4004 1857.54 28.2591 Q1857.54 31.9859 1856.12 35.3482 Q1854.75 38.6699 1851.06 43.2069 Q1850.05 44.3817 1844.62 50.0125 Q1839.19 55.6027 1829.31 65.6895 Z" fill="#000000" fill-rule="evenodd" fill-opacity="1" /><path clip-path="url(#clip510)" d="M1875.29 71.3202 L1875.29 63.8666 Q1878.36 65.3249 1881.52 66.0946 Q1884.68 66.8642 1887.72 66.8642 Q1895.82 66.8642 1900.08 61.436 Q1904.37 55.9673 1904.98 44.8678 Q1902.63 48.3516 1899.02 50.215 Q1895.42 52.0784 1891.04 52.0784 Q1881.97 52.0784 1876.66 46.6097 Q1871.4 41.1005 1871.4 31.5808 Q1871.4 22.2638 1876.91 16.633 Q1882.41 11.0023 1891.57 11.0023 Q1902.06 11.0023 1907.57 19.0636 Q1913.12 27.0843 1913.12 42.3968 Q1913.12 56.6965 1906.32 65.2439 Q1899.55 73.7508 1888.09 73.7508 Q1885.01 73.7508 1881.85 73.1431 Q1878.69 72.5355 1875.29 71.3202 M1891.57 45.678 Q1897.08 45.678 1900.28 41.9107 Q1903.52 38.1433 1903.52 31.5808 Q1903.52 25.0589 1900.28 21.2916 Q1897.08 17.4837 1891.57 17.4837 Q1886.06 17.4837 1882.82 21.2916 Q1879.62 25.0589 1879.62 31.5808 Q1879.62 38.1433 1882.82 41.9107 Q1886.06 45.678 1891.57 45.678 Z" fill="#000000" fill-rule="evenodd" fill-opacity="1" /><path clip-path="url(#clip510)" d="M1945.33 43.8551 Q1939.49 43.8551 1936.13 46.9743 Q1932.81 50.0935 1932.81 55.5622 Q1932.81 61.0309 1936.13 64.1501 Q1939.49 67.2693 1945.33 67.2693 Q1951.16 67.2693 1954.52 64.1501 Q1957.88 60.9904 1957.88 55.5622 Q1957.88 50.0935 1954.52 46.9743 Q1951.2 43.8551 1945.33 43.8551 M1937.14 40.3713 Q1931.88 39.075 1928.92 35.4697 Q1926 31.8644 1926 26.6793 Q1926 19.4281 1931.15 15.2152 Q1936.33 11.0023 1945.33 11.0023 Q1954.36 11.0023 1959.5 15.2152 Q1964.65 19.4281 1964.65 26.6793 Q1964.65 31.8644 1961.69 35.4697 Q1958.77 39.075 1953.55 40.3713 Q1959.46 41.7486 1962.74 45.759 Q1966.07 49.7694 1966.07 55.5622 Q1966.07 64.3527 1960.68 69.0517 Q1955.33 73.7508 1945.33 73.7508 Q1935.32 73.7508 1929.93 69.0517 Q1924.58 64.3527 1924.58 55.5622 Q1924.58 49.7694 1927.91 45.759 Q1931.23 41.7486 1937.14 40.3713 M1934.14 27.4489 Q1934.14 32.148 1937.06 34.7811 Q1940.02 37.4142 1945.33 37.4142 Q1950.59 37.4142 1953.55 34.7811 Q1956.55 32.148 1956.55 27.4489 Q1956.55 22.7499 1953.55 20.1168 Q1950.59 17.4837 1945.33 17.4837 Q1940.02 17.4837 1937.06 20.1168 Q1934.14 22.7499 1934.14 27.4489 Z" fill="#000000" fill-rule="evenodd" fill-opacity="1" /><path clip-path="url(#clip510)" d="M1980.85 71.3202 L1980.85 63.8666 Q1983.93 65.3249 1987.09 66.0946 Q1990.25 66.8642 1993.29 66.8642 Q2001.39 66.8642 2005.64 61.436 Q2009.94 55.9673 2010.54 44.8678 Q2008.2 48.3516 2004.59 50.215 Q2000.98 52.0784 1996.61 52.0784 Q1987.54 52.0784 1982.23 46.6097 Q1976.96 41.1005 1976.96 31.5808 Q1976.96 22.2638 1982.47 16.633 Q1987.98 11.0023 1997.14 11.0023 Q2007.63 11.0023 2013.14 19.0636 Q2018.69 27.0843 2018.69 42.3968 Q2018.69 56.6965 2011.88 65.2439 Q2005.12 73.7508 1993.65 73.7508 Q1990.57 73.7508 1987.41 73.1431 Q1984.25 72.5355 1980.85 71.3202 M1997.14 45.678 Q2002.65 45.678 2005.85 41.9107 Q2009.09 38.1433 2009.09 31.5808 Q2009.09 25.0589 2005.85 21.2916 Q2002.65 17.4837 1997.14 17.4837 Q1991.63 17.4837 1988.39 21.2916 Q1985.19 25.0589 1985.19 31.5808 Q1985.19 38.1433 1988.39 41.9107 Q1991.63 45.678 1997.14 45.678 Z" fill="#000000" fill-rule="evenodd" fill-opacity="1" /><path clip-path="url(#clip510)" d="M2055.87 19.2256 L2035.21 51.5113 L2055.87 51.5113 L2055.87 19.2256 M2053.73 12.096 L2064.02 12.096 L2064.02 51.5113 L2072.65 51.5113 L2072.65 58.3168 L2064.02 58.3168 L2064.02 72.576 L2055.87 72.576 L2055.87 58.3168 L2028.57 58.3168 L2028.57 50.4176 L2053.73 12.096 Z" fill="#000000" fill-rule="evenodd" fill-opacity="1" /><path clip-path="url(#clip510)" d="M2104.69 39.075 Q2099.18 39.075 2095.94 42.8424 Q2092.74 46.6097 2092.74 53.1722 Q2092.74 59.6941 2095.94 63.502 Q2099.18 67.2693 2104.69 67.2693 Q2110.2 67.2693 2113.4 63.502 Q2116.64 59.6941 2116.64 53.1722 Q2116.64 46.6097 2113.4 42.8424 Q2110.2 39.075 2104.69 39.075 M2120.93 13.4328 L2120.93 20.8865 Q2117.85 19.4281 2114.69 18.6585 Q2111.57 17.8888 2108.5 17.8888 Q2100.39 17.8888 2096.1 23.3575 Q2091.85 28.8262 2091.24 39.8852 Q2093.63 36.3609 2097.23 34.4975 Q2100.84 32.5936 2105.17 32.5936 Q2114.29 32.5936 2119.55 38.1433 Q2124.86 43.6525 2124.86 53.1722 Q2124.86 62.4892 2119.35 68.12 Q2113.84 73.7508 2104.69 73.7508 Q2094.2 73.7508 2088.65 65.73 Q2083.1 57.6687 2083.1 42.3968 Q2083.1 28.0566 2089.9 19.5497 Q2096.71 11.0023 2108.17 11.0023 Q2111.25 11.0023 2114.37 11.6099 Q2117.53 12.2175 2120.93 13.4328 Z" fill="#000000" fill-rule="evenodd" fill-opacity="1" /><polyline clip-path="url(#clip512)" style="stroke:#009af9; stroke-linecap:butt; stroke-linejoin:round; stroke-width:20; stroke-opacity:1; fill:none" points="
  607.438,1246.67 635.68,1262.93 663.921,1278.08 692.162,1292.1 720.404,1305 748.645,1316.78 776.887,1327.43 805.128,1336.97 833.369,1345.38 861.611,1352.67 
  889.852,1358.84 918.093,1363.89 946.335,1367.82 974.576,1370.62 1002.82,1372.31 1031.06,1372.87 1059.3,1372.31 1087.54,1370.62 1115.78,1367.82 1144.02,1363.89 
  1172.27,1358.84 1200.51,1352.67 1228.75,1345.38 1256.99,1336.97 1285.23,1327.43 1313.47,1316.78 1341.71,1305 1369.96,1292.1 1398.2,1278.08 1426.44,1262.93 
  1454.68,1246.67 1482.92,1229.28 1511.16,1210.77 1539.4,1191.14 1567.65,1170.38 1595.89,1148.51 1624.13,1125.51 1652.37,1101.39 1680.61,1076.15 1708.85,1049.79 
  1737.09,1022.31 1765.34,993.701 1793.58,963.974 1821.82,933.125 1850.06,901.154 1878.3,868.061 1906.54,833.846 1934.78,798.51 1963.02,762.052 1991.27,724.472 
  2019.51,685.77 2047.75,645.946 2075.99,605.001 2104.23,562.934 2132.47,519.745 2160.71,475.434 2188.96,430.001 2217.2,383.447 2245.44,335.771 2273.68,286.973 
  2301.92,237.053 
  "/>
<polyline clip-path="url(#clip512)" style="stroke:#e26f46; stroke-linecap:butt; stroke-linejoin:round; stroke-width:4; stroke-opacity:1; fill:none" points="
  607.438,1259 635.68,1269.1 663.921,1279.2 692.162,1289.29 720.404,1299.39 748.645,1309.49 776.887,1319.58 805.128,1329.68 833.369,1339.77 861.611,1349.87 
  889.852,1359.97 918.093,1370.06 946.335,1380.16 974.576,1390.25 1002.82,1400.35 1031.06,1410.45 1059.3,1420.54 1087.54,1430.64 1115.78,1440.73 1144.02,1450.83 
  1172.27,1460.93 1200.51,1471.02 1228.75,1481.12 1256.99,1491.22 1285.23,1501.31 1313.47,1511.41 1341.71,1521.5 1369.96,1531.6 1398.2,1541.7 1426.44,1551.79 
  1454.68,1561.89 1482.92,1571.98 1511.16,1582.08 1539.4,1592.18 1567.65,1602.27 1595.89,1612.37 1624.13,1622.47 1652.37,1632.56 1680.61,1642.66 1708.85,1652.75 
  1737.09,1662.85 1765.34,1672.95 1793.58,1683.04 1821.82,1693.14 1850.06,1703.23 1878.3,1713.33 1906.54,1723.43 1934.78,1733.52 1963.02,1743.62 1991.27,1753.71 
  2019.51,1763.81 2047.75,1773.91 2075.99,1784 2104.23,1794.1 2132.47,1804.2 2160.71,1814.29 2188.96,1824.39 2217.2,1834.48 2245.44,1844.58 2273.68,1854.68 
  2301.92,1864.77 
  "/>
<polyline clip-path="url(#clip512)" style="stroke:#3da44d; stroke-linecap:butt; stroke-linejoin:round; stroke-width:4; stroke-opacity:1; fill:none" points="
  607.438,1431.95 635.68,1428.02 663.921,1424.1 692.162,1420.17 720.404,1416.24 748.645,1412.32 776.887,1408.39 805.128,1404.46 833.369,1400.54 861.611,1396.61 
  889.852,1392.68 918.093,1388.76 946.335,1384.83 974.576,1380.91 1002.82,1376.98 1031.06,1373.05 1059.3,1369.13 1087.54,1365.2 1115.78,1361.27 1144.02,1357.35 
  1172.27,1353.42 1200.51,1349.5 1228.75,1345.57 1256.99,1341.64 1285.23,1337.72 1313.47,1333.79 1341.71,1329.86 1369.96,1325.94 1398.2,1322.01 1426.44,1318.09 
  1454.68,1314.16 1482.92,1310.23 1511.16,1306.31 1539.4,1302.38 1567.65,1298.45 1595.89,1294.53 1624.13,1290.6 1652.37,1286.68 1680.61,1282.75 1708.85,1278.82 
  1737.09,1274.9 1765.34,1270.97 1793.58,1267.04 1821.82,1263.12 1850.06,1259.19 1878.3,1255.27 1906.54,1251.34 1934.78,1247.41 1963.02,1243.49 1991.27,1239.56 
  2019.51,1235.63 2047.75,1231.71 2075.99,1227.78 2104.23,1223.86 2132.47,1219.93 2160.71,1216 2188.96,1212.08 2217.2,1208.15 2245.44,1204.22 2273.68,1200.3 
  2301.92,1196.37 
  "/>
<polyline clip-path="url(#clip512)" style="stroke:#c271d2; stroke-linecap:butt; stroke-linejoin:round; stroke-width:4; stroke-opacity:1; fill:none" points="
  607.438,1761.75 635.68,1744.37 663.921,1726.98 692.162,1709.59 720.404,1692.2 748.645,1674.82 776.887,1657.43 805.128,1640.04 833.369,1622.65 861.611,1605.26 
  889.852,1587.88 918.093,1570.49 946.335,1553.1 974.576,1535.71 1002.82,1518.33 1031.06,1500.94 1059.3,1483.55 1087.54,1466.16 1115.78,1448.77 1144.02,1431.39 
  1172.27,1414 1200.51,1396.61 1228.75,1379.22 1256.99,1361.84 1285.23,1344.45 1313.47,1327.06 1341.71,1309.67 1369.96,1292.28 1398.2,1274.9 1426.44,1257.51 
  1454.68,1240.12 1482.92,1222.73 1511.16,1205.35 1539.4,1187.96 1567.65,1170.57 1595.89,1153.18 1624.13,1135.79 1652.37,1118.41 1680.61,1101.02 1708.85,1083.63 
  1737.09,1066.24 1765.34,1048.86 1793.58,1031.47 1821.82,1014.08 1850.06,996.693 1878.3,979.305 1906.54,961.917 1934.78,944.529 1963.02,927.142 1991.27,909.754 
  2019.51,892.366 2047.75,874.978 2075.99,857.591 2104.23,840.203 2132.47,822.815 2160.71,805.427 2188.96,788.04 2217.2,770.652 2245.44,753.264 2273.68,735.876 
  2301.92,718.489 
  "/>
<polyline clip-path="url(#clip512)" style="stroke:#ac8d18; stroke-linecap:butt; stroke-linejoin:round; stroke-width:4; stroke-opacity:1; fill:none" points="
  607.438,2253.1 635.68,2222.25 663.921,2191.4 692.162,2160.55 720.404,2129.7 748.645,2098.85 776.887,2068 805.128,2037.15 833.369,2006.3 861.611,1975.46 
  889.852,1944.61 918.093,1913.76 946.335,1882.91 974.576,1852.06 1002.82,1821.21 1031.06,1790.36 1059.3,1759.51 1087.54,1728.66 1115.78,1697.81 1144.02,1666.96 
  1172.27,1636.11 1200.51,1605.26 1228.75,1574.41 1256.99,1543.57 1285.23,1512.72 1313.47,1481.87 1341.71,1451.02 1369.96,1420.17 1398.2,1389.32 1426.44,1358.47 
  1454.68,1327.62 1482.92,1296.77 1511.16,1265.92 1539.4,1235.07 1567.65,1204.22 1595.89,1173.37 1624.13,1142.53 1652.37,1111.68 1680.61,1080.83 1708.85,1049.98 
  1737.09,1019.13 1765.34,988.279 1793.58,957.43 1821.82,926.581 1850.06,895.732 1878.3,864.882 1906.54,834.033 1934.78,803.184 1963.02,772.335 1991.27,741.485 
  2019.51,710.636 2047.75,679.787 2075.99,648.938 2104.23,618.088 2132.47,587.239 2160.71,556.39 2188.96,525.541 2217.2,494.691 2245.44,463.842 2273.68,432.993 
  2301.92,402.144 
  "/>
<polyline clip-path="url(#clip512)" style="stroke:#00a9ad; stroke-linecap:butt; stroke-linejoin:round; stroke-width:4; stroke-opacity:1; fill:none" points="
  607.438,2905.98 635.68,2861.67 663.921,2817.36 692.162,2773.05 720.404,2728.74 748.645,2684.43 776.887,2640.12 805.128,2595.81 833.369,2551.49 861.611,2507.18 
  889.852,2462.87 918.093,2418.56 946.335,2374.25 974.576,2329.94 1002.82,2285.63 1031.06,2241.32 1059.3,2197.01 1087.54,2152.7 1115.78,2108.39 1144.02,2064.08 
  1172.27,2019.77 1200.51,1975.46 1228.75,1931.14 1256.99,1886.83 1285.23,1842.52 1313.47,1798.21 1341.71,1753.9 1369.96,1709.59 1398.2,1665.28 1426.44,1620.97 
  1454.68,1576.66 1482.92,1532.35 1511.16,1488.04 1539.4,1443.73 1567.65,1399.42 1595.89,1355.1 1624.13,1310.79 1652.37,1266.48 1680.61,1222.17 1708.85,1177.86 
  1737.09,1133.55 1765.34,1089.24 1793.58,1044.93 1821.82,1000.62 1850.06,956.308 1878.3,911.998 1906.54,867.687 1934.78,823.376 1963.02,779.065 1991.27,734.755 
  2019.51,690.444 2047.75,646.133 2075.99,601.822 2104.23,557.512 2132.47,513.201 2160.71,468.89 2188.96,424.579 2217.2,380.269 2245.44,335.958 2273.68,291.647 
  2301.92,247.337 
  "/>
<path clip-path="url(#clip510)" d="
M66.9602 531.785 L355.43 531.785 L355.43 168.905 L66.9602 168.905  Z
  " fill="#ffffff" fill-rule="evenodd" fill-opacity="1"/>
<polyline clip-path="url(#clip510)" style="stroke:#000000; stroke-linecap:butt; stroke-linejoin:round; stroke-width:4; stroke-opacity:1; fill:none" points="
  66.9602,531.785 355.43,531.785 355.43,168.905 66.9602,168.905 66.9602,531.785 
  "/>
<polyline clip-path="url(#clip510)" style="stroke:#009af9; stroke-linecap:butt; stroke-linejoin:round; stroke-width:4; stroke-opacity:1; fill:none" points="
  91.5386,220.745 239.009,220.745 
  "/>
<path clip-path="url(#clip510)" d="M280.092 202.006 L280.092 205.548 L276.018 205.548 Q273.727 205.548 272.824 206.474 Q271.944 207.4 271.944 209.807 L271.944 212.099 L278.958 212.099 L278.958 215.409 L271.944 215.409 L271.944 238.025 L267.662 238.025 L267.662 215.409 L263.588 215.409 L263.588 212.099 L267.662 212.099 L267.662 210.293 Q267.662 205.965 269.676 203.997 Q271.69 202.006 276.065 202.006 L280.092 202.006 Z" fill="#000000" fill-rule="evenodd" fill-opacity="1" /><polyline clip-path="url(#clip510)" style="stroke:#e26f46; stroke-linecap:butt; stroke-linejoin:round; stroke-width:4; stroke-opacity:1; fill:none" points="
  91.5386,272.585 239.009,272.585 
  "/>
<path clip-path="url(#clip510)" d="M278.773 267.92 Q278.055 267.504 277.199 267.318 Q276.365 267.11 275.347 267.11 Q271.736 267.11 269.791 269.471 Q267.87 271.809 267.87 276.207 L267.87 289.865 L263.588 289.865 L263.588 263.939 L267.87 263.939 L267.87 267.967 Q269.213 265.606 271.366 264.471 Q273.518 263.314 276.597 263.314 Q277.037 263.314 277.569 263.383 Q278.102 263.43 278.75 263.545 L278.773 267.92 Z" fill="#000000" fill-rule="evenodd" fill-opacity="1" /><path clip-path="url(#clip510)" d="M284.652 285.929 L292.291 285.929 L292.291 259.564 L283.981 261.231 L283.981 256.971 L292.245 255.305 L296.921 255.305 L296.921 285.929 L304.56 285.929 L304.56 289.865 L284.652 289.865 L284.652 285.929 Z" fill="#000000" fill-rule="evenodd" fill-opacity="1" /><polyline clip-path="url(#clip510)" style="stroke:#3da44d; stroke-linecap:butt; stroke-linejoin:round; stroke-width:4; stroke-opacity:1; fill:none" points="
  91.5386,324.425 239.009,324.425 
  "/>
<path clip-path="url(#clip510)" d="M278.773 319.76 Q278.055 319.344 277.199 319.158 Q276.365 318.95 275.347 318.95 Q271.736 318.95 269.791 321.311 Q267.87 323.649 267.87 328.047 L267.87 341.705 L263.588 341.705 L263.588 315.779 L267.87 315.779 L267.87 319.807 Q269.213 317.446 271.366 316.311 Q273.518 315.154 276.597 315.154 Q277.037 315.154 277.569 315.223 Q278.102 315.27 278.75 315.385 L278.773 319.76 Z" fill="#000000" fill-rule="evenodd" fill-opacity="1" /><path clip-path="url(#clip510)" d="M287.87 337.769 L304.189 337.769 L304.189 341.705 L282.245 341.705 L282.245 337.769 Q284.907 335.015 289.49 330.385 Q294.097 325.733 295.277 324.39 Q297.523 321.867 298.402 320.131 Q299.305 318.371 299.305 316.682 Q299.305 313.927 297.361 312.191 Q295.439 310.455 292.338 310.455 Q290.139 310.455 287.685 311.219 Q285.254 311.983 282.477 313.534 L282.477 308.811 Q285.301 307.677 287.754 307.098 Q290.208 306.52 292.245 306.52 Q297.615 306.52 300.81 309.205 Q304.004 311.89 304.004 316.381 Q304.004 318.51 303.194 320.432 Q302.407 322.33 300.301 324.922 Q299.722 325.594 296.62 328.811 Q293.518 332.006 287.87 337.769 Z" fill="#000000" fill-rule="evenodd" fill-opacity="1" /><polyline clip-path="url(#clip510)" style="stroke:#c271d2; stroke-linecap:butt; stroke-linejoin:round; stroke-width:4; stroke-opacity:1; fill:none" points="
  91.5386,376.265 239.009,376.265 
  "/>
<path clip-path="url(#clip510)" d="M278.773 371.6 Q278.055 371.184 277.199 370.998 Q276.365 370.79 275.347 370.79 Q271.736 370.79 269.791 373.151 Q267.87 375.489 267.87 379.887 L267.87 393.545 L263.588 393.545 L263.588 367.619 L267.87 367.619 L267.87 371.647 Q269.213 369.286 271.366 368.151 Q273.518 366.994 276.597 366.994 Q277.037 366.994 277.569 367.063 Q278.102 367.11 278.75 367.225 L278.773 371.6 Z" fill="#000000" fill-rule="evenodd" fill-opacity="1" /><path clip-path="url(#clip510)" d="M298.009 374.91 Q301.365 375.628 303.24 377.897 Q305.138 380.165 305.138 383.498 Q305.138 388.614 301.62 391.415 Q298.101 394.216 291.62 394.216 Q289.444 394.216 287.129 393.776 Q284.838 393.359 282.384 392.503 L282.384 387.989 Q284.328 389.123 286.643 389.702 Q288.958 390.281 291.481 390.281 Q295.879 390.281 298.171 388.545 Q300.486 386.809 300.486 383.498 Q300.486 380.443 298.333 378.73 Q296.203 376.994 292.384 376.994 L288.356 376.994 L288.356 373.151 L292.569 373.151 Q296.018 373.151 297.847 371.786 Q299.676 370.397 299.676 367.804 Q299.676 365.142 297.777 363.73 Q295.902 362.295 292.384 362.295 Q290.463 362.295 288.264 362.711 Q286.065 363.128 283.426 364.008 L283.426 359.841 Q286.088 359.1 288.402 358.73 Q290.74 358.36 292.801 358.36 Q298.125 358.36 301.226 360.79 Q304.328 363.198 304.328 367.318 Q304.328 370.188 302.685 372.179 Q301.041 374.147 298.009 374.91 Z" fill="#000000" fill-rule="evenodd" fill-opacity="1" /><polyline clip-path="url(#clip510)" style="stroke:#ac8d18; stroke-linecap:butt; stroke-linejoin:round; stroke-width:4; stroke-opacity:1; fill:none" points="
  91.5386,428.105 239.009,428.105 
  "/>
<path clip-path="url(#clip510)" d="M278.773 423.44 Q278.055 423.024 277.199 422.838 Q276.365 422.63 275.347 422.63 Q271.736 422.63 269.791 424.991 Q267.87 427.329 267.87 431.727 L267.87 445.385 L263.588 445.385 L263.588 419.459 L267.87 419.459 L267.87 423.487 Q269.213 421.126 271.366 419.991 Q273.518 418.834 276.597 418.834 Q277.037 418.834 277.569 418.903 Q278.102 418.95 278.75 419.065 L278.773 423.44 Z" fill="#000000" fill-rule="evenodd" fill-opacity="1" /><path clip-path="url(#clip510)" d="M296.689 414.899 L284.884 433.348 L296.689 433.348 L296.689 414.899 M295.463 410.825 L301.342 410.825 L301.342 433.348 L306.273 433.348 L306.273 437.237 L301.342 437.237 L301.342 445.385 L296.689 445.385 L296.689 437.237 L281.088 437.237 L281.088 432.723 L295.463 410.825 Z" fill="#000000" fill-rule="evenodd" fill-opacity="1" /><polyline clip-path="url(#clip510)" style="stroke:#00a9ad; stroke-linecap:butt; stroke-linejoin:round; stroke-width:4; stroke-opacity:1; fill:none" points="
  91.5386,479.945 239.009,479.945 
  "/>
<path clip-path="url(#clip510)" d="M278.773 475.28 Q278.055 474.864 277.199 474.678 Q276.365 474.47 275.347 474.47 Q271.736 474.47 269.791 476.831 Q267.87 479.169 267.87 483.567 L267.87 497.225 L263.588 497.225 L263.588 471.299 L267.87 471.299 L267.87 475.327 Q269.213 472.966 271.366 471.831 Q273.518 470.674 276.597 470.674 Q277.037 470.674 277.569 470.743 Q278.102 470.79 278.75 470.905 L278.773 475.28 Z" fill="#000000" fill-rule="evenodd" fill-opacity="1" /><path clip-path="url(#clip510)" d="M283.889 462.665 L302.245 462.665 L302.245 466.6 L288.171 466.6 L288.171 475.072 Q289.189 474.725 290.208 474.563 Q291.227 474.378 292.245 474.378 Q298.032 474.378 301.412 477.549 Q304.791 480.72 304.791 486.137 Q304.791 491.715 301.319 494.817 Q297.847 497.896 291.527 497.896 Q289.352 497.896 287.083 497.526 Q284.838 497.155 282.43 496.414 L282.43 491.715 Q284.514 492.85 286.736 493.405 Q288.958 493.961 291.435 493.961 Q295.439 493.961 297.777 491.854 Q300.115 489.748 300.115 486.137 Q300.115 482.526 297.777 480.419 Q295.439 478.313 291.435 478.313 Q289.56 478.313 287.685 478.729 Q285.833 479.146 283.889 480.026 L283.889 462.665 Z" fill="#000000" fill-rule="evenodd" fill-opacity="1" /></svg>
