<?xml version="1.0" encoding="utf-8"?>
<svg xmlns="http://www.w3.org/2000/svg" xmlns:xlink="http://www.w3.org/1999/xlink" width="600" height="400" viewBox="0 0 2400 1600">
<defs>
  <clipPath id="clip390">
    <rect x="0" y="0" width="2400" height="1600"/>
  </clipPath>
</defs>
<path clip-path="url(#clip390)" d="
M0 1600 L2400 1600 L2400 0 L0 0  Z
  " fill="#ffffff" fill-rule="evenodd" fill-opacity="1"/>
<defs>
  <clipPath id="clip391">
    <rect x="480" y="0" width="1681" height="1600"/>
  </clipPath>
</defs>
<path clip-path="url(#clip390)" d="
M556.604 1486.45 L2352.76 1486.45 L2352.76 123.472 L556.604 123.472  Z
  " fill="#ffffff" fill-rule="evenodd" fill-opacity="1"/>
<defs>
  <clipPath id="clip392">
    <rect x="556" y="123" width="1797" height="1364"/>
  </clipPath>
</defs>
<polyline clip-path="url(#clip392)" style="stroke:#000000; stroke-linecap:butt; stroke-linejoin:round; stroke-width:2; stroke-opacity:0.1; fill:none" points="
  607.438,1486.45 607.438,123.472 
  "/>
<polyline clip-path="url(#clip392)" style="stroke:#000000; stroke-linecap:butt; stroke-linejoin:round; stroke-width:2; stroke-opacity:0.1; fill:none" points="
  889.852,1486.45 889.852,123.472 
  "/>
<polyline clip-path="url(#clip392)" style="stroke:#000000; stroke-linecap:butt; stroke-linejoin:round; stroke-width:2; stroke-opacity:0.1; fill:none" points="
  1172.27,1486.45 1172.27,123.472 
  "/>
<polyline clip-path="url(#clip392)" style="stroke:#000000; stroke-linecap:butt; stroke-linejoin:round; stroke-width:2; stroke-opacity:0.1; fill:none" points="
  1454.68,1486.45 1454.68,123.472 
  "/>
<polyline clip-path="url(#clip392)" style="stroke:#000000; stroke-linecap:butt; stroke-linejoin:round; stroke-width:2; stroke-opacity:0.1; fill:none" points="
  1737.09,1486.45 1737.09,123.472 
  "/>
<polyline clip-path="url(#clip392)" style="stroke:#000000; stroke-linecap:butt; stroke-linejoin:round; stroke-width:2; stroke-opacity:0.1; fill:none" points="
  2019.51,1486.45 2019.51,123.472 
  "/>
<polyline clip-path="url(#clip392)" style="stroke:#000000; stroke-linecap:butt; stroke-linejoin:round; stroke-width:2; stroke-opacity:0.1; fill:none" points="
  2301.92,1486.45 2301.92,123.472 
  "/>
<polyline clip-path="url(#clip390)" style="stroke:#000000; stroke-linecap:butt; stroke-linejoin:round; stroke-width:4; stroke-opacity:1; fill:none" points="
  556.604,1486.45 2352.76,1486.45 
  "/>
<polyline clip-path="url(#clip390)" style="stroke:#000000; stroke-linecap:butt; stroke-linejoin:round; stroke-width:4; stroke-opacity:1; fill:none" points="
  607.438,1486.45 607.438,1467.55 
  "/>
<polyline clip-path="url(#clip390)" style="stroke:#000000; stroke-linecap:butt; stroke-linejoin:round; stroke-width:4; stroke-opacity:1; fill:none" points="
  889.852,1486.45 889.852,1467.55 
  "/>
<polyline clip-path="url(#clip390)" style="stroke:#000000; stroke-linecap:butt; stroke-linejoin:round; stroke-width:4; stroke-opacity:1; fill:none" points="
  1172.27,1486.45 1172.27,1467.55 
  "/>
<polyline clip-path="url(#clip390)" style="stroke:#000000; stroke-linecap:butt; stroke-linejoin:round; stroke-width:4; stroke-opacity:1; fill:none" points="
  1454.68,1486.45 1454.68,1467.55 
  "/>
<polyline clip-path="url(#clip390)" style="stroke:#000000; stroke-linecap:butt; stroke-linejoin:round; stroke-width:4; stroke-opacity:1; fill:none" points="
  1737.09,1486.45 1737.09,1467.55 
  "/>
<polyline clip-path="url(#clip390)" style="stroke:#000000; stroke-linecap:butt; stroke-linejoin:round; stroke-width:4; stroke-opacity:1; fill:none" points="
  2019.51,1486.45 2019.51,1467.55 
  "/>
<polyline clip-path="url(#clip390)" style="stroke:#000000; stroke-linecap:butt; stroke-linejoin:round; stroke-width:4; stroke-opacity:1; fill:none" points="
  2301.92,1486.45 2301.92,1467.55 
  "/>
<path clip-path="url(#clip390)" d="M607.438 1517.37 Q603.827 1517.37 601.998 1520.93 Q600.193 1524.47 600.193 1531.6 Q600.193 1538.71 601.998 1542.27 Q603.827 1545.82 607.438 1545.82 Q611.072 1545.82 612.878 1542.27 Q614.707 1538.71 614.707 1531.6 Q614.707 1524.47 612.878 1520.93 Q611.072 1517.37 607.438 1517.37 M607.438 1513.66 Q613.248 1513.66 616.304 1518.27 Q619.383 1522.85 619.383 1531.6 Q619.383 1540.33 616.304 1544.94 Q613.248 1549.52 607.438 1549.52 Q601.628 1549.52 598.549 1544.94 Q595.494 1540.33 595.494 1531.6 Q595.494 1522.85 598.549 1518.27 Q601.628 1513.66 607.438 1513.66 Z" fill="#000000" fill-rule="evenodd" fill-opacity="1" /><path clip-path="url(#clip390)" d="M880.234 1544.91 L887.873 1544.91 L887.873 1518.55 L879.563 1520.21 L879.563 1515.95 L887.827 1514.29 L892.503 1514.29 L892.503 1544.91 L900.141 1544.91 L900.141 1548.85 L880.234 1548.85 L880.234 1544.91 Z" fill="#000000" fill-rule="evenodd" fill-opacity="1" /><path clip-path="url(#clip390)" d="M1166.92 1544.91 L1183.24 1544.91 L1183.24 1548.85 L1161.29 1548.85 L1161.29 1544.91 Q1163.96 1542.16 1168.54 1537.53 Q1173.15 1532.88 1174.33 1531.53 Q1176.57 1529.01 1177.45 1527.27 Q1178.35 1525.51 1178.35 1523.82 Q1178.35 1521.07 1176.41 1519.33 Q1174.49 1517.6 1171.39 1517.6 Q1169.19 1517.6 1166.73 1518.36 Q1164.3 1519.13 1161.53 1520.68 L1161.53 1515.95 Q1164.35 1514.82 1166.8 1514.24 Q1169.26 1513.66 1171.29 1513.66 Q1176.66 1513.66 1179.86 1516.35 Q1183.05 1519.03 1183.05 1523.52 Q1183.05 1525.65 1182.24 1527.57 Q1181.46 1529.47 1179.35 1532.07 Q1178.77 1532.74 1175.67 1535.95 Q1172.57 1539.15 1166.92 1544.91 Z" fill="#000000" fill-rule="evenodd" fill-opacity="1" /><path clip-path="url(#clip390)" d="M1458.93 1530.21 Q1462.28 1530.93 1464.16 1533.2 Q1466.06 1535.47 1466.06 1538.8 Q1466.06 1543.92 1462.54 1546.72 Q1459.02 1549.52 1452.54 1549.52 Q1450.36 1549.52 1448.05 1549.08 Q1445.76 1548.66 1443.3 1547.81 L1443.3 1543.29 Q1445.25 1544.43 1447.56 1545.01 Q1449.88 1545.58 1452.4 1545.58 Q1456.8 1545.58 1459.09 1543.85 Q1461.4 1542.11 1461.4 1538.8 Q1461.4 1535.75 1459.25 1534.03 Q1457.12 1532.3 1453.3 1532.3 L1449.27 1532.3 L1449.27 1528.45 L1453.49 1528.45 Q1456.94 1528.45 1458.77 1527.09 Q1460.59 1525.7 1460.59 1523.11 Q1460.59 1520.45 1458.7 1519.03 Q1456.82 1517.6 1453.3 1517.6 Q1451.38 1517.6 1449.18 1518.01 Q1446.98 1518.43 1444.34 1519.31 L1444.34 1515.14 Q1447.01 1514.4 1449.32 1514.03 Q1451.66 1513.66 1453.72 1513.66 Q1459.04 1513.66 1462.15 1516.09 Q1465.25 1518.5 1465.25 1522.62 Q1465.25 1525.49 1463.6 1527.48 Q1461.96 1529.45 1458.93 1530.21 Z" fill="#000000" fill-rule="evenodd" fill-opacity="1" /><path clip-path="url(#clip390)" d="M1740.1 1518.36 L1728.3 1536.81 L1740.1 1536.81 L1740.1 1518.36 M1738.88 1514.29 L1744.76 1514.29 L1744.76 1536.81 L1749.69 1536.81 L1749.69 1540.7 L1744.76 1540.7 L1744.76 1548.85 L1740.1 1548.85 L1740.1 1540.7 L1724.5 1540.7 L1724.5 1536.19 L1738.88 1514.29 Z" fill="#000000" fill-rule="evenodd" fill-opacity="1" /><path clip-path="url(#clip390)" d="M2009.79 1514.29 L2028.14 1514.29 L2028.14 1518.22 L2014.07 1518.22 L2014.07 1526.7 Q2015.09 1526.35 2016.1 1526.19 Q2017.12 1526 2018.14 1526 Q2023.93 1526 2027.31 1529.17 Q2030.69 1532.34 2030.69 1537.76 Q2030.69 1543.34 2027.22 1546.44 Q2023.74 1549.52 2017.42 1549.52 Q2015.25 1549.52 2012.98 1549.15 Q2010.73 1548.78 2008.33 1548.04 L2008.33 1543.34 Q2010.41 1544.47 2012.63 1545.03 Q2014.85 1545.58 2017.33 1545.58 Q2021.34 1545.58 2023.67 1543.48 Q2026.01 1541.37 2026.01 1537.76 Q2026.01 1534.15 2023.67 1532.04 Q2021.34 1529.94 2017.33 1529.94 Q2015.46 1529.94 2013.58 1530.35 Q2011.73 1530.77 2009.79 1531.65 L2009.79 1514.29 Z" fill="#000000" fill-rule="evenodd" fill-opacity="1" /><path clip-path="url(#clip390)" d="M2302.33 1529.7 Q2299.18 1529.7 2297.33 1531.86 Q2295.5 1534.01 2295.5 1537.76 Q2295.5 1541.49 2297.33 1543.66 Q2299.18 1545.82 2302.33 1545.82 Q2305.47 1545.82 2307.3 1543.66 Q2309.16 1541.49 2309.16 1537.76 Q2309.16 1534.01 2307.3 1531.86 Q2305.47 1529.7 2302.33 1529.7 M2311.61 1515.05 L2311.61 1519.31 Q2309.85 1518.48 2308.04 1518.04 Q2306.26 1517.6 2304.5 1517.6 Q2299.87 1517.6 2297.42 1520.72 Q2294.99 1523.85 2294.64 1530.17 Q2296.01 1528.15 2298.07 1527.09 Q2300.13 1526 2302.6 1526 Q2307.81 1526 2310.82 1529.17 Q2313.85 1532.32 2313.85 1537.76 Q2313.85 1543.08 2310.71 1546.3 Q2307.56 1549.52 2302.33 1549.52 Q2296.33 1549.52 2293.16 1544.94 Q2289.99 1540.33 2289.99 1531.6 Q2289.99 1523.41 2293.88 1518.55 Q2297.77 1513.66 2304.32 1513.66 Q2306.08 1513.66 2307.86 1514.01 Q2309.66 1514.36 2311.61 1515.05 Z" fill="#000000" fill-rule="evenodd" fill-opacity="1" /><polyline clip-path="url(#clip392)" style="stroke:#000000; stroke-linecap:butt; stroke-linejoin:round; stroke-width:2; stroke-opacity:0.1; fill:none" points="
  556.604,1359.4 2352.76,1359.4 
  "/>
<polyline clip-path="url(#clip392)" style="stroke:#000000; stroke-linecap:butt; stroke-linejoin:round; stroke-width:2; stroke-opacity:0.1; fill:none" points="
  556.604,1078.81 2352.76,1078.81 
  "/>
<polyline clip-path="url(#clip392)" style="stroke:#000000; stroke-linecap:butt; stroke-linejoin:round; stroke-width:2; stroke-opacity:0.1; fill:none" points="
  556.604,798.226 2352.76,798.226 
  "/>
<polyline clip-path="url(#clip392)" style="stroke:#000000; stroke-linecap:butt; stroke-linejoin:round; stroke-width:2; stroke-opacity:0.1; fill:none" points="
  556.604,517.64 2352.76,517.64 
  "/>
<polyline clip-path="url(#clip392)" style="stroke:#000000; stroke-linecap:butt; stroke-linejoin:round; stroke-width:2; stroke-opacity:0.1; fill:none" points="
  556.604,237.053 2352.76,237.053 
  "/>
<polyline clip-path="url(#clip390)" style="stroke:#000000; stroke-linecap:butt; stroke-linejoin:round; stroke-width:4; stroke-opacity:1; fill:none" points="
  556.604,1486.45 556.604,123.472 
  "/>
<polyline clip-path="url(#clip390)" style="stroke:#000000; stroke-linecap:butt; stroke-linejoin:round; stroke-width:4; stroke-opacity:1; fill:none" points="
  556.604,1359.4 571.948,1359.4 
  "/>
<polyline clip-path="url(#clip390)" style="stroke:#000000; stroke-linecap:butt; stroke-linejoin:round; stroke-width:4; stroke-opacity:1; fill:none" points="
  556.604,1078.81 571.948,1078.81 
  "/>
<polyline clip-path="url(#clip390)" style="stroke:#000000; stroke-linecap:butt; stroke-linejoin:round; stroke-width:4; stroke-opacity:1; fill:none" points="
  556.604,798.226 571.948,798.226 
  "/>
<polyline clip-path="url(#clip390)" style="stroke:#000000; stroke-linecap:butt; stroke-linejoin:round; stroke-width:4; stroke-opacity:1; fill:none" points="
  556.604,517.64 571.948,517.64 
  "/>
<polyline clip-path="url(#clip390)" style="stroke:#000000; stroke-linecap:butt; stroke-linejoin:round; stroke-width:4; stroke-opacity:1; fill:none" points="
  556.604,237.053 571.948,237.053 
  "/>
<path clip-path="url(#clip390)" d="M508.659 1345.2 Q505.048 1345.2 503.22 1348.76 Q501.414 1352.3 501.414 1359.43 Q501.414 1366.54 503.22 1370.1 Q505.048 1373.65 508.659 1373.65 Q512.294 1373.65 514.099 1370.1 Q515.928 1366.54 515.928 1359.43 Q515.928 1352.3 514.099 1348.76 Q512.294 1345.2 508.659 1345.2 M508.659 1341.49 Q514.47 1341.49 517.525 1346.1 Q520.604 1350.68 520.604 1359.43 Q520.604 1368.16 517.525 1372.77 Q514.47 1377.35 508.659 1377.35 Q502.849 1377.35 499.771 1372.77 Q496.715 1368.16 496.715 1359.43 Q496.715 1350.68 499.771 1346.1 Q502.849 1341.49 508.659 1341.49 Z" fill="#000000" fill-rule="evenodd" fill-opacity="1" /><path clip-path="url(#clip390)" d="M499.701 1061.53 L518.057 1061.53 L518.057 1065.47 L503.983 1065.47 L503.983 1073.94 Q505.002 1073.59 506.02 1073.43 Q507.039 1073.25 508.058 1073.25 Q513.845 1073.25 517.224 1076.42 Q520.604 1079.59 520.604 1085 Q520.604 1090.58 517.132 1093.68 Q513.659 1096.76 507.34 1096.76 Q505.164 1096.76 502.896 1096.39 Q500.65 1096.02 498.243 1095.28 L498.243 1090.58 Q500.326 1091.72 502.548 1092.27 Q504.77 1092.83 507.247 1092.83 Q511.252 1092.83 513.59 1090.72 Q515.928 1088.62 515.928 1085 Q515.928 1081.39 513.59 1079.29 Q511.252 1077.18 507.247 1077.18 Q505.372 1077.18 503.497 1077.6 Q501.646 1078.01 499.701 1078.89 L499.701 1061.53 Z" fill="#000000" fill-rule="evenodd" fill-opacity="1" /><path clip-path="url(#clip390)" d="M469.308 811.571 L476.947 811.571 L476.947 785.205 L468.636 786.872 L468.636 782.613 L476.9 780.946 L481.576 780.946 L481.576 811.571 L489.215 811.571 L489.215 815.506 L469.308 815.506 L469.308 811.571 Z" fill="#000000" fill-rule="evenodd" fill-opacity="1" /><path clip-path="url(#clip390)" d="M508.659 784.025 Q505.048 784.025 503.22 787.589 Q501.414 791.131 501.414 798.261 Q501.414 805.367 503.22 808.932 Q505.048 812.474 508.659 812.474 Q512.294 812.474 514.099 808.932 Q515.928 805.367 515.928 798.261 Q515.928 791.131 514.099 787.589 Q512.294 784.025 508.659 784.025 M508.659 780.321 Q514.47 780.321 517.525 784.927 Q520.604 789.511 520.604 798.261 Q520.604 806.987 517.525 811.594 Q514.47 816.177 508.659 816.177 Q502.849 816.177 499.771 811.594 Q496.715 806.987 496.715 798.261 Q496.715 789.511 499.771 784.927 Q502.849 780.321 508.659 780.321 Z" fill="#000000" fill-rule="evenodd" fill-opacity="1" /><path clip-path="url(#clip390)" d="M470.303 530.985 L477.942 530.985 L477.942 504.619 L469.632 506.286 L469.632 502.026 L477.896 500.36 L482.572 500.36 L482.572 530.985 L490.21 530.985 L490.21 534.92 L470.303 534.92 L470.303 530.985 Z" fill="#000000" fill-rule="evenodd" fill-opacity="1" /><path clip-path="url(#clip390)" d="M499.701 500.36 L518.057 500.36 L518.057 504.295 L503.983 504.295 L503.983 512.767 Q505.002 512.42 506.02 512.258 Q507.039 512.073 508.058 512.073 Q513.845 512.073 517.224 515.244 Q520.604 518.415 520.604 523.832 Q520.604 529.41 517.132 532.512 Q513.659 535.591 507.34 535.591 Q505.164 535.591 502.896 535.221 Q500.65 534.85 498.243 534.11 L498.243 529.41 Q500.326 530.545 502.548 531.1 Q504.77 531.656 507.247 531.656 Q511.252 531.656 513.59 529.549 Q515.928 527.443 515.928 523.832 Q515.928 520.221 513.59 518.114 Q511.252 516.008 507.247 516.008 Q505.372 516.008 503.497 516.424 Q501.646 516.841 499.701 517.721 L499.701 500.36 Z" fill="#000000" fill-rule="evenodd" fill-opacity="1" /><path clip-path="url(#clip390)" d="M472.525 250.398 L488.845 250.398 L488.845 254.333 L466.9 254.333 L466.9 250.398 Q469.562 247.644 474.146 243.014 Q478.752 238.361 479.933 237.019 Q482.178 234.496 483.058 232.759 Q483.96 231 483.96 229.31 Q483.96 226.556 482.016 224.82 Q480.095 223.084 476.993 223.084 Q474.794 223.084 472.34 223.847 Q469.91 224.611 467.132 226.162 L467.132 221.44 Q469.956 220.306 472.41 219.727 Q474.863 219.148 476.9 219.148 Q482.271 219.148 485.465 221.834 Q488.659 224.519 488.659 229.009 Q488.659 231.139 487.849 233.06 Q487.062 234.959 484.956 237.551 Q484.377 238.222 481.275 241.44 Q478.173 244.634 472.525 250.398 Z" fill="#000000" fill-rule="evenodd" fill-opacity="1" /><path clip-path="url(#clip390)" d="M508.659 222.852 Q505.048 222.852 503.22 226.417 Q501.414 229.959 501.414 237.088 Q501.414 244.195 503.22 247.759 Q505.048 251.301 508.659 251.301 Q512.294 251.301 514.099 247.759 Q515.928 244.195 515.928 237.088 Q515.928 229.959 514.099 226.417 Q512.294 222.852 508.659 222.852 M508.659 219.148 Q514.47 219.148 517.525 223.755 Q520.604 228.338 520.604 237.088 Q520.604 245.815 517.525 250.421 Q514.47 255.005 508.659 255.005 Q502.849 255.005 499.771 250.421 Q496.715 245.815 496.715 237.088 Q496.715 228.338 499.771 223.755 Q502.849 219.148 508.659 219.148 Z" fill="#000000" fill-rule="evenodd" fill-opacity="1" /><path clip-path="url(#clip390)" d="M810.606 12.096 L848.847 12.096 L848.847 18.9825 L818.789 18.9825 L818.789 36.8875 L847.591 36.8875 L847.591 43.7741 L818.789 43.7741 L818.789 65.6895 L849.576 65.6895 L849.576 72.576 L810.606 72.576 L810.606 12.096 Z" fill="#000000" fill-rule="evenodd" fill-opacity="1" /><path clip-path="url(#clip390)" d="M888.991 34.1734 Q887.736 33.4443 886.237 33.1202 Q884.778 32.7556 882.996 32.7556 Q876.677 32.7556 873.274 36.8875 Q869.912 40.9789 869.912 48.6757 L869.912 72.576 L862.417 72.576 L862.417 27.2059 L869.912 27.2059 L869.912 34.2544 Q872.261 30.1225 876.028 28.1376 Q879.796 26.1121 885.183 26.1121 Q885.953 26.1121 886.885 26.2337 Q887.817 26.3147 888.951 26.5172 L888.991 34.1734 Z" fill="#000000" fill-rule="evenodd" fill-opacity="1" /><path clip-path="url(#clip390)" d="M921.642 34.1734 Q920.386 33.4443 918.887 33.1202 Q917.429 32.7556 915.646 32.7556 Q909.327 32.7556 905.924 36.8875 Q902.562 40.9789 902.562 48.6757 L902.562 72.576 L895.068 72.576 L895.068 27.2059 L902.562 27.2059 L902.562 34.2544 Q904.911 30.1225 908.679 28.1376 Q912.446 26.1121 917.834 26.1121 Q918.603 26.1121 919.535 26.2337 Q920.467 26.3147 921.601 26.5172 L921.642 34.1734 Z" fill="#000000" fill-rule="evenodd" fill-opacity="1" /><path clip-path="url(#clip390)" d="M945.218 32.4315 Q939.223 32.4315 935.739 37.1306 Q932.255 41.7891 932.255 49.9314 Q932.255 58.0738 935.698 62.7728 Q939.182 67.4314 945.218 67.4314 Q951.173 67.4314 954.656 62.7323 Q958.14 58.0333 958.14 49.9314 Q958.14 41.8701 954.656 37.1711 Q951.173 32.4315 945.218 32.4315 M945.218 26.1121 Q954.94 26.1121 960.49 32.4315 Q966.04 38.7509 966.04 49.9314 Q966.04 61.0714 960.49 67.4314 Q954.94 73.7508 945.218 73.7508 Q935.455 73.7508 929.905 67.4314 Q924.396 61.0714 924.396 49.9314 Q924.396 38.7509 929.905 32.4315 Q935.455 26.1121 945.218 26.1121 Z" fill="#000000" fill-rule="evenodd" fill-opacity="1" /><path clip-path="url(#clip390)" d="M1004.69 34.1734 Q1003.43 33.4443 1001.93 33.1202 Q1000.47 32.7556 998.69 32.7556 Q992.37 32.7556 988.968 36.8875 Q985.605 40.9789 985.605 48.6757 L985.605 72.576 L978.111 72.576 L978.111 27.2059 L985.605 27.2059 L985.605 34.2544 Q987.955 30.1225 991.722 28.1376 Q995.49 26.1121 1000.88 26.1121 Q1001.65 26.1121 1002.58 26.2337 Q1003.51 26.3147 1004.64 26.5172 L1004.69 34.1734 Z" fill="#000000" fill-rule="evenodd" fill-opacity="1" /><path clip-path="url(#clip390)" d="M1039.85 34.9026 L1091.78 34.9026 L1091.78 41.7081 L1039.85 41.7081 L1039.85 34.9026 M1039.85 51.4303 L1091.78 51.4303 L1091.78 58.3168 L1039.85 58.3168 L1039.85 51.4303 Z" fill="#000000" fill-rule="evenodd" fill-opacity="1" /><path clip-path="url(#clip390)" d="M1153.31 17.4837 Q1146.99 17.4837 1143.79 23.7221 Q1140.63 29.92 1140.63 42.3968 Q1140.63 54.833 1143.79 61.0714 Q1146.99 67.2693 1153.31 67.2693 Q1159.67 67.2693 1162.83 61.0714 Q1166.03 54.833 1166.03 42.3968 Q1166.03 29.92 1162.83 23.7221 Q1159.67 17.4837 1153.31 17.4837 M1153.31 11.0023 Q1163.48 11.0023 1168.83 19.0636 Q1174.22 27.0843 1174.22 42.3968 Q1174.22 57.6687 1168.83 65.73 Q1163.48 73.7508 1153.31 73.7508 Q1143.15 73.7508 1137.76 65.73 Q1132.41 57.6687 1132.41 42.3968 Q1132.41 27.0843 1137.76 19.0636 Q1143.15 11.0023 1153.31 11.0023 Z" fill="#000000" fill-rule="evenodd" fill-opacity="1" /><path clip-path="url(#clip390)" d="M1188.6 62.2867 L1197.14 62.2867 L1197.14 72.576 L1188.6 72.576 L1188.6 62.2867 Z" fill="#000000" fill-rule="evenodd" fill-opacity="1" /><path clip-path="url(#clip390)" d="M1232.47 17.4837 Q1226.15 17.4837 1222.95 23.7221 Q1219.79 29.92 1219.79 42.3968 Q1219.79 54.833 1222.95 61.0714 Q1226.15 67.2693 1232.47 67.2693 Q1238.83 67.2693 1241.99 61.0714 Q1245.19 54.833 1245.19 42.3968 Q1245.19 29.92 1241.99 23.7221 Q1238.83 17.4837 1232.47 17.4837 M1232.47 11.0023 Q1242.64 11.0023 1247.98 19.0636 Q1253.37 27.0843 1253.37 42.3968 Q1253.37 57.6687 1247.98 65.73 Q1242.64 73.7508 1232.47 73.7508 Q1222.3 73.7508 1216.91 65.73 Q1211.56 57.6687 1211.56 42.3968 Q1211.56 27.0843 1216.91 19.0636 Q1222.3 11.0023 1232.47 11.0023 Z" fill="#000000" fill-rule="evenodd" fill-opacity="1" /><path clip-path="url(#clip390)" d="M1292.54 39.9662 Q1298.42 41.222 1301.7 45.1919 Q1305.02 49.1618 1305.02 54.9951 Q1305.02 63.9476 1298.86 68.8492 Q1292.7 73.7508 1281.36 73.7508 Q1277.55 73.7508 1273.5 72.9811 Q1269.49 72.2519 1265.2 70.7531 L1265.2 62.8538 Q1268.6 64.8388 1272.65 65.8515 Q1276.7 66.8642 1281.12 66.8642 Q1288.82 66.8642 1292.83 63.826 Q1296.88 60.7879 1296.88 54.9951 Q1296.88 49.6479 1293.11 46.6502 Q1289.38 43.612 1282.7 43.612 L1275.65 43.612 L1275.65 36.8875 L1283.02 36.8875 Q1289.06 36.8875 1292.26 34.4975 Q1295.46 32.067 1295.46 27.5299 Q1295.46 22.8714 1292.14 20.4004 Q1288.86 17.8888 1282.7 17.8888 Q1279.34 17.8888 1275.49 18.618 Q1271.64 19.3471 1267.02 20.8865 L1267.02 13.5948 Q1271.68 12.2985 1275.73 11.6504 Q1279.82 11.0023 1283.43 11.0023 Q1292.74 11.0023 1298.17 15.2557 Q1303.6 19.4686 1303.6 26.6793 Q1303.6 31.7024 1300.73 35.1862 Q1297.85 38.6294 1292.54 39.9662 Z" fill="#000000" fill-rule="evenodd" fill-opacity="1" /><path clip-path="url(#clip390)" d="M1345.33 39.9662 Q1351.2 41.222 1354.48 45.1919 Q1357.8 49.1618 1357.8 54.9951 Q1357.8 63.9476 1351.65 68.8492 Q1345.49 73.7508 1334.15 73.7508 Q1330.34 73.7508 1326.29 72.9811 Q1322.28 72.2519 1317.98 70.7531 L1317.98 62.8538 Q1321.38 64.8388 1325.44 65.8515 Q1329.49 66.8642 1333.9 66.8642 Q1341.6 66.8642 1345.61 63.826 Q1349.66 60.7879 1349.66 54.9951 Q1349.66 49.6479 1345.89 46.6502 Q1342.17 43.612 1335.48 43.612 L1328.43 43.612 L1328.43 36.8875 L1335.81 36.8875 Q1341.84 36.8875 1345.04 34.4975 Q1348.24 32.067 1348.24 27.5299 Q1348.24 22.8714 1344.92 20.4004 Q1341.64 17.8888 1335.48 17.8888 Q1332.12 17.8888 1328.27 18.618 Q1324.42 19.3471 1319.8 20.8865 L1319.8 13.5948 Q1324.46 12.2985 1328.51 11.6504 Q1332.61 11.0023 1336.21 11.0023 Q1345.53 11.0023 1350.96 15.2557 Q1356.38 19.4686 1356.38 26.6793 Q1356.38 31.7024 1353.51 35.1862 Q1350.63 38.6294 1345.33 39.9662 Z" fill="#000000" fill-rule="evenodd" fill-opacity="1" /><path clip-path="url(#clip390)" d="M1390.82 17.4837 Q1384.5 17.4837 1381.3 23.7221 Q1378.14 29.92 1378.14 42.3968 Q1378.14 54.833 1381.3 61.0714 Q1384.5 67.2693 1390.82 67.2693 Q1397.18 67.2693 1400.34 61.0714 Q1403.54 54.833 1403.54 42.3968 Q1403.54 29.92 1400.34 23.7221 Q1397.18 17.4837 1390.82 17.4837 M1390.82 11.0023 Q1400.99 11.0023 1406.33 19.0636 Q1411.72 27.0843 1411.72 42.3968 Q1411.72 57.6687 1406.33 65.73 Q1400.99 73.7508 1390.82 73.7508 Q1380.65 73.7508 1375.26 65.73 Q1369.91 57.6687 1369.91 42.3968 Q1369.91 27.0843 1375.26 19.0636 Q1380.65 11.0023 1390.82 11.0023 Z" fill="#000000" fill-rule="evenodd" fill-opacity="1" /><path clip-path="url(#clip390)" d="M1448.58 19.2256 L1427.92 51.5113 L1448.58 51.5113 L1448.58 19.2256 M1446.44 12.096 L1456.73 12.096 L1456.73 51.5113 L1465.35 51.5113 L1465.35 58.3168 L1456.73 58.3168 L1456.73 72.576 L1448.58 72.576 L1448.58 58.3168 L1421.28 58.3168 L1421.28 50.4176 L1446.44 12.096 Z" fill="#000000" fill-rule="evenodd" fill-opacity="1" /><path clip-path="url(#clip390)" d="M1496.38 43.8551 Q1490.55 43.8551 1487.19 46.9743 Q1483.87 50.0935 1483.87 55.5622 Q1483.87 61.0309 1487.19 64.1501 Q1490.55 67.2693 1496.38 67.2693 Q1502.22 67.2693 1505.58 64.1501 Q1508.94 60.9904 1508.94 55.5622 Q1508.94 50.0935 1505.58 46.9743 Q1502.26 43.8551 1496.38 43.8551 M1488.2 40.3713 Q1482.93 39.075 1479.98 35.4697 Q1477.06 31.8644 1477.06 26.6793 Q1477.06 19.4281 1482.21 15.2152 Q1487.39 11.0023 1496.38 11.0023 Q1505.42 11.0023 1510.56 15.2152 Q1515.71 19.4281 1515.71 26.6793 Q1515.71 31.8644 1512.75 35.4697 Q1509.83 39.075 1504.61 40.3713 Q1510.52 41.7486 1513.8 45.759 Q1517.12 49.7694 1517.12 55.5622 Q1517.12 64.3527 1511.74 69.0517 Q1506.39 73.7508 1496.38 73.7508 Q1486.38 73.7508 1480.99 69.0517 Q1475.64 64.3527 1475.64 55.5622 Q1475.64 49.7694 1478.96 45.759 Q1482.29 41.7486 1488.2 40.3713 M1485.2 27.4489 Q1485.2 32.148 1488.12 34.7811 Q1491.08 37.4142 1496.38 37.4142 Q1501.65 37.4142 1504.61 34.7811 Q1507.6 32.148 1507.6 27.4489 Q1507.6 22.7499 1504.61 20.1168 Q1501.65 17.4837 1496.38 17.4837 Q1491.08 17.4837 1488.12 20.1168 Q1485.2 22.7499 1485.2 27.4489 Z" fill="#000000" fill-rule="evenodd" fill-opacity="1" /><path clip-path="url(#clip390)" d="M1556.46 39.9662 Q1562.33 41.222 1565.61 45.1919 Q1568.94 49.1618 1568.94 54.9951 Q1568.94 63.9476 1562.78 68.8492 Q1556.62 73.7508 1545.28 73.7508 Q1541.47 73.7508 1537.42 72.9811 Q1533.41 72.2519 1529.12 70.7531 L1529.12 62.8538 Q1532.52 64.8388 1536.57 65.8515 Q1540.62 66.8642 1545.04 66.8642 Q1552.73 66.8642 1556.74 63.826 Q1560.79 60.7879 1560.79 54.9951 Q1560.79 49.6479 1557.03 46.6502 Q1553.3 43.612 1546.62 43.612 L1539.57 43.612 L1539.57 36.8875 L1546.94 36.8875 Q1552.98 36.8875 1556.18 34.4975 Q1559.38 32.067 1559.38 27.5299 Q1559.38 22.8714 1556.05 20.4004 Q1552.77 17.8888 1546.62 17.8888 Q1543.25 17.8888 1539.4 18.618 Q1535.56 19.3471 1530.94 20.8865 L1530.94 13.5948 Q1535.6 12.2985 1539.65 11.6504 Q1543.74 11.0023 1547.34 11.0023 Q1556.66 11.0023 1562.09 15.2557 Q1567.52 19.4686 1567.52 26.6793 Q1567.52 31.7024 1564.64 35.1862 Q1561.77 38.6294 1556.46 39.9662 Z" fill="#000000" fill-rule="evenodd" fill-opacity="1" /><path clip-path="url(#clip390)" d="M1601.95 43.8551 Q1596.12 43.8551 1592.75 46.9743 Q1589.43 50.0935 1589.43 55.5622 Q1589.43 61.0309 1592.75 64.1501 Q1596.12 67.2693 1601.95 67.2693 Q1607.78 67.2693 1611.15 64.1501 Q1614.51 60.9904 1614.51 55.5622 Q1614.51 50.0935 1611.15 46.9743 Q1607.82 43.8551 1601.95 43.8551 M1593.77 40.3713 Q1588.5 39.075 1585.54 35.4697 Q1582.63 31.8644 1582.63 26.6793 Q1582.63 19.4281 1587.77 15.2152 Q1592.96 11.0023 1601.95 11.0023 Q1610.98 11.0023 1616.13 15.2152 Q1621.27 19.4281 1621.27 26.6793 Q1621.27 31.8644 1618.32 35.4697 Q1615.4 39.075 1610.17 40.3713 Q1616.09 41.7486 1619.37 45.759 Q1622.69 49.7694 1622.69 55.5622 Q1622.69 64.3527 1617.3 69.0517 Q1611.96 73.7508 1601.95 73.7508 Q1591.94 73.7508 1586.56 69.0517 Q1581.21 64.3527 1581.21 55.5622 Q1581.21 49.7694 1584.53 45.759 Q1587.85 41.7486 1593.77 40.3713 M1590.77 27.4489 Q1590.77 32.148 1593.69 34.7811 Q1596.64 37.4142 1601.95 37.4142 Q1607.22 37.4142 1610.17 34.7811 Q1613.17 32.148 1613.17 27.4489 Q1613.17 22.7499 1610.17 20.1168 Q1607.22 17.4837 1601.95 17.4837 Q1596.64 17.4837 1593.69 20.1168 Q1590.77 22.7499 1590.77 27.4489 Z" fill="#000000" fill-rule="evenodd" fill-opacity="1" /><path clip-path="url(#clip390)" d="M1662.03 39.9662 Q1667.9 41.222 1671.18 45.1919 Q1674.5 49.1618 1674.5 54.9951 Q1674.5 63.9476 1668.34 68.8492 Q1662.19 73.7508 1650.84 73.7508 Q1647.04 73.7508 1642.99 72.9811 Q1638.98 72.2519 1634.68 70.7531 L1634.68 62.8538 Q1638.08 64.8388 1642.14 65.8515 Q1646.19 66.8642 1650.6 66.8642 Q1658.3 66.8642 1662.31 63.826 Q1666.36 60.7879 1666.36 54.9951 Q1666.36 49.6479 1662.59 46.6502 Q1658.87 43.612 1652.18 43.612 L1645.13 43.612 L1645.13 36.8875 L1652.51 36.8875 Q1658.54 36.8875 1661.74 34.4975 Q1664.94 32.067 1664.94 27.5299 Q1664.94 22.8714 1661.62 20.4004 Q1658.34 17.8888 1652.18 17.8888 Q1648.82 17.8888 1644.97 18.618 Q1641.12 19.3471 1636.5 20.8865 L1636.5 13.5948 Q1641.16 12.2985 1645.21 11.6504 Q1649.31 11.0023 1652.91 11.0023 Q1662.23 11.0023 1667.66 15.2557 Q1673.08 19.4686 1673.08 26.6793 Q1673.08 31.7024 1670.21 35.1862 Q1667.33 38.6294 1662.03 39.9662 Z" fill="#000000" fill-rule="evenodd" fill-opacity="1" /><path clip-path="url(#clip390)" d="M1691.43 65.6895 L1704.8 65.6895 L1704.8 19.5497 L1690.26 22.4663 L1690.26 15.0127 L1704.72 12.096 L1712.9 12.096 L1712.9 65.6895 L1726.27 65.6895 L1726.27 72.576 L1691.43 72.576 L1691.43 65.6895 Z" fill="#000000" fill-rule="evenodd" fill-opacity="1" /><path clip-path="url(#clip390)" d="M1761.31 39.075 Q1755.8 39.075 1752.56 42.8424 Q1749.36 46.6097 1749.36 53.1722 Q1749.36 59.6941 1752.56 63.502 Q1755.8 67.2693 1761.31 67.2693 Q1766.82 67.2693 1770.02 63.502 Q1773.26 59.6941 1773.26 53.1722 Q1773.26 46.6097 1770.02 42.8424 Q1766.82 39.075 1761.31 39.075 M1777.56 13.4328 L1777.56 20.8865 Q1774.48 19.4281 1771.32 18.6585 Q1768.2 17.8888 1765.12 17.8888 Q1757.02 17.8888 1752.73 23.3575 Q1748.47 28.8262 1747.86 39.8852 Q1750.25 36.3609 1753.86 34.4975 Q1757.46 32.5936 1761.8 32.5936 Q1770.91 32.5936 1776.18 38.1433 Q1781.49 43.6525 1781.49 53.1722 Q1781.49 62.4892 1775.98 68.12 Q1770.47 73.7508 1761.31 73.7508 Q1750.82 73.7508 1745.27 65.73 Q1739.72 57.6687 1739.72 42.3968 Q1739.72 28.0566 1746.53 19.5497 Q1753.33 11.0023 1764.8 11.0023 Q1767.88 11.0023 1770.99 11.6099 Q1774.15 12.2175 1777.56 13.4328 Z" fill="#000000" fill-rule="evenodd" fill-opacity="1" /><path clip-path="url(#clip390)" d="M1813.08 17.4837 Q1806.76 17.4837 1803.56 23.7221 Q1800.4 29.92 1800.4 42.3968 Q1800.4 54.833 1803.56 61.0714 Q1806.76 67.2693 1813.08 67.2693 Q1819.44 67.2693 1822.6 61.0714 Q1825.8 54.833 1825.8 42.3968 Q1825.8 29.92 1822.6 23.7221 Q1819.44 17.4837 1813.08 17.4837 M1813.08 11.0023 Q1823.25 11.0023 1828.6 19.0636 Q1833.99 27.0843 1833.99 42.3968 Q1833.99 57.6687 1828.6 65.73 Q1823.25 73.7508 1813.08 73.7508 Q1802.92 73.7508 1797.53 65.73 Q1792.18 57.6687 1792.18 42.3968 Q1792.18 27.0843 1797.53 19.0636 Q1802.92 11.0023 1813.08 11.0023 Z" fill="#000000" fill-rule="evenodd" fill-opacity="1" /><path clip-path="url(#clip390)" d="M1848.61 71.3202 L1848.61 63.8666 Q1851.69 65.3249 1854.85 66.0946 Q1858.01 66.8642 1861.05 66.8642 Q1869.15 66.8642 1873.4 61.436 Q1877.7 55.9673 1878.3 44.8678 Q1875.95 48.3516 1872.35 50.215 Q1868.74 52.0784 1864.37 52.0784 Q1855.29 52.0784 1849.99 46.6097 Q1844.72 41.1005 1844.72 31.5808 Q1844.72 22.2638 1850.23 16.633 Q1855.74 11.0023 1864.89 11.0023 Q1875.39 11.0023 1880.9 19.0636 Q1886.45 27.0843 1886.45 42.3968 Q1886.45 56.6965 1879.64 65.2439 Q1872.87 73.7508 1861.41 73.7508 Q1858.33 73.7508 1855.17 73.1431 Q1852.01 72.5355 1848.61 71.3202 M1864.89 45.678 Q1870.4 45.678 1873.6 41.9107 Q1876.84 38.1433 1876.84 31.5808 Q1876.84 25.0589 1873.6 21.2916 Q1870.4 17.4837 1864.89 17.4837 Q1859.39 17.4837 1856.14 21.2916 Q1852.94 25.0589 1852.94 31.5808 Q1852.94 38.1433 1856.14 41.9107 Q1859.39 45.678 1864.89 45.678 Z" fill="#000000" fill-rule="evenodd" fill-opacity="1" /><path clip-path="url(#clip390)" d="M1925.94 39.9662 Q1931.82 41.222 1935.1 45.1919 Q1938.42 49.1618 1938.42 54.9951 Q1938.42 63.9476 1932.26 68.8492 Q1926.1 73.7508 1914.76 73.7508 Q1910.95 73.7508 1906.9 72.9811 Q1902.89 72.2519 1898.6 70.7531 L1898.6 62.8538 Q1902 64.8388 1906.05 65.8515 Q1910.1 66.8642 1914.52 66.8642 Q1922.21 66.8642 1926.23 63.826 Q1930.28 60.7879 1930.28 54.9951 Q1930.28 49.6479 1926.51 46.6502 Q1922.78 43.612 1916.1 43.612 L1909.05 43.612 L1909.05 36.8875 L1916.42 36.8875 Q1922.46 36.8875 1925.66 34.4975 Q1928.86 32.067 1928.86 27.5299 Q1928.86 22.8714 1925.54 20.4004 Q1922.26 17.8888 1916.1 17.8888 Q1912.74 17.8888 1908.89 18.618 Q1905.04 19.3471 1900.42 20.8865 L1900.42 13.5948 Q1905.08 12.2985 1909.13 11.6504 Q1913.22 11.0023 1916.83 11.0023 Q1926.14 11.0023 1931.57 15.2557 Q1937 19.4686 1937 26.6793 Q1937 31.7024 1934.12 35.1862 Q1931.25 38.6294 1925.94 39.9662 Z" fill="#000000" fill-rule="evenodd" fill-opacity="1" /><path clip-path="url(#clip390)" d="M1951.87 12.096 L1990.76 12.096 L1990.76 15.5798 L1968.8 72.576 L1960.25 72.576 L1980.91 18.9825 L1951.87 18.9825 L1951.87 12.096 Z" fill="#000000" fill-rule="evenodd" fill-opacity="1" /><path clip-path="url(#clip390)" d="M2029.2 19.2256 L2008.54 51.5113 L2029.2 51.5113 L2029.2 19.2256 M2027.05 12.096 L2037.34 12.096 L2037.34 51.5113 L2045.97 51.5113 L2045.97 58.3168 L2037.34 58.3168 L2037.34 72.576 L2029.2 72.576 L2029.2 58.3168 L2001.9 58.3168 L2001.9 50.4176 L2027.05 12.096 Z" fill="#000000" fill-rule="evenodd" fill-opacity="1" /><path clip-path="url(#clip390)" d="M2081.98 19.2256 L2061.32 51.5113 L2081.98 51.5113 L2081.98 19.2256 M2079.84 12.096 L2090.12 12.096 L2090.12 51.5113 L2098.75 51.5113 L2098.75 58.3168 L2090.12 58.3168 L2090.12 72.576 L2081.98 72.576 L2081.98 58.3168 L2054.68 58.3168 L2054.68 50.4176 L2079.84 12.096 Z" fill="#000000" fill-rule="evenodd" fill-opacity="1" /><polyline clip-path="url(#clip392)" style="stroke:#009af9; stroke-linecap:butt; stroke-linejoin:round; stroke-width:20; stroke-opacity:1; fill:none" points="
  607.438,1247.16 663.921,1278.59 720.404,1305.53 776.887,1327.97 833.369,1345.93 889.852,1359.4 946.335,1368.38 1002.82,1372.87 1059.3,1372.87 1115.78,1368.38 
  1172.27,1359.4 1228.75,1345.93 1285.23,1327.97 1341.71,1305.53 1398.2,1278.59 1454.68,1247.16 1511.16,1211.25 1567.65,1170.84 1624.13,1125.95 1680.61,1076.57 
  1737.09,1022.69 1793.58,964.333 1850.06,901.482 1906.54,834.141 1963.02,762.311 2019.51,685.991 2075.99,605.183 2132.47,519.884 2188.96,430.097 2245.44,335.82 
  2301.92,237.053 
  "/>
<polyline clip-path="url(#clip392)" style="stroke:#e26f46; stroke-linecap:butt; stroke-linejoin:round; stroke-width:4; stroke-opacity:1; fill:none" points="
  607.438,1267.37 663.921,1287.57 720.404,1307.77 776.887,1327.97 833.369,1348.17 889.852,1368.38 946.335,1388.58 1002.82,1408.78 1059.3,1428.98 1115.78,1449.19 
  1172.27,1469.39 1228.75,1489.59 1285.23,1509.79 1341.71,1529.99 1398.2,1550.2 1454.68,1570.4 1511.16,1590.6 1567.65,1610.8 1624.13,1631.01 1680.61,1651.21 
  1737.09,1671.41 1793.58,1691.61 1850.06,1711.81 1906.54,1732.02 1963.02,1752.22 2019.51,1772.42 2075.99,1792.62 2132.47,1812.83 2188.96,1833.03 2245.44,1853.23 
  2301.92,1873.43 
  "/>
<polyline clip-path="url(#clip392)" style="stroke:#3da44d; stroke-linecap:butt; stroke-linejoin:round; stroke-width:4; stroke-opacity:1; fill:none" points="
  607.438,1471.63 663.921,1460.41 720.404,1449.19 776.887,1437.96 833.369,1426.74 889.852,1415.52 946.335,1404.29 1002.82,1393.07 1059.3,1381.85 1115.78,1370.62 
  1172.27,1359.4 1228.75,1348.17 1285.23,1336.95 1341.71,1325.73 1398.2,1314.5 1454.68,1303.28 1511.16,1292.06 1567.65,1280.83 1624.13,1269.61 1680.61,1258.39 
  1737.09,1247.16 1793.58,1235.94 1850.06,1224.72 1906.54,1213.49 1963.02,1202.27 2019.51,1191.05 2075.99,1179.82 2132.47,1168.6 2188.96,1157.38 2245.44,1146.15 
  2301.92,1134.93 
  "/>
<polyline clip-path="url(#clip392)" style="stroke:#c271d2; stroke-linecap:butt; stroke-linejoin:round; stroke-width:4; stroke-opacity:1; fill:none" points="
  607.438,1752.22 663.921,1718.55 720.404,1684.88 776.887,1651.21 833.369,1617.54 889.852,1583.87 946.335,1550.2 1002.82,1516.53 1059.3,1482.86 1115.78,1449.19 
  1172.27,1415.52 1228.75,1381.85 1285.23,1348.17 1341.71,1314.5 1398.2,1280.83 1454.68,1247.16 1511.16,1213.49 1567.65,1179.82 1624.13,1146.15 1680.61,1112.48 
  1737.09,1078.81 1793.58,1045.14 1850.06,1011.47 1906.54,977.801 1963.02,944.131 2019.51,910.46 2075.99,876.79 2132.47,843.12 2188.96,809.449 2245.44,775.779 
  2301.92,742.109 
  "/>
<polyline clip-path="url(#clip392)" style="stroke:#ac8d18; stroke-linecap:butt; stroke-linejoin:round; stroke-width:4; stroke-opacity:1; fill:none" points="
  607.438,2145.04 663.921,2088.92 720.404,2032.81 776.887,1976.69 833.369,1920.57 889.852,1864.45 946.335,1808.34 1002.82,1752.22 1059.3,1696.1 1115.78,1639.98 
  1172.27,1583.87 1228.75,1527.75 1285.23,1471.63 1341.71,1415.52 1398.2,1359.4 1454.68,1303.28 1511.16,1247.16 1567.65,1191.05 1624.13,1134.93 1680.61,1078.81 
  1737.09,1022.69 1793.58,966.578 1850.06,910.46 1906.54,854.343 1963.02,798.226 2019.51,742.109 2075.99,685.991 2132.47,629.874 2188.96,573.757 2245.44,517.64 
  2301.92,461.522 
  "/>
<polyline clip-path="url(#clip392)" style="stroke:#00a9ad; stroke-linecap:butt; stroke-linejoin:round; stroke-width:4; stroke-opacity:1; fill:none" points="
  607.438,2883.54 663.921,2796 720.404,2708.46 776.887,2620.91 833.369,2533.37 889.852,2445.83 946.335,2358.29 1002.82,2270.74 1059.3,2183.2 1115.78,2095.66 
  1172.27,2008.11 1228.75,1920.57 1285.23,1833.03 1341.71,1745.49 1398.2,1657.94 1454.68,1570.4 1511.16,1482.86 1567.65,1395.31 1624.13,1307.77 1680.61,1220.23 
  1737.09,1132.68 1793.58,1045.14 1850.06,957.599 1906.54,870.056 1963.02,782.513 2019.51,694.97 2075.99,607.427 2132.47,519.884 2188.96,432.341 2245.44,344.799 
  2301.92,257.256 
  "/>
<path clip-path="url(#clip390)" d="
M66.9602 531.785 L355.43 531.785 L355.43 168.905 L66.9602 168.905  Z
  " fill="#ffffff" fill-rule="evenodd" fill-opacity="1"/>
<polyline clip-path="url(#clip390)" style="stroke:#000000; stroke-linecap:butt; stroke-linejoin:round; stroke-width:4; stroke-opacity:1; fill:none" points="
  66.9602,531.785 355.43,531.785 355.43,168.905 66.9602,168.905 66.9602,531.785 
  "/>
<polyline clip-path="url(#clip390)" style="stroke:#009af9; stroke-linecap:butt; stroke-linejoin:round; stroke-width:4; stroke-opacity:1; fill:none" points="
  91.5386,220.745 239.009,220.745 
  "/>
<path clip-path="url(#clip390)" d="M280.092 202.006 L280.092 205.548 L276.018 205.548 Q273.727 205.548 272.824 206.474 Q271.944 207.4 271.944 209.807 L271.944 212.099 L278.958 212.099 L278.958 215.409 L271.944 215.409 L271.944 238.025 L267.662 238.025 L267.662 215.409 L263.588 215.409 L263.588 212.099 L267.662 212.099 L267.662 210.293 Q267.662 205.965 269.676 203.997 Q271.69 202.006 276.065 202.006 L280.092 202.006 Z" fill="#000000" fill-rule="evenodd" fill-opacity="1" /><polyline clip-path="url(#clip390)" style="stroke:#e26f46; stroke-linecap:butt; stroke-linejoin:round; stroke-width:4; stroke-opacity:1; fill:none" points="
  91.5386,272.585 239.009,272.585 
  "/>
<path clip-path="url(#clip390)" d="M278.773 267.92 Q278.055 267.504 277.199 267.318 Q276.365 267.11 275.347 267.11 Q271.736 267.11 269.791 269.471 Q267.87 271.809 267.87 276.207 L267.87 289.865 L263.588 289.865 L263.588 263.939 L267.87 263.939 L267.87 267.967 Q269.213 265.606 271.366 264.471 Q273.518 263.314 276.597 263.314 Q277.037 263.314 277.569 263.383 Q278.102 263.43 278.75 263.545 L278.773 267.92 Z" fill="#000000" fill-rule="evenodd" fill-opacity="1" /><path clip-path="url(#clip390)" d="M284.652 285.929 L292.291 285.929 L292.291 259.564 L283.981 261.231 L283.981 256.971 L292.245 255.305 L296.921 255.305 L296.921 285.929 L304.56 285.929 L304.56 289.865 L284.652 289.865 L284.652 285.929 Z" fill="#000000" fill-rule="evenodd" fill-opacity="1" /><polyline clip-path="url(#clip390)" style="stroke:#3da44d; stroke-linecap:butt; stroke-linejoin:round; stroke-width:4; stroke-opacity:1; fill:none" points="
  91.5386,324.425 239.009,324.425 
  "/>
<path clip-path="url(#clip390)" d="M278.773 319.76 Q278.055 319.344 277.199 319.158 Q276.365 318.95 275.347 318.95 Q271.736 318.95 269.791 321.311 Q267.87 323.649 267.87 328.047 L267.87 341.705 L263.588 341.705 L263.588 315.779 L267.87 315.779 L267.87 319.807 Q269.213 317.446 271.366 316.311 Q273.518 315.154 276.597 315.154 Q277.037 315.154 277.569 315.223 Q278.102 315.27 278.75 315.385 L278.773 319.76 Z" fill="#000000" fill-rule="evenodd" fill-opacity="1" /><path clip-path="url(#clip390)" d="M287.87 337.769 L304.189 337.769 L304.189 341.705 L282.245 341.705 L282.245 337.769 Q284.907 335.015 289.49 330.385 Q294.097 325.733 295.277 324.39 Q297.523 321.867 298.402 320.131 Q299.305 318.371 299.305 316.682 Q299.305 313.927 297.361 312.191 Q295.439 310.455 292.338 310.455 Q290.139 310.455 287.685 311.219 Q285.254 311.983 282.477 313.534 L282.477 308.811 Q285.301 307.677 287.754 307.098 Q290.208 306.52 292.245 306.52 Q297.615 306.52 300.81 309.205 Q304.004 311.89 304.004 316.381 Q304.004 318.51 303.194 320.432 Q302.407 322.33 300.301 324.922 Q299.722 325.594 296.62 328.811 Q293.518 332.006 287.87 337.769 Z" fill="#000000" fill-rule="evenodd" fill-opacity="1" /><polyline clip-path="url(#clip390)" style="stroke:#c271d2; stroke-linecap:butt; stroke-linejoin:round; stroke-width:4; stroke-opacity:1; fill:none" points="
  91.5386,376.265 239.009,376.265 
  "/>
<path clip-path="url(#clip390)" d="M278.773 371.6 Q278.055 371.184 277.199 370.998 Q276.365 370.79 275.347 370.79 Q271.736 370.79 269.791 373.151 Q267.87 375.489 267.87 379.887 L267.87 393.545 L263.588 393.545 L263.588 367.619 L267.87 367.619 L267.87 371.647 Q269.213 369.286 271.366 368.151 Q273.518 366.994 276.597 366.994 Q277.037 366.994 277.569 367.063 Q278.102 367.11 278.75 367.225 L278.773 371.6 Z" fill="#000000" fill-rule="evenodd" fill-opacity="1" /><path clip-path="url(#clip390)" d="M298.009 374.91 Q301.365 375.628 303.24 377.897 Q305.138 380.165 305.138 383.498 Q305.138 388.614 301.62 391.415 Q298.101 394.216 291.62 394.216 Q289.444 394.216 287.129 393.776 Q284.838 393.359 282.384 392.503 L282.384 387.989 Q284.328 389.123 286.643 389.702 Q288.958 390.281 291.481 390.281 Q295.879 390.281 298.171 388.545 Q300.486 386.809 300.486 383.498 Q300.486 380.443 298.333 378.73 Q296.203 376.994 292.384 376.994 L288.356 376.994 L288.356 373.151 L292.569 373.151 Q296.018 373.151 297.847 371.786 Q299.676 370.397 299.676 367.804 Q299.676 365.142 297.777 363.73 Q295.902 362.295 292.384 362.295 Q290.463 362.295 288.264 362.711 Q286.065 363.128 283.426 364.008 L283.426 359.841 Q286.088 359.1 288.402 358.73 Q290.74 358.36 292.801 358.36 Q298.125 358.36 301.226 360.79 Q304.328 363.198 304.328 367.318 Q304.328 370.188 302.685 372.179 Q301.041 374.147 298.009 374.91 Z" fill="#000000" fill-rule="evenodd" fill-opacity="1" /><polyline clip-path="url(#clip390)" style="stroke:#ac8d18; stroke-linecap:butt; stroke-linejoin:round; stroke-width:4; stroke-opacity:1; fill:none" points="
  91.5386,428.105 239.009,428.105 
  "/>
<path clip-path="url(#clip390)" d="M278.773 423.44 Q278.055 423.024 277.199 422.838 Q276.365 422.63 275.347 422.63 Q271.736 422.63 269.791 424.991 Q267.87 427.329 267.87 431.727 L267.87 445.385 L263.588 445.385 L263.588 419.459 L267.87 419.459 L267.87 423.487 Q269.213 421.126 271.366 419.991 Q273.518 418.834 276.597 418.834 Q277.037 418.834 277.569 418.903 Q278.102 418.95 278.75 419.065 L278.773 423.44 Z" fill="#000000" fill-rule="evenodd" fill-opacity="1" /><path clip-path="url(#clip390)" d="M296.689 414.899 L284.884 433.348 L296.689 433.348 L296.689 414.899 M295.463 410.825 L301.342 410.825 L301.342 433.348 L306.273 433.348 L306.273 437.237 L301.342 437.237 L301.342 445.385 L296.689 445.385 L296.689 437.237 L281.088 437.237 L281.088 432.723 L295.463 410.825 Z" fill="#000000" fill-rule="evenodd" fill-opacity="1" /><polyline clip-path="url(#clip390)" style="stroke:#00a9ad; stroke-linecap:butt; stroke-linejoin:round; stroke-width:4; stroke-opacity:1; fill:none" points="
  91.5386,479.945 239.009,479.945 
  "/>
<path clip-path="url(#clip390)" d="M278.773 475.28 Q278.055 474.864 277.199 474.678 Q276.365 474.47 275.347 474.47 Q271.736 474.47 269.791 476.831 Q267.87 479.169 267.87 483.567 L267.87 497.225 L263.588 497.225 L263.588 471.299 L267.87 471.299 L267.87 475.327 Q269.213 472.966 271.366 471.831 Q273.518 470.674 276.597 470.674 Q277.037 470.674 277.569 470.743 Q278.102 470.79 278.75 470.905 L278.773 475.28 Z" fill="#000000" fill-rule="evenodd" fill-opacity="1" /><path clip-path="url(#clip390)" d="M283.889 462.665 L302.245 462.665 L302.245 466.6 L288.171 466.6 L288.171 475.072 Q289.189 474.725 290.208 474.563 Q291.227 474.378 292.245 474.378 Q298.032 474.378 301.412 477.549 Q304.791 480.72 304.791 486.137 Q304.791 491.715 301.319 494.817 Q297.847 497.896 291.527 497.896 Q289.352 497.896 287.083 497.526 Q284.838 497.155 282.43 496.414 L282.43 491.715 Q284.514 492.85 286.736 493.405 Q288.958 493.961 291.435 493.961 Q295.439 493.961 297.777 491.854 Q300.115 489.748 300.115 486.137 Q300.115 482.526 297.777 480.419 Q295.439 478.313 291.435 478.313 Q289.56 478.313 287.685 478.729 Q285.833 479.146 283.889 480.026 L283.889 462.665 Z" fill="#000000" fill-rule="evenodd" fill-opacity="1" /></svg>
