<?xml version="1.0" encoding="utf-8"?>
<svg xmlns="http://www.w3.org/2000/svg" xmlns:xlink="http://www.w3.org/1999/xlink" width="600" height="400" viewBox="0 0 2400 1600">
<defs>
  <clipPath id="clip310">
    <rect x="0" y="0" width="2400" height="1600"/>
  </clipPath>
</defs>
<path clip-path="url(#clip310)" d="
M0 1600 L2400 1600 L2400 0 L0 0  Z
  " fill="#ffffff" fill-rule="evenodd" fill-opacity="1"/>
<defs>
  <clipPath id="clip311">
    <rect x="480" y="0" width="1681" height="1600"/>
  </clipPath>
</defs>
<path clip-path="url(#clip310)" d="
M556.604 1486.45 L2352.76 1486.45 L2352.76 123.472 L556.604 123.472  Z
  " fill="#ffffff" fill-rule="evenodd" fill-opacity="1"/>
<defs>
  <clipPath id="clip312">
    <rect x="556" y="123" width="1797" height="1364"/>
  </clipPath>
</defs>
<polyline clip-path="url(#clip312)" style="stroke:#000000; stroke-linecap:butt; stroke-linejoin:round; stroke-width:2; stroke-opacity:0.1; fill:none" points="
  607.438,1486.45 607.438,123.472 
  "/>
<polyline clip-path="url(#clip312)" style="stroke:#000000; stroke-linecap:butt; stroke-linejoin:round; stroke-width:2; stroke-opacity:0.1; fill:none" points="
  889.852,1486.45 889.852,123.472 
  "/>
<polyline clip-path="url(#clip312)" style="stroke:#000000; stroke-linecap:butt; stroke-linejoin:round; stroke-width:2; stroke-opacity:0.1; fill:none" points="
  1172.27,1486.45 1172.27,123.472 
  "/>
<polyline clip-path="url(#clip312)" style="stroke:#000000; stroke-linecap:butt; stroke-linejoin:round; stroke-width:2; stroke-opacity:0.1; fill:none" points="
  1454.68,1486.45 1454.68,123.472 
  "/>
<polyline clip-path="url(#clip312)" style="stroke:#000000; stroke-linecap:butt; stroke-linejoin:round; stroke-width:2; stroke-opacity:0.1; fill:none" points="
  1737.09,1486.45 1737.09,123.472 
  "/>
<polyline clip-path="url(#clip312)" style="stroke:#000000; stroke-linecap:butt; stroke-linejoin:round; stroke-width:2; stroke-opacity:0.1; fill:none" points="
  2019.51,1486.45 2019.51,123.472 
  "/>
<polyline clip-path="url(#clip312)" style="stroke:#000000; stroke-linecap:butt; stroke-linejoin:round; stroke-width:2; stroke-opacity:0.1; fill:none" points="
  2301.92,1486.45 2301.92,123.472 
  "/>
<polyline clip-path="url(#clip310)" style="stroke:#000000; stroke-linecap:butt; stroke-linejoin:round; stroke-width:4; stroke-opacity:1; fill:none" points="
  556.604,1486.45 2352.76,1486.45 
  "/>
<polyline clip-path="url(#clip310)" style="stroke:#000000; stroke-linecap:butt; stroke-linejoin:round; stroke-width:4; stroke-opacity:1; fill:none" points="
  607.438,1486.45 607.438,1467.55 
  "/>
<polyline clip-path="url(#clip310)" style="stroke:#000000; stroke-linecap:butt; stroke-linejoin:round; stroke-width:4; stroke-opacity:1; fill:none" points="
  889.852,1486.45 889.852,1467.55 
  "/>
<polyline clip-path="url(#clip310)" style="stroke:#000000; stroke-linecap:butt; stroke-linejoin:round; stroke-width:4; stroke-opacity:1; fill:none" points="
  1172.27,1486.45 1172.27,1467.55 
  "/>
<polyline clip-path="url(#clip310)" style="stroke:#000000; stroke-linecap:butt; stroke-linejoin:round; stroke-width:4; stroke-opacity:1; fill:none" points="
  1454.68,1486.45 1454.68,1467.55 
  "/>
<polyline clip-path="url(#clip310)" style="stroke:#000000; stroke-linecap:butt; stroke-linejoin:round; stroke-width:4; stroke-opacity:1; fill:none" points="
  1737.09,1486.45 1737.09,1467.55 
  "/>
<polyline clip-path="url(#clip310)" style="stroke:#000000; stroke-linecap:butt; stroke-linejoin:round; stroke-width:4; stroke-opacity:1; fill:none" points="
  2019.51,1486.45 2019.51,1467.55 
  "/>
<polyline clip-path="url(#clip310)" style="stroke:#000000; stroke-linecap:butt; stroke-linejoin:round; stroke-width:4; stroke-opacity:1; fill:none" points="
  2301.92,1486.45 2301.92,1467.55 
  "/>
<path clip-path="url(#clip310)" d="M607.438 1517.37 Q603.827 1517.37 601.998 1520.93 Q600.193 1524.47 600.193 1531.6 Q600.193 1538.71 601.998 1542.27 Q603.827 1545.82 607.438 1545.82 Q611.072 1545.82 612.878 1542.27 Q614.707 1538.71 614.707 1531.6 Q614.707 1524.47 612.878 1520.93 Q611.072 1517.37 607.438 1517.37 M607.438 1513.66 Q613.248 1513.66 616.304 1518.27 Q619.383 1522.85 619.383 1531.6 Q619.383 1540.33 616.304 1544.94 Q613.248 1549.52 607.438 1549.52 Q601.628 1549.52 598.549 1544.94 Q595.494 1540.33 595.494 1531.6 Q595.494 1522.85 598.549 1518.27 Q601.628 1513.66 607.438 1513.66 Z" fill="#000000" fill-rule="evenodd" fill-opacity="1" /><path clip-path="url(#clip310)" d="M880.234 1544.91 L887.873 1544.91 L887.873 1518.55 L879.563 1520.21 L879.563 1515.95 L887.827 1514.29 L892.503 1514.29 L892.503 1544.91 L900.141 1544.91 L900.141 1548.85 L880.234 1548.85 L880.234 1544.91 Z" fill="#000000" fill-rule="evenodd" fill-opacity="1" /><path clip-path="url(#clip310)" d="M1166.92 1544.91 L1183.24 1544.91 L1183.24 1548.85 L1161.29 1548.85 L1161.29 1544.91 Q1163.96 1542.16 1168.54 1537.53 Q1173.15 1532.88 1174.33 1531.53 Q1176.57 1529.01 1177.45 1527.27 Q1178.35 1525.51 1178.35 1523.82 Q1178.35 1521.07 1176.41 1519.33 Q1174.49 1517.6 1171.39 1517.6 Q1169.19 1517.6 1166.73 1518.36 Q1164.3 1519.13 1161.53 1520.68 L1161.53 1515.95 Q1164.35 1514.82 1166.8 1514.24 Q1169.26 1513.66 1171.29 1513.66 Q1176.66 1513.66 1179.86 1516.35 Q1183.05 1519.03 1183.05 1523.52 Q1183.05 1525.65 1182.24 1527.57 Q1181.46 1529.47 1179.35 1532.07 Q1178.77 1532.74 1175.67 1535.95 Q1172.57 1539.15 1166.92 1544.91 Z" fill="#000000" fill-rule="evenodd" fill-opacity="1" /><path clip-path="url(#clip310)" d="M1458.93 1530.21 Q1462.28 1530.93 1464.16 1533.2 Q1466.06 1535.47 1466.06 1538.8 Q1466.06 1543.92 1462.54 1546.72 Q1459.02 1549.52 1452.54 1549.52 Q1450.36 1549.52 1448.05 1549.08 Q1445.76 1548.66 1443.3 1547.81 L1443.3 1543.29 Q1445.25 1544.43 1447.56 1545.01 Q1449.88 1545.58 1452.4 1545.58 Q1456.8 1545.58 1459.09 1543.85 Q1461.4 1542.11 1461.4 1538.8 Q1461.4 1535.75 1459.25 1534.03 Q1457.12 1532.3 1453.3 1532.3 L1449.27 1532.3 L1449.27 1528.45 L1453.49 1528.45 Q1456.94 1528.45 1458.77 1527.09 Q1460.59 1525.7 1460.59 1523.11 Q1460.59 1520.45 1458.7 1519.03 Q1456.82 1517.6 1453.3 1517.6 Q1451.38 1517.6 1449.18 1518.01 Q1446.98 1518.43 1444.34 1519.31 L1444.34 1515.14 Q1447.01 1514.4 1449.32 1514.03 Q1451.66 1513.66 1453.72 1513.66 Q1459.04 1513.66 1462.15 1516.09 Q1465.25 1518.5 1465.25 1522.62 Q1465.25 1525.49 1463.6 1527.48 Q1461.96 1529.45 1458.93 1530.21 Z" fill="#000000" fill-rule="evenodd" fill-opacity="1" /><path clip-path="url(#clip310)" d="M1740.1 1518.36 L1728.3 1536.81 L1740.1 1536.81 L1740.1 1518.36 M1738.88 1514.29 L1744.76 1514.29 L1744.76 1536.81 L1749.69 1536.81 L1749.69 1540.7 L1744.76 1540.7 L1744.76 1548.85 L1740.1 1548.85 L1740.1 1540.7 L1724.5 1540.7 L1724.5 1536.19 L1738.88 1514.29 Z" fill="#000000" fill-rule="evenodd" fill-opacity="1" /><path clip-path="url(#clip310)" d="M2009.79 1514.29 L2028.14 1514.29 L2028.14 1518.22 L2014.07 1518.22 L2014.07 1526.7 Q2015.09 1526.35 2016.1 1526.19 Q2017.12 1526 2018.14 1526 Q2023.93 1526 2027.31 1529.17 Q2030.69 1532.34 2030.69 1537.76 Q2030.69 1543.34 2027.22 1546.44 Q2023.74 1549.52 2017.42 1549.52 Q2015.25 1549.52 2012.98 1549.15 Q2010.73 1548.78 2008.33 1548.04 L2008.33 1543.34 Q2010.41 1544.47 2012.63 1545.03 Q2014.85 1545.58 2017.33 1545.58 Q2021.34 1545.58 2023.67 1543.48 Q2026.01 1541.37 2026.01 1537.76 Q2026.01 1534.15 2023.67 1532.04 Q2021.34 1529.94 2017.33 1529.94 Q2015.46 1529.94 2013.58 1530.35 Q2011.73 1530.77 2009.79 1531.65 L2009.79 1514.29 Z" fill="#000000" fill-rule="evenodd" fill-opacity="1" /><path clip-path="url(#clip310)" d="M2302.33 1529.7 Q2299.18 1529.7 2297.33 1531.86 Q2295.5 1534.01 2295.5 1537.76 Q2295.5 1541.49 2297.33 1543.66 Q2299.18 1545.82 2302.33 1545.82 Q2305.47 1545.82 2307.3 1543.66 Q2309.16 1541.49 2309.16 1537.76 Q2309.16 1534.01 2307.3 1531.86 Q2305.47 1529.7 2302.33 1529.7 M2311.61 1515.05 L2311.61 1519.31 Q2309.85 1518.48 2308.04 1518.04 Q2306.26 1517.6 2304.5 1517.6 Q2299.87 1517.6 2297.42 1520.72 Q2294.99 1523.85 2294.64 1530.17 Q2296.01 1528.15 2298.07 1527.09 Q2300.13 1526 2302.6 1526 Q2307.81 1526 2310.82 1529.17 Q2313.85 1532.32 2313.85 1537.76 Q2313.85 1543.08 2310.71 1546.3 Q2307.56 1549.52 2302.33 1549.52 Q2296.33 1549.52 2293.16 1544.94 Q2289.99 1540.33 2289.99 1531.6 Q2289.99 1523.41 2293.88 1518.55 Q2297.77 1513.66 2304.32 1513.66 Q2306.08 1513.66 2307.86 1514.01 Q2309.66 1514.36 2311.61 1515.05 Z" fill="#000000" fill-rule="evenodd" fill-opacity="1" /><polyline clip-path="url(#clip312)" style="stroke:#000000; stroke-linecap:butt; stroke-linejoin:round; stroke-width:2; stroke-opacity:0.1; fill:none" points="
  556.604,1359.4 2352.76,1359.4 
  "/>
<polyline clip-path="url(#clip312)" style="stroke:#000000; stroke-linecap:butt; stroke-linejoin:round; stroke-width:2; stroke-opacity:0.1; fill:none" points="
  556.604,1078.81 2352.76,1078.81 
  "/>
<polyline clip-path="url(#clip312)" style="stroke:#000000; stroke-linecap:butt; stroke-linejoin:round; stroke-width:2; stroke-opacity:0.1; fill:none" points="
  556.604,798.226 2352.76,798.226 
  "/>
<polyline clip-path="url(#clip312)" style="stroke:#000000; stroke-linecap:butt; stroke-linejoin:round; stroke-width:2; stroke-opacity:0.1; fill:none" points="
  556.604,517.64 2352.76,517.64 
  "/>
<polyline clip-path="url(#clip312)" style="stroke:#000000; stroke-linecap:butt; stroke-linejoin:round; stroke-width:2; stroke-opacity:0.1; fill:none" points="
  556.604,237.053 2352.76,237.053 
  "/>
<polyline clip-path="url(#clip310)" style="stroke:#000000; stroke-linecap:butt; stroke-linejoin:round; stroke-width:4; stroke-opacity:1; fill:none" points="
  556.604,1486.45 556.604,123.472 
  "/>
<polyline clip-path="url(#clip310)" style="stroke:#000000; stroke-linecap:butt; stroke-linejoin:round; stroke-width:4; stroke-opacity:1; fill:none" points="
  556.604,1359.4 571.948,1359.4 
  "/>
<polyline clip-path="url(#clip310)" style="stroke:#000000; stroke-linecap:butt; stroke-linejoin:round; stroke-width:4; stroke-opacity:1; fill:none" points="
  556.604,1078.81 571.948,1078.81 
  "/>
<polyline clip-path="url(#clip310)" style="stroke:#000000; stroke-linecap:butt; stroke-linejoin:round; stroke-width:4; stroke-opacity:1; fill:none" points="
  556.604,798.226 571.948,798.226 
  "/>
<polyline clip-path="url(#clip310)" style="stroke:#000000; stroke-linecap:butt; stroke-linejoin:round; stroke-width:4; stroke-opacity:1; fill:none" points="
  556.604,517.64 571.948,517.64 
  "/>
<polyline clip-path="url(#clip310)" style="stroke:#000000; stroke-linecap:butt; stroke-linejoin:round; stroke-width:4; stroke-opacity:1; fill:none" points="
  556.604,237.053 571.948,237.053 
  "/>
<path clip-path="url(#clip310)" d="M508.659 1345.2 Q505.048 1345.2 503.22 1348.76 Q501.414 1352.3 501.414 1359.43 Q501.414 1366.54 503.22 1370.1 Q505.048 1373.65 508.659 1373.65 Q512.294 1373.65 514.099 1370.1 Q515.928 1366.54 515.928 1359.43 Q515.928 1352.3 514.099 1348.76 Q512.294 1345.2 508.659 1345.2 M508.659 1341.49 Q514.47 1341.49 517.525 1346.1 Q520.604 1350.68 520.604 1359.43 Q520.604 1368.16 517.525 1372.77 Q514.47 1377.35 508.659 1377.35 Q502.849 1377.35 499.771 1372.77 Q496.715 1368.16 496.715 1359.43 Q496.715 1350.68 499.771 1346.1 Q502.849 1341.49 508.659 1341.49 Z" fill="#000000" fill-rule="evenodd" fill-opacity="1" /><path clip-path="url(#clip310)" d="M499.701 1061.53 L518.057 1061.53 L518.057 1065.47 L503.983 1065.47 L503.983 1073.94 Q505.002 1073.59 506.02 1073.43 Q507.039 1073.25 508.058 1073.25 Q513.845 1073.25 517.224 1076.42 Q520.604 1079.59 520.604 1085 Q520.604 1090.58 517.132 1093.68 Q513.659 1096.76 507.34 1096.76 Q505.164 1096.76 502.896 1096.39 Q500.65 1096.02 498.243 1095.28 L498.243 1090.58 Q500.326 1091.72 502.548 1092.27 Q504.77 1092.83 507.247 1092.83 Q511.252 1092.83 513.59 1090.72 Q515.928 1088.62 515.928 1085 Q515.928 1081.39 513.59 1079.29 Q511.252 1077.18 507.247 1077.18 Q505.372 1077.18 503.497 1077.6 Q501.646 1078.01 499.701 1078.89 L499.701 1061.53 Z" fill="#000000" fill-rule="evenodd" fill-opacity="1" /><path clip-path="url(#clip310)" d="M469.308 811.571 L476.947 811.571 L476.947 785.205 L468.636 786.872 L468.636 782.613 L476.9 780.946 L481.576 780.946 L481.576 811.571 L489.215 811.571 L489.215 815.506 L469.308 815.506 L469.308 811.571 Z" fill="#000000" fill-rule="evenodd" fill-opacity="1" /><path clip-path="url(#clip310)" d="M508.659 784.025 Q505.048 784.025 503.22 787.589 Q501.414 791.131 501.414 798.261 Q501.414 805.367 503.22 808.932 Q505.048 812.474 508.659 812.474 Q512.294 812.474 514.099 808.932 Q515.928 805.367 515.928 798.261 Q515.928 791.131 514.099 787.589 Q512.294 784.025 508.659 784.025 M508.659 780.321 Q514.47 780.321 517.525 784.927 Q520.604 789.511 520.604 798.261 Q520.604 806.987 517.525 811.594 Q514.47 816.177 508.659 816.177 Q502.849 816.177 499.771 811.594 Q496.715 806.987 496.715 798.261 Q496.715 789.511 499.771 784.927 Q502.849 780.321 508.659 780.321 Z" fill="#000000" fill-rule="evenodd" fill-opacity="1" /><path clip-path="url(#clip310)" d="M470.303 530.985 L477.942 530.985 L477.942 504.619 L469.632 506.286 L469.632 502.026 L477.896 500.36 L482.572 500.36 L482.572 530.985 L490.21 530.985 L490.21 534.92 L470.303 534.92 L470.303 530.985 Z" fill="#000000" fill-rule="evenodd" fill-opacity="1" /><path clip-path="url(#clip310)" d="M499.701 500.36 L518.057 500.36 L518.057 504.295 L503.983 504.295 L503.983 512.767 Q505.002 512.42 506.02 512.258 Q507.039 512.073 508.058 512.073 Q513.845 512.073 517.224 515.244 Q520.604 518.415 520.604 523.832 Q520.604 529.41 517.132 532.512 Q513.659 535.591 507.34 535.591 Q505.164 535.591 502.896 535.221 Q500.65 534.85 498.243 534.11 L498.243 529.41 Q500.326 530.545 502.548 531.1 Q504.77 531.656 507.247 531.656 Q511.252 531.656 513.59 529.549 Q515.928 527.443 515.928 523.832 Q515.928 520.221 513.59 518.114 Q511.252 516.008 507.247 516.008 Q505.372 516.008 503.497 516.424 Q501.646 516.841 499.701 517.721 L499.701 500.36 Z" fill="#000000" fill-rule="evenodd" fill-opacity="1" /><path clip-path="url(#clip310)" d="M472.525 250.398 L488.845 250.398 L488.845 254.333 L466.9 254.333 L466.9 250.398 Q469.562 247.644 474.146 243.014 Q478.752 238.361 479.933 237.019 Q482.178 234.496 483.058 232.759 Q483.96 231 483.96 229.31 Q483.96 226.556 482.016 224.82 Q480.095 223.084 476.993 223.084 Q474.794 223.084 472.34 223.847 Q469.91 224.611 467.132 226.162 L467.132 221.44 Q469.956 220.306 472.41 219.727 Q474.863 219.148 476.9 219.148 Q482.271 219.148 485.465 221.834 Q488.659 224.519 488.659 229.009 Q488.659 231.139 487.849 233.06 Q487.062 234.959 484.956 237.551 Q484.377 238.222 481.275 241.44 Q478.173 244.634 472.525 250.398 Z" fill="#000000" fill-rule="evenodd" fill-opacity="1" /><path clip-path="url(#clip310)" d="M508.659 222.852 Q505.048 222.852 503.22 226.417 Q501.414 229.959 501.414 237.088 Q501.414 244.195 503.22 247.759 Q505.048 251.301 508.659 251.301 Q512.294 251.301 514.099 247.759 Q515.928 244.195 515.928 237.088 Q515.928 229.959 514.099 226.417 Q512.294 222.852 508.659 222.852 M508.659 219.148 Q514.47 219.148 517.525 223.755 Q520.604 228.338 520.604 237.088 Q520.604 245.815 517.525 250.421 Q514.47 255.005 508.659 255.005 Q502.849 255.005 499.771 250.421 Q496.715 245.815 496.715 237.088 Q496.715 228.338 499.771 223.755 Q502.849 219.148 508.659 219.148 Z" fill="#000000" fill-rule="evenodd" fill-opacity="1" /><path clip-path="url(#clip310)" d="M838.497 12.096 L876.737 12.096 L876.737 18.9825 L846.68 18.9825 L846.68 36.8875 L875.482 36.8875 L875.482 43.7741 L846.68 43.7741 L846.68 65.6895 L877.466 65.6895 L877.466 72.576 L838.497 72.576 L838.497 12.096 Z" fill="#000000" fill-rule="evenodd" fill-opacity="1" /><path clip-path="url(#clip310)" d="M916.882 34.1734 Q915.626 33.4443 914.127 33.1202 Q912.669 32.7556 910.886 32.7556 Q904.567 32.7556 901.164 36.8875 Q897.802 40.9789 897.802 48.6757 L897.802 72.576 L890.308 72.576 L890.308 27.2059 L897.802 27.2059 L897.802 34.2544 Q900.152 30.1225 903.919 28.1376 Q907.686 26.1121 913.074 26.1121 Q913.844 26.1121 914.775 26.2337 Q915.707 26.3147 916.841 26.5172 L916.882 34.1734 Z" fill="#000000" fill-rule="evenodd" fill-opacity="1" /><path clip-path="url(#clip310)" d="M949.532 34.1734 Q948.276 33.4443 946.777 33.1202 Q945.319 32.7556 943.537 32.7556 Q937.217 32.7556 933.815 36.8875 Q930.452 40.9789 930.452 48.6757 L930.452 72.576 L922.958 72.576 L922.958 27.2059 L930.452 27.2059 L930.452 34.2544 Q932.802 30.1225 936.569 28.1376 Q940.337 26.1121 945.724 26.1121 Q946.494 26.1121 947.426 26.2337 Q948.357 26.3147 949.492 26.5172 L949.532 34.1734 Z" fill="#000000" fill-rule="evenodd" fill-opacity="1" /><path clip-path="url(#clip310)" d="M973.108 32.4315 Q967.113 32.4315 963.629 37.1306 Q960.145 41.7891 960.145 49.9314 Q960.145 58.0738 963.589 62.7728 Q967.072 67.4314 973.108 67.4314 Q979.063 67.4314 982.547 62.7323 Q986.031 58.0333 986.031 49.9314 Q986.031 41.8701 982.547 37.1711 Q979.063 32.4315 973.108 32.4315 M973.108 26.1121 Q982.831 26.1121 988.38 32.4315 Q993.93 38.7509 993.93 49.9314 Q993.93 61.0714 988.38 67.4314 Q982.831 73.7508 973.108 73.7508 Q963.346 73.7508 957.796 67.4314 Q952.287 61.0714 952.287 49.9314 Q952.287 38.7509 957.796 32.4315 Q963.346 26.1121 973.108 26.1121 Z" fill="#000000" fill-rule="evenodd" fill-opacity="1" /><path clip-path="url(#clip310)" d="M1032.58 34.1734 Q1031.32 33.4443 1029.82 33.1202 Q1028.36 32.7556 1026.58 32.7556 Q1020.26 32.7556 1016.86 36.8875 Q1013.5 40.9789 1013.5 48.6757 L1013.5 72.576 L1006 72.576 L1006 27.2059 L1013.5 27.2059 L1013.5 34.2544 Q1015.85 30.1225 1019.61 28.1376 Q1023.38 26.1121 1028.77 26.1121 Q1029.54 26.1121 1030.47 26.2337 Q1031.4 26.3147 1032.54 26.5172 L1032.58 34.1734 Z" fill="#000000" fill-rule="evenodd" fill-opacity="1" /><path clip-path="url(#clip310)" d="M1067.74 34.9026 L1119.67 34.9026 L1119.67 41.7081 L1067.74 41.7081 L1067.74 34.9026 M1067.74 51.4303 L1119.67 51.4303 L1119.67 58.3168 L1067.74 58.3168 L1067.74 51.4303 Z" fill="#000000" fill-rule="evenodd" fill-opacity="1" /><path clip-path="url(#clip310)" d="M1181.2 17.4837 Q1174.88 17.4837 1171.68 23.7221 Q1168.52 29.92 1168.52 42.3968 Q1168.52 54.833 1171.68 61.0714 Q1174.88 67.2693 1181.2 67.2693 Q1187.56 67.2693 1190.72 61.0714 Q1193.92 54.833 1193.92 42.3968 Q1193.92 29.92 1190.72 23.7221 Q1187.56 17.4837 1181.2 17.4837 M1181.2 11.0023 Q1191.37 11.0023 1196.72 19.0636 Q1202.11 27.0843 1202.11 42.3968 Q1202.11 57.6687 1196.72 65.73 Q1191.37 73.7508 1181.2 73.7508 Q1171.04 73.7508 1165.65 65.73 Q1160.3 57.6687 1160.3 42.3968 Q1160.3 27.0843 1165.65 19.0636 Q1171.04 11.0023 1181.2 11.0023 Z" fill="#000000" fill-rule="evenodd" fill-opacity="1" /><path clip-path="url(#clip310)" d="M1216.49 62.2867 L1225.03 62.2867 L1225.03 72.576 L1216.49 72.576 L1216.49 62.2867 Z" fill="#000000" fill-rule="evenodd" fill-opacity="1" /><path clip-path="url(#clip310)" d="M1249.91 65.6895 L1278.47 65.6895 L1278.47 72.576 L1240.06 72.576 L1240.06 65.6895 Q1244.72 60.8689 1252.74 52.7671 Q1260.8 44.6248 1262.87 42.2752 Q1266.8 37.8598 1268.34 34.8216 Q1269.92 31.7429 1269.92 28.7857 Q1269.92 23.9651 1266.52 20.927 Q1263.15 17.8888 1257.72 17.8888 Q1253.88 17.8888 1249.58 19.2256 Q1245.33 20.5624 1240.47 23.2765 L1240.47 15.0127 Q1245.41 13.0277 1249.7 12.015 Q1254 11.0023 1257.56 11.0023 Q1266.96 11.0023 1272.55 15.7013 Q1278.14 20.4004 1278.14 28.2591 Q1278.14 31.9859 1276.72 35.3482 Q1275.35 38.6699 1271.66 43.2069 Q1270.65 44.3817 1265.22 50.0125 Q1259.79 55.6027 1249.91 65.6895 Z" fill="#000000" fill-rule="evenodd" fill-opacity="1" /><path clip-path="url(#clip310)" d="M1318.12 19.2256 L1297.46 51.5113 L1318.12 51.5113 L1318.12 19.2256 M1315.98 12.096 L1326.27 12.096 L1326.27 51.5113 L1334.89 51.5113 L1334.89 58.3168 L1326.27 58.3168 L1326.27 72.576 L1318.12 72.576 L1318.12 58.3168 L1290.82 58.3168 L1290.82 50.4176 L1315.98 12.096 Z" fill="#000000" fill-rule="evenodd" fill-opacity="1" /><path clip-path="url(#clip310)" d="M1365.92 17.4837 Q1359.61 17.4837 1356.4 23.7221 Q1353.25 29.92 1353.25 42.3968 Q1353.25 54.833 1356.4 61.0714 Q1359.61 67.2693 1365.92 67.2693 Q1372.28 67.2693 1375.44 61.0714 Q1378.64 54.833 1378.64 42.3968 Q1378.64 29.92 1375.44 23.7221 Q1372.28 17.4837 1365.92 17.4837 M1365.92 11.0023 Q1376.09 11.0023 1381.44 19.0636 Q1386.83 27.0843 1386.83 42.3968 Q1386.83 57.6687 1381.44 65.73 Q1376.09 73.7508 1365.92 73.7508 Q1355.76 73.7508 1350.37 65.73 Q1345.02 57.6687 1345.02 42.3968 Q1345.02 27.0843 1350.37 19.0636 Q1355.76 11.0023 1365.92 11.0023 Z" fill="#000000" fill-rule="evenodd" fill-opacity="1" /><path clip-path="url(#clip310)" d="M1418.71 17.4837 Q1412.39 17.4837 1409.19 23.7221 Q1406.03 29.92 1406.03 42.3968 Q1406.03 54.833 1409.19 61.0714 Q1412.39 67.2693 1418.71 67.2693 Q1425.07 67.2693 1428.23 61.0714 Q1431.43 54.833 1431.43 42.3968 Q1431.43 29.92 1428.23 23.7221 Q1425.07 17.4837 1418.71 17.4837 M1418.71 11.0023 Q1428.88 11.0023 1434.22 19.0636 Q1439.61 27.0843 1439.61 42.3968 Q1439.61 57.6687 1434.22 65.73 Q1428.88 73.7508 1418.71 73.7508 Q1408.54 73.7508 1403.15 65.73 Q1397.81 57.6687 1397.81 42.3968 Q1397.81 27.0843 1403.15 19.0636 Q1408.54 11.0023 1418.71 11.0023 Z" fill="#000000" fill-rule="evenodd" fill-opacity="1" /><path clip-path="url(#clip310)" d="M1471.49 17.4837 Q1465.17 17.4837 1461.97 23.7221 Q1458.81 29.92 1458.81 42.3968 Q1458.81 54.833 1461.97 61.0714 Q1465.17 67.2693 1471.49 67.2693 Q1477.85 67.2693 1481.01 61.0714 Q1484.21 54.833 1484.21 42.3968 Q1484.21 29.92 1481.01 23.7221 Q1477.85 17.4837 1471.49 17.4837 M1471.49 11.0023 Q1481.66 11.0023 1487.01 19.0636 Q1492.39 27.0843 1492.39 42.3968 Q1492.39 57.6687 1487.01 65.73 Q1481.66 73.7508 1471.49 73.7508 Q1461.32 73.7508 1455.94 65.73 Q1450.59 57.6687 1450.59 42.3968 Q1450.59 27.0843 1455.94 19.0636 Q1461.32 11.0023 1471.49 11.0023 Z" fill="#000000" fill-rule="evenodd" fill-opacity="1" /><path clip-path="url(#clip310)" d="M1524.27 17.4837 Q1517.95 17.4837 1514.75 23.7221 Q1511.6 29.92 1511.6 42.3968 Q1511.6 54.833 1514.75 61.0714 Q1517.95 67.2693 1524.27 67.2693 Q1530.63 67.2693 1533.79 61.0714 Q1536.99 54.833 1536.99 42.3968 Q1536.99 29.92 1533.79 23.7221 Q1530.63 17.4837 1524.27 17.4837 M1524.27 11.0023 Q1534.44 11.0023 1539.79 19.0636 Q1545.18 27.0843 1545.18 42.3968 Q1545.18 57.6687 1539.79 65.73 Q1534.44 73.7508 1524.27 73.7508 Q1514.11 73.7508 1508.72 65.73 Q1503.37 57.6687 1503.37 42.3968 Q1503.37 27.0843 1508.72 19.0636 Q1514.11 11.0023 1524.27 11.0023 Z" fill="#000000" fill-rule="evenodd" fill-opacity="1" /><path clip-path="url(#clip310)" d="M1577.06 17.4837 Q1570.74 17.4837 1567.54 23.7221 Q1564.38 29.92 1564.38 42.3968 Q1564.38 54.833 1567.54 61.0714 Q1570.74 67.2693 1577.06 67.2693 Q1583.42 67.2693 1586.58 61.0714 Q1589.78 54.833 1589.78 42.3968 Q1589.78 29.92 1586.58 23.7221 Q1583.42 17.4837 1577.06 17.4837 M1577.06 11.0023 Q1587.23 11.0023 1592.57 19.0636 Q1597.96 27.0843 1597.96 42.3968 Q1597.96 57.6687 1592.57 65.73 Q1587.23 73.7508 1577.06 73.7508 Q1566.89 73.7508 1561.5 65.73 Q1556.15 57.6687 1556.15 42.3968 Q1556.15 27.0843 1561.5 19.0636 Q1566.89 11.0023 1577.06 11.0023 Z" fill="#000000" fill-rule="evenodd" fill-opacity="1" /><path clip-path="url(#clip310)" d="M1629.84 17.4837 Q1623.52 17.4837 1620.32 23.7221 Q1617.16 29.92 1617.16 42.3968 Q1617.16 54.833 1620.32 61.0714 Q1623.52 67.2693 1629.84 67.2693 Q1636.2 67.2693 1639.36 61.0714 Q1642.56 54.833 1642.56 42.3968 Q1642.56 29.92 1639.36 23.7221 Q1636.2 17.4837 1629.84 17.4837 M1629.84 11.0023 Q1640.01 11.0023 1645.36 19.0636 Q1650.74 27.0843 1650.74 42.3968 Q1650.74 57.6687 1645.36 65.73 Q1640.01 73.7508 1629.84 73.7508 Q1619.67 73.7508 1614.29 65.73 Q1608.94 57.6687 1608.94 42.3968 Q1608.94 27.0843 1614.29 19.0636 Q1619.67 11.0023 1629.84 11.0023 Z" fill="#000000" fill-rule="evenodd" fill-opacity="1" /><path clip-path="url(#clip310)" d="M1682.62 17.4837 Q1676.3 17.4837 1673.1 23.7221 Q1669.94 29.92 1669.94 42.3968 Q1669.94 54.833 1673.1 61.0714 Q1676.3 67.2693 1682.62 67.2693 Q1688.98 67.2693 1692.14 61.0714 Q1695.34 54.833 1695.34 42.3968 Q1695.34 29.92 1692.14 23.7221 Q1688.98 17.4837 1682.62 17.4837 M1682.62 11.0023 Q1692.79 11.0023 1698.14 19.0636 Q1703.53 27.0843 1703.53 42.3968 Q1703.53 57.6687 1698.14 65.73 Q1692.79 73.7508 1682.62 73.7508 Q1672.46 73.7508 1667.07 65.73 Q1661.72 57.6687 1661.72 42.3968 Q1661.72 27.0843 1667.07 19.0636 Q1672.46 11.0023 1682.62 11.0023 Z" fill="#000000" fill-rule="evenodd" fill-opacity="1" /><path clip-path="url(#clip310)" d="M1735.41 17.4837 Q1729.09 17.4837 1725.89 23.7221 Q1722.73 29.92 1722.73 42.3968 Q1722.73 54.833 1725.89 61.0714 Q1729.09 67.2693 1735.41 67.2693 Q1741.77 67.2693 1744.93 61.0714 Q1748.13 54.833 1748.13 42.3968 Q1748.13 29.92 1744.93 23.7221 Q1741.77 17.4837 1735.41 17.4837 M1735.41 11.0023 Q1745.58 11.0023 1750.92 19.0636 Q1756.31 27.0843 1756.31 42.3968 Q1756.31 57.6687 1750.92 65.73 Q1745.58 73.7508 1735.41 73.7508 Q1725.24 73.7508 1719.85 65.73 Q1714.5 57.6687 1714.5 42.3968 Q1714.5 27.0843 1719.85 19.0636 Q1725.24 11.0023 1735.41 11.0023 Z" fill="#000000" fill-rule="evenodd" fill-opacity="1" /><path clip-path="url(#clip310)" d="M1788.19 17.4837 Q1781.87 17.4837 1778.67 23.7221 Q1775.51 29.92 1775.51 42.3968 Q1775.51 54.833 1778.67 61.0714 Q1781.87 67.2693 1788.19 67.2693 Q1794.55 67.2693 1797.71 61.0714 Q1800.91 54.833 1800.91 42.3968 Q1800.91 29.92 1797.71 23.7221 Q1794.55 17.4837 1788.19 17.4837 M1788.19 11.0023 Q1798.36 11.0023 1803.71 19.0636 Q1809.09 27.0843 1809.09 42.3968 Q1809.09 57.6687 1803.71 65.73 Q1798.36 73.7508 1788.19 73.7508 Q1778.02 73.7508 1772.64 65.73 Q1767.29 57.6687 1767.29 42.3968 Q1767.29 27.0843 1772.64 19.0636 Q1778.02 11.0023 1788.19 11.0023 Z" fill="#000000" fill-rule="evenodd" fill-opacity="1" /><path clip-path="url(#clip310)" d="M1840.97 17.4837 Q1834.65 17.4837 1831.45 23.7221 Q1828.29 29.92 1828.29 42.3968 Q1828.29 54.833 1831.45 61.0714 Q1834.65 67.2693 1840.97 67.2693 Q1847.33 67.2693 1850.49 61.0714 Q1853.69 54.833 1853.69 42.3968 Q1853.69 29.92 1850.49 23.7221 Q1847.33 17.4837 1840.97 17.4837 M1840.97 11.0023 Q1851.14 11.0023 1856.49 19.0636 Q1861.88 27.0843 1861.88 42.3968 Q1861.88 57.6687 1856.49 65.73 Q1851.14 73.7508 1840.97 73.7508 Q1830.81 73.7508 1825.42 65.73 Q1820.07 57.6687 1820.07 42.3968 Q1820.07 27.0843 1825.42 19.0636 Q1830.81 11.0023 1840.97 11.0023 Z" fill="#000000" fill-rule="evenodd" fill-opacity="1" /><path clip-path="url(#clip310)" d="M1893.76 17.4837 Q1887.44 17.4837 1884.24 23.7221 Q1881.08 29.92 1881.08 42.3968 Q1881.08 54.833 1884.24 61.0714 Q1887.44 67.2693 1893.76 67.2693 Q1900.12 67.2693 1903.28 61.0714 Q1906.48 54.833 1906.48 42.3968 Q1906.48 29.92 1903.28 23.7221 Q1900.12 17.4837 1893.76 17.4837 M1893.76 11.0023 Q1903.93 11.0023 1909.27 19.0636 Q1914.66 27.0843 1914.66 42.3968 Q1914.66 57.6687 1909.27 65.73 Q1903.93 73.7508 1893.76 73.7508 Q1883.59 73.7508 1878.2 65.73 Q1872.85 57.6687 1872.85 42.3968 Q1872.85 27.0843 1878.2 19.0636 Q1883.59 11.0023 1893.76 11.0023 Z" fill="#000000" fill-rule="evenodd" fill-opacity="1" /><path clip-path="url(#clip310)" d="M1946.54 17.4837 Q1940.22 17.4837 1937.02 23.7221 Q1933.86 29.92 1933.86 42.3968 Q1933.86 54.833 1937.02 61.0714 Q1940.22 67.2693 1946.54 67.2693 Q1952.9 67.2693 1956.06 61.0714 Q1959.26 54.833 1959.26 42.3968 Q1959.26 29.92 1956.06 23.7221 Q1952.9 17.4837 1946.54 17.4837 M1946.54 11.0023 Q1956.71 11.0023 1962.06 19.0636 Q1967.44 27.0843 1967.44 42.3968 Q1967.44 57.6687 1962.06 65.73 Q1956.71 73.7508 1946.54 73.7508 Q1936.37 73.7508 1930.99 65.73 Q1925.64 57.6687 1925.64 42.3968 Q1925.64 27.0843 1930.99 19.0636 Q1936.37 11.0023 1946.54 11.0023 Z" fill="#000000" fill-rule="evenodd" fill-opacity="1" /><path clip-path="url(#clip310)" d="M1982.07 71.3202 L1982.07 63.8666 Q1985.15 65.3249 1988.31 66.0946 Q1991.47 66.8642 1994.5 66.8642 Q2002.61 66.8642 2006.86 61.436 Q2011.15 55.9673 2011.76 44.8678 Q2009.41 48.3516 2005.81 50.215 Q2002.2 52.0784 1997.83 52.0784 Q1988.75 52.0784 1983.44 46.6097 Q1978.18 41.1005 1978.18 31.5808 Q1978.18 22.2638 1983.69 16.633 Q1989.2 11.0023 1998.35 11.0023 Q2008.84 11.0023 2014.35 19.0636 Q2019.9 27.0843 2019.9 42.3968 Q2019.9 56.6965 2013.1 65.2439 Q2006.33 73.7508 1994.87 73.7508 Q1991.79 73.7508 1988.63 73.1431 Q1985.47 72.5355 1982.07 71.3202 M1998.35 45.678 Q2003.86 45.678 2007.06 41.9107 Q2010.3 38.1433 2010.3 31.5808 Q2010.3 25.0589 2007.06 21.2916 Q2003.86 17.4837 1998.35 17.4837 Q1992.84 17.4837 1989.6 21.2916 Q1986.4 25.0589 1986.4 31.5808 Q1986.4 38.1433 1989.6 41.9107 Q1992.84 45.678 1998.35 45.678 Z" fill="#000000" fill-rule="evenodd" fill-opacity="1" /><path clip-path="url(#clip310)" d="M2036.03 65.6895 L2049.39 65.6895 L2049.39 19.5497 L2034.85 22.4663 L2034.85 15.0127 L2049.31 12.096 L2057.49 12.096 L2057.49 65.6895 L2070.86 65.6895 L2070.86 72.576 L2036.03 72.576 L2036.03 65.6895 Z" fill="#000000" fill-rule="evenodd" fill-opacity="1" /><polyline clip-path="url(#clip312)" style="stroke:#009af9; stroke-linecap:butt; stroke-linejoin:round; stroke-width:20; stroke-opacity:1; fill:none" points="
  607.438,1247.16 663.921,1278.59 720.404,1305.53 776.887,1327.97 833.369,1345.93 889.852,1359.4 946.335,1368.38 1002.82,1372.87 1059.3,1372.87 1115.78,1368.38 
  1172.27,1359.4 1228.75,1345.93 1285.23,1327.97 1341.71,1305.53 1398.2,1278.59 1454.68,1247.16 1511.16,1211.25 1567.65,1170.84 1624.13,1125.95 1680.61,1076.57 
  1737.09,1022.69 1793.58,964.333 1850.06,901.482 1906.54,834.141 1963.02,762.311 2019.51,685.991 2075.99,605.183 2132.47,519.884 2188.96,430.097 2245.44,335.82 
  2301.92,237.053 
  "/>
<polyline clip-path="url(#clip312)" style="stroke:#e26f46; stroke-linecap:butt; stroke-linejoin:round; stroke-width:4; stroke-opacity:1; fill:none" points="
  607.438,1260.63 663.921,1278.59 720.404,1296.55 776.887,1314.5 833.369,1332.46 889.852,1350.42 946.335,1368.38 1002.82,1386.33 1059.3,1404.29 1115.78,1422.25 
  1172.27,1440.21 1228.75,1458.16 1285.23,1476.12 1341.71,1494.08 1398.2,1512.04 1454.68,1529.99 1511.16,1547.95 1567.65,1565.91 1624.13,1583.87 1680.61,1601.82 
  1737.09,1619.78 1793.58,1637.74 1850.06,1655.7 1906.54,1673.66 1963.02,1691.61 2019.51,1709.57 2075.99,1727.53 2132.47,1745.49 2188.96,1763.44 2245.44,1781.4 
  2301.92,1799.36 
  "/>
<polyline clip-path="url(#clip312)" style="stroke:#3da44d; stroke-linecap:butt; stroke-linejoin:round; stroke-width:4; stroke-opacity:1; fill:none" points="
  607.438,1359.4 663.921,1363.14 720.404,1366.88 776.887,1370.62 833.369,1374.36 889.852,1378.1 946.335,1381.85 1002.82,1385.59 1059.3,1389.33 1115.78,1393.07 
  1172.27,1396.81 1228.75,1400.55 1285.23,1404.29 1341.71,1408.03 1398.2,1411.77 1454.68,1415.52 1511.16,1419.26 1567.65,1423 1624.13,1426.74 1680.61,1430.48 
  1737.09,1434.22 1793.58,1437.96 1850.06,1441.7 1906.54,1445.44 1963.02,1449.19 2019.51,1452.93 2075.99,1456.67 2132.47,1460.41 2188.96,1464.15 2245.44,1467.89 
  2301.92,1471.63 
  "/>
<polyline clip-path="url(#clip312)" style="stroke:#c271d2; stroke-linecap:butt; stroke-linejoin:round; stroke-width:4; stroke-opacity:1; fill:none" points="
  607.438,1480.61 663.921,1467.14 720.404,1453.68 776.887,1440.21 833.369,1426.74 889.852,1413.27 946.335,1399.8 1002.82,1386.33 1059.3,1372.87 1115.78,1359.4 
  1172.27,1345.93 1228.75,1332.46 1285.23,1318.99 1341.71,1305.53 1398.2,1292.06 1454.68,1278.59 1511.16,1265.12 1567.65,1251.65 1624.13,1238.19 1680.61,1224.72 
  1737.09,1211.25 1793.58,1197.78 1850.06,1184.31 1906.54,1170.84 1963.02,1157.38 2019.51,1143.91 2075.99,1130.44 2132.47,1116.97 2188.96,1103.5 2245.44,1090.04 
  2301.92,1076.57 
  "/>
<polyline clip-path="url(#clip312)" style="stroke:#ac8d18; stroke-linecap:butt; stroke-linejoin:round; stroke-width:4; stroke-opacity:1; fill:none" points="
  607.438,2001.38 663.921,1952 720.404,1902.61 776.887,1853.23 833.369,1803.85 889.852,1754.46 946.335,1705.08 1002.82,1655.7 1059.3,1606.31 1115.78,1556.93 
  1172.27,1507.55 1228.75,1458.16 1285.23,1408.78 1341.71,1359.4 1398.2,1310.02 1454.68,1260.63 1511.16,1211.25 1567.65,1161.87 1624.13,1112.48 1680.61,1063.1 
  1737.09,1013.72 1793.58,964.333 1850.06,914.95 1906.54,865.567 1963.02,816.183 2019.51,766.8 2075.99,717.417 2132.47,668.034 2188.96,618.651 2245.44,569.268 
  2301.92,519.884 
  "/>
<polyline clip-path="url(#clip312)" style="stroke:#00a9ad; stroke-linecap:butt; stroke-linejoin:round; stroke-width:4; stroke-opacity:1; fill:none" points="
  607.438,2809.47 663.921,2724.17 720.404,2638.87 776.887,2553.57 833.369,2468.28 889.852,2382.98 946.335,2297.68 1002.82,2212.38 1059.3,2127.08 1115.78,2041.78 
  1172.27,1956.49 1228.75,1871.19 1285.23,1785.89 1341.71,1700.59 1398.2,1615.29 1454.68,1529.99 1511.16,1444.7 1567.65,1359.4 1624.13,1274.1 1680.61,1188.8 
  1737.09,1103.5 1793.58,1018.21 1850.06,932.907 1906.54,847.609 1963.02,762.311 2019.51,677.013 2075.99,591.714 2132.47,506.416 2188.96,421.118 2245.44,335.82 
  2301.92,250.522 
  "/>
<path clip-path="url(#clip310)" d="
M66.9602 531.785 L355.43 531.785 L355.43 168.905 L66.9602 168.905  Z
  " fill="#ffffff" fill-rule="evenodd" fill-opacity="1"/>
<polyline clip-path="url(#clip310)" style="stroke:#000000; stroke-linecap:butt; stroke-linejoin:round; stroke-width:4; stroke-opacity:1; fill:none" points="
  66.9602,531.785 355.43,531.785 355.43,168.905 66.9602,168.905 66.9602,531.785 
  "/>
<polyline clip-path="url(#clip310)" style="stroke:#009af9; stroke-linecap:butt; stroke-linejoin:round; stroke-width:4; stroke-opacity:1; fill:none" points="
  91.5386,220.745 239.009,220.745 
  "/>
<path clip-path="url(#clip310)" d="M280.092 202.006 L280.092 205.548 L276.018 205.548 Q273.727 205.548 272.824 206.474 Q271.944 207.4 271.944 209.807 L271.944 212.099 L278.958 212.099 L278.958 215.409 L271.944 215.409 L271.944 238.025 L267.662 238.025 L267.662 215.409 L263.588 215.409 L263.588 212.099 L267.662 212.099 L267.662 210.293 Q267.662 205.965 269.676 203.997 Q271.69 202.006 276.065 202.006 L280.092 202.006 Z" fill="#000000" fill-rule="evenodd" fill-opacity="1" /><polyline clip-path="url(#clip310)" style="stroke:#e26f46; stroke-linecap:butt; stroke-linejoin:round; stroke-width:4; stroke-opacity:1; fill:none" points="
  91.5386,272.585 239.009,272.585 
  "/>
<path clip-path="url(#clip310)" d="M278.773 267.92 Q278.055 267.504 277.199 267.318 Q276.365 267.11 275.347 267.11 Q271.736 267.11 269.791 269.471 Q267.87 271.809 267.87 276.207 L267.87 289.865 L263.588 289.865 L263.588 263.939 L267.87 263.939 L267.87 267.967 Q269.213 265.606 271.366 264.471 Q273.518 263.314 276.597 263.314 Q277.037 263.314 277.569 263.383 Q278.102 263.43 278.75 263.545 L278.773 267.92 Z" fill="#000000" fill-rule="evenodd" fill-opacity="1" /><path clip-path="url(#clip310)" d="M284.652 285.929 L292.291 285.929 L292.291 259.564 L283.981 261.231 L283.981 256.971 L292.245 255.305 L296.921 255.305 L296.921 285.929 L304.56 285.929 L304.56 289.865 L284.652 289.865 L284.652 285.929 Z" fill="#000000" fill-rule="evenodd" fill-opacity="1" /><polyline clip-path="url(#clip310)" style="stroke:#3da44d; stroke-linecap:butt; stroke-linejoin:round; stroke-width:4; stroke-opacity:1; fill:none" points="
  91.5386,324.425 239.009,324.425 
  "/>
<path clip-path="url(#clip310)" d="M278.773 319.76 Q278.055 319.344 277.199 319.158 Q276.365 318.95 275.347 318.95 Q271.736 318.95 269.791 321.311 Q267.87 323.649 267.87 328.047 L267.87 341.705 L263.588 341.705 L263.588 315.779 L267.87 315.779 L267.87 319.807 Q269.213 317.446 271.366 316.311 Q273.518 315.154 276.597 315.154 Q277.037 315.154 277.569 315.223 Q278.102 315.27 278.75 315.385 L278.773 319.76 Z" fill="#000000" fill-rule="evenodd" fill-opacity="1" /><path clip-path="url(#clip310)" d="M287.87 337.769 L304.189 337.769 L304.189 341.705 L282.245 341.705 L282.245 337.769 Q284.907 335.015 289.49 330.385 Q294.097 325.733 295.277 324.39 Q297.523 321.867 298.402 320.131 Q299.305 318.371 299.305 316.682 Q299.305 313.927 297.361 312.191 Q295.439 310.455 292.338 310.455 Q290.139 310.455 287.685 311.219 Q285.254 311.983 282.477 313.534 L282.477 308.811 Q285.301 307.677 287.754 307.098 Q290.208 306.52 292.245 306.52 Q297.615 306.52 300.81 309.205 Q304.004 311.89 304.004 316.381 Q304.004 318.51 303.194 320.432 Q302.407 322.33 300.301 324.922 Q299.722 325.594 296.62 328.811 Q293.518 332.006 287.87 337.769 Z" fill="#000000" fill-rule="evenodd" fill-opacity="1" /><polyline clip-path="url(#clip310)" style="stroke:#c271d2; stroke-linecap:butt; stroke-linejoin:round; stroke-width:4; stroke-opacity:1; fill:none" points="
  91.5386,376.265 239.009,376.265 
  "/>
<path clip-path="url(#clip310)" d="M278.773 371.6 Q278.055 371.184 277.199 370.998 Q276.365 370.79 275.347 370.79 Q271.736 370.79 269.791 373.151 Q267.87 375.489 267.87 379.887 L267.87 393.545 L263.588 393.545 L263.588 367.619 L267.87 367.619 L267.87 371.647 Q269.213 369.286 271.366 368.151 Q273.518 366.994 276.597 366.994 Q277.037 366.994 277.569 367.063 Q278.102 367.11 278.75 367.225 L278.773 371.6 Z" fill="#000000" fill-rule="evenodd" fill-opacity="1" /><path clip-path="url(#clip310)" d="M298.009 374.91 Q301.365 375.628 303.24 377.897 Q305.138 380.165 305.138 383.498 Q305.138 388.614 301.62 391.415 Q298.101 394.216 291.62 394.216 Q289.444 394.216 287.129 393.776 Q284.838 393.359 282.384 392.503 L282.384 387.989 Q284.328 389.123 286.643 389.702 Q288.958 390.281 291.481 390.281 Q295.879 390.281 298.171 388.545 Q300.486 386.809 300.486 383.498 Q300.486 380.443 298.333 378.73 Q296.203 376.994 292.384 376.994 L288.356 376.994 L288.356 373.151 L292.569 373.151 Q296.018 373.151 297.847 371.786 Q299.676 370.397 299.676 367.804 Q299.676 365.142 297.777 363.73 Q295.902 362.295 292.384 362.295 Q290.463 362.295 288.264 362.711 Q286.065 363.128 283.426 364.008 L283.426 359.841 Q286.088 359.1 288.402 358.73 Q290.74 358.36 292.801 358.36 Q298.125 358.36 301.226 360.79 Q304.328 363.198 304.328 367.318 Q304.328 370.188 302.685 372.179 Q301.041 374.147 298.009 374.91 Z" fill="#000000" fill-rule="evenodd" fill-opacity="1" /><polyline clip-path="url(#clip310)" style="stroke:#ac8d18; stroke-linecap:butt; stroke-linejoin:round; stroke-width:4; stroke-opacity:1; fill:none" points="
  91.5386,428.105 239.009,428.105 
  "/>
<path clip-path="url(#clip310)" d="M278.773 423.44 Q278.055 423.024 277.199 422.838 Q276.365 422.63 275.347 422.63 Q271.736 422.63 269.791 424.991 Q267.87 427.329 267.87 431.727 L267.87 445.385 L263.588 445.385 L263.588 419.459 L267.87 419.459 L267.87 423.487 Q269.213 421.126 271.366 419.991 Q273.518 418.834 276.597 418.834 Q277.037 418.834 277.569 418.903 Q278.102 418.95 278.75 419.065 L278.773 423.44 Z" fill="#000000" fill-rule="evenodd" fill-opacity="1" /><path clip-path="url(#clip310)" d="M296.689 414.899 L284.884 433.348 L296.689 433.348 L296.689 414.899 M295.463 410.825 L301.342 410.825 L301.342 433.348 L306.273 433.348 L306.273 437.237 L301.342 437.237 L301.342 445.385 L296.689 445.385 L296.689 437.237 L281.088 437.237 L281.088 432.723 L295.463 410.825 Z" fill="#000000" fill-rule="evenodd" fill-opacity="1" /><polyline clip-path="url(#clip310)" style="stroke:#00a9ad; stroke-linecap:butt; stroke-linejoin:round; stroke-width:4; stroke-opacity:1; fill:none" points="
  91.5386,479.945 239.009,479.945 
  "/>
<path clip-path="url(#clip310)" d="M278.773 475.28 Q278.055 474.864 277.199 474.678 Q276.365 474.47 275.347 474.47 Q271.736 474.47 269.791 476.831 Q267.87 479.169 267.87 483.567 L267.87 497.225 L263.588 497.225 L263.588 471.299 L267.87 471.299 L267.87 475.327 Q269.213 472.966 271.366 471.831 Q273.518 470.674 276.597 470.674 Q277.037 470.674 277.569 470.743 Q278.102 470.79 278.75 470.905 L278.773 475.28 Z" fill="#000000" fill-rule="evenodd" fill-opacity="1" /><path clip-path="url(#clip310)" d="M283.889 462.665 L302.245 462.665 L302.245 466.6 L288.171 466.6 L288.171 475.072 Q289.189 474.725 290.208 474.563 Q291.227 474.378 292.245 474.378 Q298.032 474.378 301.412 477.549 Q304.791 480.72 304.791 486.137 Q304.791 491.715 301.319 494.817 Q297.847 497.896 291.527 497.896 Q289.352 497.896 287.083 497.526 Q284.838 497.155 282.43 496.414 L282.43 491.715 Q284.514 492.85 286.736 493.405 Q288.958 493.961 291.435 493.961 Q295.439 493.961 297.777 491.854 Q300.115 489.748 300.115 486.137 Q300.115 482.526 297.777 480.419 Q295.439 478.313 291.435 478.313 Q289.56 478.313 287.685 478.729 Q285.833 479.146 283.889 480.026 L283.889 462.665 Z" fill="#000000" fill-rule="evenodd" fill-opacity="1" /></svg>
